<?xml version="1.0" encoding="UTF-8"?>
<svg xmlns="http://www.w3.org/2000/svg" xmlns:xlink="http://www.w3.org/1999/xlink" version="1.2" >
<font id="Navigo ExtraLight">
<font-face  font-family="Navigo" units-per-em="1000" ascent="750" descent="-250" font-style="normal" font-weight="100" font-stretch="normal" cap-height="750" x-height="493" underline-position="-50" underline-thickness="50" />
<missing-glyph  horiz-adv-x="598" d="M99 -250 L499 -250 L499 750 L99 750 L99 -250 Z M149 -200 L149 700 L449 700 L449 -200 L149 -200 Z " />
<glyph glyph-name="NULL" d="" />
<glyph glyph-name="CR" unicode="&#xd;" horiz-adv-x="250" d="" />
<glyph glyph-name="space" unicode="&#x20;" horiz-adv-x="266" d="" />
<glyph glyph-name="exclam" unicode="&#x21;" horiz-adv-x="257" d="M103 212 L149 212 L157 750 L95 750 L103 212 Z M90 0 L167 0 L167 77 L90 77 L90 0 Z " />
<glyph glyph-name="quotedbl" unicode="&#x22;" horiz-adv-x="329" d="M76 510 L120 510 L130 750 L68 750 L76 510 Z M208 510 L252 510 L262 750 L200 750 L208 510 Z " />
<glyph glyph-name="numbersign" unicode="&#x23;" horiz-adv-x="606" d="M333 0 L387 0 L417 204 L532 204 L532 252 L425 252 L457 474 L562 474 L562 522 L465 522 L498 750 L444 750 L411 522 L238 522 L271 750 L217 750 L183 522 L73 522 L73 474 L176 474 L143 252 L43 252 L43 204 L136 204 L106 0 L160 0 L190 204 L363 204 L333 0 Z M371 252 L198 252 L230 474 L403 474 L371 252 Z " />
<glyph glyph-name="dollar" unicode="&#x24;" horiz-adv-x="570" d="M289 -10 C427 -10 521 67 521 195 C521 312 447 368 321 402 L312 404 L334 706 C422 688 450 623 457 573 L499 573 L499 612 C486 685 434 741 338 756 L347 876 L296 876 L287 760 L286 760 C135 760 54 673 54 570 C54 467 110 399 254 362 L258 361 L235 44 C156 59 108 108 83 182 L41 182 L41 143 C65 75 122 11 231 -6 L221 -143 L271 -143 L281 -10 L289 -10 Z M111 572 C111 654 170 711 284 711 L262 418 C175 443 111 482 111 572 L111 572 Z M464 195 C464 86 388 39 290 39 L285 39 L308 347 C435 310 464 259 464 195 L464 195 Z " />
<glyph glyph-name="percent" unicode="&#x25;" horiz-adv-x="1002" d="M240 -26 L299 -26 L759 762 L700 762 L240 -26 Z M235 344 C354 344 434 429 434 552 C434 674 352 760 235 760 C118 760 37 675 37 552 C37 431 115 344 235 344 L235 344 Z M235 394 C140 394 96 469 96 552 C96 635 141 710 235 710 C328 710 375 637 375 552 C375 469 330 394 235 394 L235 394 Z M766 -13 C885 -13 965 72 965 195 C965 317 883 403 766 403 C649 403 569 318 569 195 C569 74 646 -13 766 -13 L766 -13 Z M766 38 C672 38 628 113 628 195 C628 278 673 353 766 353 C860 353 906 280 906 195 C906 113 862 38 766 38 L766 38 Z " />
<glyph glyph-name="ampersand" unicode="&#x26;" horiz-adv-x="686" d="M619 0 L662 0 L662 39 L553 142 C589 206 610 287 615 364 L563 364 C558 303 541 232 513 179 C450 231 312 374 307 379 C428 438 490 495 490 591 C490 692 422 760 311 760 C194 760 123 681 123 584 C123 521 139 477 208 398 C128 360 50 303 50 192 C50 77 136 -11 284 -11 C385 -11 464 31 518 96 L619 0 Z M180 587 C180 657 231 711 310 711 C389 711 432 662 432 590 C432 519 381 462 271 413 C206 482 180 523 180 587 L180 587 Z M288 39 C174 39 108 106 108 195 C108 289 178 333 241 362 C248 355 407 199 480 133 C438 79 373 39 288 39 L288 39 Z " />
<glyph glyph-name="quotesingle" unicode="&#x27;" horiz-adv-x="197" d="M76 510 L120 510 L130 750 L68 750 L76 510 Z " />
<glyph glyph-name="parenleft" unicode="&#x28;" horiz-adv-x="364" d="M349 -230 L349 -181 C232 -130 108 28 108 268 C108 508 225 659 349 717 L349 766 C164 703 49 525 49 268 C49 11 164 -167 349 -230 L349 -230 Z " />
<glyph glyph-name="parenright" unicode="&#x29;" horiz-adv-x="364" d="M15 -230 C200 -167 315 11 315 268 C315 525 200 703 15 766 L15 717 C140 659 256 508 256 268 C256 28 139 -123 15 -181 L15 -230 Z " />
<glyph glyph-name="asterisk" unicode="&#x2a;" horiz-adv-x="453" d="M151 406 L226 534 L306 406 L358 445 L261 562 L399 587 L383 645 L249 602 L258 750 L194 750 L204 603 L70 645 L52 587 L192 562 L98 444 L151 406 Z " />
<glyph glyph-name="plus" unicode="&#x2b;" horiz-adv-x="502" d="M454 324 L454 371 L276 371 L276 569 L226 569 L226 371 L48 371 L48 324 L226 324 L226 125 L276 125 L276 324 L454 324 Z " />
<glyph glyph-name="comma" unicode="&#x2c;" horiz-adv-x="220" d="M74 -96 L111 -96 L146 13 L146 77 L74 77 L74 -96 Z " />
<glyph glyph-name="hyphen" unicode="&#x2d;" horiz-adv-x="412" d="M71 303 L341 303 L341 350 L71 350 L71 303 Z " />
<glyph glyph-name="period" unicode="&#x2e;" horiz-adv-x="218" d="M71 0 L147 0 L147 77 L71 77 L71 0 Z " />
<glyph glyph-name="slash" unicode="&#x2f;" horiz-adv-x="511" d="M29 -250 L88 -250 L482 819 L423 819 L29 -250 Z " />
<glyph glyph-name="zero" unicode="0" horiz-adv-x="622" d="M311 -10 C474 -10 549 113 549 264 L549 486 C549 638 477 760 311 760 C148 760 73 638 73 486 L73 264 C73 113 145 -10 311 -10 L311 -10 Z M311 39 C210 39 132 105 132 261 L132 489 C132 646 213 711 311 711 C412 711 490 646 490 489 L490 261 C490 105 409 39 311 39 L311 39 Z " />
<glyph glyph-name="one" unicode="1" horiz-adv-x="355" d="M187 0 L245 0 L245 750 L196 750 L23 608 L23 572 L59 572 L187 679 L187 0 Z " />
<glyph glyph-name="two" unicode="2" horiz-adv-x="537" d="M491 0 L491 55 L130 55 L321 277 C403 372 467 450 467 563 C467 692 383 760 257 760 C98 760 55 627 52 602 L52 563 L95 563 C103 638 162 711 256 711 C352 711 409 656 409 565 C409 474 360 401 281 310 L54 49 L54 0 L491 0 Z " />
<glyph glyph-name="three" unicode="3" horiz-adv-x="578" d="M287 -9 C434 -9 522 80 522 207 C522 308 462 375 370 399 C446 431 490 492 490 580 C490 682 417 760 282 760 C150 760 85 663 75 605 L75 566 L119 566 C127 632 176 711 281 711 C382 711 432 653 432 574 C432 486 370 416 275 416 L206 416 L206 368 L281 368 C410 368 464 290 464 207 C464 97 390 40 287 40 C172 40 106 121 96 209 L51 209 L51 170 C60 98 125 -9 287 -9 L287 -9 Z " />
<glyph glyph-name="four" unicode="4" horiz-adv-x="597" d="M559 206 L559 254 L458 254 L458 750 L411 750 L21 240 L21 206 L399 206 L399 -10 L458 -10 L458 206 L559 206 Z M399 254 L91 254 L399 656 L399 254 Z " />
<glyph glyph-name="five" unicode="5" horiz-adv-x="566" d="M280 -9 C432 -9 519 95 519 239 C519 394 404 471 284 471 C226 471 164 452 136 423 L169 695 L477 695 L477 750 L121 750 L79 379 L130 366 C158 399 212 422 279 422 C385 422 461 349 461 239 C461 115 391 40 278 40 C158 40 98 142 89 206 L47 206 L47 167 C56 117 116 -9 280 -9 L280 -9 Z " />
<glyph glyph-name="six" unicode="6" horiz-adv-x="580" d="M299 -9 C454 -9 545 100 545 233 C545 366 456 473 304 473 C253 473 189 451 153 408 C183 451 250 535 297 595 L394 725 L394 760 L356 760 L264 639 C101 425 51 356 51 233 C51 101 142 -9 299 -9 L299 -9 Z M299 40 C181 40 110 116 110 233 C110 350 186 424 299 424 C419 424 486 351 486 233 C486 117 414 40 299 40 L299 40 Z " />
<glyph glyph-name="seven" unicode="7" horiz-adv-x="472" d="M112 -10 L154 -10 C230 198 350 480 450 708 L450 750 L23 750 L23 698 L387 698 C295 480 177 202 112 31 L112 -10 Z " />
<glyph glyph-name="eight" unicode="8" horiz-adv-x="593" d="M296 -10 C451 -10 537 84 537 209 C537 277 504 366 401 401 C471 433 507 493 507 567 C507 673 431 760 296 760 C159 760 85 673 85 567 C85 508 108 438 191 401 C89 368 56 277 56 209 C56 84 143 -10 296 -10 L296 -10 Z M296 420 C187 420 141 488 141 567 C141 643 188 711 296 711 C403 711 451 643 451 567 C451 488 403 420 296 420 L296 420 Z M296 40 C177 40 116 110 116 209 C116 297 173 375 296 375 C420 375 477 297 477 209 C477 110 417 40 296 40 L296 40 Z " />
<glyph glyph-name="nine" unicode="9" horiz-adv-x="580" d="M167 -10 L206 -10 C226 15 331 136 344 153 C466 298 529 388 529 522 C529 654 443 760 282 760 C129 760 36 655 36 522 C36 389 117 278 282 278 C329 278 389 296 430 348 C406 302 350 236 294 173 C282 158 182 44 167 25 L167 -10 Z M281 327 C161 327 94 404 94 522 C94 639 166 711 282 711 C405 711 471 639 471 522 C471 405 395 327 281 327 L281 327 Z " />
<glyph glyph-name="colon" unicode="&#x3a;" horiz-adv-x="218" d="M71 423 L147 423 L147 500 L71 500 L71 423 Z M71 0 L147 0 L147 77 L71 77 L71 0 Z " />
<glyph glyph-name="semicolon" unicode="&#x3b;" horiz-adv-x="219" d="M72 423 L148 423 L148 500 L72 500 L72 423 Z M72 -96 L109 -96 L144 13 L144 77 L72 77 L72 -96 Z " />
<glyph glyph-name="less" unicode="&#x3c;" horiz-adv-x="480" d="M400 90 L400 128 L109 330 L400 536 L400 570 L363 570 L50 347 L50 309 L363 90 L400 90 Z " />
<glyph glyph-name="equal" unicode="&#x3d;" horiz-adv-x="571" d="M74 382 L497 382 L497 429 L74 429 L74 382 Z M74 206 L497 206 L497 254 L74 254 L74 206 Z " />
<glyph glyph-name="greater" unicode="&#x3e;" horiz-adv-x="480" d="M118 90 L430 313 L430 351 L118 570 L80 570 L80 532 L371 330 L80 124 L80 90 L118 90 Z " />
<glyph glyph-name="question" unicode="&#x3f;" horiz-adv-x="494" d="M188 212 L243 212 C237 227 235 241 235 254 C235 362 453 391 453 573 C453 682 380 760 246 760 C69 760 38 609 38 609 L38 570 L81 570 C81 570 98 711 245 711 C341 711 394 648 394 573 C394 412 179 383 179 257 C179 243 182 227 188 212 L188 212 Z M179 0 L256 0 L256 77 L179 77 L179 0 Z " />
<glyph glyph-name="at" unicode="&#x40;" horiz-adv-x="972" d="M466 -207 C587 -207 646 -189 707 -160 L707 -114 C660 -134 594 -158 472 -158 C279 -158 111 -47 111 224 C111 492 283 657 520 657 C753 657 858 507 858 324 C858 129 758 49 618 49 L664 460 L629 460 L615 433 C615 433 584 475 513 475 C379 475 300 372 284 232 C269 93 317 -10 430 -10 C499 -10 543 38 571 93 L563 0 L597 0 C790 0 915 103 915 325 C915 546 774 707 521 707 C228 707 53 496 53 224 C53 -67 232 -207 466 -207 L466 -207 Z M447 40 C362 40 329 118 342 234 C352 326 404 431 510 431 C574 431 598 394 598 394 L579 217 C568 122 522 40 447 40 L447 40 Z " />
<glyph glyph-name="A" unicode="A" horiz-adv-x="641" d="M59 0 L150 236 L486 236 L578 0 L620 0 L620 46 L346 750 L295 750 L19 41 L19 0 L59 0 Z M467 285 L169 285 L318 676 L467 285 Z " />
<glyph glyph-name="B" unicode="B" horiz-adv-x="624" d="M105 0 L310 0 C471 0 570 74 570 209 C570 301 514 363 417 390 C506 420 539 483 539 559 C539 679 449 750 306 750 L105 750 L105 0 Z M162 409 L162 702 L305 702 C406 702 481 646 481 558 C481 454 406 409 298 409 L162 409 Z M162 48 L162 362 L312 362 C421 362 511 310 511 208 C511 101 426 48 311 48 L162 48 Z " />
<glyph glyph-name="C" unicode="C" horiz-adv-x="736" d="M415 -10 C628 -10 696 133 696 133 L696 172 L654 172 C654 172 602 39 416 39 C233 39 113 184 113 378 C113 562 219 711 415 711 C603 711 649 583 649 583 L691 583 L691 622 C691 622 630 760 414 760 C189 760 54 599 54 378 C54 160 182 -10 415 -10 L415 -10 Z " />
<glyph glyph-name="D" unicode="D" horiz-adv-x="748" d="M105 0 L317 0 C551 0 696 170 696 378 C696 583 551 750 317 750 L105 750 L105 0 Z M163 49 L163 701 L314 701 C501 701 637 567 637 378 C637 185 501 49 314 49 L163 49 Z " />
<glyph glyph-name="E" unicode="E" horiz-adv-x="570" d="M105 0 L515 0 L515 49 L163 49 L163 365 L478 365 L478 414 L163 414 L163 701 L515 701 L515 750 L105 750 L105 0 Z " />
<glyph glyph-name="F" unicode="F" horiz-adv-x="552" d="M105 0 L163 0 L163 356 L478 356 L478 405 L163 405 L163 701 L508 701 L508 750 L105 750 L105 0 Z " />
<glyph glyph-name="G" unicode="G" horiz-adv-x="778" d="M424 -10 C643 -10 712 117 712 117 L712 376 L433 376 L433 327 L654 327 L654 138 C628 105 560 39 425 39 C234 39 112 184 112 378 C112 561 219 711 424 711 C614 711 663 583 663 583 L706 583 L706 622 C706 622 644 760 423 760 C190 760 53 598 53 378 C53 160 190 -10 424 -10 L424 -10 Z " />
<glyph glyph-name="H" unicode="H" horiz-adv-x="755" d="M105 0 L163 0 L163 359 L592 359 L592 0 L650 0 L650 750 L592 750 L592 408 L163 408 L163 750 L105 750 L105 0 Z " />
<glyph glyph-name="I" unicode="I" horiz-adv-x="268" d="M105 0 L163 0 L163 750 L105 750 L105 0 Z " />
<glyph glyph-name="J" unicode="J" horiz-adv-x="426" d="M170 -10 C280 -10 328 54 328 171 L328 750 L269 750 L269 170 C269 77 237 39 168 39 C106 39 66 90 68 133 L26 133 L26 94 C28 48 80 -10 170 -10 L170 -10 Z " />
<glyph glyph-name="K" unicode="K" horiz-adv-x="612" d="M163 359 L558 0 L597 0 L597 39 L221 379 L584 714 L584 750 L548 750 L163 392 L163 750 L105 750 L105 0 L163 0 L163 359 Z " />
<glyph glyph-name="L" unicode="L" horiz-adv-x="530" d="M105 0 L508 0 L508 49 L163 49 L163 750 L105 750 L105 0 Z " />
<glyph glyph-name="M" unicode="M" horiz-adv-x="899" d="M427 187 L466 187 L735 664 L735 0 L794 0 L794 750 L729 750 L451 259 L170 750 L105 750 L105 0 L158 0 L158 661 L427 187 Z " />
<glyph glyph-name="N" unicode="N" horiz-adv-x="751" d="M105 0 L158 0 L158 651 L593 0 L646 0 L646 750 L593 750 L593 96 L158 750 L105 750 L105 0 Z " />
<glyph glyph-name="O" unicode="O" horiz-adv-x="830" d="M415 -10 C638 -10 777 155 777 378 C777 598 638 760 415 760 C192 760 53 598 53 378 C53 155 192 -10 415 -10 L415 -10 Z M415 39 C228 39 112 183 112 378 C112 569 228 711 415 711 C602 711 718 569 718 378 C718 183 602 39 415 39 L415 39 Z " />
<glyph glyph-name="P" unicode="P" horiz-adv-x="594" d="M105 0 L163 0 L163 292 L292 292 C467 292 555 401 555 529 C555 667 453 750 292 750 L105 750 L105 0 Z M163 341 L163 701 L291 701 C431 701 496 616 496 528 C496 423 427 341 291 341 L163 341 Z " />
<glyph glyph-name="Q" unicode="Q" horiz-adv-x="830" d="M764 -71 L645 67 C729 136 777 247 777 378 C777 598 638 760 415 760 C192 760 53 598 53 378 C53 155 192 -10 415 -10 C485 -10 547 6 599 36 L725 -110 L764 -110 L764 -71 Z M112 378 C112 569 228 711 415 711 C602 711 718 569 718 378 C718 265 679 169 609 108 L478 260 L439 260 L439 221 L564 76 C522 52 472 39 415 39 C228 39 112 183 112 378 L112 378 Z " />
<glyph glyph-name="R" unicode="R" horiz-adv-x="619" d="M163 0 L163 328 L296 328 L543 0 L583 0 L583 41 L358 339 C484 361 541 446 541 544 C541 673 450 750 288 750 L105 750 L105 0 L163 0 Z M163 380 L163 700 L301 700 C442 700 483 608 483 543 C483 460 431 380 301 380 L163 380 Z " />
<glyph glyph-name="S" unicode="S" horiz-adv-x="588" d="M302 -10 C440 -10 534 67 534 195 C534 312 461 368 335 402 L291 414 C195 439 124 477 124 572 C124 647 183 711 297 711 C425 711 462 632 470 573 L513 573 L513 612 C498 697 428 760 300 760 C148 760 67 673 67 570 C67 467 124 399 268 362 L303 352 C446 314 477 262 477 195 C477 93 402 39 303 39 C191 39 126 92 96 182 L54 182 L54 143 C83 64 154 -10 302 -10 L302 -10 Z " />
<glyph glyph-name="T" unicode="T" horiz-adv-x="620" d="M280 0 L339 0 L339 701 L601 701 L601 750 L19 750 L19 701 L280 701 L280 0 Z " />
<glyph glyph-name="U" unicode="U" horiz-adv-x="729" d="M366 -10 C535 -10 633 102 633 270 L633 750 L580 750 L580 269 C580 131 505 39 366 39 C232 39 155 131 155 269 L155 750 L96 750 L96 270 C96 102 196 -10 366 -10 L366 -10 Z " />
<glyph glyph-name="V" unicode="V" horiz-adv-x="663" d="M304 0 L358 0 L648 713 L648 750 L607 750 L334 72 L60 750 L17 750 L17 708 L304 0 Z " />
<glyph glyph-name="W" unicode="W" horiz-adv-x="966" d="M673 0 L725 0 L942 713 L942 750 L900 750 L700 95 L507 750 L465 750 L269 94 L70 750 L26 750 L26 708 L241 0 L293 0 L483 643 L673 0 Z " />
<glyph glyph-name="X" unicode="X" horiz-adv-x="629" d="M28 0 L65 0 L312 339 L562 0 L601 0 L601 39 L348 383 L590 714 L590 750 L553 750 L316 426 L79 750 L38 750 L38 711 L282 382 L28 36 L28 0 Z " />
<glyph glyph-name="Y" unicode="Y" horiz-adv-x="611" d="M278 0 L336 0 L336 305 L594 714 L594 750 L557 750 L311 357 L49 750 L9 750 L9 711 L278 307 L278 0 Z " />
<glyph glyph-name="Z" unicode="Z" horiz-adv-x="581" d="M545 0 L545 49 L103 49 L540 708 L540 750 L40 750 L40 701 L472 701 L35 42 L35 0 L545 0 Z " />
<glyph glyph-name="bracketleft" unicode="&#x5b;" horiz-adv-x="332" d="M99 -230 L311 -230 L311 -181 L157 -181 L157 701 L311 701 L311 750 L99 750 L99 -230 Z " />
<glyph glyph-name="backslash" unicode="&#x5c;" horiz-adv-x="511" d="M423 -250 L482 -250 L88 819 L29 819 L423 -250 Z " />
<glyph glyph-name="bracketright" unicode="&#x5d;" horiz-adv-x="332" d="M21 -230 L233 -230 L233 750 L21 750 L21 701 L175 701 L175 -181 L21 -181 L21 -230 Z " />
<glyph glyph-name="asciicircum" unicode="&#x5e;" horiz-adv-x="510" d="M412 438 L449 438 L449 476 L277 750 L233 750 L61 476 L61 438 L98 438 L255 692 L412 438 Z " />
<glyph glyph-name="underscore" unicode="&#x5f;" horiz-adv-x="516" d="M0 -174 L516 -174 L516 -126 L0 -126 L0 -174 Z " />
<glyph glyph-name="grave" unicode="&#x60;" horiz-adv-x="294" d="M174 610 L219 610 L219 646 L120 750 L75 750 L75 714 L174 610 Z " />
<glyph glyph-name="a" unicode="a" horiz-adv-x="510" d="M216 -10 C300 -10 356 37 383 104 L389 0 L432 0 L432 309 C432 436 368 503 247 503 C107 503 70 408 70 408 L70 371 L108 371 C108 371 131 456 245 456 C336 456 378 405 378 311 L378 271 C378 271 319 284 247 284 C101 284 43 222 43 139 C43 55 98 -10 216 -10 L216 -10 Z M221 35 C139 35 95 73 95 139 C95 191 129 240 246 240 C325 240 378 227 378 227 L378 196 C378 122 327 35 221 35 L221 35 Z " />
<glyph glyph-name="b" unicode="b" horiz-adv-x="606" d="M324 -10 C464 -10 558 105 558 251 C558 390 461 503 324 503 C233 503 167 451 136 391 L136 750 L82 750 L82 0 L128 0 L136 101 C177 23 251 -10 324 -10 L324 -10 Z M318 37 C245 37 136 85 136 251 C136 363 201 456 318 456 C431 456 504 362 504 251 C504 119 421 37 318 37 L318 37 Z " />
<glyph glyph-name="c" unicode="c" horiz-adv-x="528" d="M288 -10 C444 -10 481 103 481 103 L481 140 L444 140 C444 140 423 37 289 37 C166 37 103 139 103 246 C103 354 166 455 288 455 C419 455 443 354 443 354 L480 354 L480 392 C480 392 445 503 289 503 C143 503 49 389 49 246 C49 103 140 -10 288 -10 L288 -10 Z " />
<glyph glyph-name="d" unicode="d" horiz-adv-x="609" d="M283 -10 C360 -10 427 23 469 101 L479 0 L525 0 L525 750 L471 750 L471 390 C434 475 359 503 283 503 C151 503 49 397 49 248 C49 100 147 -10 283 -10 L283 -10 Z M289 37 C196 37 103 109 103 248 C103 364 177 456 290 456 C405 456 471 365 471 248 C471 101 377 37 289 37 L289 37 Z " />
<glyph glyph-name="e" unicode="e" horiz-adv-x="554" d="M292 -10 C432 -10 484 75 495 99 L495 137 L457 137 C445 93 391 38 292 38 C181 38 108 106 103 239 L503 239 C503 239 506 256 506 287 C506 408 430 503 286 503 C129 503 49 381 49 248 C49 89 138 -10 292 -10 L292 -10 Z M105 284 C117 391 182 456 286 456 C391 456 452 392 452 284 L105 284 Z " />
<glyph glyph-name="f" unicode="f" horiz-adv-x="337" d="M110 0 L164 0 L164 446 L325 446 L325 493 L164 493 L164 594 C164 682 210 711 261 711 C308 711 341 686 349 645 L387 645 L387 682 C374 724 332 760 261 760 C183 760 110 712 110 592 L110 493 L20 493 L20 446 L110 446 L110 0 Z " />
<glyph glyph-name="g" unicode="g" horiz-adv-x="609" d="M286 -260 C440 -260 526 -163 526 30 L526 493 L480 493 L472 391 C436 467 361 503 284 503 C152 503 50 397 50 248 C50 100 148 -10 284 -10 C359 -10 432 24 472 107 L472 30 C472 -139 405 -211 285 -211 C172 -211 122 -143 106 -86 L69 -86 L69 -124 C78 -156 128 -260 286 -260 L286 -260 Z M291 37 C198 37 104 109 104 248 C104 364 178 456 291 456 C406 456 472 365 472 248 C472 101 378 37 291 37 L291 37 Z " />
<glyph glyph-name="h" unicode="h" horiz-adv-x="562" d="M82 0 L136 0 L136 277 C136 386 195 456 291 456 C396 456 431 388 431 276 L431 0 L485 0 L485 288 C485 416 434 503 301 503 C215 503 159 457 136 399 L136 750 L82 750 L82 0 Z " />
<glyph glyph-name="i" unicode="i" horiz-adv-x="222" d="M84 0 L138 0 L138 493 L84 493 L84 0 Z M75 646 L148 646 L148 720 L75 720 L75 646 Z " />
<glyph glyph-name="j" unicode="j" horiz-adv-x="222" d="M19 -260 C98 -260 138 -212 138 -119 L138 493 L84 493 L84 -117 C84 -179 63 -211 17 -211 C-27 -211 -52 -184 -54 -158 L-92 -158 L-92 -195 C-83 -224 -51 -260 19 -260 L19 -260 Z M75 646 L148 646 L148 720 L75 720 L75 646 Z " />
<glyph glyph-name="k" unicode="k" horiz-adv-x="470" d="M82 0 L136 0 L136 249 L414 0 L453 0 L453 39 L202 259 L437 458 L437 493 L401 493 L136 265 L136 750 L82 750 L82 0 Z " />
<glyph glyph-name="l" unicode="l" horiz-adv-x="222" d="M84 0 L138 0 L138 750 L84 750 L84 0 Z " />
<glyph glyph-name="m" unicode="m" horiz-adv-x="807" d="M84 0 L138 0 L138 304 C138 395 190 456 266 456 C344 456 379 400 379 308 L379 0 L433 0 L433 309 C433 405 485 456 557 456 C642 456 675 399 675 313 L675 0 L729 0 L729 314 C729 425 680 503 570 503 C490 503 444 463 416 405 C395 465 357 503 276 503 C208 503 160 466 135 411 L130 493 L84 493 L84 0 Z " />
<glyph glyph-name="n" unicode="n" horiz-adv-x="564" d="M84 0 L138 0 L138 277 C138 386 197 456 293 456 C398 456 433 388 433 276 L433 0 L487 0 L487 288 C487 416 436 503 303 503 C212 503 155 451 134 388 L130 493 L84 493 L84 0 Z " />
<glyph glyph-name="o" unicode="o" horiz-adv-x="577" d="M288 -10 C433 -10 528 105 528 248 C528 391 433 503 288 503 C142 503 48 389 48 246 C48 103 142 -10 288 -10 L288 -10 Z M288 37 C165 37 102 139 102 246 C102 354 165 456 287 456 C411 456 474 354 474 248 C474 140 411 37 288 37 L288 37 Z " />
<glyph glyph-name="p" unicode="p" horiz-adv-x="608" d="M84 -250 L138 -250 L138 101 C179 23 253 -10 326 -10 C466 -10 560 105 560 251 C560 390 463 503 326 503 C235 503 169 451 138 390 L130 493 L84 493 L84 -250 Z M320 37 C247 37 138 85 138 251 C138 363 203 456 320 456 C433 456 506 362 506 251 C506 119 423 37 320 37 L320 37 Z " />
<glyph glyph-name="q" unicode="q" horiz-adv-x="608" d="M471 -250 L525 -250 L525 493 L479 493 L471 390 C434 469 359 503 283 503 C151 503 49 397 49 248 C49 100 146 -10 283 -10 C353 -10 431 21 471 107 L471 -250 Z M289 37 C196 37 103 109 103 248 C103 364 177 456 290 456 C405 456 471 365 471 248 C471 101 377 37 289 37 L289 37 Z " />
<glyph glyph-name="r" unicode="r" horiz-adv-x="422" d="M84 0 L138 0 L138 297 C138 375 168 456 262 456 C328 456 359 417 370 359 L408 359 L408 397 C395 465 347 503 274 503 C205 503 158 467 135 413 L130 493 L84 493 L84 0 Z " />
<glyph glyph-name="s" unicode="s" horiz-adv-x="467" d="M243 -10 C362 -10 418 50 418 127 C418 215 345 246 270 263 L215 276 C152 291 112 312 112 366 C112 418 157 456 232 456 C314 456 356 416 367 366 L404 366 L404 403 C389 461 329 503 232 503 C129 503 60 442 60 364 C60 280 121 247 188 232 L249 218 C318 201 365 182 365 124 C365 75 324 37 243 37 C150 37 103 85 86 136 L49 136 L49 99 C69 48 126 -10 243 -10 L243 -10 Z " />
<glyph glyph-name="t" unicode="t" horiz-adv-x="394" d="M256 -10 C337 -10 374 40 385 84 L385 122 L347 122 C344 88 325 37 257 37 C185 37 155 86 155 162 L155 446 L351 446 L351 493 L155 493 L155 625 L109 625 L105 493 L20 493 L20 446 L101 446 L101 153 C101 44 165 -10 256 -10 L256 -10 Z " />
<glyph glyph-name="u" unicode="u" horiz-adv-x="564" d="M267 -10 C348 -10 403 32 429 95 L433 0 L480 0 L480 493 L425 493 L425 209 C425 93 357 37 274 37 C183 37 131 91 131 210 L131 493 L77 493 L77 198 C77 63 144 -10 267 -10 L267 -10 Z " />
<glyph glyph-name="v" unicode="v" horiz-adv-x="493" d="M267 0 L468 456 L468 493 L431 493 L247 75 L65 493 L25 493 L25 453 L226 0 L267 0 Z " />
<glyph glyph-name="w" unicode="w" horiz-adv-x="727" d="M500 0 L543 0 L698 458 L698 493 L662 493 L524 81 L388 493 L345 493 L209 78 L70 493 L31 493 L31 454 L182 0 L226 0 L363 417 L500 0 Z " />
<glyph glyph-name="x" unicode="x" horiz-adv-x="491" d="M37 0 L72 0 L243 212 L416 0 L454 0 L454 38 L277 249 L451 458 L451 493 L416 493 L247 285 L78 493 L40 493 L40 455 L213 249 L37 35 L37 0 Z " />
<glyph glyph-name="y" unicode="y" horiz-adv-x="498" d="M127 -250 L480 458 L480 493 L444 493 L257 112 L63 493 L25 493 L25 455 L228 57 L90 -213 L90 -250 L127 -250 Z " />
<glyph glyph-name="z" unicode="z" horiz-adv-x="461" d="M421 0 L421 47 L108 47 L416 452 L416 493 L45 493 L45 446 L348 446 L40 41 L40 0 L421 0 Z " />
<glyph glyph-name="braceleft" unicode="&#x7b;" horiz-adv-x="381" d="M357 -232 L357 -187 C227 -187 183 -143 183 -20 L183 51 C183 196 154 241 97 259 C154 277 183 329 183 474 L183 545 C183 661 234 705 371 705 L371 750 C186 750 125 680 125 521 L125 453 C125 302 89 283 15 283 L15 235 C89 235 125 216 125 65 L125 -3 C125 -162 172 -232 357 -232 L357 -232 Z " />
<glyph glyph-name="bar" unicode="&#x7c;" horiz-adv-x="253" d="M126 -250 L156 -220 L156 789 L127 819 L97 789 L97 -220 L126 -250 Z " />
<glyph glyph-name="braceright" unicode="&#x7d;" horiz-adv-x="382" d="M11 -232 C196 -232 257 -162 257 -3 L257 65 C257 216 293 235 367 235 L367 283 C293 283 257 302 257 453 L257 521 C257 680 209 750 25 750 L25 705 C155 705 199 661 199 538 L199 467 C199 322 228 277 285 259 C228 241 199 189 199 44 L199 -27 C199 -143 148 -187 11 -187 L11 -232 Z " />
<glyph glyph-name="asciitilde" unicode="&#x7e;" horiz-adv-x="594" d="M401 218 C466 218 512 259 521 400 L469 400 C459 313 447 273 400 273 C334 273 310 394 212 394 C147 394 88 354 78 222 L130 222 C137 294 162 339 212 339 C284 339 306 218 401 218 L401 218 Z " />
<glyph glyph-name="uni00A0" unicode="&#xa0;" horiz-adv-x="265" d="" />
<glyph glyph-name="exclamdown" unicode="&#xa1;" horiz-adv-x="249" d="M99 398 L145 398 L153 -140 L91 -140 L99 398 Z M86 610 L163 610 L163 533 L86 533 L86 610 Z " />
<glyph glyph-name="cent" unicode="&#xa2;" horiz-adv-x="538" d="M289 -10 C445 -10 482 103 482 103 L482 140 L445 140 C445 140 424 37 290 37 L288 37 L321 453 C424 438 444 354 444 354 L481 354 L481 392 C481 392 451 486 325 501 L336 642 L287 642 L276 503 C138 496 50 384 50 246 C50 121 120 18 237 -5 L226 -143 L274 -143 L285 -10 L289 -10 Z M104 246 C104 349 161 446 272 454 L240 43 C150 67 104 154 104 246 L104 246 Z " />
<glyph glyph-name="sterling" unicode="&#xa3;" horiz-adv-x="578" d="M522 52 L131 52 C190 110 222 188 222 284 C222 297 221 311 219 321 L444 321 L444 370 L209 370 C193 426 167 468 167 555 C167 657 231 711 316 711 C452 711 473 576 473 576 L516 576 L516 616 C516 616 486 760 315 760 C200 760 108 685 108 555 C108 474 132 420 148 370 L54 370 L54 321 L162 321 C164 310 165 296 165 284 C165 180 132 109 60 49 L60 0 L522 0 L522 52 Z " />
<glyph glyph-name="yen" unicode="&#xa5;" horiz-adv-x="660" d="M546 160 L546 209 L364 209 L364 283 L546 283 L546 332 L379 332 L624 714 L624 750 L587 750 L339 361 L75 750 L36 750 L36 711 L291 332 L116 332 L116 283 L305 283 L305 209 L116 209 L116 160 L305 160 L305 0 L364 0 L364 160 L546 160 Z " />
<glyph glyph-name="brokenbar" unicode="&#xa6;" horiz-adv-x="254" d="M96 389 L158 389 L158 789 L127 819 L96 789 L96 389 Z M127 -250 L158 -220 L158 185 L96 185 L96 -220 L127 -250 Z " />
<glyph glyph-name="section" unicode="&#xa7;" horiz-adv-x="553" d="M278 -120 C417 -120 489 -47 489 46 C489 109 465 147 429 174 C471 201 489 236 489 284 C489 366 446 403 336 439 L275 459 C146 503 122 541 122 590 C122 655 173 711 275 711 C421 711 437 589 437 589 L480 589 L480 628 C480 628 458 760 275 760 C149 760 66 690 66 589 C66 533 85 496 125 466 C85 440 66 398 66 358 C66 269 122 228 209 201 L281 179 C408 138 433 111 433 43 C433 -21 380 -71 278 -71 C149 -71 111 16 110 51 L68 51 L68 12 C75 -35 131 -120 278 -120 L278 -120 Z M317 222 L245 246 C145 278 125 314 125 362 C125 394 142 422 173 441 C189 432 211 426 235 417 L293 398 C413 357 430 331 430 281 C430 247 414 217 381 200 C363 209 338 216 317 222 L317 222 Z " />
<glyph glyph-name="dieresis" unicode="&#xa8;" horiz-adv-x="302" d="M26 646 L99 646 L99 720 L26 720 L26 646 Z M214 646 L288 646 L288 720 L214 720 L214 646 Z " />
<glyph glyph-name="copyright" unicode="&#xa9;" horiz-adv-x="1038" d="M519 -209 C787 -209 988 -1 988 254 C988 508 787 716 519 716 C251 716 50 508 50 254 C50 -1 251 -209 519 -209 L519 -209 Z M519 -161 C284 -161 105 22 105 254 C105 485 284 667 519 667 C754 667 932 485 932 254 C932 22 754 -161 519 -161 L519 -161 Z M522 -10 C678 -10 718 87 718 87 L718 124 L680 124 C680 124 651 41 522 41 C403 41 330 130 330 252 C330 367 393 460 522 460 C649 460 677 379 677 379 L715 379 L715 416 C715 416 674 511 522 511 C363 511 271 401 271 252 C271 105 359 -10 522 -10 L522 -10 Z " />
<glyph glyph-name="ordfeminine" unicode="&#xaa;" horiz-adv-x="463" d="M194 304 C270 304 316 344 338 390 L344 313 L386 313 L386 604 C386 723 316 761 229 761 C100 761 76 665 76 665 L76 628 L113 628 C113 628 121 715 226 715 C300 715 334 669 334 603 L334 555 C334 555 287 567 232 567 C110 567 54 507 54 433 C54 354 103 304 194 304 L194 304 Z M206 348 C138 348 105 379 105 432 C105 488 152 524 232 524 C291 524 334 513 334 513 L334 473 C334 403 278 348 206 348 L206 348 Z " />
<glyph glyph-name="guillemotleft" unicode="&#xab;" horiz-adv-x="527" d="M272 60 L272 98 L112 272 L272 445 L272 480 L234 480 L43 270 L234 60 L272 60 Z M468 60 L468 98 L308 272 L468 445 L468 480 L430 480 L239 270 L430 60 L468 60 Z " />
<glyph glyph-name="uni00AD" unicode="&#xad;" horiz-adv-x="412" d="M71 303 L341 303 L341 350 L71 350 L71 303 Z " />
<glyph glyph-name="registered" unicode="&#xae;" horiz-adv-x="712" d="M356 148 C519 148 654 283 654 454 C654 625 519 760 356 760 C193 760 58 625 58 454 C58 283 193 148 356 148 L356 148 Z M356 187 C212 187 103 310 103 454 C103 598 212 720 356 720 C501 720 610 598 610 454 C610 310 501 187 356 187 L356 187 Z M303 427 L348 427 L449 300 L478 300 L478 328 L393 438 C433 452 457 479 457 523 C457 573 423 613 351 613 L261 613 L261 300 L303 300 L303 427 Z M303 463 L303 579 L348 579 C390 579 415 551 415 521 C415 491 391 463 348 463 L303 463 Z " />
<glyph glyph-name="macron" unicode="&#xaf;" horiz-adv-x="373" d="M75 654 L298 654 L298 703 L75 703 L75 654 Z " />
<glyph glyph-name="degree" unicode="&#xb0;" horiz-adv-x="434" d="M217 427 C315 427 386 502 386 593 C386 684 315 760 217 760 C118 760 48 684 48 593 C48 502 118 427 217 427 L217 427 Z M217 475 C147 475 103 531 103 593 C103 654 147 713 217 713 C288 713 331 654 331 593 C331 531 288 475 217 475 L217 475 Z " />
<glyph glyph-name="plusminus" unicode="&#xb1;" horiz-adv-x="567" d="M486 393 L486 440 L307 440 L307 629 L258 629 L258 440 L80 440 L80 393 L258 393 L258 205 L307 205 L307 393 L486 393 Z M80 79 L486 79 L486 127 L80 127 L80 79 Z " />
<glyph glyph-name="acute" unicode="&#xb4;" horiz-adv-x="294" d="M75 610 L120 610 L219 714 L219 750 L174 750 L75 646 L75 610 Z " />
<glyph glyph-name="paragraph" unicode="&#xb6;" horiz-adv-x="587" d="M263 -96 L315 -96 L315 701 L419 701 L419 -96 L471 -96 L471 750 L258 750 C105 750 36 670 36 557 C36 437 121 367 243 367 L263 367 L263 -96 Z " />
<glyph glyph-name="periodcentered" unicode="&#xb7;" horiz-adv-x="213" d="M71 253 L142 253 L142 324 L71 324 L71 253 Z " />
<glyph glyph-name="cedilla" unicode="&#xb8;" horiz-adv-x="333" d="M108 -193 L145 -193 C182 -189 228 -163 228 -112 C228 -74 205 -47 157 -40 L157 0 L112 0 L112 -66 C150 -66 179 -79 179 -109 C179 -140 150 -151 108 -151 L108 -193 Z " />
<glyph glyph-name="ordmasculine" unicode="&#xba;" horiz-adv-x="516" d="M259 304 C391 304 468 407 468 533 C468 659 391 760 259 760 C125 760 48 659 48 533 C48 407 125 304 259 304 L259 304 Z M259 349 C159 349 100 421 100 533 C100 643 159 715 259 715 C358 715 416 643 416 533 C416 421 358 349 259 349 L259 349 Z " />
<glyph glyph-name="guillemotright" unicode="&#xbb;" horiz-adv-x="527" d="M97 60 L288 270 L97 480 L59 480 L59 442 L219 269 L59 94 L59 60 L97 60 Z M293 60 L484 270 L293 480 L255 480 L255 442 L415 269 L255 94 L255 60 L293 60 Z " />
<glyph glyph-name="onequarter" unicode="&#xbc;" horiz-adv-x="842" d="M162 -40 L219 -40 L688 790 L631 790 L162 -40 Z M225 300 L225 750 L184 750 L35 628 L35 595 L68 595 L175 683 L175 300 L225 300 Z M804 69 L804 114 L737 114 L737 399 L679 399 L461 92 L461 69 L686 69 L686 -55 L737 -55 L737 69 L804 69 Z M686 114 L530 114 L686 334 L686 114 Z " />
<glyph glyph-name="onehalf" unicode="&#xbd;" horiz-adv-x="885" d="M162 -40 L219 -40 L688 790 L631 790 L162 -40 Z M175 300 L225 300 L225 750 L184 750 L35 628 L35 595 L68 595 L175 683 L175 300 Z M840 -55 L840 -6 L629 -6 L718 75 C791 143 832 197 832 270 C832 353 780 401 694 401 C577 401 560 310 555 303 L555 267 L591 267 C598 305 620 357 692 357 C750 357 783 322 783 266 C783 215 755 169 683 103 L556 -14 L556 -55 L840 -55 Z " />
<glyph glyph-name="threequarters" unicode="&#xbe;" horiz-adv-x="929" d="M251 -40 L307 -40 L776 790 L720 790 L251 -40 Z M205 296 C311 296 357 355 357 425 C357 474 327 523 258 534 C311 550 334 594 334 638 C334 717 281 756 201 756 C98 756 61 692 53 658 L53 622 L89 622 C95 662 122 711 197 712 C249 713 285 686 285 634 C285 598 269 552 201 552 L156 552 L156 508 L203 508 C284 508 307 460 307 425 C307 367 263 340 203 340 C127 340 89 391 84 434 L48 434 L48 398 C55 368 90 296 205 296 L205 296 Z M893 69 L893 114 L826 114 L826 399 L768 399 L550 92 L550 69 L775 69 L775 -55 L826 -55 L826 69 L893 69 Z M775 114 L619 114 L775 334 L775 114 Z " />
<glyph glyph-name="questiondown" unicode="&#xbf;" horiz-adv-x="493" d="M305 398 L250 398 C256 383 258 369 258 356 C258 248 40 219 40 37 C40 -72 113 -150 247 -150 C424 -150 455 1 455 1 L455 40 L412 40 C412 40 395 -101 248 -101 C152 -101 99 -38 99 37 C99 198 314 227 314 353 C314 367 311 383 305 398 L305 398 Z M314 610 L237 610 L237 533 L314 533 L314 610 Z " />
<glyph glyph-name="Agrave" unicode="&#xc0;" horiz-adv-x="641" d="M59 0 L150 236 L486 236 L578 0 L620 0 L620 46 L346 750 L295 750 L19 41 L19 0 L59 0 Z M467 285 L169 285 L318 676 L467 285 Z M296 805 L341 805 L341 841 L228 945 L183 945 L183 909 L296 805 Z " />
<glyph glyph-name="Aacute" unicode="&#xc1;" horiz-adv-x="641" d="M59 0 L150 236 L486 236 L578 0 L620 0 L620 46 L346 750 L295 750 L19 41 L19 0 L59 0 Z M467 285 L169 285 L318 676 L467 285 Z M297 805 L342 805 L455 909 L455 945 L409 945 L297 841 L297 805 Z " />
<glyph glyph-name="Acircumflex" unicode="&#xc2;" horiz-adv-x="641" d="M59 0 L150 236 L486 236 L578 0 L620 0 L620 46 L346 750 L295 750 L19 41 L19 0 L59 0 Z M467 285 L169 285 L318 676 L467 285 Z M406 816 L442 816 L442 852 L343 942 L294 942 L195 852 L195 816 L231 816 L318 896 L406 816 Z " />
<glyph glyph-name="Atilde" unicode="&#xc3;" horiz-adv-x="641" d="M59 0 L150 236 L486 236 L578 0 L620 0 L620 46 L346 750 L295 750 L19 41 L19 0 L59 0 Z M467 285 L169 285 L318 676 L467 285 Z M387 821 C433 821 457 854 457 916 L414 916 C413 877 398 868 379 868 C338 868 330 921 267 921 C217 921 188 881 188 826 L230 826 C232 859 252 874 272 874 C316 874 324 821 387 821 L387 821 Z " />
<glyph glyph-name="Adieresis" unicode="&#xc4;" horiz-adv-x="641" d="M59 0 L150 236 L486 236 L578 0 L620 0 L620 46 L346 750 L295 750 L19 41 L19 0 L59 0 Z M467 285 L169 285 L318 676 L467 285 Z M182 838 L258 838 L258 914 L182 914 L182 838 Z M382 838 L457 838 L457 914 L382 914 L382 838 Z " />
<glyph glyph-name="Aring" unicode="&#xc5;" horiz-adv-x="641" d="M59 0 L150 236 L486 236 L578 0 L620 0 L620 46 L346 750 L295 750 L19 41 L19 0 L59 0 Z M467 285 L169 285 L318 676 L467 285 Z M318 801 C367 801 402 834 402 881 C402 927 367 960 318 960 C270 960 234 927 234 881 C234 834 270 801 318 801 L318 801 Z M318 841 C297 841 278 856 278 881 C278 905 297 920 318 920 C340 920 358 905 358 881 C358 856 340 841 318 841 L318 841 Z " />
<glyph glyph-name="AE" unicode="&#xc6;" horiz-adv-x="910" d="M1 37 L1 0 L41 0 L179 236 L445 236 L445 0 L855 0 L855 49 L503 49 L503 365 L818 365 L818 414 L503 414 L503 701 L855 701 L855 750 L427 750 L1 37 Z M210 285 L445 685 L445 285 L210 285 Z " />
<glyph glyph-name="Ccedilla" unicode="&#xc7;" horiz-adv-x="736" d="M505 -112 C505 -74 482 -47 434 -40 L434 -10 C632 -1 696 133 696 133 L696 172 L654 172 C654 172 602 39 416 39 C233 39 113 184 113 378 C113 562 219 711 415 711 C603 711 649 583 649 583 L691 583 L691 622 C691 622 630 760 414 760 C189 760 54 599 54 378 C54 168 172 3 389 -9 L389 -66 C427 -66 456 -79 456 -109 C456 -140 427 -151 385 -151 L385 -193 L422 -193 C459 -189 505 -163 505 -112 L505 -112 Z " />
<glyph glyph-name="Egrave" unicode="&#xc8;" horiz-adv-x="570" d="M105 0 L515 0 L515 49 L163 49 L163 365 L478 365 L478 414 L163 414 L163 701 L515 701 L515 750 L105 750 L105 0 Z M300 805 L345 805 L345 841 L232 945 L187 945 L187 909 L300 805 Z " />
<glyph glyph-name="Eacute" unicode="&#xc9;" horiz-adv-x="570" d="M105 0 L515 0 L515 49 L163 49 L163 365 L478 365 L478 414 L163 414 L163 701 L515 701 L515 750 L105 750 L105 0 Z M278 805 L323 805 L436 909 L436 945 L390 945 L278 841 L278 805 Z " />
<glyph glyph-name="Ecircumflex" unicode="&#xca;" horiz-adv-x="570" d="M105 0 L515 0 L515 49 L163 49 L163 365 L478 365 L478 414 L163 414 L163 701 L515 701 L515 750 L105 750 L105 0 Z M400 816 L436 816 L436 852 L337 942 L288 942 L189 852 L189 816 L225 816 L312 896 L400 816 Z " />
<glyph glyph-name="Edieresis" unicode="&#xcb;" horiz-adv-x="570" d="M105 0 L515 0 L515 49 L163 49 L163 365 L478 365 L478 414 L163 414 L163 701 L515 701 L515 750 L105 750 L105 0 Z M177 838 L253 838 L253 914 L177 914 L177 838 Z M377 838 L452 838 L452 914 L377 914 L377 838 Z " />
<glyph glyph-name="Igrave" unicode="&#xcc;" horiz-adv-x="268" d="M105 0 L163 0 L163 750 L105 750 L105 0 Z M116 805 L161 805 L161 841 L48 945 L3 945 L3 909 L116 805 Z " />
<glyph glyph-name="Iacute" unicode="&#xcd;" horiz-adv-x="268" d="M105 0 L163 0 L163 750 L105 750 L105 0 Z M110 805 L155 805 L268 909 L268 945 L222 945 L110 841 L110 805 Z " />
<glyph glyph-name="Icircumflex" unicode="&#xce;" horiz-adv-x="268" d="M222 816 L258 816 L258 852 L159 942 L110 942 L11 852 L11 816 L47 816 L134 896 L222 816 Z M105 0 L163 0 L163 750 L105 750 L105 0 Z " />
<glyph glyph-name="Idieresis" unicode="&#xcf;" horiz-adv-x="268" d="M-4 838 L72 838 L72 914 L-4 914 L-4 838 Z M196 838 L271 838 L271 914 L196 914 L196 838 Z M105 0 L163 0 L163 750 L105 750 L105 0 Z " />
<glyph glyph-name="Eth" unicode="&#xd0;" horiz-adv-x="753" d="M700 378 C700 583 555 750 321 750 L109 750 L109 408 L18 408 L18 359 L109 359 L109 0 L321 0 C555 0 700 170 700 378 L700 378 Z M167 49 L167 359 L287 359 L287 408 L167 408 L167 701 L318 701 C505 701 641 567 641 378 C641 185 505 49 318 49 L167 49 Z " />
<glyph glyph-name="Ntilde" unicode="&#xd1;" horiz-adv-x="751" d="M105 0 L158 0 L158 651 L593 0 L646 0 L646 750 L593 750 L593 96 L158 750 L105 750 L105 0 Z M454 821 C500 821 524 854 524 916 L481 916 C480 877 465 868 446 868 C405 868 397 921 334 921 C284 921 255 881 255 826 L297 826 C299 859 319 874 339 874 C383 874 391 821 454 821 L454 821 Z " />
<glyph glyph-name="Ograve" unicode="&#xd2;" horiz-adv-x="830" d="M415 -10 C638 -10 777 155 777 378 C777 598 638 760 415 760 C192 760 53 598 53 378 C53 155 192 -10 415 -10 L415 -10 Z M415 39 C228 39 112 183 112 378 C112 569 228 711 415 711 C602 711 718 569 718 378 C718 183 602 39 415 39 L415 39 Z M391 805 L436 805 L436 841 L323 945 L278 945 L278 909 L391 805 Z " />
<glyph glyph-name="Oacute" unicode="&#xd3;" horiz-adv-x="830" d="M415 -10 C638 -10 777 155 777 378 C777 598 638 760 415 760 C192 760 53 598 53 378 C53 155 192 -10 415 -10 L415 -10 Z M415 39 C228 39 112 183 112 378 C112 569 228 711 415 711 C602 711 718 569 718 378 C718 183 602 39 415 39 L415 39 Z M386 805 L431 805 L544 909 L544 945 L498 945 L386 841 L386 805 Z " />
<glyph glyph-name="Ocircumflex" unicode="&#xd4;" horiz-adv-x="830" d="M415 -10 C638 -10 777 155 777 378 C777 598 638 760 415 760 C192 760 53 598 53 378 C53 155 192 -10 415 -10 L415 -10 Z M415 39 C228 39 112 183 112 378 C112 569 228 711 415 711 C602 711 718 569 718 378 C718 183 602 39 415 39 L415 39 Z M504 816 L540 816 L540 852 L441 942 L392 942 L293 852 L293 816 L329 816 L416 896 L504 816 Z " />
<glyph glyph-name="Otilde" unicode="&#xd5;" horiz-adv-x="830" d="M415 -10 C638 -10 777 155 777 378 C777 598 638 760 415 760 C192 760 53 598 53 378 C53 155 192 -10 415 -10 L415 -10 Z M415 39 C228 39 112 183 112 378 C112 569 228 711 415 711 C602 711 718 569 718 378 C718 183 602 39 415 39 L415 39 Z M479 821 C525 821 549 854 549 916 L506 916 C505 877 490 868 471 868 C430 868 422 921 359 921 C309 921 280 881 280 826 L322 826 C324 859 344 874 364 874 C408 874 416 821 479 821 L479 821 Z " />
<glyph glyph-name="Odieresis" unicode="&#xd6;" horiz-adv-x="830" d="M415 -10 C638 -10 777 155 777 378 C777 598 638 760 415 760 C192 760 53 598 53 378 C53 155 192 -10 415 -10 L415 -10 Z M415 39 C228 39 112 183 112 378 C112 569 228 711 415 711 C602 711 718 569 718 378 C718 183 602 39 415 39 L415 39 Z M279 838 L355 838 L355 914 L279 914 L279 838 Z M479 838 L554 838 L554 914 L479 914 L479 838 Z " />
<glyph glyph-name="multiply" unicode="&#xd7;" horiz-adv-x="507" d="M406 129 L441 164 L287 317 L440 468 L406 503 L254 350 L101 504 L66 469 L220 317 L66 164 L100 129 L254 283 L406 129 Z " />
<glyph glyph-name="Oslash" unicode="&#xd8;" horiz-adv-x="830" d="M415 -10 C638 -10 777 155 777 378 C777 498 733 601 659 670 L746 790 L684 790 L621 702 C565 739 495 760 415 760 C192 760 53 598 53 378 C53 256 97 151 172 81 L84 -40 L146 -40 L210 48 C265 11 336 -10 415 -10 L415 -10 Z M112 378 C112 569 228 711 415 711 C482 711 543 690 589 657 L205 125 C147 186 112 272 112 378 L112 378 Z M415 39 C347 39 288 61 242 93 L627 625 C684 565 718 481 718 378 C718 183 602 39 415 39 L415 39 Z " />
<glyph glyph-name="Ugrave" unicode="&#xd9;" horiz-adv-x="729" d="M366 -10 C535 -10 633 102 633 270 L633 750 L580 750 L580 269 C580 131 505 39 366 39 C232 39 155 131 155 269 L155 750 L96 750 L96 270 C96 102 196 -10 366 -10 L366 -10 Z M352 805 L397 805 L397 841 L284 945 L239 945 L239 909 L352 805 Z " />
<glyph glyph-name="Uacute" unicode="&#xda;" horiz-adv-x="729" d="M366 -10 C535 -10 633 102 633 270 L633 750 L580 750 L580 269 C580 131 505 39 366 39 C232 39 155 131 155 269 L155 750 L96 750 L96 270 C96 102 196 -10 366 -10 L366 -10 Z M345 805 L390 805 L503 909 L503 945 L457 945 L345 841 L345 805 Z " />
<glyph glyph-name="Ucircumflex" unicode="&#xdb;" horiz-adv-x="729" d="M366 -10 C535 -10 633 102 633 270 L633 750 L580 750 L580 269 C580 131 505 39 366 39 C232 39 155 131 155 269 L155 750 L96 750 L96 270 C96 102 196 -10 366 -10 L366 -10 Z M455 816 L491 816 L491 852 L392 942 L343 942 L244 852 L244 816 L280 816 L367 896 L455 816 Z " />
<glyph glyph-name="Udieresis" unicode="&#xdc;" horiz-adv-x="729" d="M366 -10 C535 -10 633 102 633 270 L633 750 L580 750 L580 269 C580 131 505 39 366 39 C232 39 155 131 155 269 L155 750 L96 750 L96 270 C96 102 196 -10 366 -10 L366 -10 Z M228 838 L304 838 L304 914 L228 914 L228 838 Z M428 838 L503 838 L503 914 L428 914 L428 838 Z " />
<glyph glyph-name="Yacute" unicode="&#xdd;" horiz-adv-x="611" d="M278 0 L336 0 L336 305 L594 714 L594 750 L557 750 L311 357 L49 750 L9 750 L9 711 L278 307 L278 0 Z M280 805 L325 805 L438 909 L438 945 L392 945 L280 841 L280 805 Z " />
<glyph glyph-name="Thorn" unicode="&#xde;" horiz-adv-x="591" d="M105 0 L163 0 L163 118 C412 119 557 208 557 376 C557 545 411 635 163 636 L163 750 L105 750 L105 0 Z M163 167 L163 587 C377 586 499 518 499 376 C499 223 359 168 163 167 L163 167 Z " />
<glyph glyph-name="germandbls" unicode="&#xdf;" horiz-adv-x="561" d="M311 -10 C460 -10 514 87 514 188 C514 286 460 362 341 386 C422 413 471 481 471 577 C471 692 399 760 279 760 C155 760 82 683 82 538 L82 0 L136 0 L136 540 C136 646 181 711 278 711 C364 711 416 660 416 575 C416 483 357 410 243 402 L243 354 C412 349 459 266 459 191 C459 83 398 37 307 37 C274 37 249 41 222 48 L222 0 C249 -6 273 -10 311 -10 L311 -10 Z " />
<glyph glyph-name="agrave" unicode="&#xe0;" horiz-adv-x="510" d="M216 -10 C300 -10 356 37 383 104 L389 0 L432 0 L432 309 C432 436 368 503 247 503 C107 503 70 408 70 408 L70 371 L108 371 C108 371 131 456 245 456 C336 456 378 405 378 311 L378 271 C378 271 319 284 247 284 C101 284 43 222 43 139 C43 55 98 -10 216 -10 L216 -10 Z M221 35 C139 35 95 73 95 139 C95 191 129 240 246 240 C325 240 378 227 378 227 L378 196 C378 122 327 35 221 35 L221 35 Z M231 610 L276 610 L276 646 L177 750 L132 750 L132 714 L231 610 Z " />
<glyph glyph-name="aacute" unicode="&#xe1;" horiz-adv-x="510" d="M216 -10 C300 -10 356 37 383 104 L389 0 L432 0 L432 309 C432 436 368 503 247 503 C107 503 70 408 70 408 L70 371 L108 371 C108 371 131 456 245 456 C336 456 378 405 378 311 L378 271 C378 271 319 284 247 284 C101 284 43 222 43 139 C43 55 98 -10 216 -10 L216 -10 Z M221 35 C139 35 95 73 95 139 C95 191 129 240 246 240 C325 240 378 227 378 227 L378 196 C378 122 327 35 221 35 L221 35 Z M219 610 L264 610 L363 714 L363 750 L318 750 L219 646 L219 610 Z " />
<glyph glyph-name="acircumflex" unicode="&#xe2;" horiz-adv-x="510" d="M216 -10 C300 -10 356 37 383 104 L389 0 L432 0 L432 309 C432 436 368 503 247 503 C107 503 70 408 70 408 L70 371 L108 371 C108 371 131 456 245 456 C336 456 378 405 378 311 L378 271 C378 271 319 284 247 284 C101 284 43 222 43 139 C43 55 98 -10 216 -10 L216 -10 Z M221 35 C139 35 95 73 95 139 C95 191 129 240 246 240 C325 240 378 227 378 227 L378 196 C378 122 327 35 221 35 L221 35 Z M341 610 L377 610 L377 646 L278 750 L229 750 L130 646 L130 610 L166 610 L253 702 L341 610 Z " />
<glyph glyph-name="atilde" unicode="&#xe3;" horiz-adv-x="510" d="M216 -10 C300 -10 356 37 383 104 L389 0 L432 0 L432 309 C432 436 368 503 247 503 C107 503 70 408 70 408 L70 371 L108 371 C108 371 131 456 245 456 C336 456 378 405 378 311 L378 271 C378 271 319 284 247 284 C101 284 43 222 43 139 C43 55 98 -10 216 -10 L216 -10 Z M221 35 C139 35 95 73 95 139 C95 191 129 240 246 240 C325 240 378 227 378 227 L378 196 C378 122 327 35 221 35 L221 35 Z M319 630 C365 630 389 662 389 724 L346 724 C345 685 330 676 311 676 C270 676 262 729 200 729 C149 729 120 689 120 635 L163 635 C164 667 184 683 204 683 C248 683 256 630 319 630 L319 630 Z " />
<glyph glyph-name="adieresis" unicode="&#xe4;" horiz-adv-x="510" d="M216 -10 C300 -10 356 37 383 104 L389 0 L432 0 L432 309 C432 436 368 503 247 503 C107 503 70 408 70 408 L70 371 L108 371 C108 371 131 456 245 456 C336 456 378 405 378 311 L378 271 C378 271 319 284 247 284 C101 284 43 222 43 139 C43 55 98 -10 216 -10 L216 -10 Z M221 35 C139 35 95 73 95 139 C95 191 129 240 246 240 C325 240 378 227 378 227 L378 196 C378 122 327 35 221 35 L221 35 Z M121 646 L194 646 L194 720 L121 720 L121 646 Z M309 646 L383 646 L383 720 L309 720 L309 646 Z " />
<glyph glyph-name="aring" unicode="&#xe5;" horiz-adv-x="510" d="M216 -10 C300 -10 356 37 383 104 L389 0 L432 0 L432 309 C432 436 368 503 247 503 C107 503 70 408 70 408 L70 371 L108 371 C108 371 131 456 245 456 C336 456 378 405 378 311 L378 271 C378 271 319 284 247 284 C101 284 43 222 43 139 C43 55 98 -10 216 -10 L216 -10 Z M221 35 C139 35 95 73 95 139 C95 191 129 240 246 240 C325 240 378 227 378 227 L378 196 C378 122 327 35 221 35 L221 35 Z M254 598 C303 598 339 631 339 678 C339 724 303 757 254 757 C206 757 170 724 170 678 C170 631 206 598 254 598 L254 598 Z M254 638 C234 638 214 653 214 678 C214 702 234 717 254 717 C276 717 295 702 295 678 C295 653 276 638 254 638 L254 638 Z " />
<glyph glyph-name="ae" unicode="&#xe6;" horiz-adv-x="895" d="M640 -10 C774 -10 826 75 836 99 L836 137 L798 137 C786 93 733 38 640 38 C536 38 463 106 458 239 L845 239 C845 239 847 256 847 287 C847 408 771 503 634 503 C544 503 479 457 443 393 C417 465 352 503 262 503 C108 503 70 408 70 408 L70 371 L108 371 C108 371 132 456 261 456 C351 456 404 405 404 311 L404 274 C404 274 279 278 258 278 C108 278 43 218 43 135 C43 51 99 -10 221 -10 C297 -10 387 23 430 120 C466 37 540 -10 640 -10 L640 -10 Z M461 284 C473 391 538 456 634 456 C732 456 794 392 794 284 L461 284 Z M220 35 C142 35 95 69 95 135 C95 187 135 234 257 234 C280 234 404 229 404 229 L404 199 C404 114 334 35 220 35 L220 35 Z " />
<glyph glyph-name="ccedilla" unicode="&#xe7;" horiz-adv-x="528" d="M379 -112 C379 -74 356 -47 308 -40 L308 -9 C447 0 481 103 481 103 L481 140 L444 140 C444 140 423 37 289 37 C166 37 103 139 103 246 C103 354 166 455 288 455 C419 455 443 354 443 354 L480 354 L480 392 C480 392 445 503 289 503 C143 503 49 389 49 246 C49 111 130 3 263 -9 L263 -66 C301 -66 330 -79 330 -109 C330 -140 301 -151 259 -151 L259 -193 L296 -193 C333 -189 379 -163 379 -112 L379 -112 Z " />
<glyph glyph-name="egrave" unicode="&#xe8;" horiz-adv-x="554" d="M292 -10 C432 -10 484 75 495 99 L495 137 L457 137 C445 93 391 38 292 38 C181 38 108 106 103 239 L503 239 C503 239 506 256 506 287 C506 408 430 503 286 503 C129 503 49 381 49 248 C49 89 138 -10 292 -10 L292 -10 Z M105 284 C117 391 182 456 286 456 C391 456 452 392 452 284 L105 284 Z M256 610 L301 610 L301 646 L202 750 L157 750 L157 714 L256 610 Z " />
<glyph glyph-name="eacute" unicode="&#xe9;" horiz-adv-x="554" d="M292 -10 C432 -10 484 75 495 99 L495 137 L457 137 C445 93 391 38 292 38 C181 38 108 106 103 239 L503 239 C503 239 506 256 506 287 C506 408 430 503 286 503 C129 503 49 381 49 248 C49 89 138 -10 292 -10 L292 -10 Z M105 284 C117 391 182 456 286 456 C391 456 452 392 452 284 L105 284 Z M249 610 L294 610 L393 714 L393 750 L348 750 L249 646 L249 610 Z " />
<glyph glyph-name="ecircumflex" unicode="&#xea;" horiz-adv-x="554" d="M292 -10 C432 -10 484 75 495 99 L495 137 L457 137 C445 93 391 38 292 38 C181 38 108 106 103 239 L503 239 C503 239 506 256 506 287 C506 408 430 503 286 503 C129 503 49 381 49 248 C49 89 138 -10 292 -10 L292 -10 Z M105 284 C117 391 182 456 286 456 C391 456 452 392 452 284 L105 284 Z M374 610 L410 610 L410 646 L311 750 L262 750 L163 646 L163 610 L199 610 L286 702 L374 610 Z " />
<glyph glyph-name="edieresis" unicode="&#xeb;" horiz-adv-x="554" d="M292 -10 C432 -10 484 75 495 99 L495 137 L457 137 C445 93 391 38 292 38 C181 38 108 106 103 239 L503 239 C503 239 506 256 506 287 C506 408 430 503 286 503 C129 503 49 381 49 248 C49 89 138 -10 292 -10 L292 -10 Z M105 284 C117 391 182 456 286 456 C391 456 452 392 452 284 L105 284 Z M148 646 L221 646 L221 720 L148 720 L148 646 Z M336 646 L410 646 L410 720 L336 720 L336 646 Z " />
<glyph glyph-name="igrave" unicode="&#xec;" horiz-adv-x="221" d="M83 0 L137 0 L137 493 L83 493 L83 0 Z M89 610 L134 610 L134 646 L35 750 L-10 750 L-10 714 L89 610 Z " />
<glyph glyph-name="iacute" unicode="&#xed;" horiz-adv-x="221" d="M84 0 L138 0 L138 493 L84 493 L84 0 Z M89 610 L134 610 L233 714 L233 750 L188 750 L89 646 L89 610 Z " />
<glyph glyph-name="icircumflex" unicode="&#xee;" horiz-adv-x="220" d="M83 0 L137 0 L137 493 L83 493 L83 0 Z M198 610 L234 610 L234 646 L135 750 L86 750 L-13 646 L-13 610 L23 610 L110 702 L198 610 Z " />
<glyph glyph-name="idieresis" unicode="&#xef;" horiz-adv-x="220" d="M83 0 L137 0 L137 493 L83 493 L83 0 Z M-20 646 L53 646 L53 720 L-20 720 L-20 646 Z M168 646 L242 646 L242 720 L168 720 L168 646 Z " />
<glyph glyph-name="eth" unicode="&#xf0;" horiz-adv-x="594" d="M289 -10 C446 -10 530 98 530 301 C530 461 481 571 405 642 L494 690 L494 734 L373 671 C319 712 253 737 184 750 L146 750 L146 712 C217 703 277 681 326 647 L198 578 L198 534 L360 620 C423 564 463 482 475 379 C439 471 355 490 285 490 C139 490 49 384 49 241 C49 98 140 -10 289 -10 L289 -10 Z M289 37 C164 37 103 130 103 241 C103 350 163 443 286 443 C421 443 476 350 476 245 C476 140 422 37 289 37 L289 37 Z " />
<glyph glyph-name="ntilde" unicode="&#xf1;" horiz-adv-x="564" d="M84 0 L138 0 L138 277 C138 386 197 456 293 456 C398 456 433 388 433 276 L433 0 L487 0 L487 288 C487 416 436 503 303 503 C212 503 155 451 134 388 L130 493 L84 493 L84 0 Z M346 630 C392 630 416 662 416 724 L373 724 C372 685 357 676 338 676 C297 676 289 729 227 729 C176 729 147 689 147 635 L190 635 C191 667 211 683 231 683 C275 683 283 630 346 630 L346 630 Z " />
<glyph glyph-name="ograve" unicode="&#xf2;" horiz-adv-x="577" d="M288 -10 C433 -10 528 105 528 248 C528 391 433 503 288 503 C142 503 48 389 48 246 C48 103 142 -10 288 -10 L288 -10 Z M288 37 C165 37 102 139 102 246 C102 354 165 456 287 456 C411 456 474 354 474 248 C474 140 411 37 288 37 L288 37 Z M265 610 L310 610 L310 646 L211 750 L166 750 L166 714 L265 610 Z " />
<glyph glyph-name="oacute" unicode="&#xf3;" horiz-adv-x="577" d="M260 610 L305 610 L404 714 L404 750 L359 750 L260 646 L260 610 Z M288 -10 C433 -10 528 105 528 248 C528 391 433 503 288 503 C142 503 48 389 48 246 C48 103 142 -10 288 -10 L288 -10 Z M288 37 C165 37 102 139 102 246 C102 354 165 456 287 456 C411 456 474 354 474 248 C474 140 411 37 288 37 L288 37 Z " />
<glyph glyph-name="ocircumflex" unicode="&#xf4;" horiz-adv-x="577" d="M377 610 L413 610 L413 646 L314 750 L265 750 L166 646 L166 610 L202 610 L289 702 L377 610 Z M288 -10 C433 -10 528 105 528 248 C528 391 433 503 288 503 C142 503 48 389 48 246 C48 103 142 -10 288 -10 L288 -10 Z M288 37 C165 37 102 139 102 246 C102 354 165 456 287 456 C411 456 474 354 474 248 C474 140 411 37 288 37 L288 37 Z " />
<glyph glyph-name="otilde" unicode="&#xf5;" horiz-adv-x="577" d="M351 630 C397 630 421 662 421 724 L378 724 C377 685 362 676 343 676 C302 676 294 729 232 729 C181 729 152 689 152 635 L195 635 C196 667 216 683 236 683 C280 683 288 630 351 630 L351 630 Z M288 -10 C433 -10 528 105 528 248 C528 391 433 503 288 503 C142 503 48 389 48 246 C48 103 142 -10 288 -10 L288 -10 Z M288 37 C165 37 102 139 102 246 C102 354 165 456 287 456 C411 456 474 354 474 248 C474 140 411 37 288 37 L288 37 Z " />
<glyph glyph-name="odieresis" unicode="&#xf6;" horiz-adv-x="577" d="M158 646 L231 646 L231 720 L158 720 L158 646 Z M346 646 L420 646 L420 720 L346 720 L346 646 Z M288 -10 C433 -10 528 105 528 248 C528 391 433 503 288 503 C142 503 48 389 48 246 C48 103 142 -10 288 -10 L288 -10 Z M288 37 C165 37 102 139 102 246 C102 354 165 456 287 456 C411 456 474 354 474 248 C474 140 411 37 288 37 L288 37 Z " />
<glyph glyph-name="divide" unicode="&#xf7;" horiz-adv-x="570" d="M246 505 L323 505 L323 582 L246 582 L246 505 Z M82 324 L488 324 L488 371 L82 371 L82 324 Z M246 113 L323 113 L323 190 L246 190 L246 113 Z " />
<glyph glyph-name="oslash" unicode="&#xf8;" horiz-adv-x="577" d="M288 -10 C433 -10 528 105 528 248 C528 325 500 394 451 441 L530 553 L474 553 L414 468 C379 490 337 503 288 503 C142 503 48 389 48 246 C48 168 76 99 125 53 L46 -60 L102 -60 L162 26 C197 3 240 -10 288 -10 L288 -10 Z M102 246 C102 354 165 456 287 456 C326 456 360 445 386 428 L155 96 C120 135 102 190 102 246 L102 246 Z M288 37 C249 37 216 48 190 66 L422 397 C456 358 474 304 474 248 C474 140 411 37 288 37 L288 37 Z " />
<glyph glyph-name="ugrave" unicode="&#xf9;" horiz-adv-x="564" d="M267 -10 C348 -10 403 32 429 95 L433 0 L480 0 L480 493 L425 493 L425 209 C425 93 357 37 274 37 C183 37 131 91 131 210 L131 493 L77 493 L77 198 C77 63 144 -10 267 -10 L267 -10 Z M264 621 L309 621 L309 657 L210 761 L165 761 L165 725 L264 621 Z " />
<glyph glyph-name="uacute" unicode="&#xfa;" horiz-adv-x="564" d="M267 -10 C348 -10 403 32 429 95 L433 0 L480 0 L480 493 L425 493 L425 209 C425 93 357 37 274 37 C183 37 131 91 131 210 L131 493 L77 493 L77 198 C77 63 144 -10 267 -10 L267 -10 Z M249 610 L294 610 L393 714 L393 750 L348 750 L249 646 L249 610 Z " />
<glyph glyph-name="ucircumflex" unicode="&#xfb;" horiz-adv-x="564" d="M368 610 L404 610 L404 646 L305 750 L256 750 L157 646 L157 610 L193 610 L280 702 L368 610 Z M267 -10 C348 -10 403 32 429 95 L433 0 L480 0 L480 493 L425 493 L425 209 C425 93 357 37 274 37 C183 37 131 91 131 210 L131 493 L77 493 L77 198 C77 63 144 -10 267 -10 L267 -10 Z " />
<glyph glyph-name="udieresis" unicode="&#xfc;" horiz-adv-x="564" d="M147 646 L220 646 L220 720 L147 720 L147 646 Z M335 646 L409 646 L409 720 L335 720 L335 646 Z M267 -10 C348 -10 403 32 429 95 L433 0 L480 0 L480 493 L425 493 L425 209 C425 93 357 37 274 37 C183 37 131 91 131 210 L131 493 L77 493 L77 198 C77 63 144 -10 267 -10 L267 -10 Z " />
<glyph glyph-name="yacute" unicode="&#xfd;" horiz-adv-x="498" d="M233 610 L278 610 L377 714 L377 750 L332 750 L233 646 L233 610 Z M127 -250 L480 458 L480 493 L444 493 L257 112 L63 493 L25 493 L25 455 L228 57 L90 -213 L90 -250 L127 -250 Z " />
<glyph glyph-name="thorn" unicode="&#xfe;" horiz-adv-x="606" d="M82 -250 L136 -250 L136 101 C177 23 251 -10 324 -10 C464 -10 558 105 558 251 C558 390 461 503 324 503 C233 503 167 455 136 388 L136 750 L82 750 L82 -250 Z M318 37 C245 37 136 85 136 251 C136 363 201 456 318 456 C431 456 504 362 504 251 C504 119 421 37 318 37 L318 37 Z " />
<glyph glyph-name="ydieresis" unicode="&#xff;" horiz-adv-x="498" d="M125 646 L198 646 L198 720 L125 720 L125 646 Z M313 646 L387 646 L387 720 L313 720 L313 646 Z M127 -250 L480 458 L480 493 L444 493 L257 112 L63 493 L25 493 L25 455 L228 57 L90 -213 L90 -250 L127 -250 Z " />
<glyph glyph-name="Amacron" unicode="&#x100;" horiz-adv-x="641" d="M59 0 L150 236 L486 236 L578 0 L620 0 L620 46 L346 750 L295 750 L19 41 L19 0 L59 0 Z M467 285 L169 285 L318 676 L467 285 Z M200 847 L443 847 L443 899 L200 899 L200 847 Z " />
<glyph glyph-name="amacron" unicode="&#x101;" horiz-adv-x="510" d="M216 -10 C300 -10 356 37 383 104 L389 0 L432 0 L432 309 C432 436 368 503 247 503 C107 503 70 408 70 408 L70 371 L108 371 C108 371 131 456 245 456 C336 456 378 405 378 311 L378 271 C378 271 319 284 247 284 C101 284 43 222 43 139 C43 55 98 -10 216 -10 L216 -10 Z M221 35 C139 35 95 73 95 139 C95 191 129 240 246 240 C325 240 378 227 378 227 L378 196 C378 122 327 35 221 35 L221 35 Z M144 654 L367 654 L367 703 L144 703 L144 654 Z " />
<glyph glyph-name="Abreve" unicode="&#x102;" horiz-adv-x="641" d="M59 0 L150 236 L486 236 L578 0 L620 0 L620 46 L346 750 L295 750 L19 41 L19 0 L59 0 Z M467 285 L169 285 L318 676 L467 285 Z M320 823 C428 823 442 895 442 895 L442 937 L400 937 C400 937 400 869 320 869 C241 869 236 937 236 937 L194 937 L194 895 C194 895 210 823 320 823 L320 823 Z " />
<glyph glyph-name="abreve" unicode="&#x103;" horiz-adv-x="510" d="M216 -10 C300 -10 356 37 383 104 L389 0 L432 0 L432 309 C432 436 368 503 247 503 C107 503 70 408 70 408 L70 371 L108 371 C108 371 131 456 245 456 C336 456 378 405 378 311 L378 271 C378 271 319 284 247 284 C101 284 43 222 43 139 C43 55 98 -10 216 -10 L216 -10 Z M221 35 C139 35 95 73 95 139 C95 191 129 240 246 240 C325 240 378 227 378 227 L378 196 C378 122 327 35 221 35 L221 35 Z M248 599 C360 599 370 677 370 677 L370 720 L328 720 C328 720 333 645 248 645 C165 645 165 720 165 720 L122 720 L122 677 C122 677 133 599 248 599 L248 599 Z " />
<glyph glyph-name="Aogonek" unicode="&#x104;" horiz-adv-x="641" d="M533 -70 C533 -134 592 -145 592 -145 L634 -145 L634 -102 C614 -102 583 -90 583 -54 C583 -9 620 0 620 0 L620 46 L346 750 L295 750 L19 41 L19 0 L59 0 L150 236 L486 236 L578 0 L577 0 C552 -12 533 -41 533 -70 L533 -70 Z M467 285 L169 285 L318 676 L467 285 Z " />
<glyph glyph-name="aogonek" unicode="&#x105;" horiz-adv-x="510" d="M345 -70 C345 -134 404 -145 404 -145 L446 -145 L446 -102 C426 -102 395 -90 395 -54 C395 -9 432 0 432 0 L432 309 C432 436 368 503 247 503 C107 503 70 408 70 408 L70 371 L108 371 C108 371 131 456 245 456 C336 456 378 405 378 311 L378 271 C378 271 319 284 247 284 C101 284 43 222 43 139 C43 55 98 -10 216 -10 C300 -10 356 37 383 104 L389 0 C364 -12 345 -41 345 -70 L345 -70 Z M221 35 C139 35 95 73 95 139 C95 191 129 240 246 240 C325 240 378 227 378 227 L378 196 C378 122 327 35 221 35 L221 35 Z " />
<glyph glyph-name="Cacute" unicode="&#x106;" horiz-adv-x="736" d="M415 -10 C628 -10 696 133 696 133 L696 172 L654 172 C654 172 602 39 416 39 C233 39 113 184 113 378 C113 562 219 711 415 711 C603 711 649 583 649 583 L691 583 L691 622 C691 622 630 760 414 760 C189 760 54 599 54 378 C54 160 182 -10 415 -10 L415 -10 Z M398 805 L443 805 L556 909 L556 945 L510 945 L398 841 L398 805 Z " />
<glyph glyph-name="cacute" unicode="&#x107;" horiz-adv-x="528" d="M288 -10 C444 -10 481 103 481 103 L481 140 L444 140 C444 140 423 37 289 37 C166 37 103 139 103 246 C103 354 166 455 288 455 C419 455 443 354 443 354 L480 354 L480 392 C480 392 445 503 289 503 C143 503 49 389 49 246 C49 103 140 -10 288 -10 L288 -10 Z M258 610 L303 610 L402 714 L402 750 L357 750 L258 646 L258 610 Z " />
<glyph glyph-name="Ccircumflex" unicode="&#x108;" horiz-adv-x="736" d="M415 -10 C628 -10 696 133 696 133 L696 172 L654 172 C654 172 602 39 416 39 C233 39 113 184 113 378 C113 562 219 711 415 711 C603 711 649 583 649 583 L691 583 L691 622 C691 622 630 760 414 760 C189 760 54 599 54 378 C54 160 182 -10 415 -10 L415 -10 Z M510 816 L546 816 L546 852 L447 942 L398 942 L299 852 L299 816 L335 816 L422 896 L510 816 Z " />
<glyph glyph-name="ccircumflex" unicode="&#x109;" horiz-adv-x="528" d="M288 -10 C444 -10 481 103 481 103 L481 140 L444 140 C444 140 423 37 289 37 C166 37 103 139 103 246 C103 354 166 455 288 455 C419 455 443 354 443 354 L480 354 L480 392 C480 392 445 503 289 503 C143 503 49 389 49 246 C49 103 140 -10 288 -10 L288 -10 Z M372 610 L408 610 L408 646 L309 750 L260 750 L161 646 L161 610 L197 610 L284 702 L372 610 Z " />
<glyph glyph-name="Cdotaccent" unicode="&#x10a;" horiz-adv-x="736" d="M415 -10 C628 -10 696 133 696 133 L696 172 L654 172 C654 172 602 39 416 39 C233 39 113 184 113 378 C113 562 219 711 415 711 C603 711 649 583 649 583 L691 583 L691 622 C691 622 630 760 414 760 C189 760 54 599 54 378 C54 160 182 -10 415 -10 L415 -10 Z M380 841 L456 841 L456 917 L380 917 L380 841 Z " />
<glyph glyph-name="cdotaccent" unicode="&#x10b;" horiz-adv-x="528" d="M288 -10 C444 -10 481 103 481 103 L481 140 L444 140 C444 140 423 37 289 37 C166 37 103 139 103 246 C103 354 166 455 288 455 C419 455 443 354 443 354 L480 354 L480 392 C480 392 445 503 289 503 C143 503 49 389 49 246 C49 103 140 -10 288 -10 L288 -10 Z M250 646 L323 646 L323 720 L250 720 L250 646 Z " />
<glyph glyph-name="Ccaron" unicode="&#x10c;" horiz-adv-x="736" d="M415 -10 C628 -10 696 133 696 133 L696 172 L654 172 C654 172 602 39 416 39 C233 39 113 184 113 378 C113 562 219 711 415 711 C603 711 649 583 649 583 L691 583 L691 622 C691 622 630 760 414 760 C189 760 54 599 54 378 C54 160 182 -10 415 -10 L415 -10 Z M446 816 L543 906 L543 942 L507 942 L421 862 L333 942 L297 942 L297 906 L397 816 L446 816 Z " />
<glyph glyph-name="ccaron" unicode="&#x10d;" horiz-adv-x="528" d="M288 -10 C444 -10 481 103 481 103 L481 140 L444 140 C444 140 423 37 289 37 C166 37 103 139 103 246 C103 354 166 455 288 455 C419 455 443 354 443 354 L480 354 L480 392 C480 392 445 503 289 503 C143 503 49 389 49 246 C49 103 140 -10 288 -10 L288 -10 Z M306 610 L404 714 L404 750 L368 750 L281 658 L193 750 L157 750 L157 714 L257 610 L306 610 Z " />
<glyph glyph-name="Dcaron" unicode="&#x10e;" horiz-adv-x="748" d="M105 0 L317 0 C551 0 696 170 696 378 C696 583 551 750 317 750 L105 750 L105 0 Z M163 49 L163 701 L314 701 C501 701 637 567 637 378 C637 185 501 49 314 49 L163 49 Z M342 816 L439 906 L439 942 L403 942 L317 862 L229 942 L193 942 L193 906 L293 816 L342 816 Z " />
<glyph glyph-name="dcaron" unicode="&#x10f;" horiz-adv-x="612" d="M283 -10 C360 -10 427 23 469 101 L479 0 L525 0 L525 750 L471 750 L471 390 C434 475 359 503 283 503 C151 503 49 397 49 248 C49 100 147 -10 283 -10 L283 -10 Z M289 37 C196 37 103 109 103 248 C103 364 177 456 290 456 C405 456 471 365 471 248 C471 101 377 37 289 37 L289 37 Z M581 602 L617 602 L642 689 L642 750 L581 750 L581 602 Z " />
<glyph glyph-name="Dcroat" unicode="&#x110;" horiz-adv-x="753" d="M700 378 C700 583 555 750 321 750 L109 750 L109 408 L18 408 L18 359 L109 359 L109 0 L321 0 C555 0 700 170 700 378 L700 378 Z M167 49 L167 359 L287 359 L287 408 L167 408 L167 701 L318 701 C505 701 641 567 641 378 C641 185 505 49 318 49 L167 49 Z " />
<glyph glyph-name="dcroat" unicode="&#x111;" horiz-adv-x="608" d="M469 101 L479 0 L525 0 L525 625 L610 625 L610 672 L525 672 L525 750 L471 750 L471 672 L337 672 L337 625 L471 625 L471 390 C434 475 359 503 283 503 C151 503 49 397 49 248 C49 100 147 -10 283 -10 C360 -10 427 23 469 101 L469 101 Z M289 37 C196 37 103 109 103 248 C103 364 177 456 290 456 C405 456 471 365 471 248 C471 101 377 37 289 37 L289 37 Z " />
<glyph glyph-name="Emacron" unicode="&#x112;" horiz-adv-x="570" d="M105 0 L515 0 L515 49 L163 49 L163 365 L478 365 L478 414 L163 414 L163 701 L515 701 L515 750 L105 750 L105 0 Z M183 847 L426 847 L426 899 L183 899 L183 847 Z " />
<glyph glyph-name="emacron" unicode="&#x113;" horiz-adv-x="554" d="M292 -10 C432 -10 484 75 495 99 L495 137 L457 137 C445 93 391 38 292 38 C181 38 108 106 103 239 L503 239 C503 239 506 256 506 287 C506 408 430 503 286 503 C129 503 49 381 49 248 C49 89 138 -10 292 -10 L292 -10 Z M105 284 C117 391 182 456 286 456 C391 456 452 392 452 284 L105 284 Z M170 654 L393 654 L393 703 L170 703 L170 654 Z " />
<glyph glyph-name="Ebreve" unicode="&#x114;" horiz-adv-x="570" d="M105 0 L515 0 L515 49 L163 49 L163 365 L478 365 L478 414 L163 414 L163 701 L515 701 L515 750 L105 750 L105 0 Z M311 823 C419 823 433 895 433 895 L433 937 L391 937 C391 937 391 869 311 869 C232 869 227 937 227 937 L185 937 L185 895 C185 895 201 823 311 823 L311 823 Z " />
<glyph glyph-name="ebreve" unicode="&#x115;" horiz-adv-x="554" d="M292 -10 C432 -10 484 75 495 99 L495 137 L457 137 C445 93 391 38 292 38 C181 38 108 106 103 239 L503 239 C503 239 506 256 506 287 C506 408 430 503 286 503 C129 503 49 381 49 248 C49 89 138 -10 292 -10 L292 -10 Z M105 284 C117 391 182 456 286 456 C391 456 452 392 452 284 L105 284 Z M285 599 C397 599 407 677 407 677 L407 720 L365 720 C365 720 370 645 285 645 C202 645 202 720 202 720 L159 720 L159 677 C159 677 170 599 285 599 L285 599 Z " />
<glyph glyph-name="Edotaccent" unicode="&#x116;" horiz-adv-x="570" d="M105 0 L515 0 L515 49 L163 49 L163 365 L478 365 L478 414 L163 414 L163 701 L515 701 L515 750 L105 750 L105 0 Z M277 838 L353 838 L353 914 L277 914 L277 838 Z " />
<glyph glyph-name="edotaccent" unicode="&#x117;" horiz-adv-x="554" d="M292 -10 C432 -10 484 75 495 99 L495 137 L457 137 C445 93 391 38 292 38 C181 38 108 106 103 239 L503 239 C503 239 506 256 506 287 C506 408 430 503 286 503 C129 503 49 381 49 248 C49 89 138 -10 292 -10 L292 -10 Z M105 284 C117 391 182 456 286 456 C391 456 452 392 452 284 L105 284 Z M248 646 L321 646 L321 720 L248 720 L248 646 Z " />
<glyph glyph-name="Eogonek" unicode="&#x118;" horiz-adv-x="570" d="M428 -70 C428 -134 487 -145 487 -145 L529 -145 L529 -102 C509 -102 478 -90 478 -54 C478 -9 515 0 515 0 L515 49 L163 49 L163 365 L478 365 L478 414 L163 414 L163 701 L515 701 L515 750 L105 750 L105 0 L472 0 C447 -12 428 -41 428 -70 L428 -70 Z " />
<glyph glyph-name="eogonek" unicode="&#x119;" horiz-adv-x="554" d="M489 -102 C459 -102 424 -95 424 -54 C424 -18 439 15 476 69 C486 81 492 92 495 99 L495 137 L457 137 C445 93 391 38 292 38 C181 38 108 106 103 239 L503 239 C503 239 506 256 506 287 C506 408 430 503 286 503 C129 503 49 381 49 248 C49 89 138 -10 292 -10 C338 -10 374 -1 403 12 C379 -24 374 -48 374 -70 C374 -140 446 -145 446 -145 L489 -145 L489 -102 Z M105 284 C117 391 182 456 286 456 C391 456 452 392 452 284 L105 284 Z " />
<glyph glyph-name="Ecaron" unicode="&#x11a;" horiz-adv-x="570" d="M105 0 L515 0 L515 49 L163 49 L163 365 L478 365 L478 414 L163 414 L163 701 L515 701 L515 750 L105 750 L105 0 Z M336 816 L433 906 L433 942 L397 942 L311 862 L223 942 L187 942 L187 906 L287 816 L336 816 Z " />
<glyph glyph-name="ecaron" unicode="&#x11b;" horiz-adv-x="554" d="M310 610 L408 714 L408 750 L372 750 L285 658 L197 750 L161 750 L161 714 L261 610 L310 610 Z M292 -10 C432 -10 484 75 495 99 L495 137 L457 137 C445 93 391 38 292 38 C181 38 108 106 103 239 L503 239 C503 239 506 256 506 287 C506 408 430 503 286 503 C129 503 49 381 49 248 C49 89 138 -10 292 -10 L292 -10 Z M105 284 C117 391 182 456 286 456 C391 456 452 392 452 284 L105 284 Z " />
<glyph glyph-name="Gcircumflex" unicode="&#x11c;" horiz-adv-x="778" d="M424 -10 C643 -10 712 117 712 117 L712 376 L433 376 L433 327 L654 327 L654 138 C628 105 560 39 425 39 C234 39 112 184 112 378 C112 561 219 711 424 711 C614 711 663 583 663 583 L706 583 L706 622 C706 622 644 760 423 760 C190 760 53 598 53 378 C53 160 190 -10 424 -10 L424 -10 Z M507 816 L543 816 L543 852 L444 942 L395 942 L296 852 L296 816 L332 816 L419 896 L507 816 Z " />
<glyph glyph-name="gcircumflex" unicode="&#x11d;" horiz-adv-x="609" d="M286 -260 C440 -260 526 -163 526 30 L526 493 L480 493 L472 391 C436 467 361 503 284 503 C152 503 50 397 50 248 C50 100 148 -10 284 -10 C359 -10 432 24 472 107 L472 30 C472 -139 405 -211 285 -211 C172 -211 122 -143 106 -86 L69 -86 L69 -124 C78 -156 128 -260 286 -260 L286 -260 Z M291 37 C198 37 104 109 104 248 C104 364 178 456 291 456 C406 456 472 365 472 248 C472 101 378 37 291 37 L291 37 Z M389 610 L425 610 L425 646 L326 750 L277 750 L178 646 L178 610 L214 610 L301 702 L389 610 Z " />
<glyph glyph-name="Gbreve" unicode="&#x11e;" horiz-adv-x="778" d="M424 -10 C643 -10 712 117 712 117 L712 376 L433 376 L433 327 L654 327 L654 138 C628 105 560 39 425 39 C234 39 112 184 112 378 C112 561 219 711 424 711 C614 711 663 583 663 583 L706 583 L706 622 C706 622 644 760 423 760 C190 760 53 598 53 378 C53 160 190 -10 424 -10 L424 -10 Z M424 823 C532 823 546 895 546 895 L546 937 L504 937 C504 937 504 869 424 869 C345 869 340 937 340 937 L298 937 L298 895 C298 895 314 823 424 823 L424 823 Z " />
<glyph glyph-name="gbreve" unicode="&#x11f;" horiz-adv-x="609" d="M286 -260 C440 -260 526 -163 526 30 L526 493 L480 493 L472 391 C436 467 361 503 284 503 C152 503 50 397 50 248 C50 100 148 -10 284 -10 C359 -10 432 24 472 107 L472 30 C472 -139 405 -211 285 -211 C172 -211 122 -143 106 -86 L69 -86 L69 -124 C78 -156 128 -260 286 -260 L286 -260 Z M291 37 C198 37 104 109 104 248 C104 364 178 456 291 456 C406 456 472 365 472 248 C472 101 378 37 291 37 L291 37 Z M299 599 C411 599 421 677 421 677 L421 720 L379 720 C379 720 384 645 299 645 C216 645 216 720 216 720 L173 720 L173 677 C173 677 184 599 299 599 L299 599 Z " />
<glyph glyph-name="Gdotaccent" unicode="&#x120;" horiz-adv-x="778" d="M424 -10 C643 -10 712 117 712 117 L712 376 L433 376 L433 327 L654 327 L654 138 C628 105 560 39 425 39 C234 39 112 184 112 378 C112 561 219 711 424 711 C614 711 663 583 663 583 L706 583 L706 622 C706 622 644 760 423 760 C190 760 53 598 53 378 C53 160 190 -10 424 -10 L424 -10 Z M384 838 L460 838 L460 914 L384 914 L384 838 Z " />
<glyph glyph-name="gdotaccent" unicode="&#x121;" horiz-adv-x="609" d="M286 -260 C440 -260 526 -163 526 30 L526 493 L480 493 L472 391 C436 467 361 503 284 503 C152 503 50 397 50 248 C50 100 148 -10 284 -10 C359 -10 432 24 472 107 L472 30 C472 -139 405 -211 285 -211 C172 -211 122 -143 106 -86 L69 -86 L69 -124 C78 -156 128 -260 286 -260 L286 -260 Z M291 37 C198 37 104 109 104 248 C104 364 178 456 291 456 C406 456 472 365 472 248 C472 101 378 37 291 37 L291 37 Z M265 646 L338 646 L338 720 L265 720 L265 646 Z " />
<glyph glyph-name="Gcommaaccent" unicode="&#x122;" horiz-adv-x="778" d="M424 -10 C643 -10 712 117 712 117 L712 376 L433 376 L433 327 L654 327 L654 138 C628 105 560 39 425 39 C234 39 112 184 112 378 C112 561 219 711 424 711 C614 711 663 583 663 583 L706 583 L706 622 C706 622 644 760 423 760 C190 760 53 598 53 378 C53 160 190 -10 424 -10 L424 -10 Z M399 -191 L434 -191 L459 -110 L459 -52 L399 -52 L399 -191 Z " />
<glyph glyph-name="gcommaaccent" unicode="&#x123;" horiz-adv-x="609" d="M286 -260 C440 -260 526 -163 526 30 L526 493 L480 493 L472 391 C436 467 361 503 284 503 C152 503 50 397 50 248 C50 100 148 -10 284 -10 C359 -10 432 24 472 107 L472 30 C472 -139 405 -211 285 -211 C172 -211 122 -143 106 -86 L69 -86 L69 -124 C78 -156 128 -260 286 -260 L286 -260 Z M291 37 C198 37 104 109 104 248 C104 364 178 456 291 456 C406 456 472 365 472 248 C472 101 378 37 291 37 L291 37 Z M331 754 L296 754 L271 673 L271 615 L331 615 L331 754 Z " />
<glyph glyph-name="Hcircumflex" unicode="&#x124;" horiz-adv-x="755" d="M105 0 L163 0 L163 359 L592 359 L592 0 L650 0 L650 750 L592 750 L592 408 L163 408 L163 750 L105 750 L105 0 Z M468 816 L504 816 L504 852 L405 942 L356 942 L257 852 L257 816 L293 816 L380 896 L468 816 Z " />
<glyph glyph-name="hcircumflex" unicode="&#x125;" horiz-adv-x="562" d="M82 0 L136 0 L136 277 C136 386 195 456 291 456 C396 456 431 388 431 276 L431 0 L485 0 L485 288 C485 416 434 503 301 503 C215 503 159 457 136 399 L136 750 L82 750 L82 0 Z M366 815 L402 815 L402 851 L303 941 L254 941 L155 851 L155 815 L191 815 L278 895 L366 815 Z " />
<glyph glyph-name="Hbar" unicode="&#x126;" horiz-adv-x="760" d="M167 359 L596 359 L596 0 L654 0 L654 559 L731 559 L731 608 L654 608 L654 750 L596 750 L596 608 L167 608 L167 750 L109 750 L109 608 L19 608 L19 559 L109 559 L109 0 L167 0 L167 359 Z M167 408 L167 559 L596 559 L596 408 L167 408 Z " />
<glyph glyph-name="hbar" unicode="&#x127;" horiz-adv-x="562" d="M136 277 C136 386 195 456 291 456 C396 456 431 388 431 276 L431 0 L485 0 L485 288 C485 416 434 503 301 503 C215 503 159 457 136 399 L136 625 L270 625 L270 672 L136 672 L136 750 L82 750 L82 672 L-3 672 L-3 625 L82 625 L82 0 L136 0 L136 277 Z " />
<glyph glyph-name="Itilde" unicode="&#x128;" horiz-adv-x="268" d="M198 821 C244 821 268 854 268 916 L225 916 C224 877 209 868 190 868 C149 868 141 921 78 921 C28 921 -1 881 -1 826 L41 826 C43 859 63 874 83 874 C127 874 135 821 198 821 L198 821 Z M105 0 L163 0 L163 750 L105 750 L105 0 Z " />
<glyph glyph-name="itilde" unicode="&#x129;" horiz-adv-x="220" d="M83 0 L137 0 L137 493 L83 493 L83 0 Z M181 630 C227 630 251 662 251 724 L208 724 C207 685 192 676 173 676 C132 676 124 729 62 729 C11 729 -18 689 -18 635 L25 635 C26 667 46 683 66 683 C110 683 118 630 181 630 L181 630 Z " />
<glyph glyph-name="Imacron" unicode="&#x12a;" horiz-adv-x="268" d="M13 847 L256 847 L256 899 L13 899 L13 847 Z M105 0 L163 0 L163 750 L105 750 L105 0 Z " />
<glyph glyph-name="imacron" unicode="&#x12b;" horiz-adv-x="220" d="M83 0 L137 0 L137 493 L83 493 L83 0 Z M-1 654 L222 654 L222 703 L-1 703 L-1 654 Z " />
<glyph glyph-name="Ibreve" unicode="&#x12c;" horiz-adv-x="268" d="M136 823 C244 823 258 895 258 895 L258 937 L216 937 C216 937 216 869 136 869 C57 869 52 937 52 937 L10 937 L10 895 C10 895 26 823 136 823 L136 823 Z M105 0 L163 0 L163 750 L105 750 L105 0 Z " />
<glyph glyph-name="ibreve" unicode="&#x12d;" horiz-adv-x="220" d="M83 0 L137 0 L137 493 L83 493 L83 0 Z M112 599 C224 599 234 677 234 677 L234 720 L192 720 C192 720 197 645 112 645 C29 645 29 720 29 720 L-14 720 L-14 677 C-14 677 -3 599 112 599 L112 599 Z " />
<glyph glyph-name="Iogonek" unicode="&#x12e;" horiz-adv-x="268" d="M76 -70 C76 -134 135 -145 135 -145 L177 -145 L177 -102 C157 -102 126 -90 126 -54 C126 -9 163 0 163 0 L163 750 L105 750 L105 0 L120 0 C95 -12 76 -41 76 -70 L76 -70 Z " />
<glyph glyph-name="iogonek" unicode="&#x12f;" horiz-adv-x="222" d="M75 646 L148 646 L148 720 L75 720 L75 646 Z M51 -70 C51 -134 110 -145 110 -145 L152 -145 L152 -102 C132 -102 101 -90 101 -54 C101 -9 138 0 138 0 L138 493 L84 493 L84 0 L95 0 C70 -12 51 -41 51 -70 L51 -70 Z " />
<glyph glyph-name="Idotaccent" unicode="&#x130;" horiz-adv-x="268" d="M98 838 L174 838 L174 914 L98 914 L98 838 Z M105 0 L163 0 L163 750 L105 750 L105 0 Z " />
<glyph glyph-name="dotlessi" unicode="&#x131;" horiz-adv-x="222" d="M84 0 L138 0 L138 493 L84 493 L84 0 Z " />
<glyph glyph-name="IJ" unicode="&#x132;" horiz-adv-x="657" d="M105 0 L163 0 L163 750 L105 750 L105 0 Z M401 -10 C511 -10 559 54 559 171 L559 750 L500 750 L500 170 C500 77 468 39 399 39 C337 39 297 90 299 133 L257 133 L257 94 C259 48 311 -10 401 -10 L401 -10 Z " />
<glyph glyph-name="ij" unicode="&#x133;" horiz-adv-x="451" d="M84 0 L138 0 L138 493 L84 493 L84 0 Z M75 646 L148 646 L148 720 L75 720 L75 646 Z M248 -260 C327 -260 367 -212 367 -119 L367 493 L313 493 L313 -117 C313 -179 292 -211 246 -211 C202 -211 177 -184 175 -158 L137 -158 L137 -195 C146 -224 178 -260 248 -260 L248 -260 Z M304 646 L377 646 L377 720 L304 720 L304 646 Z " />
<glyph glyph-name="Jcircumflex" unicode="&#x134;" horiz-adv-x="426" d="M170 -10 C280 -10 328 54 328 171 L328 750 L269 750 L269 170 C269 77 237 39 168 39 C106 39 66 90 68 133 L26 133 L26 94 C28 48 80 -10 170 -10 L170 -10 Z M383 816 L419 816 L419 852 L320 942 L271 942 L172 852 L172 816 L208 816 L295 896 L383 816 Z " />
<glyph glyph-name="jcircumflex" unicode="&#x135;" horiz-adv-x="220" d="M18 -260 C97 -260 137 -212 137 -119 L137 493 L83 493 L83 -117 C83 -179 62 -211 16 -211 C-28 -211 -53 -184 -55 -158 L-93 -158 L-93 -195 C-84 -224 -52 -260 18 -260 L18 -260 Z M198 610 L234 610 L234 646 L135 750 L86 750 L-13 646 L-13 610 L23 610 L110 702 L198 610 Z " />
<glyph glyph-name="Kcommaaccent" unicode="&#x136;" horiz-adv-x="612" d="M311 -191 L346 -191 L371 -110 L371 -52 L311 -52 L311 -191 Z M163 359 L558 0 L597 0 L597 39 L221 379 L584 714 L584 750 L548 750 L163 392 L163 750 L105 750 L105 0 L163 0 L163 359 Z " />
<glyph glyph-name="kcommaaccent" unicode="&#x137;" horiz-adv-x="470" d="M82 0 L136 0 L136 249 L414 0 L453 0 L453 39 L202 259 L437 458 L437 493 L401 493 L136 265 L136 750 L82 750 L82 0 Z M226 -191 L261 -191 L286 -110 L286 -52 L226 -52 L226 -191 Z " />
<glyph glyph-name="Lacute" unicode="&#x139;" horiz-adv-x="530" d="M105 0 L508 0 L508 49 L163 49 L163 750 L105 750 L105 0 Z M110 805 L155 805 L268 909 L268 945 L222 945 L110 841 L110 805 Z " />
<glyph glyph-name="lacute" unicode="&#x13a;" horiz-adv-x="222" d="M84 0 L138 0 L138 750 L84 750 L84 0 Z M87 824 L132 824 L245 928 L245 964 L199 964 L87 860 L87 824 Z " />
<glyph glyph-name="Lcommaaccent" unicode="&#x13b;" horiz-adv-x="530" d="M105 0 L508 0 L508 49 L163 49 L163 750 L105 750 L105 0 Z M289 -191 L324 -191 L349 -110 L349 -52 L289 -52 L289 -191 Z " />
<glyph glyph-name="lcommaaccent" unicode="&#x13c;" horiz-adv-x="222" d="M84 0 L138 0 L138 750 L84 750 L84 0 Z M82 -191 L117 -191 L142 -110 L142 -52 L82 -52 L82 -191 Z " />
<glyph glyph-name="Lcaron" unicode="&#x13d;" horiz-adv-x="537" d="M105 0 L508 0 L508 49 L163 49 L163 750 L105 750 L105 0 Z M418 602 L454 602 L479 689 L479 750 L418 750 L418 602 Z " />
<glyph glyph-name="lcaron" unicode="&#x13e;" horiz-adv-x="225" d="M84 0 L138 0 L138 750 L84 750 L84 0 Z M195 602 L231 602 L256 689 L256 750 L195 750 L195 602 Z " />
<glyph glyph-name="Ldot" unicode="&#x13f;" horiz-adv-x="532" d="M373 311 L444 311 L444 382 L373 382 L373 311 Z M105 0 L508 0 L508 49 L163 49 L163 750 L105 750 L105 0 Z " />
<glyph glyph-name="ldot" unicode="&#x140;" horiz-adv-x="373" d="M84 0 L138 0 L138 750 L84 750 L84 0 Z M261 253 L332 253 L332 324 L261 324 L261 253 Z " />
<glyph glyph-name="Lslash" unicode="&#x141;" horiz-adv-x="534" d="M512 49 L167 49 L167 309 L291 365 L291 414 L167 358 L167 750 L109 750 L109 332 L19 292 L19 243 L109 283 L109 0 L512 0 L512 49 Z " />
<glyph glyph-name="lslash" unicode="&#x142;" horiz-adv-x="263" d="M247 342 L247 393 L157 346 L157 750 L103 750 L103 318 L13 271 L13 220 L103 267 L103 0 L157 0 L157 295 L247 342 Z " />
<glyph glyph-name="Nacute" unicode="&#x143;" horiz-adv-x="751" d="M105 0 L158 0 L158 651 L593 0 L646 0 L646 750 L593 750 L593 96 L158 750 L105 750 L105 0 Z M359 805 L404 805 L517 909 L517 945 L471 945 L359 841 L359 805 Z " />
<glyph glyph-name="nacute" unicode="&#x144;" horiz-adv-x="564" d="M84 0 L138 0 L138 277 C138 386 197 456 293 456 C398 456 433 388 433 276 L433 0 L487 0 L487 288 C487 416 436 503 303 503 C212 503 155 451 134 388 L130 493 L84 493 L84 0 Z M256 610 L301 610 L400 714 L400 750 L355 750 L256 646 L256 610 Z " />
<glyph glyph-name="Ncommaaccent" unicode="&#x145;" horiz-adv-x="751" d="M105 0 L158 0 L158 651 L593 0 L646 0 L646 750 L593 750 L593 96 L158 750 L105 750 L105 0 Z M340 -191 L375 -191 L400 -110 L400 -52 L340 -52 L340 -191 Z " />
<glyph glyph-name="ncommaaccent" unicode="&#x146;" horiz-adv-x="564" d="M84 0 L138 0 L138 277 C138 386 197 456 293 456 C398 456 433 388 433 276 L433 0 L487 0 L487 288 C487 416 436 503 303 503 C212 503 155 451 134 388 L130 493 L84 493 L84 0 Z M255 -191 L290 -191 L315 -110 L315 -52 L255 -52 L255 -191 Z " />
<glyph glyph-name="Ncaron" unicode="&#x147;" horiz-adv-x="751" d="M105 0 L158 0 L158 651 L593 0 L646 0 L646 750 L593 750 L593 96 L158 750 L105 750 L105 0 Z M412 816 L509 906 L509 942 L473 942 L387 862 L299 942 L263 942 L263 906 L363 816 L412 816 Z " />
<glyph glyph-name="ncaron" unicode="&#x148;" horiz-adv-x="564" d="M84 0 L138 0 L138 277 C138 386 197 456 293 456 C398 456 433 388 433 276 L433 0 L487 0 L487 288 C487 416 436 503 303 503 C212 503 155 451 134 388 L130 493 L84 493 L84 0 Z M306 610 L404 714 L404 750 L368 750 L281 658 L193 750 L157 750 L157 714 L257 610 L306 610 Z " />
<glyph glyph-name="napostrophe" unicode="&#x149;" horiz-adv-x="564" d="M84 602 L120 602 L145 689 L145 750 L84 750 L84 602 Z M84 0 L138 0 L138 277 C138 386 197 456 293 456 C398 456 433 388 433 276 L433 0 L487 0 L487 288 C487 416 436 503 303 503 C212 503 155 451 134 388 L130 493 L84 493 L84 0 Z " />
<glyph glyph-name="Eng" unicode="&#x14a;" horiz-adv-x="751" d="M593 750 L593 96 L158 750 L105 750 L105 0 L158 0 L158 651 L593 0 L593 -121 C593 -182 571 -210 527 -210 C477 -210 456 -175 454 -149 L411 -149 L411 -189 C420 -218 457 -260 527 -260 C606 -260 646 -212 646 -119 L646 750 L593 750 Z " />
<glyph glyph-name="eng" unicode="&#x14b;" horiz-adv-x="564" d="M303 503 C212 503 155 451 134 388 L130 493 L84 493 L84 0 L138 0 L138 277 C138 386 197 456 293 456 C398 456 433 388 433 276 L433 -87 C433 -169 402 -211 333 -211 L333 -260 C434 -260 487 -202 487 -89 L487 288 C487 416 436 503 303 503 L303 503 Z " />
<glyph glyph-name="Omacron" unicode="&#x14c;" horiz-adv-x="830" d="M415 -10 C638 -10 777 155 777 378 C777 598 638 760 415 760 C192 760 53 598 53 378 C53 155 192 -10 415 -10 L415 -10 Z M415 39 C228 39 112 183 112 378 C112 569 228 711 415 711 C602 711 718 569 718 378 C718 183 602 39 415 39 L415 39 Z M293 847 L536 847 L536 899 L293 899 L293 847 Z " />
<glyph glyph-name="omacron" unicode="&#x14d;" horiz-adv-x="577" d="M288 -10 C433 -10 528 105 528 248 C528 391 433 503 288 503 C142 503 48 389 48 246 C48 103 142 -10 288 -10 L288 -10 Z M288 37 C165 37 102 139 102 246 C102 354 165 456 287 456 C411 456 474 354 474 248 C474 140 411 37 288 37 L288 37 Z M176 654 L399 654 L399 703 L176 703 L176 654 Z " />
<glyph glyph-name="Obreve" unicode="&#x14e;" horiz-adv-x="830" d="M415 -10 C638 -10 777 155 777 378 C777 598 638 760 415 760 C192 760 53 598 53 378 C53 155 192 -10 415 -10 L415 -10 Z M415 39 C228 39 112 183 112 378 C112 569 228 711 415 711 C602 711 718 569 718 378 C718 183 602 39 415 39 L415 39 Z M416 823 C524 823 538 895 538 895 L538 937 L496 937 C496 937 496 869 416 869 C337 869 332 937 332 937 L290 937 L290 895 C290 895 306 823 416 823 L416 823 Z " />
<glyph glyph-name="obreve" unicode="&#x14f;" horiz-adv-x="577" d="M288 -10 C433 -10 528 105 528 248 C528 391 433 503 288 503 C142 503 48 389 48 246 C48 103 142 -10 288 -10 L288 -10 Z M288 37 C165 37 102 139 102 246 C102 354 165 456 287 456 C411 456 474 354 474 248 C474 140 411 37 288 37 L288 37 Z M285 599 C397 599 407 677 407 677 L407 720 L365 720 C365 720 370 645 285 645 C202 645 202 720 202 720 L159 720 L159 677 C159 677 170 599 285 599 L285 599 Z " />
<glyph glyph-name="Ohungarumlaut" unicode="&#x150;" horiz-adv-x="830" d="M415 -10 C638 -10 777 155 777 378 C777 598 638 760 415 760 C192 760 53 598 53 378 C53 155 192 -10 415 -10 L415 -10 Z M415 39 C228 39 112 183 112 378 C112 569 228 711 415 711 C602 711 718 569 718 378 C718 183 602 39 415 39 L415 39 Z M309 804 L348 804 L461 908 L461 944 L421 944 L309 840 L309 804 Z M481 804 L520 804 L633 908 L633 944 L593 944 L481 840 L481 804 Z " />
<glyph glyph-name="ohungarumlaut" unicode="&#x151;" horiz-adv-x="577" d="M191 610 L230 610 L332 714 L332 750 L293 750 L191 646 L191 610 Z M349 610 L388 610 L491 714 L491 750 L452 750 L349 646 L349 610 Z M288 -10 C433 -10 528 105 528 248 C528 391 433 503 288 503 C142 503 48 389 48 246 C48 103 142 -10 288 -10 L288 -10 Z M288 37 C165 37 102 139 102 246 C102 354 165 456 287 456 C411 456 474 354 474 248 C474 140 411 37 288 37 L288 37 Z " />
<glyph glyph-name="OE" unicode="&#x152;" horiz-adv-x="991" d="M936 0 L936 49 L584 49 L584 365 L899 365 L899 414 L584 414 L584 701 L936 701 L936 750 L526 750 C493 757 450 760 415 760 C192 760 53 598 53 378 C53 155 192 -10 415 -10 C450 -10 493 -7 527 0 L936 0 Z M112 378 C112 569 228 711 415 711 C451 711 493 708 526 699 L526 52 C493 43 450 39 415 39 C228 39 112 183 112 378 L112 378 Z " />
<glyph glyph-name="oe" unicode="&#x153;" horiz-adv-x="979" d="M718 -10 C858 -10 910 75 920 99 L920 137 L883 137 C871 93 817 38 718 38 C607 38 534 106 529 239 L929 239 C929 239 932 256 932 287 C932 408 856 503 712 503 C605 503 534 445 501 366 C465 448 388 503 288 503 C142 503 48 389 48 246 C48 103 142 -10 288 -10 C387 -10 463 45 500 125 C534 40 611 -10 718 -10 L718 -10 Z M288 37 C165 37 102 139 102 246 C102 354 165 456 287 456 C411 456 474 354 474 248 C474 140 411 37 288 37 L288 37 Z M531 284 C543 391 608 456 712 456 C816 456 878 392 878 284 L531 284 Z " />
<glyph glyph-name="Racute" unicode="&#x154;" horiz-adv-x="619" d="M163 0 L163 328 L296 328 L543 0 L583 0 L583 41 L358 339 C484 361 541 446 541 544 C541 673 450 750 288 750 L105 750 L105 0 L163 0 Z M163 380 L163 700 L301 700 C442 700 483 608 483 543 C483 460 431 380 301 380 L163 380 Z M267 805 L312 805 L425 909 L425 945 L379 945 L267 841 L267 805 Z " />
<glyph glyph-name="racute" unicode="&#x155;" horiz-adv-x="422" d="M84 0 L138 0 L138 297 C138 375 168 456 262 456 C328 456 359 417 370 359 L408 359 L408 397 C395 465 347 503 274 503 C205 503 158 467 135 413 L130 493 L84 493 L84 0 Z M209 610 L254 610 L353 714 L353 750 L308 750 L209 646 L209 610 Z " />
<glyph glyph-name="Rcommaaccent" unicode="&#x156;" horiz-adv-x="619" d="M163 0 L163 328 L296 328 L543 0 L583 0 L583 41 L358 339 C484 361 541 446 541 544 C541 673 450 750 288 750 L105 750 L105 0 L163 0 Z M163 380 L163 700 L301 700 C442 700 483 608 483 543 C483 460 431 380 301 380 L163 380 Z M302 -191 L337 -191 L362 -110 L362 -52 L302 -52 L302 -191 Z " />
<glyph glyph-name="rcommaaccent" unicode="&#x157;" horiz-adv-x="422" d="M84 0 L138 0 L138 297 C138 375 168 456 262 456 C328 456 359 417 370 359 L408 359 L408 397 C395 465 347 503 274 503 C205 503 158 467 135 413 L130 493 L84 493 L84 0 Z M82 -191 L117 -191 L142 -110 L142 -52 L82 -52 L82 -191 Z " />
<glyph glyph-name="Rcaron" unicode="&#x158;" horiz-adv-x="619" d="M163 0 L163 328 L296 328 L543 0 L583 0 L583 41 L358 339 C484 361 541 446 541 544 C541 673 450 750 288 750 L105 750 L105 0 L163 0 Z M163 380 L163 700 L301 700 C442 700 483 608 483 543 C483 460 431 380 301 380 L163 380 Z M316 816 L413 906 L413 942 L377 942 L291 862 L203 942 L167 942 L167 906 L267 816 L316 816 Z " />
<glyph glyph-name="rcaron" unicode="&#x159;" horiz-adv-x="422" d="M84 0 L138 0 L138 297 C138 375 168 456 262 456 C328 456 359 417 370 359 L408 359 L408 397 C395 465 347 503 274 503 C205 503 158 467 135 413 L130 493 L84 493 L84 0 Z M255 610 L353 714 L353 750 L317 750 L230 658 L142 750 L106 750 L106 714 L206 610 L255 610 Z " />
<glyph glyph-name="Sacute" unicode="&#x15a;" horiz-adv-x="588" d="M302 -10 C440 -10 534 67 534 195 C534 312 461 368 335 402 L291 414 C195 439 124 477 124 572 C124 647 183 711 297 711 C425 711 462 632 470 573 L513 573 L513 612 C498 697 428 760 300 760 C148 760 67 673 67 570 C67 467 124 399 268 362 L303 352 C446 314 477 262 477 195 C477 93 402 39 303 39 C191 39 126 92 96 182 L54 182 L54 143 C83 64 154 -10 302 -10 L302 -10 Z M278 805 L323 805 L436 909 L436 945 L390 945 L278 841 L278 805 Z " />
<glyph glyph-name="sacute" unicode="&#x15b;" horiz-adv-x="467" d="M243 -10 C362 -10 418 50 418 127 C418 215 345 246 270 263 L215 276 C152 291 112 312 112 366 C112 418 157 456 232 456 C314 456 356 416 367 366 L404 366 L404 403 C389 461 329 503 232 503 C129 503 60 442 60 364 C60 280 121 247 188 232 L249 218 C318 201 365 182 365 124 C365 75 324 37 243 37 C150 37 103 85 86 136 L49 136 L49 99 C69 48 126 -10 243 -10 L243 -10 Z M211 610 L256 610 L355 714 L355 750 L310 750 L211 646 L211 610 Z " />
<glyph glyph-name="Scircumflex" unicode="&#x15c;" horiz-adv-x="588" d="M302 -10 C440 -10 534 67 534 195 C534 312 461 368 335 402 L291 414 C195 439 124 477 124 572 C124 647 183 711 297 711 C425 711 462 632 470 573 L513 573 L513 612 C498 697 428 760 300 760 C148 760 67 673 67 570 C67 467 124 399 268 362 L303 352 C446 314 477 262 477 195 C477 93 402 39 303 39 C191 39 126 92 96 182 L54 182 L54 143 C83 64 154 -10 302 -10 L302 -10 Z M388 816 L424 816 L424 852 L325 942 L276 942 L177 852 L177 816 L213 816 L300 896 L388 816 Z " />
<glyph glyph-name="scircumflex" unicode="&#x15d;" horiz-adv-x="467" d="M243 -10 C362 -10 418 50 418 127 C418 215 345 246 270 263 L215 276 C152 291 112 312 112 366 C112 418 157 456 232 456 C314 456 356 416 367 366 L404 366 L404 403 C389 461 329 503 232 503 C129 503 60 442 60 364 C60 280 121 247 188 232 L249 218 C318 201 365 182 365 124 C365 75 324 37 243 37 C150 37 103 85 86 136 L49 136 L49 99 C69 48 126 -10 243 -10 L243 -10 Z M330 610 L366 610 L366 646 L267 750 L218 750 L119 646 L119 610 L155 610 L242 702 L330 610 Z " />
<glyph glyph-name="Scedilla" unicode="&#x15e;" horiz-adv-x="588" d="M384 -112 C384 -74 361 -47 313 -40 L313 -10 C445 -6 534 70 534 195 C534 312 461 368 335 402 L291 414 C195 439 124 477 124 572 C124 647 183 711 297 711 C425 711 462 632 470 573 L513 573 L513 612 C498 697 428 760 300 760 C148 760 67 673 67 570 C67 467 124 399 268 362 L303 352 C446 314 477 262 477 195 C477 93 402 39 303 39 C191 39 126 92 96 182 L54 182 L54 143 C81 70 143 2 268 -9 L268 -66 C306 -66 335 -79 335 -109 C335 -140 306 -151 264 -151 L264 -193 L301 -193 C338 -189 384 -163 384 -112 L384 -112 Z " />
<glyph glyph-name="scedilla" unicode="&#x15f;" horiz-adv-x="467" d="M327 -111 C327 -73 304 -46 256 -39 L256 -10 C366 -6 418 53 418 127 C418 215 345 246 270 263 L215 276 C152 291 112 312 112 366 C112 418 157 456 232 456 C314 456 356 416 367 366 L404 366 L404 403 C389 461 329 503 232 503 C129 503 60 442 60 364 C60 280 121 247 188 232 L249 218 C318 201 365 182 365 124 C365 75 324 37 243 37 C150 37 103 85 86 136 L49 136 L49 99 C67 53 115 1 211 -8 L211 -65 C249 -65 278 -78 278 -108 C278 -139 249 -150 207 -150 L207 -192 L244 -192 C281 -188 327 -162 327 -111 L327 -111 Z " />
<glyph glyph-name="Scaron" unicode="&#x160;" horiz-adv-x="588" d="M302 -10 C440 -10 534 67 534 195 C534 312 461 368 335 402 L291 414 C195 439 124 477 124 572 C124 647 183 711 297 711 C425 711 462 632 470 573 L513 573 L513 612 C498 697 428 760 300 760 C148 760 67 673 67 570 C67 467 124 399 268 362 L303 352 C446 314 477 262 477 195 C477 93 402 39 303 39 C191 39 126 92 96 182 L54 182 L54 143 C83 64 154 -10 302 -10 L302 -10 Z M321 816 L418 906 L418 942 L382 942 L296 862 L208 942 L172 942 L172 906 L272 816 L321 816 Z " />
<glyph glyph-name="scaron" unicode="&#x161;" horiz-adv-x="467" d="M243 -10 C362 -10 418 50 418 127 C418 215 345 246 270 263 L215 276 C152 291 112 312 112 366 C112 418 157 456 232 456 C314 456 356 416 367 366 L404 366 L404 403 C389 461 329 503 232 503 C129 503 60 442 60 364 C60 280 121 247 188 232 L249 218 C318 201 365 182 365 124 C365 75 324 37 243 37 C150 37 103 85 86 136 L49 136 L49 99 C69 48 126 -10 243 -10 L243 -10 Z M264 610 L362 714 L362 750 L326 750 L239 658 L151 750 L115 750 L115 714 L215 610 L264 610 Z " />
<glyph glyph-name="Tcommaaccent" unicode="&#x162;" horiz-adv-x="620" d="M280 0 L339 0 L339 701 L601 701 L601 750 L19 750 L19 701 L280 701 L280 0 Z M279 -191 L314 -191 L339 -110 L339 -52 L279 -52 L279 -191 Z " />
<glyph glyph-name="tcommaaccent" unicode="&#x163;" horiz-adv-x="394" d="M216 -191 L251 -191 L276 -110 L276 -52 L216 -52 L216 -191 Z M256 -10 C337 -10 374 40 385 84 L385 122 L347 122 C344 88 325 37 257 37 C185 37 155 86 155 162 L155 446 L351 446 L351 493 L155 493 L155 625 L109 625 L105 493 L20 493 L20 446 L101 446 L101 153 C101 44 165 -10 256 -10 L256 -10 Z " />
<glyph glyph-name="Tcaron" unicode="&#x164;" horiz-adv-x="620" d="M280 0 L339 0 L339 701 L601 701 L601 750 L19 750 L19 701 L280 701 L280 0 Z M334 816 L431 906 L431 942 L395 942 L309 862 L221 942 L185 942 L185 906 L285 816 L334 816 Z " />
<glyph glyph-name="tcaron" unicode="&#x165;" horiz-adv-x="394" d="M257 602 L293 602 L318 689 L318 750 L257 750 L257 602 Z M256 -10 C337 -10 374 40 385 84 L385 122 L347 122 C344 88 325 37 257 37 C185 37 155 86 155 162 L155 446 L351 446 L351 493 L155 493 L155 625 L109 625 L105 493 L20 493 L20 446 L101 446 L101 153 C101 44 165 -10 256 -10 L256 -10 Z " />
<glyph glyph-name="Tbar" unicode="&#x166;" horiz-adv-x="654" d="M559 359 L559 408 L356 408 L356 701 L618 701 L618 750 L36 750 L36 701 L297 701 L297 408 L96 408 L96 359 L297 359 L297 0 L356 0 L356 359 L559 359 Z " />
<glyph glyph-name="tbar" unicode="&#x167;" horiz-adv-x="401" d="M391 84 L391 122 L353 122 C350 88 331 37 263 37 C191 37 161 86 161 162 L161 259 L357 259 L357 306 L161 306 L161 446 L357 446 L357 493 L161 493 L161 625 L115 625 L111 493 L26 493 L26 446 L107 446 L107 306 L26 306 L26 259 L107 259 L107 153 C107 44 171 -10 262 -10 C343 -10 380 40 391 84 L391 84 Z " />
<glyph glyph-name="Utilde" unicode="&#x168;" horiz-adv-x="729" d="M366 -10 C535 -10 633 102 633 270 L633 750 L580 750 L580 269 C580 131 505 39 366 39 C232 39 155 131 155 269 L155 750 L96 750 L96 270 C96 102 196 -10 366 -10 L366 -10 Z M436 821 C482 821 506 854 506 916 L463 916 C462 877 447 868 428 868 C387 868 379 921 316 921 C266 921 237 881 237 826 L279 826 C281 859 301 874 321 874 C365 874 373 821 436 821 L436 821 Z " />
<glyph glyph-name="utilde" unicode="&#x169;" horiz-adv-x="564" d="M267 -10 C348 -10 403 32 429 95 L433 0 L480 0 L480 493 L425 493 L425 209 C425 93 357 37 274 37 C183 37 131 91 131 210 L131 493 L77 493 L77 198 C77 63 144 -10 267 -10 L267 -10 Z M349 630 C395 630 419 662 419 724 L376 724 C375 685 360 676 341 676 C300 676 292 729 230 729 C179 729 150 689 150 635 L193 635 C194 667 214 683 234 683 C278 683 286 630 349 630 L349 630 Z " />
<glyph glyph-name="Umacron" unicode="&#x16a;" horiz-adv-x="729" d="M366 -10 C535 -10 633 102 633 270 L633 750 L580 750 L580 269 C580 131 505 39 366 39 C232 39 155 131 155 269 L155 750 L96 750 L96 270 C96 102 196 -10 366 -10 L366 -10 Z M251 847 L494 847 L494 899 L251 899 L251 847 Z " />
<glyph glyph-name="umacron" unicode="&#x16b;" horiz-adv-x="564" d="M267 -10 C348 -10 403 32 429 95 L433 0 L480 0 L480 493 L425 493 L425 209 C425 93 357 37 274 37 C183 37 131 91 131 210 L131 493 L77 493 L77 198 C77 63 144 -10 267 -10 L267 -10 Z M169 654 L392 654 L392 703 L169 703 L169 654 Z " />
<glyph glyph-name="Ubreve" unicode="&#x16c;" horiz-adv-x="729" d="M366 -10 C535 -10 633 102 633 270 L633 750 L580 750 L580 269 C580 131 505 39 366 39 C232 39 155 131 155 269 L155 750 L96 750 L96 270 C96 102 196 -10 366 -10 L366 -10 Z M372 823 C480 823 494 895 494 895 L494 937 L452 937 C452 937 452 869 372 869 C293 869 288 937 288 937 L246 937 L246 895 C246 895 262 823 372 823 L372 823 Z " />
<glyph glyph-name="ubreve" unicode="&#x16d;" horiz-adv-x="564" d="M267 -10 C348 -10 403 32 429 95 L433 0 L480 0 L480 493 L425 493 L425 209 C425 93 357 37 274 37 C183 37 131 91 131 210 L131 493 L77 493 L77 198 C77 63 144 -10 267 -10 L267 -10 Z M281 599 C393 599 403 677 403 677 L403 720 L361 720 C361 720 366 645 281 645 C198 645 198 720 198 720 L155 720 L155 677 C155 677 166 599 281 599 L281 599 Z " />
<glyph glyph-name="Uring" unicode="&#x16e;" horiz-adv-x="729" d="M372 799 C421 799 456 832 456 879 C456 925 421 958 372 958 C324 958 288 925 288 879 C288 832 324 799 372 799 L372 799 Z M372 839 C351 839 332 854 332 879 C332 903 351 918 372 918 C394 918 412 903 412 879 C412 854 394 839 372 839 L372 839 Z M366 -10 C535 -10 633 102 633 270 L633 750 L580 750 L580 269 C580 131 505 39 366 39 C232 39 155 131 155 269 L155 750 L96 750 L96 270 C96 102 196 -10 366 -10 L366 -10 Z " />
<glyph glyph-name="uring" unicode="&#x16f;" horiz-adv-x="564" d="M267 -10 C348 -10 403 32 429 95 L433 0 L480 0 L480 493 L425 493 L425 209 C425 93 357 37 274 37 C183 37 131 91 131 210 L131 493 L77 493 L77 198 C77 63 144 -10 267 -10 L267 -10 Z M282 598 C331 598 367 631 367 678 C367 724 331 757 282 757 C234 757 198 724 198 678 C198 631 234 598 282 598 L282 598 Z M282 638 C262 638 242 653 242 678 C242 702 262 717 282 717 C304 717 323 702 323 678 C323 653 304 638 282 638 L282 638 Z " />
<glyph glyph-name="Uhungarumlaut" unicode="&#x170;" horiz-adv-x="729" d="M366 -10 C535 -10 633 102 633 270 L633 750 L580 750 L580 269 C580 131 505 39 366 39 C232 39 155 131 155 269 L155 750 L96 750 L96 270 C96 102 196 -10 366 -10 L366 -10 Z M258 805 L297 805 L410 909 L410 945 L370 945 L258 841 L258 805 Z M430 805 L469 805 L582 909 L582 945 L542 945 L430 841 L430 805 Z " />
<glyph glyph-name="uhungarumlaut" unicode="&#x171;" horiz-adv-x="564" d="M267 -10 C348 -10 403 32 429 95 L433 0 L480 0 L480 493 L425 493 L425 209 C425 93 357 37 274 37 C183 37 131 91 131 210 L131 493 L77 493 L77 198 C77 63 144 -10 267 -10 L267 -10 Z M182 610 L221 610 L323 714 L323 750 L284 750 L182 646 L182 610 Z M340 610 L379 610 L482 714 L482 750 L443 750 L340 646 L340 610 Z " />
<glyph glyph-name="Uogonek" unicode="&#x172;" horiz-adv-x="729" d="M425 -102 C405 -102 374 -90 374 -58 C374 -23 398 -11 440 -2 C563 26 633 128 633 270 L633 750 L580 750 L580 269 C580 131 505 39 366 39 C232 39 155 131 155 269 L155 750 L96 750 L96 270 C96 105 193 -6 358 -10 C336 -23 324 -47 324 -70 C324 -134 383 -145 383 -145 L425 -145 L425 -102 Z " />
<glyph glyph-name="uogonek" unicode="&#x173;" horiz-adv-x="564" d="M392 -70 C392 -134 451 -145 451 -145 L493 -145 L493 -102 C473 -102 442 -90 442 -54 C442 -9 479 0 479 0 L480 0 L480 493 L425 493 L425 209 C425 93 357 37 274 37 C183 37 131 91 131 210 L131 493 L77 493 L77 198 C77 63 144 -10 267 -10 C348 -10 403 32 429 95 L433 0 L436 0 C411 -12 392 -41 392 -70 L392 -70 Z " />
<glyph glyph-name="Wcircumflex" unicode="&#x174;" horiz-adv-x="966" d="M673 0 L725 0 L942 713 L942 750 L900 750 L700 95 L507 750 L465 750 L269 94 L70 750 L26 750 L26 708 L241 0 L293 0 L483 643 L673 0 Z M571 816 L607 816 L607 852 L508 942 L459 942 L360 852 L360 816 L396 816 L483 896 L571 816 Z " />
<glyph glyph-name="wcircumflex" unicode="&#x175;" horiz-adv-x="727" d="M500 0 L543 0 L698 458 L698 493 L662 493 L524 81 L388 493 L345 493 L209 78 L70 493 L31 493 L31 454 L182 0 L226 0 L363 417 L500 0 Z M457 610 L493 610 L493 646 L394 750 L345 750 L246 646 L246 610 L282 610 L369 702 L457 610 Z " />
<glyph glyph-name="Ycircumflex" unicode="&#x176;" horiz-adv-x="611" d="M278 0 L336 0 L336 305 L594 714 L594 750 L557 750 L311 357 L49 750 L9 750 L9 711 L278 307 L278 0 Z M393 816 L429 816 L429 852 L330 942 L281 942 L182 852 L182 816 L218 816 L305 896 L393 816 Z " />
<glyph glyph-name="ycircumflex" unicode="&#x177;" horiz-adv-x="498" d="M127 -250 L480 458 L480 493 L444 493 L257 112 L63 493 L25 493 L25 455 L228 57 L90 -213 L90 -250 L127 -250 Z M345 610 L381 610 L381 646 L282 750 L233 750 L134 646 L134 610 L170 610 L257 702 L345 610 Z " />
<glyph glyph-name="Ydieresis" unicode="&#x178;" horiz-adv-x="611" d="M278 0 L336 0 L336 305 L594 714 L594 750 L557 750 L311 357 L49 750 L9 750 L9 711 L278 307 L278 0 Z M165 838 L241 838 L241 914 L165 914 L165 838 Z M365 838 L440 838 L440 914 L365 914 L365 838 Z " />
<glyph glyph-name="Zacute" unicode="&#x179;" horiz-adv-x="581" d="M545 0 L545 49 L103 49 L540 708 L540 750 L40 750 L40 701 L472 701 L35 42 L35 0 L545 0 Z M247 805 L292 805 L405 909 L405 945 L359 945 L247 841 L247 805 Z " />
<glyph glyph-name="zacute" unicode="&#x17a;" horiz-adv-x="461" d="M421 0 L421 47 L108 47 L416 452 L416 493 L45 493 L45 446 L348 446 L40 41 L40 0 L421 0 Z M208 610 L253 610 L352 714 L352 750 L307 750 L208 646 L208 610 Z " />
<glyph glyph-name="Zdotaccent" unicode="&#x17b;" horiz-adv-x="581" d="M545 0 L545 49 L103 49 L540 708 L540 750 L40 750 L40 701 L472 701 L35 42 L35 0 L545 0 Z M252 838 L328 838 L328 914 L252 914 L252 838 Z " />
<glyph glyph-name="zdotaccent" unicode="&#x17c;" horiz-adv-x="461" d="M421 0 L421 47 L108 47 L416 452 L416 493 L45 493 L45 446 L348 446 L40 41 L40 0 L421 0 Z M207 646 L280 646 L280 720 L207 720 L207 646 Z " />
<glyph glyph-name="Zcaron" unicode="&#x17d;" horiz-adv-x="581" d="M545 0 L545 49 L103 49 L540 708 L540 750 L40 750 L40 701 L472 701 L35 42 L35 0 L545 0 Z M321 816 L418 906 L418 942 L382 942 L296 862 L208 942 L172 942 L172 906 L272 816 L321 816 Z " />
<glyph glyph-name="zcaron" unicode="&#x17e;" horiz-adv-x="461" d="M421 0 L421 47 L108 47 L416 452 L416 493 L45 493 L45 446 L348 446 L40 41 L40 0 L421 0 Z M261 610 L359 714 L359 750 L323 750 L236 658 L148 750 L112 750 L112 714 L212 610 L261 610 Z " />
<glyph glyph-name="florin" unicode="&#x192;" horiz-adv-x="549" d="M67 -175 C146 -175 179 -126 195 -33 L266 385 L431 385 L431 432 L274 432 L301 594 C316 679 349 711 402 711 C449 711 481 686 489 645 L528 645 L528 682 C515 724 472 760 401 760 C322 760 268 710 247 592 L220 432 L128 432 L128 385 L212 385 L141 -32 C130 -91 115 -126 67 -126 C23 -126 -1 -99 -4 -73 L-43 -73 L-43 -111 C-33 -141 0 -175 67 -175 L67 -175 Z " />
<glyph glyph-name="Aringacute" unicode="&#x1fa;" horiz-adv-x="641" d="M307 1012 L352 1012 L465 1116 L465 1152 L419 1152 L307 1048 L307 1012 Z M59 0 L150 236 L486 236 L578 0 L620 0 L620 46 L346 750 L295 750 L19 41 L19 0 L59 0 Z M467 285 L169 285 L318 676 L467 285 Z M318 801 C367 801 402 834 402 881 C402 927 367 960 318 960 C270 960 234 927 234 881 C234 834 270 801 318 801 L318 801 Z M318 841 C297 841 278 856 278 881 C278 905 297 920 318 920 C340 920 358 905 358 881 C358 856 340 841 318 841 L318 841 Z " />
<glyph glyph-name="aringacute" unicode="&#x1fb;" horiz-adv-x="510" d="M216 -10 C300 -10 356 37 383 104 L389 0 L432 0 L432 309 C432 436 368 503 247 503 C107 503 70 408 70 408 L70 371 L108 371 C108 371 131 456 245 456 C336 456 378 405 378 311 L378 271 C378 271 319 284 247 284 C101 284 43 222 43 139 C43 55 98 -10 216 -10 L216 -10 Z M221 35 C139 35 95 73 95 139 C95 191 129 240 246 240 C325 240 378 227 378 227 L378 196 C378 122 327 35 221 35 L221 35 Z M254 598 C303 598 339 631 339 678 C339 724 303 757 254 757 C206 757 170 724 170 678 C170 631 206 598 254 598 L254 598 Z M254 638 C234 638 214 653 214 678 C214 702 234 717 254 717 C276 717 295 702 295 678 C295 653 276 638 254 638 L254 638 Z M228 805 L273 805 L386 909 L386 945 L340 945 L228 841 L228 805 Z " />
<glyph glyph-name="AEacute" unicode="&#x1fc;" horiz-adv-x="910" d="M1 37 L1 0 L41 0 L179 236 L445 236 L445 0 L855 0 L855 49 L503 49 L503 365 L818 365 L818 414 L503 414 L503 701 L855 701 L855 750 L427 750 L1 37 Z M210 285 L445 685 L445 285 L210 285 Z M614 805 L659 805 L772 909 L772 945 L726 945 L614 841 L614 805 Z " />
<glyph glyph-name="aeacute" unicode="&#x1fd;" horiz-adv-x="895" d="M640 -10 C774 -10 826 75 836 99 L836 137 L798 137 C786 93 733 38 640 38 C536 38 463 106 458 239 L845 239 C845 239 847 256 847 287 C847 408 771 503 634 503 C544 503 479 457 443 393 C417 465 352 503 262 503 C108 503 70 408 70 408 L70 371 L108 371 C108 371 132 456 261 456 C351 456 404 405 404 311 L404 274 C404 274 279 278 258 278 C108 278 43 218 43 135 C43 51 99 -10 221 -10 C297 -10 387 23 430 120 C466 37 540 -10 640 -10 L640 -10 Z M461 284 C473 391 538 456 634 456 C732 456 794 392 794 284 L461 284 Z M220 35 C142 35 95 69 95 135 C95 187 135 234 257 234 C280 234 404 229 404 229 L404 199 C404 114 334 35 220 35 L220 35 Z M433 609 L478 609 L577 713 L577 749 L532 749 L433 645 L433 609 Z " />
<glyph glyph-name="Oslashacute" unicode="&#x1fe;" horiz-adv-x="830" d="M415 -10 C638 -10 777 155 777 378 C777 498 733 601 659 670 L746 790 L684 790 L621 702 C565 739 495 760 415 760 C192 760 53 598 53 378 C53 256 97 151 172 81 L84 -40 L146 -40 L210 48 C265 11 336 -10 415 -10 L415 -10 Z M112 378 C112 569 228 711 415 711 C482 711 543 690 589 657 L205 125 C147 186 112 272 112 378 L112 378 Z M415 39 C347 39 288 61 242 93 L627 625 C684 565 718 481 718 378 C718 183 602 39 415 39 L415 39 Z M400 805 L445 805 L558 909 L558 945 L512 945 L400 841 L400 805 Z " />
<glyph glyph-name="oslashacute" unicode="&#x1ff;" horiz-adv-x="577" d="M288 -10 C433 -10 528 105 528 248 C528 325 500 394 451 441 L530 553 L474 553 L414 468 C379 490 337 503 288 503 C142 503 48 389 48 246 C48 168 76 99 125 53 L46 -60 L102 -60 L162 26 C197 3 240 -10 288 -10 L288 -10 Z M102 246 C102 354 165 456 287 456 C326 456 360 445 386 428 L155 96 C120 135 102 190 102 246 L102 246 Z M288 37 C249 37 216 48 190 66 L422 397 C456 358 474 304 474 248 C474 140 411 37 288 37 L288 37 Z M265 610 L310 610 L409 714 L409 750 L364 750 L265 646 L265 610 Z " />
<glyph glyph-name="Scommaaccent" unicode="&#x218;" horiz-adv-x="588" d="M302 -10 C440 -10 534 67 534 195 C534 312 461 368 335 402 L291 414 C195 439 124 477 124 572 C124 647 183 711 297 711 C425 711 462 632 470 573 L513 573 L513 612 C498 697 428 760 300 760 C148 760 67 673 67 570 C67 467 124 399 268 362 L303 352 C446 314 477 262 477 195 C477 93 402 39 303 39 C191 39 126 92 96 182 L54 182 L54 143 C83 64 154 -10 302 -10 L302 -10 Z M273 -191 L308 -191 L333 -110 L333 -52 L273 -52 L273 -191 Z " />
<glyph glyph-name="scommaaccent" unicode="&#x219;" horiz-adv-x="467" d="M243 -10 C362 -10 418 50 418 127 C418 215 345 246 270 263 L215 276 C152 291 112 312 112 366 C112 418 157 456 232 456 C314 456 356 416 367 366 L404 366 L404 403 C389 461 329 503 232 503 C129 503 60 442 60 364 C60 280 121 247 188 232 L249 218 C318 201 365 182 365 124 C365 75 324 37 243 37 C150 37 103 85 86 136 L49 136 L49 99 C69 48 126 -10 243 -10 L243 -10 Z M219 -191 L254 -191 L279 -110 L279 -52 L219 -52 L219 -191 Z " />
<glyph glyph-name="uni0237" unicode="&#x237;" horiz-adv-x="222" d="M19 -260 C98 -260 138 -212 138 -119 L138 493 L84 493 L84 -117 C84 -179 63 -211 17 -211 C-27 -211 -52 -184 -54 -158 L-92 -158 L-92 -195 C-83 -224 -51 -260 19 -260 L19 -260 Z " />
<glyph glyph-name="circumflex" unicode="&#x2c6;" horiz-adv-x="420" d="M286 610 L322 610 L322 646 L223 750 L174 750 L75 646 L75 610 L111 610 L198 702 L286 610 Z " />
<glyph glyph-name="caron" unicode="&#x2c7;" horiz-adv-x="397" d="M224 610 L322 714 L322 750 L286 750 L199 658 L111 750 L75 750 L75 714 L175 610 L224 610 Z " />
<glyph glyph-name="breve" unicode="&#x2d8;" horiz-adv-x="398" d="M201 599 C313 599 323 677 323 677 L323 720 L281 720 C281 720 286 645 201 645 C118 645 118 720 118 720 L75 720 L75 677 C75 677 86 599 201 599 L201 599 Z " />
<glyph glyph-name="dotaccent" unicode="&#x2d9;" horiz-adv-x="425" d="M176 646 L249 646 L249 720 L176 720 L176 646 Z " />
<glyph glyph-name="ring" unicode="&#x2da;" horiz-adv-x="367" d="M183 598 C232 598 268 631 268 678 C268 724 232 757 183 757 C135 757 99 724 99 678 C99 631 135 598 183 598 L183 598 Z M183 638 C163 638 143 653 143 678 C143 702 163 717 183 717 C205 717 224 702 224 678 C224 653 205 638 183 638 L183 638 Z " />
<glyph glyph-name="ogonek" unicode="&#x2db;" horiz-adv-x="261" d="M148 -145 L190 -145 L190 -102 C170 -102 139 -90 139 -54 C139 -9 176 0 176 0 L133 0 C108 -12 89 -41 89 -70 C89 -134 148 -145 148 -145 L148 -145 Z " />
<glyph glyph-name="tilde" unicode="&#x2dc;" horiz-adv-x="419" d="M274 630 C320 630 344 662 344 724 L301 724 C300 685 285 676 266 676 C225 676 217 729 155 729 C104 729 75 689 75 635 L118 635 C119 667 139 683 159 683 C203 683 211 630 274 630 L274 630 Z " />
<glyph glyph-name="hungarumlaut" unicode="&#x2dd;" horiz-adv-x="450" d="M75 610 L114 610 L216 714 L216 750 L177 750 L75 646 L75 610 Z M233 610 L272 610 L375 714 L375 750 L336 750 L233 646 L233 610 Z " />
<glyph glyph-name="afii10023" unicode="&#x401;" horiz-adv-x="570" d="M105 0 L515 0 L515 49 L163 49 L163 365 L478 365 L478 414 L163 414 L163 701 L515 701 L515 750 L105 750 L105 0 Z M177 838 L253 838 L253 914 L177 914 L177 838 Z M377 838 L452 838 L452 914 L377 914 L377 838 Z " />
<glyph glyph-name="afii10051" unicode="&#x402;" horiz-adv-x="807" d="M548 -10 C680 -10 770 94 770 239 C770 392 674 490 522 490 C424 490 349 448 316 385 L316 701 L556 701 L556 750 L18 750 L18 701 L258 701 L258 0 L316 0 L316 258 C316 372 404 440 514 440 C642 440 711 362 711 239 C711 113 644 39 541 39 C503 39 472 47 463 49 L463 0 C472 -2 501 -10 548 -10 L548 -10 Z " />
<glyph glyph-name="afii10052" unicode="&#x403;" horiz-adv-x="537" d="M282 805 L327 805 L440 909 L440 945 L394 945 L282 841 L282 805 Z M105 0 L164 0 L164 701 L515 701 L515 750 L105 750 L105 0 Z " />
<glyph glyph-name="afii10053" unicode="&#x404;" horiz-adv-x="746" d="M696 133 L696 172 L653 172 C653 172 601 39 415 39 C239 39 121 169 113 359 L543 359 L543 408 L113 408 C125 584 230 711 415 711 C602 711 648 583 648 583 L691 583 L691 622 C691 622 630 760 414 760 C189 760 54 599 54 378 C54 160 182 -10 414 -10 C634 -10 696 133 696 133 L696 133 Z " />
<glyph glyph-name="afii10054" unicode="&#x405;" horiz-adv-x="588" d="M302 -10 C440 -10 534 67 534 195 C534 312 461 368 335 402 L291 414 C195 439 124 477 124 572 C124 647 183 711 297 711 C425 711 462 632 470 573 L513 573 L513 612 C498 697 428 760 300 760 C148 760 67 673 67 570 C67 467 124 399 268 362 L303 352 C446 314 477 262 477 195 C477 93 402 39 303 39 C191 39 126 92 96 182 L54 182 L54 143 C83 64 154 -10 302 -10 L302 -10 Z " />
<glyph glyph-name="afii10055" unicode="&#x406;" horiz-adv-x="268" d="M105 0 L163 0 L163 750 L105 750 L105 0 Z " />
<glyph glyph-name="afii10056" unicode="&#x407;" horiz-adv-x="268" d="M-4 838 L72 838 L72 914 L-4 914 L-4 838 Z M196 838 L271 838 L271 914 L196 914 L196 838 Z M105 0 L163 0 L163 750 L105 750 L105 0 Z " />
<glyph glyph-name="afii10057" unicode="&#x408;" horiz-adv-x="426" d="M170 -10 C280 -10 328 54 328 171 L328 750 L269 750 L269 170 C269 77 237 39 168 39 C106 39 66 90 68 133 L26 133 L26 94 C28 48 80 -10 170 -10 L170 -10 Z " />
<glyph glyph-name="afii10058" unicode="&#x409;" horiz-adv-x="1000" d="M9 0 L36 0 C174 0 192 137 200 462 L206 701 L514 701 L514 0 L697 0 C872 0 967 98 967 235 C967 375 858 454 697 454 L572 454 L572 750 L155 750 L146 442 C137 112 105 52 28 52 L9 52 L9 0 Z M572 49 L572 406 L696 406 C843 406 908 328 908 233 C908 120 839 49 696 49 L572 49 Z " />
<glyph glyph-name="afii10059" unicode="&#x40a;" horiz-adv-x="1025" d="M164 372 L538 372 L538 0 L722 0 C897 0 992 79 992 216 C992 356 892 421 722 421 L597 421 L597 750 L538 750 L538 421 L164 421 L164 750 L105 750 L105 0 L164 0 L164 372 Z M597 49 L597 372 L721 372 C866 372 933 317 933 214 C933 102 864 49 721 49 L597 49 Z " />
<glyph glyph-name="afii10060" unicode="&#x40b;" horiz-adv-x="793" d="M258 0 L316 0 L316 257 C316 372 398 440 510 440 C600 440 682 396 682 264 L682 0 L741 0 L741 263 C741 404 664 490 517 490 C421 490 347 449 316 385 L316 701 L560 701 L560 750 L18 750 L18 701 L258 701 L258 0 Z " />
<glyph glyph-name="afii10061" unicode="&#x40c;" horiz-adv-x="612" d="M307 805 L352 805 L465 909 L465 945 L419 945 L307 841 L307 805 Z M163 359 L558 0 L597 0 L597 39 L221 379 L584 714 L584 750 L548 750 L163 392 L163 750 L105 750 L105 0 L163 0 L163 359 Z " />
<glyph glyph-name="afii10062" unicode="&#x40e;" horiz-adv-x="593" d="M214 0 L586 713 L586 750 L549 750 L306 280 L52 750 L11 750 L11 709 L275 222 L177 37 L177 0 L214 0 Z M303 814 C428 814 446 909 446 909 L446 947 L403 947 C403 947 403 857 303 857 C204 857 203 947 203 947 L160 947 L160 909 C160 909 178 814 303 814 L303 814 Z " />
<glyph glyph-name="afii10145" unicode="&#x40f;" horiz-adv-x="732" d="M339 -150 L393 -150 L393 0 L627 0 L627 750 L568 750 L568 49 L164 49 L164 750 L105 750 L105 0 L339 0 L339 -150 Z " />
<glyph glyph-name="afii10017" unicode="&#x410;" horiz-adv-x="641" d="M59 0 L150 236 L486 236 L578 0 L620 0 L620 46 L346 750 L295 750 L19 41 L19 0 L59 0 Z M467 285 L169 285 L318 676 L467 285 Z " />
<glyph glyph-name="afii10018" unicode="&#x411;" horiz-adv-x="607" d="M105 0 L298 0 C473 0 568 92 568 225 C568 360 459 434 298 434 L164 434 L164 701 L508 701 L508 750 L105 750 L105 0 Z M164 49 L164 386 L297 386 C444 386 509 314 509 223 C509 114 440 49 297 49 L164 49 Z " />
<glyph glyph-name="afii10019" unicode="&#x412;" horiz-adv-x="624" d="M105 0 L310 0 C471 0 570 74 570 209 C570 301 514 363 417 390 C506 420 539 483 539 559 C539 679 449 750 306 750 L105 750 L105 0 Z M162 409 L162 702 L305 702 C406 702 481 646 481 558 C481 454 406 409 298 409 L162 409 Z M162 48 L162 362 L312 362 C421 362 511 310 511 208 C511 101 426 48 311 48 L162 48 Z " />
<glyph glyph-name="afii10020" unicode="&#x413;" horiz-adv-x="537" d="M105 0 L164 0 L164 701 L515 701 L515 750 L105 750 L105 0 Z " />
<glyph glyph-name="afii10021" unicode="&#x414;" horiz-adv-x="738" d="M7 -150 L61 -150 L61 0 L652 0 L652 -150 L706 -150 L706 49 L606 49 L606 750 L174 750 L163 452 C154 211 101 106 66 49 L7 49 L7 -150 Z M128 49 C162 108 208 230 216 449 L224 701 L548 701 L548 49 L128 49 Z " />
<glyph glyph-name="afii10022" unicode="&#x415;" horiz-adv-x="570" d="M105 0 L515 0 L515 49 L163 49 L163 365 L478 365 L478 414 L163 414 L163 701 L515 701 L515 750 L105 750 L105 0 Z " />
<glyph glyph-name="afii10024" unicode="&#x416;" horiz-adv-x="889" d="M416 359 L416 0 L474 0 L474 359 L831 0 L871 0 L871 39 L532 380 L858 714 L858 750 L822 750 L474 393 L474 750 L416 750 L416 393 L69 750 L30 750 L30 711 L356 377 L19 38 L19 0 L57 0 L416 359 Z " />
<glyph glyph-name="afii10025" unicode="&#x417;" horiz-adv-x="571" d="M282 -10 C430 -10 514 80 514 212 C514 307 460 373 368 399 C439 430 482 496 482 570 C482 681 406 760 270 760 C137 760 79 679 62 628 L62 589 L104 589 C120 649 171 711 269 711 C374 711 424 649 424 571 C424 480 362 416 267 416 L186 416 L186 368 L268 368 C392 368 456 306 456 211 C456 94 383 39 280 39 C170 39 98 109 89 176 L46 176 L46 137 C56 86 122 -10 282 -10 L282 -10 Z " />
<glyph glyph-name="afii10026" unicode="&#x418;" horiz-adv-x="748" d="M105 0 L164 0 L585 655 L585 0 L643 0 L643 750 L585 750 L164 87 L164 750 L105 750 L105 0 Z " />
<glyph glyph-name="afii10027" unicode="&#x419;" horiz-adv-x="748" d="M105 0 L164 0 L585 655 L585 0 L643 0 L643 750 L585 750 L164 87 L164 750 L105 750 L105 0 Z M379 814 C504 814 522 909 522 909 L522 947 L479 947 C479 947 479 857 379 857 C280 857 279 947 279 947 L236 947 L236 909 C236 909 254 814 379 814 L379 814 Z " />
<glyph glyph-name="afii10028" unicode="&#x41a;" horiz-adv-x="612" d="M163 359 L558 0 L597 0 L597 39 L221 379 L584 714 L584 750 L548 750 L163 392 L163 750 L105 750 L105 0 L163 0 L163 359 Z " />
<glyph glyph-name="afii10029" unicode="&#x41b;" horiz-adv-x="685" d="M10 0 L34 0 C178 0 193 155 200 441 L207 701 L522 701 L522 0 L580 0 L580 750 L156 750 L147 442 C140 172 120 52 30 52 L10 52 L10 0 Z " />
<glyph glyph-name="afii10030" unicode="&#x41c;" horiz-adv-x="899" d="M427 187 L466 187 L735 664 L735 0 L794 0 L794 750 L729 750 L451 259 L170 750 L105 750 L105 0 L158 0 L158 661 L427 187 Z " />
<glyph glyph-name="afii10031" unicode="&#x41d;" horiz-adv-x="755" d="M105 0 L163 0 L163 359 L592 359 L592 0 L650 0 L650 750 L592 750 L592 408 L163 408 L163 750 L105 750 L105 0 Z " />
<glyph glyph-name="afii10032" unicode="&#x41e;" horiz-adv-x="830" d="M415 -10 C638 -10 777 155 777 378 C777 598 638 760 415 760 C192 760 53 598 53 378 C53 155 192 -10 415 -10 L415 -10 Z M415 39 C228 39 112 183 112 378 C112 569 228 711 415 711 C602 711 718 569 718 378 C718 183 602 39 415 39 L415 39 Z " />
<glyph glyph-name="afii10033" unicode="&#x41f;" horiz-adv-x="732" d="M105 0 L164 0 L164 701 L568 701 L568 0 L627 0 L627 750 L105 750 L105 0 Z " />
<glyph glyph-name="afii10034" unicode="&#x420;" horiz-adv-x="593" d="M105 0 L163 0 L163 292 L292 292 C467 292 555 401 555 529 C555 667 453 750 292 750 L105 750 L105 0 Z M163 341 L163 701 L291 701 C431 701 496 616 496 528 C496 423 427 341 291 341 L163 341 Z " />
<glyph glyph-name="afii10035" unicode="&#x421;" horiz-adv-x="736" d="M415 -10 C628 -10 696 133 696 133 L696 172 L654 172 C654 172 602 39 416 39 C233 39 113 184 113 378 C113 562 219 711 415 711 C603 711 649 583 649 583 L691 583 L691 622 C691 622 630 760 414 760 C189 760 54 599 54 378 C54 160 182 -10 415 -10 L415 -10 Z " />
<glyph glyph-name="afii10036" unicode="&#x422;" horiz-adv-x="620" d="M280 0 L339 0 L339 701 L601 701 L601 750 L19 750 L19 701 L280 701 L280 0 Z " />
<glyph glyph-name="afii10037" unicode="&#x423;" horiz-adv-x="593" d="M214 0 L586 713 L586 750 L549 750 L306 280 L52 750 L11 750 L11 709 L275 222 L177 37 L177 0 L214 0 Z " />
<glyph glyph-name="afii10038" unicode="&#x424;" horiz-adv-x="829" d="M386 -10 L445 -10 L445 74 C644 78 788 199 788 376 C788 554 644 676 445 680 L445 760 L386 760 L386 680 C187 676 42 555 42 378 C42 191 187 78 386 74 L386 -10 Z M386 122 C215 129 101 218 101 378 C101 529 208 627 386 632 L386 122 Z M445 122 L445 632 C620 627 730 527 730 376 C730 212 602 127 445 122 L445 122 Z " />
<glyph glyph-name="afii10039" unicode="&#x425;" horiz-adv-x="629" d="M28 0 L65 0 L312 339 L562 0 L601 0 L601 39 L348 383 L590 714 L590 750 L553 750 L316 426 L79 750 L38 750 L38 711 L282 382 L28 36 L28 0 Z " />
<glyph glyph-name="afii10040" unicode="&#x426;" horiz-adv-x="759" d="M673 -150 L727 -150 L727 49 L627 49 L627 750 L568 750 L568 49 L164 49 L164 750 L105 750 L105 0 L673 0 L673 -150 Z " />
<glyph glyph-name="afii10041" unicode="&#x427;" horiz-adv-x="647" d="M484 0 L542 0 L542 750 L484 750 L484 368 L342 368 C195 368 108 408 108 566 L108 750 L50 750 L50 565 C50 370 159 319 340 319 L484 319 L484 0 Z " />
<glyph glyph-name="afii10042" unicode="&#x428;" horiz-adv-x="989" d="M105 0 L884 0 L884 750 L825 750 L825 49 L524 49 L524 750 L465 750 L465 49 L164 49 L164 750 L105 750 L105 0 Z " />
<glyph glyph-name="afii10043" unicode="&#x429;" horiz-adv-x="1016" d="M929 -150 L984 -150 L984 49 L884 49 L884 750 L825 750 L825 49 L524 49 L524 750 L465 750 L465 49 L164 49 L164 750 L105 750 L105 0 L929 0 L929 -150 Z " />
<glyph glyph-name="afii10044" unicode="&#x42a;" horiz-adv-x="658" d="M354 0 C529 0 624 98 624 235 C624 375 515 454 354 454 L226 454 L226 750 L7 750 L7 701 L167 701 L167 0 L354 0 Z M226 49 L226 406 L353 406 C500 406 565 328 565 233 C565 120 496 49 353 49 L226 49 Z " />
<glyph glyph-name="afii10045" unicode="&#x42b;" horiz-adv-x="838" d="M105 0 L292 0 C467 0 562 98 562 235 C562 375 453 454 292 454 L164 454 L164 750 L105 750 L105 0 Z M675 0 L733 0 L733 750 L675 750 L675 0 Z M164 49 L164 406 L291 406 C438 406 503 328 503 233 C503 120 434 49 291 49 L164 49 Z " />
<glyph glyph-name="afii10046" unicode="&#x42c;" horiz-adv-x="595" d="M105 0 L292 0 C467 0 562 98 562 235 C562 375 453 454 292 454 L164 454 L164 750 L105 750 L105 0 Z M164 49 L164 406 L291 406 C438 406 503 328 503 233 C503 120 434 49 291 49 L164 49 Z " />
<glyph glyph-name="afii10047" unicode="&#x42d;" horiz-adv-x="746" d="M341 -10 C569 -10 691 160 691 378 C691 599 571 760 342 760 C130 760 55 622 55 622 L55 583 L98 583 C98 583 154 711 342 711 C525 711 622 584 631 408 L232 408 L232 359 L632 359 C625 169 518 39 341 39 C150 39 91 172 91 172 L49 172 L49 133 C49 133 120 -10 341 -10 L341 -10 Z " />
<glyph glyph-name="afii10048" unicode="&#x42e;" horiz-adv-x="1034" d="M636 -10 C840 -10 981 165 981 378 C981 588 854 760 636 760 C423 760 307 594 294 408 L164 408 L164 750 L105 750 L105 0 L164 0 L164 359 L292 359 C301 163 418 -10 636 -10 L636 -10 Z M636 39 C468 39 349 173 349 378 C349 579 469 711 635 711 C804 711 922 579 922 378 C922 173 791 39 636 39 L636 39 Z " />
<glyph glyph-name="afii10049" unicode="&#x42f;" horiz-adv-x="618" d="M455 318 L455 0 L513 0 L513 750 L333 750 C182 750 80 665 80 532 C80 435 137 354 256 327 L34 39 L34 0 L74 0 L317 318 L455 318 Z M333 367 C215 367 139 425 139 531 C139 634 214 701 332 701 L455 701 L455 367 L333 367 Z " />
<glyph glyph-name="afii10065" unicode="&#x430;" horiz-adv-x="510" d="M216 -10 C300 -10 356 37 383 104 L389 0 L432 0 L432 309 C432 436 368 503 247 503 C107 503 70 408 70 408 L70 371 L108 371 C108 371 131 456 245 456 C336 456 378 405 378 311 L378 271 C378 271 319 284 247 284 C101 284 43 222 43 139 C43 55 98 -10 216 -10 L216 -10 Z M221 35 C139 35 95 73 95 139 C95 191 129 240 246 240 C325 240 378 227 378 227 L378 196 C378 122 327 35 221 35 L221 35 Z " />
<glyph glyph-name="afii10066" unicode="&#x431;" horiz-adv-x="598" d="M308 -10 C455 -10 549 105 549 248 C549 381 467 503 317 503 C234 503 148 462 112 358 C114 540 155 637 313 657 L389 668 C468 678 498 695 517 730 L517 767 L481 767 C467 740 444 722 380 714 L309 705 C137 683 68 576 68 373 L68 290 C68 91 161 -10 308 -10 L308 -10 Z M308 37 C204 37 122 114 122 248 C122 367 198 456 307 456 C423 456 495 369 495 248 C495 117 416 37 308 37 L308 37 Z " />
<glyph glyph-name="afii10067" unicode="&#x432;" horiz-adv-x="511" d="M84 0 L277 0 C403 0 463 45 463 139 C463 208 412 247 354 256 C403 271 436 305 436 361 C436 447 366 493 264 493 L84 493 L84 0 Z M138 275 L138 447 L269 447 C337 447 380 419 380 361 C380 301 341 275 269 275 L138 275 Z M138 46 L138 230 L280 230 C353 230 407 203 407 140 C407 74 368 46 280 46 L138 46 Z " />
<glyph glyph-name="afii10068" unicode="&#x433;" horiz-adv-x="418" d="M84 0 L138 0 L138 446 L399 446 L399 493 L84 493 L84 0 Z " />
<glyph glyph-name="afii10069" unicode="&#x434;" horiz-adv-x="572" d="M10 -140 L59 -140 L59 0 L500 0 L500 -140 L549 -140 L549 46 L464 46 L464 493 L129 493 L114 260 C108 160 98 86 64 46 L10 46 L10 -140 Z M121 46 C149 97 158 173 162 243 L175 447 L410 447 L410 46 L121 46 Z " />
<glyph glyph-name="afii10070" unicode="&#x435;" horiz-adv-x="554" d="M292 -10 C432 -10 484 75 495 99 L495 137 L457 137 C445 93 391 38 292 38 C181 38 108 106 103 239 L503 239 C503 239 506 256 506 287 C506 408 430 503 286 503 C129 503 49 381 49 248 C49 89 138 -10 292 -10 L292 -10 Z M105 284 C117 391 182 456 286 456 C391 456 452 392 452 284 L105 284 Z " />
<glyph glyph-name="afii10072" unicode="&#x436;" horiz-adv-x="699" d="M31 0 L68 0 L322 243 L322 0 L376 0 L376 243 L631 0 L670 0 L670 39 L443 253 L657 458 L657 493 L621 493 L376 257 L376 493 L322 493 L322 257 L74 493 L37 493 L37 458 L257 252 L31 37 L31 0 Z " />
<glyph glyph-name="afii10073" unicode="&#x437;" horiz-adv-x="470" d="M233 -10 C352 -10 420 47 420 134 C420 206 373 240 319 258 C375 282 400 319 400 372 C400 454 333 503 234 503 C137 503 77 460 52 395 L52 357 L90 357 C109 427 162 456 228 456 C298 456 345 423 345 359 C345 314 315 276 243 276 L157 276 L157 230 L237 230 C324 230 366 193 366 136 C366 75 320 37 233 37 C149 37 106 73 85 137 L47 137 L47 99 C68 50 116 -10 233 -10 L233 -10 Z " />
<glyph glyph-name="afii10074" unicode="&#x438;" horiz-adv-x="563" d="M84 0 L135 0 L425 415 L425 0 L479 0 L479 493 L428 493 L138 80 L138 493 L84 493 L84 0 Z " />
<glyph glyph-name="afii10075" unicode="&#x439;" horiz-adv-x="563" d="M84 0 L135 0 L425 415 L425 0 L479 0 L479 493 L428 493 L138 80 L138 493 L84 493 L84 0 Z M285 584 C410 584 421 683 421 683 L421 718 L376 718 C376 718 380 631 285 631 C190 631 193 718 193 718 L149 718 L149 683 C149 683 160 584 285 584 L285 584 Z " />
<glyph glyph-name="afii10076" unicode="&#x43a;" horiz-adv-x="481" d="M84 0 L138 0 L138 242 L416 0 L455 0 L455 39 L204 252 L440 458 L440 493 L405 493 L138 258 L138 493 L84 493 L84 0 Z " />
<glyph glyph-name="afii10077" unicode="&#x43b;" horiz-adv-x="529" d="M13 0 L34 0 C142 0 159 112 162 218 L169 447 L391 447 L391 0 L445 0 L445 493 L121 493 L114 229 C110 94 86 51 21 48 L13 48 L13 0 Z " />
<glyph glyph-name="afii10078" unicode="&#x43c;" horiz-adv-x="681" d="M320 120 L357 120 L543 406 L543 0 L597 0 L597 493 L540 493 L342 182 L139 493 L84 493 L84 0 L135 0 L135 403 L320 120 Z " />
<glyph glyph-name="afii10079" unicode="&#x43d;" horiz-adv-x="560" d="M84 0 L138 0 L138 229 L422 229 L422 0 L476 0 L476 493 L422 493 L422 276 L138 276 L138 493 L84 493 L84 0 Z " />
<glyph glyph-name="afii10080" unicode="&#x43e;" horiz-adv-x="577" d="M288 -10 C433 -10 528 105 528 248 C528 391 433 503 288 503 C142 503 48 389 48 246 C48 103 142 -10 288 -10 L288 -10 Z M288 37 C165 37 102 139 102 246 C102 354 165 456 287 456 C411 456 474 354 474 248 C474 140 411 37 288 37 L288 37 Z " />
<glyph glyph-name="afii10081" unicode="&#x43f;" horiz-adv-x="552" d="M84 0 L138 0 L138 446 L414 446 L414 0 L468 0 L468 493 L84 493 L84 0 Z " />
<glyph glyph-name="afii10082" unicode="&#x440;" horiz-adv-x="608" d="M84 -250 L138 -250 L138 101 C179 23 253 -10 326 -10 C466 -10 560 105 560 251 C560 390 463 503 326 503 C235 503 169 451 138 390 L130 493 L84 493 L84 -250 Z M320 37 C247 37 138 85 138 251 C138 363 203 456 320 456 C433 456 506 362 506 251 C506 119 423 37 320 37 L320 37 Z " />
<glyph glyph-name="afii10083" unicode="&#x441;" horiz-adv-x="530" d="M288 -10 C444 -10 481 103 481 103 L481 140 L444 140 C444 140 423 37 289 37 C166 37 103 139 103 246 C103 354 166 455 288 455 C419 455 443 354 443 354 L480 354 L480 392 C480 392 445 503 289 503 C143 503 49 389 49 246 C49 103 140 -10 288 -10 L288 -10 Z " />
<glyph glyph-name="afii10084" unicode="&#x442;" horiz-adv-x="441" d="M193 0 L247 0 L247 446 L423 446 L423 493 L18 493 L18 446 L193 446 L193 0 Z " />
<glyph glyph-name="afii10085" unicode="&#x443;" horiz-adv-x="498" d="M127 -250 L480 458 L480 493 L444 493 L257 112 L63 493 L25 493 L25 455 L228 57 L90 -213 L90 -250 L127 -250 Z " />
<glyph glyph-name="afii10086" unicode="&#x444;" horiz-adv-x="690" d="M318 -250 L372 -250 L372 -6 C549 0 643 112 643 247 C643 381 549 496 372 502 L372 690 L318 690 L318 502 C149 496 47 382 47 248 C47 113 149 0 318 -6 L318 -250 Z M318 43 C197 43 102 128 102 248 C102 366 197 453 318 453 L318 43 Z M372 43 L372 453 C501 453 589 366 589 247 C589 128 501 43 372 43 L372 43 Z " />
<glyph glyph-name="afii10087" unicode="&#x445;" horiz-adv-x="491" d="M37 0 L72 0 L243 212 L416 0 L454 0 L454 38 L277 249 L451 458 L451 493 L416 493 L247 285 L78 493 L40 493 L40 455 L213 249 L37 35 L37 0 Z " />
<glyph glyph-name="afii10088" unicode="&#x446;" horiz-adv-x="581" d="M511 -140 L560 -140 L560 46 L468 46 L468 493 L414 493 L414 46 L138 46 L138 493 L84 493 L84 0 L511 0 L511 -140 Z " />
<glyph glyph-name="afii10089" unicode="&#x447;" horiz-adv-x="491" d="M353 0 L407 0 L407 493 L353 493 L353 238 L243 238 C142 238 99 270 99 359 L99 493 L45 493 L45 359 C45 231 117 192 241 192 L353 192 L353 0 Z " />
<glyph glyph-name="afii10090" unicode="&#x448;" horiz-adv-x="756" d="M84 0 L672 0 L672 493 L618 493 L618 46 L405 46 L405 493 L351 493 L351 46 L138 46 L138 493 L84 493 L84 0 Z " />
<glyph glyph-name="afii10091" unicode="&#x449;" horiz-adv-x="780" d="M708 -140 L757 -140 L757 46 L672 46 L672 493 L618 493 L618 46 L405 46 L405 493 L351 493 L351 46 L138 46 L138 493 L84 493 L84 0 L708 0 L708 -140 Z " />
<glyph glyph-name="afii10092" unicode="&#x44a;" horiz-adv-x="571" d="M345 0 C475 0 537 64 537 159 C537 251 465 309 346 309 L225 309 L225 493 L18 493 L18 447 L171 447 L171 0 L345 0 Z M225 46 L225 264 L345 264 C427 264 482 227 482 158 C482 83 432 46 352 46 L225 46 Z " />
<glyph glyph-name="afii10093" unicode="&#x44b;" horiz-adv-x="682" d="M84 0 L258 0 C388 0 450 64 450 159 C450 251 377 309 259 309 L138 309 L138 493 L84 493 L84 0 Z M544 0 L598 0 L598 493 L544 493 L544 0 Z M138 46 L138 264 L258 264 C340 264 394 227 394 158 C394 83 345 46 264 46 L138 46 Z " />
<glyph glyph-name="afii10094" unicode="&#x44c;" horiz-adv-x="484" d="M84 0 L258 0 C388 0 450 64 450 159 C450 251 377 309 259 309 L138 309 L138 493 L84 493 L84 0 Z M138 46 L138 264 L258 264 C340 264 394 227 394 158 C394 83 345 46 264 46 L138 46 Z " />
<glyph glyph-name="afii10095" unicode="&#x44d;" horiz-adv-x="530" d="M251 -10 C399 -10 481 103 481 246 C481 389 399 503 251 503 C101 503 49 392 49 392 L49 354 L87 354 C87 354 124 455 251 455 C366 455 417 370 425 274 L191 274 L191 228 L426 228 C421 129 369 37 251 37 C123 37 86 140 86 140 L48 140 L48 103 C48 103 99 -10 251 -10 L251 -10 Z " />
<glyph glyph-name="afii10096" unicode="&#x44e;" horiz-adv-x="746" d="M467 -10 C617 -10 697 105 697 248 C697 391 617 503 467 503 C327 503 249 405 239 276 L138 276 L138 500 L84 500 L84 0 L138 0 L138 230 L237 230 C243 94 322 -10 467 -10 L467 -10 Z M467 39 C339 39 291 140 291 246 C291 353 339 454 466 454 C595 454 643 354 643 248 C643 141 595 39 467 39 L467 39 Z " />
<glyph glyph-name="afii10097" unicode="&#x44f;" horiz-adv-x="500" d="M362 205 L362 0 L416 0 L416 493 L239 493 C122 493 60 425 60 346 C60 271 110 219 209 209 L39 36 L39 0 L76 0 L274 205 L362 205 Z M235 248 C163 248 115 282 115 346 C115 406 164 447 236 447 L362 447 L362 248 L235 248 Z " />
<glyph glyph-name="afii10071" unicode="&#x451;" horiz-adv-x="554" d="M292 -10 C432 -10 484 75 495 99 L495 137 L457 137 C445 93 391 38 292 38 C181 38 108 106 103 239 L503 239 C503 239 506 256 506 287 C506 408 430 503 286 503 C129 503 49 381 49 248 C49 89 138 -10 292 -10 L292 -10 Z M105 284 C117 391 182 456 286 456 C391 456 452 392 452 284 L105 284 Z M148 646 L221 646 L221 720 L148 720 L148 646 Z M336 646 L410 646 L410 720 L336 720 L336 646 Z " />
<glyph glyph-name="afii10099" unicode="&#x452;" horiz-adv-x="563" d="M302 503 C216 503 160 457 137 399 L137 625 L271 625 L271 672 L137 672 L137 750 L83 750 L83 672 L-2 672 L-2 625 L83 625 L83 0 L137 0 L137 277 C137 386 196 456 292 456 C397 456 432 388 432 276 L432 -73 C432 -164 399 -211 325 -211 L325 -260 C430 -260 486 -198 486 -75 L486 288 C486 416 435 503 302 503 L302 503 Z " />
<glyph glyph-name="afii10100" unicode="&#x453;" horiz-adv-x="418" d="M84 0 L138 0 L138 446 L399 446 L399 493 L84 493 L84 0 Z M211 603 L256 603 L355 707 L355 743 L310 743 L211 639 L211 603 Z " />
<glyph glyph-name="afii10101" unicode="&#x454;" horiz-adv-x="529" d="M481 103 L481 140 L444 140 C444 140 423 37 289 37 C173 37 110 129 104 228 L345 228 L345 274 L105 274 C114 370 177 455 288 455 C419 455 443 354 443 354 L480 354 L480 392 C480 392 445 503 289 503 C143 503 49 389 49 246 C49 103 140 -10 288 -10 C444 -10 481 103 481 103 L481 103 Z " />
<glyph glyph-name="afii10102" unicode="&#x455;" horiz-adv-x="463" d="M241 -10 C360 -10 416 50 416 127 C416 215 343 246 268 263 L213 276 C150 291 110 312 110 366 C110 418 155 456 230 456 C312 456 354 416 365 366 L402 366 L402 403 C387 461 327 503 230 503 C127 503 58 442 58 364 C58 280 119 247 186 232 L247 218 C316 201 363 182 363 124 C363 75 322 37 241 37 C148 37 101 85 84 136 L47 136 L47 99 C67 48 124 -10 241 -10 L241 -10 Z " />
<glyph glyph-name="afii10103" unicode="&#x456;" horiz-adv-x="222" d="M84 0 L138 0 L138 493 L84 493 L84 0 Z M75 646 L148 646 L148 720 L75 720 L75 646 Z " />
<glyph glyph-name="afii10104" unicode="&#x457;" horiz-adv-x="220" d="M10 646 L84 646 L84 720 L10 720 L10 646 Z M137 646 L210 646 L210 720 L137 720 L137 646 Z M83 0 L137 0 L137 493 L83 493 L83 0 Z " />
<glyph glyph-name="afii10105" unicode="&#x458;" horiz-adv-x="222" d="M19 -260 C98 -260 138 -212 138 -119 L138 493 L84 493 L84 -117 C84 -179 63 -211 17 -211 C-27 -211 -52 -184 -54 -158 L-92 -158 L-92 -195 C-83 -224 -51 -260 19 -260 L19 -260 Z M75 646 L148 646 L148 720 L75 720 L75 646 Z " />
<glyph glyph-name="afii10106" unicode="&#x459;" horiz-adv-x="777" d="M162 218 L169 447 L377 447 L377 0 L551 0 C681 0 743 64 743 159 C743 251 670 309 552 309 L431 309 L431 493 L121 493 L114 229 C110 96 87 53 24 48 L13 48 L13 0 L34 0 C142 0 159 112 162 218 L162 218 Z M431 46 L431 264 L550 264 C633 264 687 227 687 158 C687 83 638 46 557 46 L431 46 Z " />
<glyph glyph-name="afii10107" unicode="&#x45a;" horiz-adv-x="794" d="M138 239 L395 239 L395 0 L569 0 C699 0 761 56 761 149 C761 239 689 286 570 286 L449 286 L449 493 L395 493 L395 286 L138 286 L138 493 L84 493 L84 0 L138 0 L138 239 Z M449 46 L449 240 L569 240 C651 240 705 215 705 148 C705 75 656 46 576 46 L449 46 Z " />
<glyph glyph-name="afii10108" unicode="&#x45b;" horiz-adv-x="563" d="M137 277 C137 386 196 456 292 456 C397 456 432 388 432 276 L432 0 L486 0 L486 288 C486 416 435 503 302 503 C216 503 160 457 137 399 L137 625 L271 625 L271 672 L137 672 L137 750 L83 750 L83 672 L-2 672 L-2 625 L83 625 L83 0 L137 0 L137 277 Z " />
<glyph glyph-name="afii10109" unicode="&#x45c;" horiz-adv-x="481" d="M84 0 L138 0 L138 242 L416 0 L455 0 L455 39 L204 252 L440 458 L440 493 L405 493 L138 258 L138 493 L84 493 L84 0 Z M238 608 L283 608 L382 712 L382 748 L337 748 L238 644 L238 608 Z " />
<glyph glyph-name="afii10110" unicode="&#x45e;" horiz-adv-x="498" d="M127 -250 L480 458 L480 493 L444 493 L257 112 L63 493 L25 493 L25 455 L228 57 L90 -213 L90 -250 L127 -250 Z M254 584 C379 584 390 683 390 683 L390 718 L345 718 C345 718 349 631 254 631 C159 631 162 718 162 718 L118 718 L118 683 C118 683 129 584 254 584 L254 584 Z " />
<glyph glyph-name="afii10193" unicode="&#x45f;" horiz-adv-x="552" d="M252 -140 L300 -140 L300 0 L468 0 L468 493 L414 493 L414 46 L138 46 L138 493 L84 493 L84 0 L252 0 L252 -140 Z " />
<glyph glyph-name="afii10050" unicode="&#x490;" horiz-adv-x="537" d="M462 900 L462 750 L105 750 L105 0 L164 0 L164 701 L515 701 L515 900 L462 900 Z " />
<glyph glyph-name="afii10098" unicode="&#x491;" horiz-adv-x="418" d="M350 633 L350 493 L84 493 L84 0 L138 0 L138 446 L399 446 L399 633 L350 633 Z " />
<glyph glyph-name="uni0492" unicode="&#x492;" horiz-adv-x="544" d="M314 359 L314 408 L169 408 L169 701 L521 701 L521 750 L111 750 L111 408 L11 408 L11 359 L111 359 L111 0 L169 0 L169 359 L314 359 Z " />
<glyph glyph-name="uni0493" unicode="&#x493;" horiz-adv-x="427" d="M302 221 L302 268 L147 268 L147 446 L408 446 L408 493 L93 493 L93 268 L16 268 L16 221 L93 221 L93 0 L147 0 L147 221 L302 221 Z " />
<glyph glyph-name="uni0496" unicode="&#x496;" horiz-adv-x="923" d="M930 -150 L930 49 L862 49 L532 380 L858 714 L858 750 L822 750 L474 393 L474 750 L416 750 L416 393 L69 750 L30 750 L30 713 L357 378 L19 38 L19 0 L57 0 L416 359 L416 0 L474 0 L474 359 L831 0 L876 0 L876 -150 L930 -150 Z " />
<glyph glyph-name="uni0497" unicode="&#x497;" horiz-adv-x="718" d="M708 -140 L708 46 L664 46 L443 253 L657 458 L657 493 L621 493 L376 257 L376 493 L322 493 L322 257 L74 493 L37 493 L37 458 L257 252 L31 37 L31 0 L68 0 L322 243 L322 0 L376 0 L376 243 L631 0 L659 0 L659 -140 L708 -140 Z " />
<glyph glyph-name="uni0498" unicode="&#x498;" horiz-adv-x="571" d="M514 212 C514 307 460 373 368 399 C439 430 482 496 482 570 C482 681 406 760 270 760 C137 760 79 679 62 628 L62 589 L104 589 C120 649 171 711 269 711 C374 711 424 649 424 571 C424 480 362 416 267 416 L186 416 L186 368 L268 368 C392 368 456 306 456 211 C456 94 383 39 280 39 C170 39 98 109 89 176 L46 176 L46 137 C55 90 111 6 244 -8 L244 -150 L297 -150 L297 -10 C436 -4 514 85 514 212 L514 212 Z " />
<glyph glyph-name="uni0499" unicode="&#x499;" horiz-adv-x="470" d="M420 134 C420 206 373 240 319 258 C375 282 400 319 400 372 C400 454 333 503 234 503 C137 503 77 460 52 395 L52 357 L90 357 C109 427 162 456 228 456 C298 456 345 423 345 359 C345 314 315 276 243 276 L157 276 L157 230 L237 230 C324 230 366 193 366 136 C366 75 320 37 233 37 C149 37 106 73 85 137 L47 137 L47 99 C66 54 109 -1 208 -9 L208 -150 L257 -150 L257 -9 C361 -2 420 53 420 134 L420 134 Z " />
<glyph glyph-name="uni049A" unicode="&#x49a;" horiz-adv-x="641" d="M648 -150 L648 49 L587 49 L222 381 L584 714 L584 750 L548 750 L163 392 L163 750 L105 750 L105 0 L163 0 L163 359 L558 0 L594 0 L594 -150 L648 -150 Z " />
<glyph glyph-name="uni049B" unicode="&#x49b;" horiz-adv-x="501" d="M492 -140 L492 46 L448 46 L204 252 L440 458 L440 493 L405 493 L138 258 L138 493 L84 493 L84 0 L138 0 L138 242 L416 0 L443 0 L443 -140 L492 -140 Z " />
<glyph glyph-name="uni049C" unicode="&#x49c;" horiz-adv-x="656" d="M295 392 L295 580 L239 580 L239 180 L295 180 L295 359 L587 0 L631 0 L631 44 L352 383 L618 712 L618 750 L581 750 L295 392 Z M105 0 L164 0 L164 750 L105 750 L105 0 Z " />
<glyph glyph-name="uni049D" unicode="&#x49d;" horiz-adv-x="509" d="M84 0 L138 0 L138 500 L84 500 L84 0 Z M233 258 L233 400 L182 400 L182 100 L233 100 L233 242 L438 0 L477 0 L477 39 L294 254 L462 458 L462 493 L427 493 L233 258 Z " />
<glyph glyph-name="uni04A0" unicode="&#x4a0;" horiz-adv-x="786" d="M337 359 L732 0 L771 0 L771 39 L396 381 L758 714 L758 750 L722 750 L337 392 L337 750 L19 750 L19 701 L279 701 L279 0 L337 0 L337 359 Z " />
<glyph glyph-name="uni04A1" unicode="&#x4a1;" horiz-adv-x="622" d="M225 0 L279 0 L279 242 L557 0 L596 0 L596 39 L345 252 L581 458 L581 493 L546 493 L279 258 L279 493 L18 493 L18 446 L225 446 L225 0 Z " />
<glyph glyph-name="uni04A2" unicode="&#x4a2;" horiz-adv-x="783" d="M751 -150 L751 49 L651 49 L651 750 L592 750 L592 408 L164 408 L164 750 L105 750 L105 0 L164 0 L164 359 L592 359 L592 0 L697 0 L697 -150 L751 -150 Z " />
<glyph glyph-name="uni04A3" unicode="&#x4a3;" horiz-adv-x="584" d="M561 -140 L561 46 L476 46 L476 493 L422 493 L422 276 L138 276 L138 493 L84 493 L84 0 L138 0 L138 229 L422 229 L422 0 L512 0 L512 -140 L561 -140 Z " />
<glyph glyph-name="uni04AA" unicode="&#x4aa;" horiz-adv-x="736" d="M696 133 L696 172 L654 172 C654 172 602 39 416 39 C233 39 113 184 113 378 C113 562 219 711 415 711 C603 711 649 583 649 583 L691 583 L691 622 C691 622 630 760 414 760 C189 760 54 599 54 378 C54 171 170 7 382 -9 L382 -150 L436 -150 L436 -10 C632 -1 696 133 696 133 L696 133 Z " />
<glyph glyph-name="uni04AB" unicode="&#x4ab;" horiz-adv-x="530" d="M481 103 L481 140 L444 140 C444 140 423 37 289 37 C166 37 103 139 103 246 C103 354 166 455 288 455 C419 455 443 354 443 354 L480 354 L480 392 C480 392 445 503 289 503 C143 503 49 389 49 246 C49 114 127 7 256 -8 L256 -150 L305 -150 L305 -10 C447 -2 481 103 481 103 L481 103 Z " />
<glyph glyph-name="uni04AE" unicode="&#x4ae;" horiz-adv-x="611" d="M278 0 L336 0 L336 305 L594 714 L594 750 L557 750 L311 357 L49 750 L9 750 L9 711 L278 307 L278 0 Z " />
<glyph glyph-name="uni04AF" unicode="&#x4af;" horiz-adv-x="495" d="M277 -250 L277 -1 L469 456 L469 493 L432 493 L249 56 L67 493 L26 493 L26 453 L218 -2 L218 -250 L277 -250 Z " />
<glyph glyph-name="uni04B0" unicode="&#x4b0;" horiz-adv-x="626" d="M524 262 L524 311 L349 311 L604 714 L604 750 L567 750 L319 355 L56 750 L16 750 L16 711 L281 311 L98 311 L98 262 L285 262 L285 0 L344 0 L344 262 L524 262 Z " />
<glyph glyph-name="uni04B1" unicode="&#x4b1;" horiz-adv-x="495" d="M433 -47 L433 0 L278 0 L469 456 L469 493 L432 493 L249 56 L67 493 L26 493 L26 453 L218 0 L76 0 L76 -47 L218 -47 L218 -250 L277 -250 L277 -47 L433 -47 Z " />
<glyph glyph-name="uni04B2" unicode="&#x4b2;" horiz-adv-x="658" d="M657 -150 L657 49 L593 49 L350 383 L589 714 L589 750 L553 750 L316 423 L77 750 L38 750 L38 711 L278 382 L28 36 L28 0 L64 0 L312 342 L561 0 L603 0 L603 -150 L657 -150 Z " />
<glyph glyph-name="uni04B3" unicode="&#x4b3;" horiz-adv-x="510" d="M494 -140 L494 46 L447 46 L277 249 L451 458 L451 493 L416 493 L247 285 L78 493 L40 493 L40 455 L213 249 L37 35 L37 0 L72 0 L243 212 L416 0 L445 0 L445 -140 L494 -140 Z " />
<glyph glyph-name="uni04B6" unicode="&#x4b6;" horiz-adv-x="674" d="M642 -150 L642 49 L542 49 L542 750 L484 750 L484 368 L342 368 C195 368 109 408 109 566 L109 750 L50 750 L50 565 C50 370 159 319 340 319 L484 319 L484 0 L588 0 L588 -150 L642 -150 Z " />
<glyph glyph-name="uni04B7" unicode="&#x4b7;" horiz-adv-x="515" d="M492 -140 L492 46 L407 46 L407 493 L353 493 L353 238 L243 238 C142 238 99 270 99 359 L99 493 L45 493 L45 359 C45 231 117 192 241 192 L353 192 L353 0 L443 0 L443 -140 L492 -140 Z " />
<glyph glyph-name="uni04B8" unicode="&#x4b8;" horiz-adv-x="645" d="M540 0 L540 750 L481 750 L481 368 L338 368 L338 540 L283 540 L283 371 C178 380 107 427 107 566 L107 750 L48 750 L48 565 C48 386 140 330 283 320 L283 140 L338 140 L338 319 L481 319 L481 0 L540 0 Z " />
<glyph glyph-name="uni04B9" unicode="&#x4b9;" horiz-adv-x="490" d="M406 0 L406 493 L352 493 L352 238 L261 238 L261 370 L210 370 L210 240 C131 247 98 281 98 359 L98 493 L44 493 L44 359 C44 242 104 199 210 193 L210 70 L261 70 L261 192 L352 192 L352 0 L406 0 Z " />
<glyph glyph-name="uni04BA" unicode="&#x4ba;" horiz-adv-x="641" d="M163 750 L105 750 L105 0 L163 0 L163 382 L305 382 C452 382 539 342 539 184 L539 0 L597 0 L597 185 C597 380 488 431 307 431 L163 431 L163 750 Z " />
<glyph glyph-name="uni04BB" unicode="&#x4bb;" horiz-adv-x="564" d="M84 0 L138 0 L138 277 C138 386 197 456 293 456 C398 456 433 388 433 276 L433 0 L487 0 L487 288 C487 416 436 503 303 503 C217 503 161 457 138 399 L138 750 L84 750 L84 0 Z " />
<glyph glyph-name="uni04C0" unicode="&#x4c0;" horiz-adv-x="268" d="M105 0 L163 0 L163 750 L105 750 L105 0 Z " />
<glyph glyph-name="uni04C1" unicode="&#x4c1;" horiz-adv-x="889" d="M416 359 L416 0 L474 0 L474 359 L831 0 L871 0 L871 39 L532 380 L858 714 L858 750 L822 750 L474 393 L474 750 L416 750 L416 393 L69 750 L30 750 L30 711 L356 377 L19 38 L19 0 L57 0 L416 359 Z M443 814 C568 814 586 909 586 909 L586 947 L543 947 C543 947 543 857 443 857 C344 857 343 947 343 947 L300 947 L300 909 C300 909 318 814 443 814 L443 814 Z " />
<glyph glyph-name="uni04C2" unicode="&#x4c2;" horiz-adv-x="699" d="M31 0 L68 0 L322 243 L322 0 L376 0 L376 243 L631 0 L670 0 L670 39 L443 253 L657 458 L657 493 L621 493 L376 257 L376 493 L322 493 L322 257 L74 493 L37 493 L37 458 L257 252 L31 37 L31 0 Z M350 599 C475 599 486 698 486 698 L486 733 L441 733 C441 733 445 646 350 646 C255 646 258 733 258 733 L214 733 L214 698 C214 698 225 599 350 599 L350 599 Z " />
<glyph glyph-name="uni04CF" unicode="&#x4cf;" horiz-adv-x="268" d="M105 0 L163 0 L163 750 L105 750 L105 0 Z " />
<glyph glyph-name="uni04D0" unicode="&#x4d0;" horiz-adv-x="641" d="M59 0 L150 236 L486 236 L578 0 L620 0 L620 46 L346 750 L295 750 L19 41 L19 0 L59 0 Z M467 285 L169 285 L318 676 L467 285 Z M323 814 C448 814 466 909 466 909 L466 947 L423 947 C423 947 423 857 323 857 C224 857 223 947 223 947 L180 947 L180 909 C180 909 198 814 323 814 L323 814 Z " />
<glyph glyph-name="uni04D1" unicode="&#x4d1;" horiz-adv-x="510" d="M216 -10 C300 -10 356 37 383 104 L389 0 L432 0 L432 309 C432 436 368 503 247 503 C107 503 70 408 70 408 L70 371 L108 371 C108 371 131 456 245 456 C336 456 378 405 378 311 L378 271 C378 271 319 284 247 284 C101 284 43 222 43 139 C43 55 98 -10 216 -10 L216 -10 Z M221 35 C139 35 95 73 95 139 C95 191 129 240 246 240 C325 240 378 227 378 227 L378 196 C378 122 327 35 221 35 L221 35 Z M258 595 C383 595 394 694 394 694 L394 729 L349 729 C349 729 353 642 258 642 C163 642 166 729 166 729 L122 729 L122 694 C122 694 133 595 258 595 L258 595 Z " />
<glyph glyph-name="uni04D6" unicode="&#x4d6;" horiz-adv-x="570" d="M105 0 L515 0 L515 49 L163 49 L163 365 L478 365 L478 414 L163 414 L163 701 L515 701 L515 750 L105 750 L105 0 Z M318 814 C443 814 461 909 461 909 L461 947 L418 947 C418 947 418 857 318 857 C219 857 218 947 218 947 L175 947 L175 909 C175 909 193 814 318 814 L318 814 Z " />
<glyph glyph-name="uni04D7" unicode="&#x4d7;" horiz-adv-x="554" d="M292 -10 C432 -10 484 75 495 99 L495 137 L457 137 C445 93 391 38 292 38 C181 38 108 106 103 239 L503 239 C503 239 506 256 506 287 C506 408 430 503 286 503 C129 503 49 381 49 248 C49 89 138 -10 292 -10 L292 -10 Z M105 284 C117 391 182 456 286 456 C391 456 452 392 452 284 L105 284 Z M291 599 C416 599 427 698 427 698 L427 733 L382 733 C382 733 386 646 291 646 C196 646 199 733 199 733 L155 733 L155 698 C155 698 166 599 291 599 L291 599 Z " />
<glyph glyph-name="uni04D8" unicode="&#x4d8;" horiz-adv-x="794" d="M391 -10 C607 -10 739 146 739 378 C739 609 606 760 383 760 C211 760 121 675 80 608 L80 569 L122 569 C155 631 236 711 382 711 C562 711 674 591 681 395 L47 395 C46 389 43 375 43 355 C43 142 179 -10 391 -10 L391 -10 Z M391 39 C224 39 106 161 100 347 L679 347 C668 157 559 39 391 39 L391 39 Z " />
<glyph glyph-name="uni04D9" unicode="&#x4d9;" horiz-adv-x="555" d="M262 510 C122 510 70 425 59 401 L59 363 L97 363 C109 407 163 462 262 462 C373 462 446 394 451 261 L51 261 C51 261 48 244 48 213 C48 92 124 -3 268 -3 C425 -3 505 119 505 252 C505 411 416 510 262 510 L262 510 Z M449 216 C437 109 372 44 268 44 C163 44 102 108 102 216 L449 216 Z " />
<glyph glyph-name="uni04E2" unicode="&#x4e2;" horiz-adv-x="748" d="M105 0 L164 0 L585 655 L585 0 L643 0 L643 750 L585 750 L164 87 L164 750 L105 750 L105 0 Z M257 847 L500 847 L500 899 L257 899 L257 847 Z " />
<glyph glyph-name="uni04E3" unicode="&#x4e3;" horiz-adv-x="563" d="M84 0 L135 0 L425 415 L425 0 L479 0 L479 493 L428 493 L138 80 L138 493 L84 493 L84 0 Z M171 654 L394 654 L394 703 L171 703 L171 654 Z " />
<glyph glyph-name="uni04E6" unicode="&#x4e6;" horiz-adv-x="830" d="M415 -10 C638 -10 777 155 777 378 C777 598 638 760 415 760 C192 760 53 598 53 378 C53 155 192 -10 415 -10 L415 -10 Z M415 39 C228 39 112 183 112 378 C112 569 228 711 415 711 C602 711 718 569 718 378 C718 183 602 39 415 39 L415 39 Z M271 838 L347 838 L347 914 L271 914 L271 838 Z M471 838 L546 838 L546 914 L471 914 L471 838 Z " />
<glyph glyph-name="uni04E7" unicode="&#x4e7;" horiz-adv-x="577" d="M288 -10 C433 -10 528 105 528 248 C528 391 433 503 288 503 C142 503 48 389 48 246 C48 103 142 -10 288 -10 L288 -10 Z M288 37 C165 37 102 139 102 246 C102 354 165 456 287 456 C411 456 474 354 474 248 C474 140 411 37 288 37 L288 37 Z M157 646 L230 646 L230 720 L157 720 L157 646 Z M345 646 L419 646 L419 720 L345 720 L345 646 Z " />
<glyph glyph-name="uni04E8" unicode="&#x4e8;" horiz-adv-x="829" d="M414 -10 C637 -10 776 155 776 378 C776 598 637 760 414 760 C191 760 53 598 53 378 C53 155 191 -10 414 -10 L414 -10 Z M414 711 C592 711 706 582 716 405 L112 405 C123 582 237 711 414 711 L414 711 Z M414 39 C235 39 121 174 112 356 L717 356 C708 174 594 39 414 39 L414 39 Z " />
<glyph glyph-name="uni04E9" unicode="&#x4e9;" horiz-adv-x="577" d="M288 -10 C433 -10 528 105 528 248 C528 391 433 503 288 503 C142 503 48 389 48 246 C48 103 142 -10 288 -10 L288 -10 Z M287 456 C402 456 465 367 473 269 L103 269 C111 367 174 456 287 456 L287 456 Z M288 37 C174 37 111 125 103 222 L472 222 C464 125 401 37 288 37 L288 37 Z " />
<glyph glyph-name="uni04EE" unicode="&#x4ee;" horiz-adv-x="593" d="M214 0 L586 713 L586 750 L549 750 L306 280 L52 750 L11 750 L11 709 L275 222 L177 37 L177 0 L214 0 Z M180 847 L423 847 L423 899 L180 899 L180 847 Z " />
<glyph glyph-name="uni04EF" unicode="&#x4ef;" horiz-adv-x="498" d="M127 -250 L480 458 L480 493 L444 493 L257 112 L63 493 L25 493 L25 455 L228 57 L90 -213 L90 -250 L127 -250 Z M146 654 L369 654 L369 703 L146 703 L146 654 Z " />
<glyph glyph-name="uni04F2" unicode="&#x4f2;" horiz-adv-x="593" d="M214 0 L586 713 L586 750 L549 750 L306 280 L52 750 L11 750 L11 709 L275 222 L177 37 L177 0 L214 0 Z M180 805 L219 805 L332 909 L332 945 L292 945 L180 841 L180 805 Z M352 805 L391 805 L504 909 L504 945 L464 945 L352 841 L352 805 Z " />
<glyph glyph-name="uni04F3" unicode="&#x4f3;" horiz-adv-x="498" d="M156 610 L195 610 L297 714 L297 750 L258 750 L156 646 L156 610 Z M314 610 L353 610 L456 714 L456 750 L417 750 L314 646 L314 610 Z M127 -250 L480 458 L480 493 L444 493 L257 112 L63 493 L25 493 L25 455 L228 57 L90 -213 L90 -250 L127 -250 Z " />
<glyph glyph-name="Wgrave" unicode="&#x1e80;" horiz-adv-x="966" d="M673 0 L725 0 L942 713 L942 750 L900 750 L700 95 L507 750 L465 750 L269 94 L70 750 L26 750 L26 708 L241 0 L293 0 L483 643 L673 0 Z M460 805 L505 805 L505 841 L392 945 L347 945 L347 909 L460 805 Z " />
<glyph glyph-name="wgrave" unicode="&#x1e81;" horiz-adv-x="727" d="M500 0 L543 0 L698 458 L698 493 L662 493 L524 81 L388 493 L345 493 L209 78 L70 493 L31 493 L31 454 L182 0 L226 0 L363 417 L500 0 Z M345 610 L390 610 L390 646 L291 750 L246 750 L246 714 L345 610 Z " />
<glyph glyph-name="Wacute" unicode="&#x1e82;" horiz-adv-x="966" d="M673 0 L725 0 L942 713 L942 750 L900 750 L700 95 L507 750 L465 750 L269 94 L70 750 L26 750 L26 708 L241 0 L293 0 L483 643 L673 0 Z M464 805 L509 805 L622 909 L622 945 L576 945 L464 841 L464 805 Z " />
<glyph glyph-name="wacute" unicode="&#x1e83;" horiz-adv-x="727" d="M500 0 L543 0 L698 458 L698 493 L662 493 L524 81 L388 493 L345 493 L209 78 L70 493 L31 493 L31 454 L182 0 L226 0 L363 417 L500 0 Z M351 610 L396 610 L495 714 L495 750 L450 750 L351 646 L351 610 Z " />
<glyph glyph-name="Wdieresis" unicode="&#x1e84;" horiz-adv-x="966" d="M673 0 L725 0 L942 713 L942 750 L900 750 L700 95 L507 750 L465 750 L269 94 L70 750 L26 750 L26 708 L241 0 L293 0 L483 643 L673 0 Z M352 838 L428 838 L428 914 L352 914 L352 838 Z M552 838 L627 838 L627 914 L552 914 L552 838 Z " />
<glyph glyph-name="wdieresis" unicode="&#x1e85;" horiz-adv-x="727" d="M500 0 L543 0 L698 458 L698 493 L662 493 L524 81 L388 493 L345 493 L209 78 L70 493 L31 493 L31 454 L182 0 L226 0 L363 417 L500 0 Z M236 646 L309 646 L309 720 L236 720 L236 646 Z M424 646 L498 646 L498 720 L424 720 L424 646 Z " />
<glyph glyph-name="Ygrave" unicode="&#x1ef2;" horiz-adv-x="611" d="M278 0 L336 0 L336 305 L594 714 L594 750 L557 750 L311 357 L49 750 L9 750 L9 711 L278 307 L278 0 Z M280 805 L325 805 L325 841 L212 945 L167 945 L167 909 L280 805 Z " />
<glyph glyph-name="ygrave" unicode="&#x1ef3;" horiz-adv-x="498" d="M127 -250 L480 458 L480 493 L444 493 L257 112 L63 493 L25 493 L25 455 L228 57 L90 -213 L90 -250 L127 -250 Z M236 610 L281 610 L281 646 L182 750 L137 750 L137 714 L236 610 Z " />
<glyph glyph-name="thinspace" unicode="&#x2009;" horiz-adv-x="94" d="" />
<glyph glyph-name="uni2010" unicode="&#x2010;" horiz-adv-x="412" d="M71 303 L341 303 L341 350 L71 350 L71 303 Z " />
<glyph glyph-name="uni2011" unicode="&#x2011;" horiz-adv-x="412" d="M71 303 L341 303 L341 350 L71 350 L71 303 Z " />
<glyph glyph-name="endash" unicode="&#x2013;" horiz-adv-x="571" d="M71 303 L500 303 L500 350 L71 350 L71 303 Z " />
<glyph glyph-name="emdash" unicode="&#x2014;" horiz-adv-x="771" d="M71 303 L700 303 L700 350 L71 350 L71 303 Z " />
<glyph glyph-name="uni2015" unicode="&#x2015;" horiz-adv-x="771" d="M71 303 L700 303 L700 350 L71 350 L71 303 Z " />
<glyph glyph-name="quoteleft" unicode="&#x2018;" horiz-adv-x="202" d="M134 750 L97 750 L62 641 L62 577 L134 577 L134 750 Z " />
<glyph glyph-name="quoteright" unicode="&#x2019;" horiz-adv-x="193" d="M68 577 L105 577 L140 686 L140 750 L68 750 L68 577 Z " />
<glyph glyph-name="quotesinglbase" unicode="&#x201a;" horiz-adv-x="220" d="M74 -96 L111 -96 L146 13 L146 77 L74 77 L74 -96 Z " />
<glyph glyph-name="quotedblleft" unicode="&#x201c;" horiz-adv-x="344" d="M276 750 L239 750 L204 641 L204 577 L276 577 L276 750 Z M134 750 L97 750 L62 641 L62 577 L134 577 L134 750 Z " />
<glyph glyph-name="quotedblright" unicode="&#x201d;" horiz-adv-x="335" d="M68 577 L105 577 L140 686 L140 750 L68 750 L68 577 Z M210 577 L247 577 L282 686 L282 750 L210 750 L210 577 Z " />
<glyph glyph-name="quotedblbase" unicode="&#x201e;" horiz-adv-x="362" d="M74 -96 L111 -96 L146 13 L146 77 L74 77 L74 -96 Z M216 -96 L253 -96 L288 13 L288 77 L216 77 L216 -96 Z " />
<glyph glyph-name="dagger" unicode="&#x2020;" horiz-adv-x="478" d="M229 -72 L251 -72 L280 28 L258 496 L421 487 L421 540 L258 532 L272 750 L205 750 L220 532 L56 540 L56 487 L220 496 L198 28 L229 -72 Z " />
<glyph glyph-name="daggerdbl" unicode="&#x2021;" horiz-adv-x="478" d="M206 -72 L273 -72 L259 147 L422 139 L422 192 L259 183 L277 334 L259 496 L422 487 L422 540 L259 532 L273 750 L206 750 L221 532 L57 540 L57 487 L221 496 L203 334 L221 183 L57 192 L57 139 L221 147 L206 -72 Z " />
<glyph glyph-name="bullet" unicode="&#x2022;" horiz-adv-x="366" d="M183 231 C236 231 272 270 272 320 C272 370 236 409 183 409 C132 409 95 370 95 320 C95 270 132 231 183 231 L183 231 Z " />
<glyph glyph-name="ellipsis" unicode="&#x2026;" horiz-adv-x="635" d="M71 0 L147 0 L147 77 L71 77 L71 0 Z M279 0 L356 0 L356 77 L279 77 L279 0 Z M487 0 L564 0 L564 77 L487 77 L487 0 Z " />
<glyph glyph-name="perthousand" unicode="&#x2030;" horiz-adv-x="1466" d="M240 -26 L299 -26 L759 762 L700 762 L240 -26 Z M235 344 C354 344 434 429 434 552 C434 674 352 760 235 760 C118 760 37 675 37 552 C37 431 115 344 235 344 L235 344 Z M235 394 C140 394 96 469 96 552 C96 635 141 710 235 710 C328 710 375 637 375 552 C375 469 330 394 235 394 L235 394 Z M766 -13 C885 -13 965 72 965 195 C965 317 883 403 766 403 C649 403 569 318 569 195 C569 74 646 -13 766 -13 L766 -13 Z M1230 -13 C1349 -13 1429 72 1429 195 C1429 317 1347 403 1230 403 C1113 403 1033 318 1033 195 C1033 74 1110 -13 1230 -13 L1230 -13 Z M766 38 C672 38 628 113 628 195 C628 278 673 353 766 353 C860 353 906 280 906 195 C906 113 862 38 766 38 L766 38 Z M1230 38 C1135 38 1091 113 1091 195 C1091 278 1136 353 1230 353 C1323 353 1370 280 1370 195 C1370 113 1325 38 1230 38 L1230 38 Z " />
<glyph glyph-name="minute" unicode="&#x2032;" horiz-adv-x="205" d="M72 505 L115 505 L150 750 L78 750 L72 505 Z " />
<glyph glyph-name="second" unicode="&#x2033;" horiz-adv-x="347" d="M72 505 L115 505 L150 750 L78 750 L72 505 Z M214 505 L257 505 L292 750 L220 750 L214 505 Z " />
<glyph glyph-name="guilsinglleft" unicode="&#x2039;" horiz-adv-x="331" d="M234 60 L272 60 L272 98 L112 272 L272 446 L272 480 L234 480 L43 270 L234 60 Z " />
<glyph glyph-name="guilsinglright" unicode="&#x203a;" horiz-adv-x="331" d="M59 60 L97 60 L288 270 L97 480 L59 480 L59 442 L219 269 L59 94 L59 60 Z " />
<glyph glyph-name="fraction" unicode="&#x2044;" horiz-adv-x="534" d="M4 -40 L60 -40 L529 790 L473 790 L4 -40 Z " />
<glyph glyph-name="Euro" unicode="&#x20ac;" horiz-adv-x="815" d="M756 133 L756 172 L713 172 C713 172 661 39 475 39 C332 39 228 130 198 279 L489 279 L520 328 L188 328 C186 343 185 362 185 378 C185 394 186 412 187 428 L579 428 L608 477 L197 477 C226 618 322 711 475 711 C662 711 708 583 708 583 L751 583 L751 622 C751 622 690 760 474 760 C291 760 170 646 137 477 L42 477 L42 428 L129 428 C128 412 127 394 127 378 C127 362 128 343 129 328 L42 328 L42 279 L137 279 C169 110 286 -10 474 -10 C694 -10 756 133 756 133 L756 133 Z " />
<glyph glyph-name="uni20B4" unicode="&#x20b4;" horiz-adv-x="696" d="M638 422 L638 471 L547 471 C571 501 580 540 580 577 C580 676 511 760 364 760 C233 760 153 696 138 612 L138 573 L180 573 C188 632 232 711 360 711 C474 711 523 655 523 572 C523 530 510 494 481 471 L55 471 L55 422 L638 422 Z M596 139 L596 178 L554 178 C524 88 463 39 350 39 C256 39 173 89 173 186 C173 212 180 250 207 276 L638 276 L638 325 L55 325 L55 276 L143 276 C124 247 116 214 116 183 C116 66 214 -10 351 -10 C499 -10 568 60 596 139 L596 139 Z " />
<glyph glyph-name="uni20B8" unicode="&#x20b8;" horiz-adv-x="620" d="M29 701 L591 701 L591 750 L29 750 L29 701 Z M284 0 L343 0 L343 552 L591 552 L591 601 L29 601 L29 552 L284 552 L284 0 Z " />
<glyph glyph-name="uni20BD" unicode="&#x20bd;" horiz-adv-x="630" d="M487 193 L487 242 L217 242 L217 332 L346 332 C518 332 592 432 592 549 C592 675 505 750 346 750 L158 750 L158 380 L49 380 L49 332 L158 332 L158 242 L49 242 L49 193 L158 193 L158 0 L217 0 L217 193 L487 193 Z M217 380 L217 701 L345 701 C484 701 533 626 533 548 C533 454 480 380 345 380 L217 380 Z " />
<glyph glyph-name="afii61352" unicode="&#x2116;" horiz-adv-x="1170" d="M110 0 L163 0 L163 651 L598 0 L651 0 L651 750 L598 750 L598 96 L163 750 L110 750 L110 0 Z M937 334 C1051 334 1122 418 1122 523 C1122 627 1049 712 937 712 C824 712 754 628 754 523 C754 420 821 334 937 334 L937 334 Z M937 382 C857 382 810 440 810 523 C810 606 858 664 937 664 C1016 664 1065 608 1065 523 C1065 440 1018 382 937 382 L937 382 Z M784 226 L1093 226 L1093 275 L784 275 L784 226 Z " />
<glyph glyph-name="trademark" unicode="&#x2122;" horiz-adv-x="746" d="M479 493 L516 493 L611 690 L611 443 L661 443 L661 750 L595 750 L502 552 L405 750 L336 750 L336 443 L384 443 L384 686 L479 493 Z M141 443 L192 443 L192 707 L290 707 L290 750 L44 750 L44 707 L141 707 L141 443 Z " />
<glyph glyph-name="uni2139" unicode="&#x2139;" horiz-adv-x="1180" d="M535 610 L645 610 L645 720 L535 720 L535 610 Z M540 0 L640 0 L640 500 L540 500 L540 0 Z " />
<glyph glyph-name="onethird" unicode="&#x2153;" horiz-adv-x="882" d="M162 -40 L219 -40 L688 790 L631 790 L162 -40 Z M175 300 L225 300 L225 750 L184 750 L35 628 L35 595 L68 595 L175 683 L175 300 Z M688 -60 C793 -60 840 -1 840 68 C840 118 809 167 740 177 C794 194 817 238 817 282 C817 361 763 400 683 400 C581 400 544 336 536 302 L536 266 L572 266 C578 306 605 355 680 356 C732 357 767 330 767 278 C767 242 752 196 684 196 L639 196 L639 152 L686 152 C767 152 790 104 790 69 C790 11 746 -16 686 -16 C609 -16 572 35 566 78 L530 78 L530 42 C537 12 573 -60 688 -60 L688 -60 Z " />
<glyph glyph-name="twothirds" unicode="&#x2154;" horiz-adv-x="944" d="M236 -40 L292 -40 L761 790 L705 790 L236 -40 Z M338 300 L338 349 L127 349 L216 430 C289 498 330 552 330 625 C330 708 278 756 191 756 C75 756 58 665 53 658 L53 622 L89 622 C95 659 118 712 189 712 C248 712 280 677 280 621 C280 570 253 524 181 458 L53 341 L53 300 L338 300 Z M754 -60 C860 -60 906 -1 906 68 C906 118 876 167 807 177 C861 194 883 238 883 282 C883 361 830 400 750 400 C648 400 610 336 603 302 L603 266 L639 266 C645 306 671 355 746 356 C798 357 834 330 834 278 C834 242 818 196 750 196 L705 196 L705 152 L752 152 C834 152 857 104 857 69 C857 11 813 -16 752 -16 C676 -16 638 35 633 78 L597 78 L597 42 C604 12 640 -60 754 -60 L754 -60 Z " />
<glyph glyph-name="oneeighth" unicode="&#x215b;" horiz-adv-x="882" d="M162 -40 L219 -40 L688 790 L631 790 L162 -40 Z M225 300 L225 750 L184 750 L35 628 L35 595 L68 595 L175 683 L175 300 L225 300 Z M685 -59 C780 -60 839 -2 839 73 C839 119 818 169 752 189 C799 209 817 251 817 287 C817 349 770 404 685 404 C598 404 553 349 553 287 C553 254 564 214 620 189 C559 174 531 119 531 73 C531 -2 590 -58 685 -59 L685 -59 Z M685 208 C631 208 601 242 601 285 C601 324 632 360 685 360 C737 360 769 324 769 285 C769 242 737 208 685 208 L685 208 Z M685 -14 C621 -14 581 20 581 74 C581 124 618 165 685 165 C752 165 789 124 789 75 C789 20 749 -14 685 -14 L685 -14 Z " />
<glyph glyph-name="threeeighths" unicode="&#x215c;" horiz-adv-x="964" d="M249 -40 L305 -40 L774 790 L718 790 L249 -40 Z M203 296 C309 296 355 355 355 425 C355 474 325 523 256 534 C309 550 332 594 332 638 C332 717 279 756 199 756 C96 756 59 692 51 658 L51 622 L87 622 C93 662 120 711 195 712 C247 713 283 686 283 634 C283 598 267 552 199 552 L154 552 L154 508 L201 508 C282 508 305 460 305 425 C305 367 261 340 201 340 C125 340 87 391 82 434 L46 434 L46 398 C53 368 88 296 203 296 L203 296 Z M772 -59 C867 -60 926 -2 926 73 C926 119 905 169 839 189 C886 209 904 251 904 287 C904 349 857 404 772 404 C685 404 639 349 639 287 C639 254 651 214 707 189 C646 174 618 119 618 73 C618 -2 677 -58 772 -59 L772 -59 Z M772 208 C718 208 688 242 688 285 C688 324 719 360 772 360 C824 360 856 324 856 285 C856 242 824 208 772 208 L772 208 Z M772 -14 C708 -14 668 20 668 74 C668 124 705 165 772 165 C839 165 875 124 875 75 C875 20 836 -14 772 -14 L772 -14 Z " />
<glyph glyph-name="fiveeighths" unicode="&#x215d;" horiz-adv-x="939" d="M225 -40 L281 -40 L750 790 L694 790 L225 -40 Z M186 296 C265 296 331 353 331 443 C331 544 267 588 189 588 C155 588 120 576 99 551 L124 701 L306 701 L306 750 L88 750 L51 504 L90 491 C104 526 139 545 184 545 C243 545 281 505 281 443 C281 388 246 340 186 340 C115 340 86 379 77 421 L41 421 L41 385 C48 354 86 296 186 296 L186 296 Z M747 -59 C843 -60 901 -2 901 73 C901 119 880 169 814 189 C861 209 879 251 879 287 C879 349 832 404 747 404 C660 404 615 349 615 287 C615 254 626 214 682 189 C621 174 593 119 593 73 C593 -2 652 -58 747 -59 L747 -59 Z M747 208 C693 208 663 242 663 285 C663 324 694 360 747 360 C799 360 831 324 831 285 C831 242 799 208 747 208 L747 208 Z M747 -14 C683 -14 643 20 643 74 C643 124 680 165 747 165 C814 165 851 124 851 75 C851 20 811 -14 747 -14 L747 -14 Z " />
<glyph glyph-name="seveneighths" unicode="&#x215e;" horiz-adv-x="904" d="M184 -40 L240 -40 L709 790 L653 790 L184 -40 Z M164 296 C212 399 317 636 361 719 L361 750 L35 750 L35 704 L304 704 C267 630 162 411 125 332 L125 296 L164 296 Z M706 -59 C802 -60 860 -2 860 73 C860 119 839 169 773 189 C820 209 838 251 838 287 C838 349 791 404 706 404 C619 404 574 349 574 287 C574 254 585 214 641 189 C580 174 552 119 552 73 C552 -2 611 -58 706 -59 L706 -59 Z M706 208 C652 208 622 242 622 285 C622 324 653 360 706 360 C758 360 790 324 790 285 C790 242 758 208 706 208 L706 208 Z M706 -14 C642 -14 602 20 602 74 C602 124 639 165 706 165 C773 165 810 124 810 75 C810 20 770 -14 706 -14 L706 -14 Z " />
<glyph glyph-name="uni2190" unicode="&#x2190;" horiz-adv-x="1180" d="M614 54 L369 315 L982 315 L982 415 L369 415 L614 676 L614 741 L543 741 L180 365 L543 -11 L614 -11 L614 54 Z " />
<glyph glyph-name="uni2191" unicode="&#x2191;" horiz-adv-x="1180" d="M901 346 L640 591 L640 -22 L540 -22 L540 591 L279 346 L214 346 L214 417 L590 780 L966 417 L966 346 L901 346 Z " />
<glyph glyph-name="uni2192" unicode="&#x2192;" horiz-adv-x="1180" d="M565 49 L810 310 L197 310 L197 410 L810 410 L565 671 L565 736 L636 736 L999 360 L636 -16 L565 -16 L565 49 Z " />
<glyph glyph-name="uni2193" unicode="&#x2193;" horiz-adv-x="1192" d="M278 390 L539 145 L539 758 L639 758 L639 145 L900 390 L965 390 L965 319 L589 -44 L213 319 L213 390 L278 390 Z " />
<glyph glyph-name="uni2194" unicode="&#x2194;" horiz-adv-x="1180" d="M490 180 L363 317 L817 317 L690 180 L690 124 L751 124 L975 360 L751 596 L690 596 L690 540 L818 403 L362 403 L490 540 L490 596 L430 596 L205 360 L430 124 L490 124 L490 180 Z " />
<glyph glyph-name="uni2195" unicode="&#x2195;" horiz-adv-x="1180" d="M591 -25 L827 200 L827 260 L771 260 L634 133 L634 587 L771 460 L827 460 L827 521 L591 745 L355 521 L355 460 L411 460 L548 588 L548 132 L411 260 L355 260 L355 200 L591 -25 Z " />
<glyph glyph-name="uni2196" unicode="&#x2196;" horiz-adv-x="1180" d="M832 51 L897 116 L475 539 L821 543 L868 589 L821 634 L314 634 L314 127 L359 80 L405 127 L409 473 L832 51 Z " />
<glyph glyph-name="uni2197" unicode="&#x2197;" horiz-adv-x="1180" d="M348 51 L283 116 L705 539 L359 543 L312 589 L359 634 L866 634 L866 127 L821 80 L775 127 L771 473 L348 51 Z " />
<glyph glyph-name="uni2198" unicode="&#x2198;" horiz-adv-x="1180" d="M357 659 L292 594 L714 171 L368 167 L321 121 L368 76 L875 76 L875 583 L830 630 L784 583 L780 237 L357 659 Z " />
<glyph glyph-name="uni2199" unicode="&#x2199;" horiz-adv-x="1093" d="M828 666 L893 601 L471 178 L817 174 L864 128 L817 83 L310 83 L310 590 L355 637 L401 590 L405 244 L828 666 Z " />
<glyph glyph-name="uni21B0" unicode="&#x21b0;" horiz-adv-x="1180" d="M858 45 L858 286 C858 422 785 507 640 507 L383 507 L514 648 L514 706 L452 706 L220 463 L452 219 L514 219 L514 277 L382 419 L640 419 C723 419 770 367 770 286 L770 45 L858 45 Z " />
<glyph glyph-name="uni21B1" unicode="&#x21b1;" horiz-adv-x="1180" d="M325 45 L325 286 C325 422 398 507 543 507 L800 507 L669 648 L669 706 L731 706 L963 463 L731 219 L669 219 L669 277 L801 419 L543 419 C460 419 413 367 413 286 L413 45 L325 45 Z " />
<glyph glyph-name="uni21B2" unicode="&#x21b2;" horiz-adv-x="1180" d="M858 675 L858 434 C858 298 785 213 640 213 L383 213 L514 72 L514 14 L452 14 L220 257 L452 501 L514 501 L514 443 L382 301 L640 301 C723 301 770 353 770 434 L770 675 L858 675 Z " />
<glyph glyph-name="uni21B3" unicode="&#x21b3;" horiz-adv-x="1180" d="M316 675 L316 434 C316 298 389 213 534 213 L791 213 L660 72 L660 14 L722 14 L954 257 L722 501 L660 501 L660 443 L792 301 L534 301 C451 301 404 353 404 434 L404 675 L316 675 Z " />
<glyph glyph-name="minus" unicode="&#x2212;" horiz-adv-x="554" d="M74 325 L480 325 L480 372 L74 372 L74 325 Z " />
<glyph glyph-name="approxequal" unicode="&#x2248;" horiz-adv-x="623" d="M421 338 C486 338 546 379 555 520 L507 520 C497 432 467 389 420 389 C345 389 319 514 209 514 C144 514 85 474 75 342 L124 342 C131 413 157 462 209 462 C290 462 315 338 421 338 L421 338 Z M421 108 C486 108 546 149 555 290 L507 290 C497 202 467 159 420 159 C345 159 319 284 209 284 C144 284 85 244 75 112 L124 112 C131 183 157 232 209 232 C290 232 315 108 421 108 L421 108 Z " />
<glyph glyph-name="notequal" unicode="&#x2260;" horiz-adv-x="571" d="M497 206 L497 254 L288 254 L358 382 L497 382 L497 429 L383 429 L471 589 L417 589 L329 429 L74 429 L74 382 L303 382 L233 254 L74 254 L74 206 L207 206 L111 32 L166 32 L261 206 L497 206 Z " />
<glyph glyph-name="lessequal" unicode="&#x2264;" horiz-adv-x="499" d="M416 180 L416 218 L126 410 L416 606 L416 640 L379 640 L66 427 L66 389 L379 180 L416 180 Z M75 69 L416 69 L416 116 L75 116 L75 69 Z " />
<glyph glyph-name="greaterequal" unicode="&#x2265;" horiz-adv-x="500" d="M121 180 L434 393 L434 431 L121 640 L83 640 L83 602 L374 410 L83 214 L83 180 L121 180 Z M83 69 L425 69 L425 116 L83 116 L83 69 Z " />
<glyph glyph-name="Pcircle" unicode="&#x24c5;" horiz-adv-x="881" d="M441 -10 C665 -10 833 165 833 376 C833 587 665 760 441 760 C216 760 48 587 48 376 C48 165 216 -10 441 -10 L441 -10 Z M441 34 C246 34 98 191 98 376 C98 562 246 716 441 716 C635 716 782 562 782 376 C782 191 635 34 441 34 L441 34 Z M339 164 L385 164 L385 317 L453 317 C555 317 606 381 606 452 C606 528 547 574 453 574 L339 574 L339 164 Z M385 358 L385 533 L453 533 C527 533 560 494 560 451 C560 399 525 358 453 358 L385 358 Z " />
<glyph glyph-name="uni2615" unicode="&#x2615;" horiz-adv-x="1180" d="M824 320 L854 500 L356 500 L414 211 L710 211 L728 320 L824 320 Z M784 365 L736 365 L751 455 L799 455 L784 365 Z M336 141 L807 141 L807 186 L336 186 L336 141 Z " />
<glyph glyph-name="uni267F" unicode="&#x267f;" horiz-adv-x="1180" d="M813 64 L887 64 L774 322 L622 322 L614 385 L741 385 L741 422 L712 445 L607 445 L590 551 L539 591 L574 601 L594 662 L562 724 L490 724 L467 676 L487 592 L452 546 L462 434 C363 411 307 318 307 222 C307 112 397 13 523 13 C631 13 729 81 740 213 L813 64 Z M368 222 C368 305 410 359 469 378 L483 235 L680 235 C679 132 612 70 523 70 C428 70 368 140 368 222 L368 222 Z " />
<glyph glyph-name="uni26FD" unicode="&#x26fd;" horiz-adv-x="1180" d="M537 581 L500 581 L306 242 C287 209 275 189 275 150 C275 89 318 55 377 55 C452 55 489 96 489 174 L489 459 L534 530 L534 51 L838 51 L838 675 L537 675 L537 581 Z M793 630 L793 483 L582 483 L582 630 L793 630 Z M323 151 C323 179 336 201 361 245 L444 394 L444 187 C444 127 428 100 380 100 C346 100 323 120 323 151 L323 151 Z " />
<glyph glyph-name="uni2764" unicode="&#x2764;" horiz-adv-x="1180" d="M590 98 L816 325 C846 355 866 397 866 441 C866 485 847 528 816 557 C788 584 750 599 707 599 C666 599 627 584 599 557 L590 548 L581 557 C552 584 514 599 472 599 C430 599 392 584 364 557 C333 528 314 485 314 441 C314 397 333 354 364 325 L590 98 Z " />
<glyph glyph-name="uni2B0E" unicode="&#x2b0e;" horiz-adv-x="1180" d="M265 606 L506 606 C642 606 727 533 727 388 L727 131 L868 262 L926 262 L926 200 L683 -32 L439 200 L439 262 L497 262 L639 130 L639 388 C639 471 587 518 506 518 L265 518 L265 606 Z " />
<glyph glyph-name="uni2B0F" unicode="&#x2b0f;" horiz-adv-x="1180" d="M288 80 L529 80 C665 80 750 153 750 298 L750 555 L891 424 L949 424 L949 486 L706 718 L462 486 L462 424 L520 424 L662 556 L662 298 C662 215 610 168 529 168 L288 168 L288 80 Z " />
<glyph glyph-name="uni2B10" unicode="&#x2b10;" horiz-adv-x="1180" d="M902 608 L661 608 C525 608 440 535 440 390 L440 133 L299 264 L241 264 L241 202 L484 -30 L728 202 L728 264 L670 264 L528 132 L528 390 C528 473 580 520 661 520 L902 520 L902 608 Z " />
<glyph glyph-name="uni2B11" unicode="&#x2b11;" horiz-adv-x="1180" d="M891 66 L650 66 C514 66 429 139 429 284 L429 541 L288 410 L230 410 L230 472 L473 704 L717 472 L717 410 L659 410 L517 542 L517 284 C517 201 569 154 650 154 L891 154 L891 66 Z " />
<glyph glyph-name="fillframe1" unicode="&#xe004;" horiz-adv-x="1180" d="M231 -158 L949 -158 L1105 21 L1105 696 L949 875 L231 875 L75 696 L75 21 L231 -158 Z " />
<glyph glyph-name="uniE006" unicode="&#xe006;" horiz-adv-x="1180" d="M590 -157 C728 -157 851 -106 942 -21 C1044 75 1105 215 1105 360 C1105 505 1044 645 942 741 C851 826 728 877 590 877 C452 877 329 826 238 741 C136 645 75 505 75 360 C75 215 136 75 238 -21 C329 -106 452 -157 590 -157 L590 -157 Z M590 -87 C473 -87 360 -44 279 34 C197 113 145 228 145 360 C145 492 197 607 279 686 C360 764 473 807 590 807 C707 807 820 764 901 686 C983 607 1035 492 1035 360 C1035 228 983 113 901 34 C820 -44 707 -87 590 -87 L590 -87 Z " />
<glyph glyph-name="fillframeround" unicode="&#xe007;" horiz-adv-x="1180" d="M590 -157 C728 -157 851 -106 942 -21 C1044 75 1105 215 1105 360 C1105 505 1044 645 942 741 C851 826 728 877 590 877 C452 877 329 826 238 741 C136 645 75 505 75 360 C75 215 136 75 238 -21 C329 -106 452 -157 590 -157 L590 -157 Z " />
<glyph glyph-name="noframe1" unicode="&#xe008;" horiz-adv-x="1180" d="M231 -158 L949 -158 L1105 21 L1105 696 L949 875 L231 875 L75 696 L75 21 L231 -158 Z M255 805 L925 805 L1035 678 L1035 39 L1003 2 L224 769 L255 805 Z M255 -88 L145 39 L145 678 L179 717 L958 -50 L925 -88 L255 -88 Z " />
<glyph glyph-name="regframe1" unicode="&#xe00c;" horiz-adv-x="1180" d="M231 -158 L949 -158 L1105 21 L1105 696 L949 875 L231 875 L75 696 L75 21 L231 -158 Z M255 -88 L145 39 L145 678 L255 805 L925 805 L1035 678 L1035 39 L925 -88 L255 -88 Z " />
<glyph glyph-name="uniE50C" unicode="&#xe50c;" horiz-adv-x="1180" d="M459 22 L590 47 L721 22 L721 62 L628 114 L644 350 L963 291 L963 342 L648 483 C648 658 625 750 589 750 C553 750 529 658 533 483 L217 342 L217 291 L537 350 L552 114 L459 62 L459 22 Z " />
<glyph glyph-name="uniE519" unicode="&#xe519;" horiz-adv-x="1180" d="M701 -31 L836 61 L836 719 L409 719 L409 535 L454 535 L454 674 L795 674 L705 614 C703 613 701 610 701 608 L701 370 L653 370 L579 516 L605 521 L639 581 L612 644 L547 644 L524 608 L536 530 L407 504 L343 391 L343 364 L373 343 L439 454 L483 460 L366 166 L244 155 L244 104 L414 104 L471 222 L478 222 L553 121 L593 -29 L655 -29 L623 134 L553 262 L588 376 L621 312 L701 312 L701 -31 Z " />
<glyph glyph-name="uniE51F" unicode="&#xe51f;" horiz-adv-x="1180" d="M450 569 L498 569 L498 694 L546 649 L571 649 L571 677 L474 770 L377 677 L377 649 L402 649 L450 694 L450 569 Z M705 559 L802 652 L802 680 L777 680 L729 635 L729 760 L681 760 L681 635 L633 680 L608 680 L608 652 L705 559 Z M314 55 L866 55 L866 535 L314 535 L314 55 Z M359 100 L359 490 L821 490 L821 100 L359 100 Z M709 140 L728 140 L728 216 L737 216 L737 140 L755 140 L761 216 L780 216 L765 286 L787 303 L767 380 L742 401 L759 414 L753 442 L740 457 L723 457 L711 442 L704 414 L722 401 L697 380 L677 303 L700 286 L684 216 L703 216 L709 140 Z M424 140 L451 140 L451 250 L471 250 L471 140 L498 140 L498 262 L518 282 L513 380 L472 403 L480 414 L486 439 L472 457 L450 457 L436 440 L441 414 L450 403 L409 380 L404 281 L424 262 L424 140 Z M560 140 L587 140 L587 250 L607 250 L607 140 L634 140 L634 262 L654 282 L649 380 L608 403 L616 414 L622 439 L608 457 L586 457 L572 440 L577 414 L586 403 L545 380 L540 281 L560 262 L560 140 Z " />
<glyph glyph-name="uniE521" unicode="&#xe521;" horiz-adv-x="1180" d="M283 69 L333 69 L385 234 L396 234 L396 69 L446 69 L446 234 L499 234 L450 419 L472 503 L519 421 L643 421 L643 444 L624 463 L561 463 L503 581 L481 612 L523 619 L542 675 L514 734 L456 734 L431 713 L398 635 L445 623 L382 588 L332 416 L253 234 L333 234 L283 69 Z M686 419 L790 419 L806 441 C811 432 821 419 845 419 C878 419 888 444 888 464 C888 487 873 507 845 507 C816 507 806 485 804 469 L771 552 L735 552 L745 489 L706 489 L610 551 L602 515 L665 459 L686 419 Z M525 69 L575 69 L575 347 L848 347 L848 69 L898 69 L898 397 L525 397 L525 69 Z " />
<glyph glyph-name="uniE524" unicode="&#xe524;" horiz-adv-x="1180" d="M247 515 L293 515 L593 697 L894 515 L940 515 L940 561 L593 773 L247 561 L247 515 Z M245 138 L301 138 L301 198 L885 198 L885 138 L940 138 L940 391 L885 391 L885 253 L300 253 L300 466 L245 466 L245 138 Z M325 278 L860 278 L860 391 L497 455 L464 394 L445 428 L386 455 L330 434 L323 373 L361 350 L444 350 L433 325 L325 325 L325 278 Z " />
<glyph glyph-name="uniE527" unicode="&#xe527;" horiz-adv-x="1180" d="M486 79 L797 394 L907 394 L907 577 L716 577 L613 473 L570 549 L598 605 L571 649 L518 649 L499 605 L523 551 L499 499 L499 357 L408 264 L296 264 L296 79 L486 79 Z M351 134 L351 209 L433 209 L742 522 L851 522 L851 449 L771 449 L461 134 L351 134 Z " />
<glyph glyph-name="uniE52A" unicode="&#xe52a;" horiz-adv-x="1180" d="M287 88 L445 88 L445 211 L567 211 L567 332 L688 332 L688 453 L809 453 L809 574 L908 574 L908 628 L754 628 L754 508 L633 508 L633 387 L511 387 L511 267 L390 267 L390 143 L287 143 L287 88 Z " />
<glyph glyph-name="uniE52E" unicode="&#xe52e;" horiz-adv-x="1180" d="M438 432 L750 432 C768 449 777 471 777 496 C777 547 744 592 686 592 C686 643 643 682 595 682 C545 682 503 644 503 592 C443 592 411 548 411 496 C411 472 419 449 438 432 L438 432 Z M584 0 L607 0 L727 402 L457 402 L584 0 Z " />
<glyph glyph-name="uniE52F" unicode="&#xe52f;" horiz-adv-x="1180" d="M414 159 L812 159 L812 204 L465 204 L504 256 L783 256 L865 533 L417 533 L355 618 L271 618 L271 573 L324 573 L426 429 L469 280 L414 204 L414 159 Z M485 54 C509 54 528 73 528 97 C528 121 509 140 485 140 C462 140 442 120 442 97 C442 74 462 54 485 54 L485 54 Z M729 54 C753 54 773 73 773 97 C773 121 753 140 729 140 C706 140 687 121 687 97 C687 73 706 54 729 54 L729 54 Z " />
<glyph glyph-name="uniE530" unicode="&#xe530;" horiz-adv-x="1180" d="M384 147 L798 147 L896 468 L735 468 L711 581 L468 581 L444 468 L286 468 L384 147 Z M498 468 L509 531 L671 531 L682 468 L498 468 Z " />
<glyph glyph-name="uniE536" unicode="&#xe536;" horiz-adv-x="1180" d="M505 97 L674 97 L674 289 L867 289 L867 458 L674 458 L674 651 L505 651 L505 458 L313 458 L313 289 L505 289 L505 97 Z " />
<glyph glyph-name="uniE542" unicode="&#xe542;" horiz-adv-x="1180" d="M287 464 C377 555 473 588 590 588 C707 588 791 555 893 464 L939 510 C844 611 728 653 590 653 C452 653 322 610 241 510 L287 464 Z M368 383 C440 456 514 475 590 475 C666 475 734 455 812 383 L858 429 C795 497 699 539 590 539 C481 539 382 496 322 429 L368 383 Z M449 302 C495 347 543 360 590 360 C637 360 695 347 731 302 L777 348 C720 406 659 425 590 425 C521 425 460 408 403 348 L449 302 Z M500 86 L536 86 L575 234 L575 249 L546 249 L520 149 L491 249 L453 249 L425 151 L399 249 L363 249 L363 232 L402 86 L438 86 L469 194 L500 86 Z M658 86 L695 86 L695 150 L749 150 L749 182 L695 182 L695 217 L756 217 L756 249 L658 249 L658 86 Z M591 86 L633 86 L633 249 L591 249 L591 86 Z M774 86 L816 86 L816 249 L774 249 L774 86 Z " />
<glyph glyph-name="uniE545" unicode="&#xe545;" horiz-adv-x="1180" d="M458 38 L674 38 L674 454 L595 525 L595 561 L664 561 L792 495 L811 495 L811 670 L792 670 L665 610 L595 610 L595 659 L536 659 L536 610 L471 610 L338 490 L372 452 L494 561 L537 561 L537 525 L458 453 L458 38 Z " />
<glyph glyph-name="uniE547" unicode="&#xe547;" horiz-adv-x="1180" d="M529 206 L629 206 C623 220 621 234 621 247 C621 345 812 347 812 543 C812 662 722 738 594 738 C428 738 390 601 390 601 L390 533 L468 533 C468 533 481 651 591 651 C659 651 706 607 706 543 C706 380 520 379 520 250 C520 236 523 220 529 206 L529 206 Z M527 0 L643 0 L643 117 L527 117 L527 0 Z " />
<glyph glyph-name="uniE549" unicode="&#xe549;" horiz-adv-x="1180" d="M847 84 L803 139 C747 86 669 57 590 57 C511 57 433 86 377 139 C323 192 288 272 288 360 C288 448 323 528 377 581 C433 634 511 663 590 663 C655 663 718 645 770 610 L675 603 L657 572 L679 545 L875 559 L861 747 L831 765 L803 743 L808 671 C747 712 672 732 590 732 C490 732 399 695 333 636 C258 566 216 464 216 360 C216 257 258 154 333 84 C399 25 490 -12 590 -12 C690 -12 781 25 847 84 L847 84 Z M557 283 L475 283 L506 318 C536 352 552 379 552 413 C552 455 521 481 477 481 C412 481 397 435 397 435 L397 403 L435 403 C435 403 438 441 471 441 C489 441 498 429 498 411 C498 388 492 373 470 348 L399 269 L399 235 L557 235 L557 283 Z M755 293 L755 336 L719 336 L719 478 L667 478 L566 330 L566 293 L672 293 L672 232 L719 232 L719 293 L755 293 Z M834 317 C834 338 840 355 865 355 C885 355 893 342 893 317 L893 235 L941 235 L941 332 C941 370 921 400 882 400 C857 400 842 387 834 376 L834 478 L787 478 L787 235 L834 235 L834 317 Z M619 336 L672 413 L672 336 L619 336 Z " />
<glyph glyph-name="uniE54A" unicode="&#xe54a;" horiz-adv-x="1180" d="M430 234 L473 234 L431 85 L508 85 L550 234 L697 234 L728 85 L806 85 L752 438 L865 438 L916 473 L928 530 L764 563 L740 628 L722 628 L662 437 L426 398 L311 425 L267 406 L257 375 L384 341 L311 85 L387 85 L430 234 Z " />
<glyph glyph-name="uniE54B" unicode="&#xe54b;" horiz-adv-x="1180" d="M286 63 L868 63 L868 108 L689 108 L689 220 C710 212 733 208 758 208 C809 208 853 226 887 259 C925 292 948 346 948 400 C948 453 925 504 887 539 C859 565 824 583 784 588 C777 606 766 623 752 636 C730 656 701 669 668 669 C634 669 604 656 583 636 C560 614 545 581 544 547 C512 542 484 529 463 509 C434 481 416 441 416 399 C416 357 434 316 463 289 C489 264 525 249 565 249 C586 249 606 253 624 261 L624 108 L499 108 L499 167 L555 174 L555 220 L378 220 L378 174 L434 167 L434 108 L286 108 L286 63 Z " />
<glyph glyph-name="uniE54C" unicode="&#xe54c;" horiz-adv-x="1180" d="M889 445 L956 445 L956 510 L591 745 L225 510 L225 445 L284 445 L590 631 L889 445 Z M454 -14 L547 -14 L547 139 L608 139 C739 139 805 226 805 319 C805 418 729 483 608 483 L454 483 L454 -14 Z M547 217 L547 404 L607 404 C674 404 712 362 712 315 C712 257 672 217 607 217 L547 217 Z " />
<glyph glyph-name="uniE54D" unicode="&#xe54d;" horiz-adv-x="1180" d="M434 0 L532 0 L532 257 L613 257 C770 257 848 368 848 487 C848 616 757 700 613 700 L434 700 L434 0 Z M532 341 L532 616 L613 616 C701 616 750 554 750 484 C750 398 697 341 613 341 L532 341 Z " />
<glyph glyph-name="uniE565" unicode="&#xe565;" horiz-adv-x="1180" d="M746 449 L791 611 L740 581 L708 636 C700 649 693 652 677 652 L547 652 C556 649 568 634 576 621 L635 520 L577 489 L746 449 Z M506 447 L579 573 L550 622 C542 636 529 647 509 647 C484 647 475 635 467 621 L401 507 L506 447 Z M792 248 L849 248 C879 248 899 265 899 294 C899 300 897 309 891 320 L824 436 L719 375 L792 248 Z M351 167 C352 174 354 181 360 191 L424 302 L477 269 L430 433 L263 395 L318 362 L298 327 C288 310 286 300 286 294 C286 288 286 280 299 257 L351 167 Z M717 42 L717 107 L775 107 C793 107 803 118 810 130 L867 229 C863 227 855 227 853 227 L717 227 L717 290 L597 168 L717 42 Z M417 106 L551 106 L551 226 L404 226 L376 176 C372 169 368 159 368 150 C368 122 389 106 417 106 L417 106 Z " />
<glyph glyph-name="uniE569" unicode="&#xe569;" horiz-adv-x="1180" d="M590 877 C452 877 329 826 238 741 C136 645 75 505 75 360 C75 215 136 75 238 -21 C329 -106 452 -157 590 -157 C728 -157 851 -106 942 -21 C1044 75 1105 215 1105 360 C1105 505 1044 645 942 741 C851 826 728 877 590 877 L590 877 Z M848 487 C848 616 757 700 613 700 L434 700 L434 566 L297 703 C377 770 482 807 590 807 C707 807 820 764 901 686 C983 607 1035 492 1035 360 C1035 246 996 144 932 68 L722 278 C806 316 848 400 848 487 L848 487 Z M590 -87 C473 -87 360 -44 279 34 C197 113 145 228 145 360 C145 475 185 577 249 654 L884 18 C804 -50 699 -87 590 -87 L590 -87 Z M532 616 L613 616 C701 616 750 554 750 484 C750 413 714 362 654 346 L532 468 L532 616 Z M434 391 L434 0 L532 0 L532 257 L568 257 L434 391 Z " />
<glyph glyph-name="uniE56A" unicode="&#xe56a;" horiz-adv-x="1180" d="M590 877 C452 877 329 826 238 741 C136 645 75 505 75 360 C75 215 136 75 238 -21 C329 -106 452 -157 590 -157 C728 -157 851 -106 942 -21 C1044 75 1105 215 1105 360 C1105 505 1044 645 942 741 C851 826 728 877 590 877 L590 877 Z M752 438 L865 438 L916 473 L928 530 L764 563 L740 628 L722 628 L661 435 L578 422 L297 703 C377 770 482 807 590 807 C707 807 820 764 901 686 C983 607 1035 492 1035 360 C1035 246 996 144 932 68 L795 205 L752 438 Z M590 -87 C473 -87 360 -44 279 34 C197 113 145 228 145 360 C145 475 185 577 249 654 L884 18 C804 -50 699 -87 590 -87 L590 -87 Z M430 234 L473 234 L431 85 L508 85 L550 234 L590 234 L426 398 L311 425 L267 406 L257 375 L384 341 L311 85 L387 85 L430 234 Z M639 186 L641 85 L739 85 L639 186 Z " />
<glyph glyph-name="uniE56B" unicode="&#xe56b;" horiz-adv-x="1180" d="M590 877 C452 877 329 826 238 741 C136 645 75 505 75 360 C75 215 136 75 238 -21 C329 -106 452 -157 590 -157 C728 -157 851 -106 942 -21 C1044 75 1105 215 1105 360 C1105 505 1044 645 942 741 C851 826 728 877 590 877 L590 877 Z M727 402 L598 402 L568 432 L750 432 C768 449 777 471 777 496 C777 547 744 592 686 592 C686 643 643 682 595 682 C545 682 503 644 503 592 C474 592 451 581 435 565 L297 703 C377 770 482 807 590 807 C707 807 820 764 901 686 C983 607 1035 492 1035 360 C1035 246 996 144 932 68 L697 303 L727 402 Z M590 -87 C473 -87 360 -44 279 34 C197 113 145 228 145 360 C145 475 185 577 249 654 L884 18 C804 -50 699 -87 590 -87 L590 -87 Z M473 351 L585 0 L607 0 L657 167 L473 351 Z " />
<glyph glyph-name="uniE56C" unicode="&#xe56c;" horiz-adv-x="1180" d="M590 877 C452 877 329 826 238 741 C136 645 75 505 75 360 C75 215 136 75 238 -21 C329 -106 452 -157 590 -157 C728 -157 851 -106 942 -21 C1044 75 1105 215 1105 360 C1105 505 1044 645 942 741 C851 826 728 877 590 877 L590 877 Z M795 523 L775 613 L701 613 L714 750 L658 750 L645 613 L419 613 L413 587 L297 703 C377 770 482 807 590 807 C707 807 820 764 901 686 C983 607 1035 492 1035 360 C1035 246 996 144 932 68 L728 272 L751 523 L795 523 Z M590 -87 C473 -87 360 -44 279 34 C197 113 145 228 145 360 C145 475 185 577 249 654 L884 18 C804 -50 699 -87 590 -87 L590 -87 Z M458 367 L489 39 L705 39 L712 113 L458 367 Z " />
<glyph glyph-name="uniE56D" unicode="&#xe56d;" horiz-adv-x="1180" d="M590 877 C452 877 329 826 238 741 C136 645 75 505 75 360 C75 215 136 75 238 -21 C329 -106 452 -157 590 -157 C728 -157 851 -106 942 -21 C1044 75 1105 215 1105 360 C1105 505 1044 645 942 741 C851 826 728 877 590 877 L590 877 Z M914 149 L914 530 L562 530 L562 628 L372 628 L297 703 C377 770 482 807 590 807 C707 807 820 764 901 686 C983 607 1035 492 1035 360 C1035 246 996 144 932 68 L851 149 L914 149 Z M590 -87 C473 -87 360 -44 279 34 C197 113 145 228 145 360 C145 475 185 577 249 654 L884 18 C804 -50 699 -87 590 -87 L590 -87 Z M695 598 L695 553 L840 553 L840 598 L695 598 Z M514 586 L514 529 L471 529 L414 586 L514 586 Z M624 201 C618 200 607 199 596 199 C519 199 456 263 456 340 C456 348 457 356 459 366 L298 529 L266 529 L266 149 L676 149 L624 201 Z M596 480 C673 480 737 417 737 340 C737 318 732 296 722 278 L534 466 C553 475 573 480 596 480 L596 480 Z " />
<glyph glyph-name="uniE588" unicode="&#xe588;" horiz-adv-x="1180" d="M641 45 C808 45 905 149 905 278 C905 406 808 511 641 511 L405 511 L521 636 L521 694 L458 694 L242 467 L458 239 L521 239 L521 297 L405 422 L649 422 C756 422 816 360 816 278 C816 196 756 134 649 134 L410 134 L410 45 L641 45 Z " />
<glyph glyph-name="uniE589" unicode="&#xe589;" horiz-adv-x="1180" d="M655 658 C822 658 919 554 919 425 C919 297 822 192 655 192 L419 192 L535 67 L535 9 L472 9 L256 236 L472 464 L535 464 L535 406 L419 281 L663 281 C770 281 830 343 830 425 C830 507 770 569 663 569 L424 569 L424 658 L655 658 Z " />
<glyph glyph-name="uniE58A" unicode="&#xe58a;" horiz-adv-x="1180" d="M516 55 C349 55 252 159 252 288 C252 416 349 521 516 521 L752 521 L636 646 L636 704 L699 704 L915 477 L699 249 L636 249 L636 307 L752 432 L508 432 C401 432 341 370 341 288 C341 206 401 144 508 144 L747 144 L747 55 L516 55 Z " />
<glyph glyph-name="uniE58B" unicode="&#xe58b;" horiz-adv-x="1180" d="M519 645 C352 645 255 541 255 412 C255 284 352 179 519 179 L755 179 L639 54 L639 -4 L702 -4 L918 223 L702 451 L639 451 L639 393 L755 268 L511 268 C404 268 344 330 344 412 C344 494 404 556 511 556 L750 556 L750 645 L519 645 Z " />
<glyph glyph-name="uniE58C" unicode="&#xe58c;" horiz-adv-x="1180" d="M889 409 C889 576 785 673 656 673 C528 673 423 576 423 409 L423 173 L298 289 L240 289 L240 226 L467 10 L695 226 L695 289 L637 289 L512 173 L512 417 C512 524 574 584 656 584 C738 584 800 524 800 417 L800 178 L889 178 L889 409 Z " />
<glyph glyph-name="uniE592" unicode="&#xe592;" horiz-adv-x="1180" d="M422 179 C467 179 479 203 531 203 C584 203 595 179 640 179 C685 179 696 203 749 203 C802 203 813 179 858 179 C880 179 892 184 907 191 L907 563 L447 563 L380 347 L198 347 L198 302 L289 202 C297 203 305 203 313 203 C366 203 377 179 422 179 L422 179 Z M428 347 L480 517 L567 517 L567 347 L428 347 Z M612 415 L612 517 L715 517 L715 415 L612 415 Z M760 415 L760 517 L862 517 L862 415 L760 415 Z M422 101 C479 101 485 125 531 125 C577 125 583 101 640 101 C697 101 703 125 749 125 C795 125 801 101 858 101 C881 101 895 105 907 109 L907 161 C892 154 880 149 858 149 C813 149 802 173 749 173 C696 173 685 149 640 149 C595 149 584 173 531 173 C479 173 467 149 422 149 C377 149 366 173 313 173 C294 173 279 171 257 162 L257 111 C278 120 294 125 313 125 C359 125 365 101 422 101 L422 101 Z " />
<glyph glyph-name="uniE596" unicode="&#xe596;" horiz-adv-x="1180" d="M473 150 L489 262 L498 262 L569 142 L606 0 L681 0 L628 183 L559 323 L559 412 L786 0 L842 0 L676 301 L677 302 L690 344 L573 567 L536 592 L575 603 L598 677 L566 739 L494 739 L471 691 L481 607 L401 580 L319 497 L303 328 L325 304 L361 304 L375 459 L432 517 L401 165 L355 0 L430 0 L473 150 Z " />
<glyph glyph-name="uniE599" unicode="&#xe599;" horiz-adv-x="1180" d="M687 79 L376 394 L266 394 L266 577 L457 577 L560 473 L603 549 L575 605 L602 649 L655 649 L674 605 L650 551 L674 499 L674 357 L765 264 L877 264 L877 79 L687 79 Z M822 134 L822 209 L740 209 L431 522 L322 522 L322 449 L402 449 L712 134 L822 134 Z " />
<glyph glyph-name="uniE59C" unicode="&#xe59c;" horiz-adv-x="1180" d="M893 88 L735 88 L735 211 L613 211 L613 332 L492 332 L492 453 L371 453 L371 574 L272 574 L272 628 L426 628 L426 508 L547 508 L547 387 L669 387 L669 267 L790 267 L790 143 L893 143 L893 88 Z " />
<glyph glyph-name="uniE5A0" unicode="&#xe5a0;" horiz-adv-x="1180" d="M285 409 C285 576 389 673 518 673 C646 673 751 576 751 409 L751 173 L876 289 L934 289 L934 226 L707 10 L479 226 L479 289 L537 289 L662 173 L662 417 C662 524 600 584 518 584 C436 584 374 524 374 417 L374 178 L285 178 L285 409 Z " />
<glyph glyph-name="uniE5A1" unicode="&#xe5a1;" horiz-adv-x="1180" d="M895 281 C895 114 791 17 662 17 C534 17 429 114 429 281 L429 517 L304 401 L246 401 L246 464 L473 680 L701 464 L701 401 L643 401 L518 517 L518 273 C518 166 580 106 662 106 C744 106 806 166 806 273 L806 512 L895 512 L895 281 Z " />
<glyph glyph-name="uniE5A2" unicode="&#xe5a2;" horiz-adv-x="1180" d="M289 281 C289 114 393 17 522 17 C650 17 755 114 755 281 L755 517 L880 401 L938 401 L938 464 L711 680 L483 464 L483 401 L541 401 L666 517 L666 273 C666 166 604 106 522 106 C440 106 378 166 378 273 L378 512 L289 512 L289 281 Z " />
<glyph glyph-name="uniE5A3" unicode="&#xe5a3;" horiz-adv-x="1180" d="M492 72 L874 72 L874 650 L492 650 L492 483 L569 483 L569 573 L797 573 L797 149 L569 149 L569 236 L492 236 L492 72 Z M371 192 L426 192 L426 242 L352 322 L673 322 L673 399 L352 399 L426 480 L426 531 L371 531 L206 360 L371 192 Z " />
<glyph glyph-name="uniE5A4" unicode="&#xe5a4;" horiz-adv-x="1180" d="M705 72 L323 72 L323 650 L705 650 L705 483 L628 483 L628 573 L400 573 L400 149 L628 149 L628 236 L705 236 L705 72 Z M826 192 L771 192 L771 242 L845 322 L524 322 L524 399 L845 399 L771 480 L771 531 L826 531 L991 360 L826 192 Z " />
<glyph glyph-name="uniE5A5" unicode="&#xe5a5;" horiz-adv-x="1180" d="M879 468 L879 86 L301 86 L301 468 L468 468 L468 391 L378 391 L378 163 L802 163 L802 391 L715 391 L715 468 L879 468 Z M759 589 L759 534 L709 534 L629 608 L629 287 L552 287 L552 608 L471 534 L420 534 L420 589 L591 754 L759 589 Z " />
<glyph glyph-name="uniE5A6" unicode="&#xe5a6;" horiz-adv-x="1190" d="M879 251 L879 633 L301 633 L301 251 L468 251 L468 328 L378 328 L378 556 L802 556 L802 328 L715 328 L715 251 L879 251 Z M759 130 L759 185 L709 185 L629 111 L629 432 L552 432 L552 111 L471 185 L420 185 L420 130 L591 -35 L759 130 Z " />
<glyph glyph-name="uniF50A" unicode="&#xf50a;" horiz-adv-x="571" d="M355 -112 C355 -74 332 -47 284 -40 L284 -10 C430 -10 514 80 514 212 C514 307 460 373 368 399 C439 430 482 496 482 570 C482 681 406 760 270 760 C137 760 79 679 62 628 L62 589 L104 589 C120 649 171 711 269 711 C374 711 424 649 424 571 C424 480 362 416 267 416 L186 416 L186 368 L268 368 C392 368 456 306 456 211 C456 94 383 39 280 39 C170 39 98 109 89 176 L46 176 L46 137 C55 91 110 8 239 -8 L239 -66 C277 -66 306 -79 306 -109 C306 -140 277 -151 235 -151 L235 -193 L272 -193 C309 -189 355 -163 355 -112 L355 -112 Z " />
<glyph glyph-name="uniF50B" unicode="&#xf50b;" horiz-adv-x="470" d="M320 -114 C320 -76 297 -49 249 -42 L249 -10 C358 -5 420 51 420 134 C420 206 373 240 319 258 C375 282 400 319 400 372 C400 454 333 503 234 503 C137 503 77 460 52 395 L52 357 L90 357 C109 427 162 456 228 456 C298 456 345 423 345 359 C345 314 315 276 243 276 L157 276 L157 230 L237 230 C324 230 366 193 366 136 C366 75 320 37 233 37 C149 37 106 73 85 137 L47 137 L47 99 C66 54 108 0 204 -9 L204 -68 C242 -68 271 -81 271 -111 C271 -142 242 -153 200 -153 L200 -195 L237 -195 C274 -191 320 -165 320 -114 L320 -114 Z " />
<glyph glyph-name="uniF50E" unicode="&#xf50e;" horiz-adv-x="641" d="M59 0 L150 236 L486 236 L578 0 L620 0 L620 46 L346 750 L295 750 L19 41 L19 0 L59 0 Z M467 285 L169 285 L318 676 L467 285 Z M200 847 L443 847 L443 899 L200 899 L200 847 Z " />
<glyph glyph-name="uniF50F" unicode="&#xf50f;" horiz-adv-x="510" d="M216 -10 C300 -10 356 37 383 104 L389 0 L432 0 L432 309 C432 436 368 503 247 503 C107 503 70 408 70 408 L70 371 L108 371 C108 371 131 456 245 456 C336 456 378 405 378 311 L378 271 C378 271 319 284 247 284 C101 284 43 222 43 139 C43 55 98 -10 216 -10 L216 -10 Z M221 35 C139 35 95 73 95 139 C95 191 129 240 246 240 C325 240 378 227 378 227 L378 196 C378 122 327 35 221 35 L221 35 Z M144 654 L367 654 L367 703 L144 703 L144 654 Z " />
<glyph glyph-name="uniF510" unicode="&#xf510;" horiz-adv-x="570" d="M105 0 L515 0 L515 49 L163 49 L163 365 L478 365 L478 414 L163 414 L163 701 L515 701 L515 750 L105 750 L105 0 Z M183 847 L426 847 L426 899 L183 899 L183 847 Z " />
<glyph glyph-name="uniF511" unicode="&#xf511;" horiz-adv-x="554" d="M292 -10 C432 -10 484 75 495 99 L495 137 L457 137 C445 93 391 38 292 38 C181 38 108 106 103 239 L503 239 C503 239 506 256 506 287 C506 408 430 503 286 503 C129 503 49 381 49 248 C49 89 138 -10 292 -10 L292 -10 Z M105 284 C117 391 182 456 286 456 C391 456 452 392 452 284 L105 284 Z M170 654 L393 654 L393 703 L170 703 L170 654 Z " />
<glyph glyph-name="uniF518" unicode="&#xf518;" horiz-adv-x="830" d="M415 -10 C638 -10 777 155 777 378 C777 598 638 760 415 760 C192 760 53 598 53 378 C53 155 192 -10 415 -10 L415 -10 Z M415 39 C228 39 112 183 112 378 C112 569 228 711 415 711 C602 711 718 569 718 378 C718 183 602 39 415 39 L415 39 Z M293 847 L536 847 L536 899 L293 899 L293 847 Z " />
<glyph glyph-name="uniF519" unicode="&#xf519;" horiz-adv-x="577" d="M288 -10 C433 -10 528 105 528 248 C528 391 433 503 288 503 C142 503 48 389 48 246 C48 103 142 -10 288 -10 L288 -10 Z M288 37 C165 37 102 139 102 246 C102 354 165 456 287 456 C411 456 474 354 474 248 C474 140 411 37 288 37 L288 37 Z M176 654 L399 654 L399 703 L176 703 L176 654 Z " />
<glyph glyph-name="uniF51A" unicode="&#xf51a;" horiz-adv-x="830" d="M415 -10 C638 -10 777 155 777 378 C777 598 638 760 415 760 C192 760 53 598 53 378 C53 155 192 -10 415 -10 L415 -10 Z M415 39 C228 39 112 183 112 378 C112 569 228 711 415 711 C602 711 718 569 718 378 C718 183 602 39 415 39 L415 39 Z M418 814 C543 814 561 909 561 909 L561 947 L518 947 C518 947 518 857 418 857 C319 857 318 947 318 947 L275 947 L275 909 C275 909 293 814 418 814 L418 814 Z " />
<glyph glyph-name="uniF51B" unicode="&#xf51b;" horiz-adv-x="577" d="M288 -10 C433 -10 528 105 528 248 C528 391 433 503 288 503 C142 503 48 389 48 246 C48 103 142 -10 288 -10 L288 -10 Z M288 37 C165 37 102 139 102 246 C102 354 165 456 287 456 C411 456 474 354 474 248 C474 140 411 37 288 37 L288 37 Z M287 587 C412 587 423 686 423 686 L423 721 L378 721 C378 721 382 634 287 634 C192 634 195 721 195 721 L151 721 L151 686 C151 686 162 587 287 587 L287 587 Z " />
<glyph glyph-name="uniF522" unicode="&#xf522;" horiz-adv-x="746" d="M341 -10 C569 -10 691 160 691 378 C691 599 571 760 342 760 C130 760 55 622 55 622 L55 583 L98 583 C98 583 154 711 342 711 C525 711 622 584 631 408 L232 408 L232 359 L632 359 C625 169 518 39 341 39 C150 39 91 172 91 172 L49 172 L49 133 C49 133 120 -10 341 -10 L341 -10 Z M219 847 L462 847 L462 899 L219 899 L219 847 Z " />
<glyph glyph-name="uniF523" unicode="&#xf523;" horiz-adv-x="530" d="M251 -10 C399 -10 481 103 481 246 C481 389 399 503 251 503 C101 503 49 392 49 392 L49 354 L87 354 C87 354 124 455 251 455 C366 455 417 370 425 274 L191 274 L191 228 L426 228 C421 129 369 37 251 37 C123 37 86 140 86 140 L48 140 L48 103 C48 103 99 -10 251 -10 L251 -10 Z M140 655 L363 655 L363 704 L140 704 L140 655 Z " />
<glyph glyph-name="uniF524" unicode="&#xf524;" horiz-adv-x="746" d="M341 -10 C569 -10 691 160 691 378 C691 599 571 760 342 760 C130 760 55 622 55 622 L55 583 L98 583 C98 583 154 711 342 711 C525 711 622 584 631 408 L232 408 L232 359 L632 359 C625 169 518 39 341 39 C150 39 91 172 91 172 L49 172 L49 133 C49 133 120 -10 341 -10 L341 -10 Z M349 814 C474 814 492 909 492 909 L492 947 L449 947 C449 947 449 857 349 857 C250 857 249 947 249 947 L206 947 L206 909 C206 909 224 814 349 814 L349 814 Z " />
<glyph glyph-name="uniF525" unicode="&#xf525;" horiz-adv-x="530" d="M251 -10 C399 -10 481 103 481 246 C481 389 399 503 251 503 C101 503 49 392 49 392 L49 354 L87 354 C87 354 124 455 251 455 C366 455 417 370 425 274 L191 274 L191 228 L426 228 C421 129 369 37 251 37 C123 37 86 140 86 140 L48 140 L48 103 C48 103 99 -10 251 -10 L251 -10 Z M257 599 C382 599 393 698 393 698 L393 733 L348 733 C348 733 352 646 257 646 C162 646 165 733 165 733 L121 733 L121 698 C121 698 132 599 257 599 L257 599 Z " />
<glyph glyph-name="uniF528" unicode="&#xf528;" horiz-adv-x="618" d="M455 318 L455 0 L513 0 L513 750 L333 750 C182 750 80 665 80 532 C80 435 137 354 256 327 L34 39 L34 0 L74 0 L317 318 L455 318 Z M333 367 C215 367 139 425 139 531 C139 634 214 701 332 701 L455 701 L455 367 L333 367 Z M202 847 L445 847 L445 899 L202 899 L202 847 Z " />
<glyph glyph-name="uniF529" unicode="&#xf529;" horiz-adv-x="500" d="M362 205 L362 0 L416 0 L416 493 L239 493 C122 493 60 425 60 346 C60 271 110 219 209 209 L39 36 L39 0 L76 0 L274 205 L362 205 Z M235 248 C163 248 115 282 115 346 C115 406 164 447 236 447 L362 447 L362 248 L235 248 Z M152 654 L375 654 L375 703 L152 703 L152 654 Z " />
<glyph glyph-name="uniF52C" unicode="&#xf52c;" horiz-adv-x="1034" d="M636 -10 C840 -10 981 165 981 378 C981 588 854 760 636 760 C423 760 307 594 294 408 L164 408 L164 750 L105 750 L105 0 L164 0 L164 359 L292 359 C301 163 418 -10 636 -10 L636 -10 Z M636 39 C468 39 349 173 349 378 C349 579 469 711 635 711 C804 711 922 579 922 378 C922 173 791 39 636 39 L636 39 Z M336 847 L579 847 L579 899 L336 899 L336 847 Z " />
<glyph glyph-name="uniF52D" unicode="&#xf52d;" horiz-adv-x="746" d="M467 -10 C617 -10 697 105 697 248 C697 391 617 503 467 503 C327 503 249 405 239 276 L138 276 L138 500 L84 500 L84 0 L138 0 L138 230 L237 230 C243 94 322 -10 467 -10 L467 -10 Z M467 39 C339 39 291 140 291 246 C291 353 339 454 466 454 C595 454 643 354 643 248 C643 141 595 39 467 39 L467 39 Z M236 654 L459 654 L459 703 L236 703 L236 654 Z " />
<glyph glyph-name="uniF536" unicode="&#xf536;" horiz-adv-x="838" d="M105 0 L292 0 C467 0 562 98 562 235 C562 375 453 454 292 454 L164 454 L164 750 L105 750 L105 0 Z M675 0 L733 0 L733 750 L675 750 L675 0 Z M164 49 L164 406 L291 406 C438 406 503 328 503 233 C503 120 434 49 291 49 L164 49 Z M430 814 C555 814 573 909 573 909 L573 947 L530 947 C530 947 530 857 430 857 C331 857 330 947 330 947 L287 947 L287 909 C287 909 305 814 430 814 L430 814 Z " />
<glyph glyph-name="uniF537" unicode="&#xf537;" horiz-adv-x="682" d="M84 0 L258 0 C388 0 450 64 450 159 C450 251 377 309 259 309 L138 309 L138 493 L84 493 L84 0 Z M544 0 L598 0 L598 493 L544 493 L544 0 Z M138 46 L138 264 L258 264 C340 264 394 227 394 158 C394 83 345 46 264 46 L138 46 Z M348 599 C473 599 484 698 484 698 L484 733 L439 733 C439 733 443 646 348 646 C253 646 256 733 256 733 L212 733 L212 698 C212 698 223 599 348 599 L348 599 Z " />
<glyph glyph-name="uniF53C" unicode="&#xf53c;" horiz-adv-x="516" d="M105 0 L163 0 L163 356 L478 356 L478 405 L163 405 L163 701 L508 701 L508 750 L105 750 L105 0 Z " />
<glyph glyph-name="uniF53D" unicode="&#xf53d;" horiz-adv-x="434" d="M353 231 L353 278 L138 278 L138 446 L399 446 L399 493 L84 493 L84 0 L138 0 L138 231 L353 231 Z " />
<glyph glyph-name="uniF53E" unicode="&#xf53e;" horiz-adv-x="736" d="M505 -112 C505 -74 482 -47 434 -40 L434 -10 C632 -1 696 133 696 133 L696 172 L654 172 C654 172 602 39 416 39 C233 39 113 184 113 378 C113 562 219 711 415 711 C603 711 649 583 649 583 L691 583 L691 622 C691 622 630 760 414 760 C189 760 54 599 54 378 C54 168 172 3 389 -9 L389 -66 C427 -66 456 -79 456 -109 C456 -140 427 -151 385 -151 L385 -193 L422 -193 C459 -189 505 -163 505 -112 L505 -112 Z " />
<glyph glyph-name="uniF53F" unicode="&#xf53f;" horiz-adv-x="530" d="M379 -112 C379 -74 356 -47 308 -40 L308 -9 C447 0 481 103 481 103 L481 140 L444 140 C444 140 423 37 289 37 C166 37 103 139 103 246 C103 354 166 455 288 455 C419 455 443 354 443 354 L480 354 L480 392 C480 392 445 503 289 503 C143 503 49 389 49 246 C49 111 130 3 263 -9 L263 -66 C301 -66 330 -79 330 -109 C330 -140 301 -151 259 -151 L259 -193 L296 -193 C333 -189 379 -163 379 -112 L379 -112 Z " />
<glyph glyph-name="commaaccent" unicode="&#xf6c3;" horiz-adv-x="208" d="M75 -191 L110 -191 L135 -110 L135 -52 L75 -52 L75 -191 Z " />
<glyph glyph-name="cyrbreve" unicode="&#xf6d4;" horiz-adv-x="483" d="M242 584 C367 584 378 683 378 683 L378 718 L333 718 C333 718 337 631 242 631 C147 631 150 718 150 718 L106 718 L106 683 C106 683 117 584 242 584 L242 584 Z " />
<glyph glyph-name="f_f" unicode="&#xfb00;" horiz-adv-x="617" d="M162 0 L162 446 L390 446 L390 0 L444 0 L444 446 L605 446 L605 493 L444 493 L444 594 C444 682 490 711 541 711 C588 711 621 686 629 645 L667 645 L667 682 C654 724 612 760 541 760 C463 760 390 712 390 592 L390 493 L162 493 L162 566 C162 659 200 701 271 701 C297 701 317 697 333 691 L333 740 C318 747 288 750 269 750 C159 750 110 677 110 574 L110 493 L20 493 L20 446 L110 446 L110 0 L162 0 Z " />
<glyph glyph-name="fi" unicode="&#xfb01;" horiz-adv-x="530" d="M110 0 L164 0 L164 446 L312 446 L312 493 L164 493 L164 575 C164 669 218 711 286 711 C353 711 392 673 401 614 L446 614 L446 651 C433 714 379 760 290 760 C192 760 110 703 110 573 L110 493 L20 493 L20 446 L110 446 L110 0 Z M392 0 L446 0 L446 493 L392 493 L392 0 Z " />
<glyph glyph-name="fl" unicode="&#xfb02;" horiz-adv-x="530" d="M164 446 L312 446 L312 493 L164 493 L164 582 C164 678 228 711 298 711 C347 711 377 698 392 684 L392 0 L446 0 L446 716 C420 738 373 760 298 760 C203 760 110 710 110 580 L110 493 L20 493 L20 446 L110 446 L110 0 L164 0 L164 446 Z " />
<glyph glyph-name="f_f_i" unicode="&#xfb03;" horiz-adv-x="810" d="M162 0 L162 446 L390 446 L390 0 L444 0 L444 446 L592 446 L592 493 L444 493 L444 575 C444 669 498 711 566 711 C633 711 672 673 681 614 L726 614 L726 651 C713 714 659 760 570 760 C472 760 390 703 390 573 L390 493 L162 493 L162 566 C162 659 200 701 271 701 C297 701 317 697 333 691 L333 740 C318 747 288 750 269 750 C159 750 110 677 110 574 L110 493 L20 493 L20 446 L110 446 L110 0 L162 0 Z M672 0 L726 0 L726 493 L672 493 L672 0 Z " />
<glyph glyph-name="f_f_l" unicode="&#xfb04;" horiz-adv-x="810" d="M162 0 L162 446 L390 446 L390 0 L444 0 L444 446 L592 446 L592 493 L444 493 L444 582 C444 678 508 711 578 711 C627 711 657 698 672 684 L672 0 L726 0 L726 716 C700 738 653 760 578 760 C483 760 390 710 390 580 L390 493 L162 493 L162 566 C162 659 200 701 271 701 C297 701 317 697 333 691 L333 740 C318 747 288 750 269 750 C159 750 110 677 110 574 L110 493 L20 493 L20 446 L110 446 L110 0 L162 0 Z " />
<glyph glyph-name="u1F374" unicode="&#x1f374;" horiz-adv-x="1180" d="M639 0 L751 0 L728 332 L750 362 L734 686 L701 686 L646 610 L609 355 L662 332 L639 0 Z M439 0 L547 0 L524 398 L566 438 L566 680 L531 680 L531 522 L511 522 L511 680 L475 680 L475 521 L454 521 L454 680 L418 680 L418 437 L462 398 L439 0 Z " />
<glyph glyph-name="u1F3DB" unicode="&#x1f3db;" horiz-adv-x="1180" d="M298 138 L258 138 L258 93 L923 93 L923 138 L883 138 L883 183 L843 183 L843 228 L813 228 L813 463 L883 463 L883 508 L590 678 L298 508 L298 463 L368 463 L368 228 L338 228 L338 183 L298 183 L298 138 Z M468 228 L413 228 L413 463 L468 463 L468 228 Z M568 228 L513 228 L513 463 L568 463 L568 228 Z M668 228 L613 228 L613 463 L668 463 L668 228 Z M768 228 L713 228 L713 463 L768 463 L768 228 Z " />
<glyph glyph-name="u1F4B1" unicode="&#x1f4b1;" horiz-adv-x="1180" d="M227 190 L953 190 L953 510 L227 510 L227 190 Z M272 235 L272 465 L908 465 L908 235 L272 235 Z M390 268 C439 268 472 306 472 350 C472 395 439 433 390 433 C341 433 307 395 307 350 C307 306 341 268 390 268 L390 268 Z M591 268 C640 268 673 306 673 350 C673 395 641 433 591 433 C541 433 508 396 508 350 C508 305 542 268 591 268 L591 268 Z M791 267 C841 267 873 306 873 350 C873 394 841 433 791 433 C743 433 709 394 709 350 C709 306 743 267 791 267 L791 267 Z M585 288 L585 301 C571 302 562 309 559 316 L559 326 L569 326 C571 320 576 315 585 312 L585 347 C568 352 560 361 560 375 C560 389 569 399 585 402 L585 414 L597 414 L597 403 C610 401 617 394 621 388 L621 378 L610 378 C608 383 604 388 597 389 L597 358 C618 350 624 342 624 327 C624 313 613 303 597 301 L597 288 L585 288 Z M794 300 C769 300 753 314 747 334 L732 334 L738 347 L744 347 L744 355 L732 355 L738 369 L748 369 C754 388 770 402 794 402 C822 402 831 386 831 386 L831 377 L820 377 C820 377 816 390 795 390 C779 390 769 382 764 369 L816 369 L810 355 L760 355 L760 347 L805 347 L800 334 L763 334 C768 322 779 312 795 312 C816 312 821 326 821 326 L831 326 L831 317 C831 317 822 300 794 300 L794 300 Z M368 301 L368 317 L351 317 L351 329 L368 329 L368 337 L351 337 L351 349 L368 349 L368 400 L395 400 C416 400 429 388 429 370 C429 352 418 337 395 337 L383 337 L383 329 L414 329 L414 317 L383 317 L383 301 L368 301 Z M585 363 L585 389 C577 388 574 383 574 376 C574 369 577 366 585 363 L585 363 Z M383 349 L394 349 C407 349 415 357 415 369 C415 379 408 388 394 388 L383 388 L383 349 Z M597 312 C606 315 611 321 611 327 C611 335 606 339 597 342 L597 312 Z " />
<glyph glyph-name="u1F4B3" unicode="&#x1f4b3;" horiz-adv-x="1180" d="M277 140 L903 140 L903 560 L277 560 L277 140 Z M322 515 L858 515 L858 456 L322 456 L322 515 Z M322 185 L322 366 L858 366 L858 185 L322 185 Z M503 268 L503 228 L648 228 L648 268 L503 268 Z M356 268 L356 228 L461 228 L461 268 L356 268 Z " />
<glyph glyph-name="u1F4F1" unicode="&#x1f4f1;" horiz-adv-x="1180" d="M441 80 L739 80 L739 671 L441 671 L441 80 Z M541 601 L541 626 L639 626 L639 601 L541 601 Z M481 201 L481 558 L699 558 L699 201 L481 201 Z M590 110 C573 110 559 124 559 141 C559 157 574 171 590 171 C606 171 621 157 621 141 C621 124 607 110 590 110 L590 110 Z " />
<glyph glyph-name="u1F4F5" unicode="&#x1f4f5;" horiz-adv-x="1180" d="M590 877 C452 877 329 826 238 741 C136 645 75 505 75 360 C75 215 136 75 238 -21 C329 -106 452 -157 590 -157 C728 -157 851 -106 942 -21 C1044 75 1105 215 1105 360 C1105 505 1044 645 942 741 C851 826 728 877 590 877 L590 877 Z M739 670 L441 670 L441 559 L297 703 C377 770 482 807 590 807 C707 807 820 764 901 686 C983 607 1035 492 1035 360 C1035 246 996 144 932 68 L739 261 L739 670 Z M590 -87 C473 -87 360 -44 279 34 C197 113 145 228 145 360 C145 475 185 577 249 654 L884 18 C804 -50 699 -87 590 -87 L590 -87 Z M639 601 L541 601 L541 626 L639 626 L639 601 Z M481 558 L699 558 L699 301 L481 519 L481 558 Z M441 384 L441 80 L739 80 L739 86 L624 201 L481 201 L481 344 L441 384 Z M621 141 C621 124 607 110 590 110 C573 110 559 124 559 141 C559 157 574 171 590 171 C606 171 621 157 621 141 L621 141 Z " />
</font>
</svg>
