<?xml version="1.0" encoding="UTF-8"?>
<svg width="23px" height="23px" viewBox="0 0 24 23" version="1.1" xmlns="http://www.w3.org/2000/svg" xmlns:xlink="http://www.w3.org/1999/xlink">
    <!-- Generator: sketchtool 49.2 (51160) - http://www.bohemiancoding.com/sketch -->
    <title>DE0A9F66-CACB-4C76-869C-74B21BAB7ABF</title>
    <desc>Created with sketchtool.</desc>
    <defs>
        <linearGradient x1="50%" y1="107.351528%" x2="62.1058519%" y2="60.3078803%" id="linearGradient-1">
            <stop stop-color="#FAD961" offset="0%"></stop>
            <stop stop-color="#F89C3B" offset="62.1847071%"></stop>
            <stop stop-color="#F76B1C" offset="100%"></stop>
        </linearGradient>
        <circle id="path-2" cx="11.5" cy="11.5" r="11.5"></circle>
        <filter x="-15.2%" y="-14.6%" width="130.4%" height="129.2%" filterUnits="objectBoundingBox" id="filter-3">
            <feGaussianBlur stdDeviation="1.5" in="SourceAlpha" result="shadowBlurInner1"></feGaussianBlur>
            <feOffset dx="2" dy="3" in="shadowBlurInner1" result="shadowOffsetInner1"></feOffset>
            <feComposite in="shadowOffsetInner1" in2="SourceAlpha" operator="arithmetic" k2="-1" k3="1" result="shadowInnerInner1"></feComposite>
            <feColorMatrix values="0 0 0 0 0.384313725   0 0 0 0 0.337254902   0 0 0 0 0.780392157  0 0 0 1 0" type="matrix" in="shadowInnerInner1" result="shadowMatrixInner1"></feColorMatrix>
            <feGaussianBlur stdDeviation="1.5" in="SourceAlpha" result="shadowBlurInner2"></feGaussianBlur>
            <feOffset dx="-4" dy="1" in="shadowBlurInner2" result="shadowOffsetInner2"></feOffset>
            <feComposite in="shadowOffsetInner2" in2="SourceAlpha" operator="arithmetic" k2="-1" k3="1" result="shadowInnerInner2"></feComposite>
            <feColorMatrix values="0 0 0 0 0.839215686   0 0 0 0 0.176470588   0 0 0 0 0.490196078  0 0 0 1 0" type="matrix" in="shadowInnerInner2" result="shadowMatrixInner2"></feColorMatrix>
            <feMerge>
                <feMergeNode in="shadowMatrixInner1"></feMergeNode>
                <feMergeNode in="shadowMatrixInner2"></feMergeNode>
            </feMerge>
        </filter>
    </defs>
    <g id="Symbols" stroke="none" stroke-width="1" fill="none" fill-rule="evenodd">
        <g id="Add-social" transform="translate(-267.000000, -65.000000)">
            <g id="Group-61">
                <g transform="translate(10.000000, 65.000000)">
                    <g id="Group-60" transform="translate(106.000000, 0.000000)">
                        <g id="instagram" transform="translate(151.000000, 0.000000)">
                            <g>
                                <g id="Oval" fill-rule="nonzero" transform="translate(11.500000, 12.000000) rotate(7.000000) translate(-11.500000, -12.000000) ">
                                    <use fill="url(#linearGradient-1)" fill-rule="evenodd" xlink:href="#path-2"></use>
                                    <use fill="black" fill-opacity="1" filter="url(#filter-3)" xlink:href="#path-2"></use>
                                </g>
                                <path d="M11.5,7 C12.9656392,7 13.1392298,7.00557791 13.7180251,7.03198582 C14.2531993,7.05641096 14.5438389,7.14583182 14.737279,7.22098107 C14.9934707,7.32055547 15.1763433,7.43952181 15.3684107,7.63158927 C15.5604782,7.82365673 15.6794445,8.00652935 15.7789971,8.26272097 C15.8541682,8.45616112 15.943589,8.74680069 15.9680142,9.28195314 C15.9944221,9.86077016 16,10.0343608 16,11.5 C16,12.9656392 15.9944221,13.1392298 15.9680142,13.7180251 C15.943589,14.2531993 15.8541682,14.5438389 15.7789971,14.737279 C15.6794445,14.9934707 15.5604782,15.1763433 15.3684107,15.3684107 C15.1763433,15.5604782 14.9934707,15.6794445 14.737279,15.7789971 C14.5438389,15.8541682 14.2531993,15.943589 13.7180251,15.9680142 C13.139317,15.9944221 12.9657264,16 11.5,16 C10.0342736,16 9.860683,15.9944221 9.28197493,15.9680142 C8.74680069,15.943589 8.45616112,15.8541682 8.26274276,15.7789971 C8.00652935,15.6794445 7.82365673,15.5604782 7.63158927,15.3684107 C7.43952181,15.1763433 7.32055547,14.9934707 7.22100286,14.737279 C7.14583182,14.5438389 7.05641096,14.2531993 7.03198582,13.7180469 C7.00557791,13.1392298 7,12.9656392 7,11.5 C7,10.0343608 7.00557791,9.86077016 7.03198582,9.28197493 C7.05641096,8.74680069 7.14583182,8.45616112 7.22100286,8.26272097 C7.32055547,8.00652935 7.43952181,7.82365673 7.63158927,7.63158927 C7.82365673,7.43952181 8.00652935,7.32055547 8.26274276,7.22098107 C8.45616112,7.14583182 8.74680069,7.05641096 9.28195314,7.03198582 C9.86077016,7.00557791 10.0343608,7 11.5,7 M11.9999881,6 C13.6295022,6 13.8338285,6.00690694 14.4737685,6.03610663 C15.1124224,6.06525868 15.54856,6.16667163 15.930228,6.31500414 C16.324781,6.46833823 16.6593866,6.67349819 16.9929442,7.0070558 C17.3265018,7.34061341 17.5316618,7.67521897 17.6849959,8.06977201 C17.8333284,8.45144004 17.9347413,8.88757763 17.9638934,9.52623149 C17.9930931,10.1661715 18,10.3704978 18,12.0000119 C18,13.629526 17.9930931,13.8338523 17.9638934,14.4737923 C17.9347413,15.1124462 17.8333284,15.5485838 17.6849959,15.9302518 C17.5316618,16.3248048 17.3265018,16.6594104 16.9929442,16.992968 C16.6593866,17.3265256 16.324781,17.5316856 15.930228,17.6850197 C15.54856,17.8333522 15.1124224,17.9347651 14.4737685,17.9639172 C13.8338285,17.9931169 13.6295022,18 11.9999881,18 C10.370474,18 10.1661715,17.9931169 9.52620767,17.9639172 C8.88755381,17.9347651 8.45141622,17.8333522 8.06974819,17.6850197 C7.67519515,17.5316856 7.34058959,17.3265256 7.00703198,16.992968 C6.67347437,16.6594104 6.46831441,16.324781 6.31498032,15.9302518 C6.16664781,15.5485838 6.06523487,15.1124462 6.03608281,14.4737923 C6.00688312,13.8338523 6,13.629526 6,12.0000119 C6,10.3704978 6.00688312,10.1661715 6.03608281,9.52623149 C6.06523487,8.88757763 6.16664781,8.45144004 6.31498032,8.06977201 C6.46831441,7.67521897 6.67347437,7.34061341 7.00703198,7.0070558 C7.34058959,6.67349819 7.67519515,6.46833823 8.06974819,6.31500414 C8.45141622,6.16667163 8.88755381,6.06525868 9.52620767,6.03610663 C10.1661715,6.00690694 10.370474,6 11.9999881,6 Z M12,9 C10.3431531,9 9,10.3431531 9,12 C9,13.6568469 10.3431531,15 12,15 C13.6568469,15 15,13.6568469 15,12 C15,10.3431531 13.6568469,9 12,9 Z M12,14 C10.8954438,14 10,13.1045562 10,12 C10,10.8954438 10.8954438,10 12,10 C13.1045562,10 14,10.8954438 14,12 C14,13.1045562 13.1045562,14 12,14 Z M15,8.49999173 C15,8.22384678 14.7761532,8 14.5000083,8 C14.2238633,8 14,8.22384678 14,8.49999173 C14,8.77613668 14.2238633,9 14.5000083,9 C14.7761532,9 15,8.77613668 15,8.49999173 Z" id="Shape" fill="#FFFFFF"></path>
                            </g>
                        </g>
                    </g>
                </g>
            </g>
        </g>
    </g>
</svg>
