<?xml version="1.0" encoding="UTF-8"?>
<svg width="23px" height="23px" viewBox="0 0 23 23" version="1.1" xmlns="http://www.w3.org/2000/svg" xmlns:xlink="http://www.w3.org/1999/xlink">
    <!-- Generator: sketchtool 49.2 (51160) - http://www.bohemiancoding.com/sketch -->
    <title>22F49578-AB29-4E6C-9653-22EA80757DEA</title>
    <desc>Created with sketchtool.</desc>
    <defs></defs>
    <g id="Symbols" stroke="none" stroke-width="1" fill="none" fill-rule="evenodd">
        <g id="Add-social" transform="translate(-368.000000, -65.000000)">
            <g id="Group-61">
                <g transform="translate(10.000000, 65.000000)">
                    <g id="Group-60" transform="translate(106.000000, 0.000000)">
                        <g id="ok" transform="translate(252.000000, 0.000000)">
                            <g>
                                <circle id="Oval" fill="#F68634" cx="11.5" cy="11.5" r="11.5"></circle>
                                <path d="M11.6508071,6.89732233 C12.3952884,6.89732233 13.0008624,7.49838319 13.0008624,8.2375544 C13.0008624,8.9761445 12.3952884,9.57759277 11.6508071,9.57759277 C10.906911,9.57759277 10.3007518,8.9761445 10.3007518,8.2375544 C10.3007518,7.49838319 10.906911,6.89732233 11.6508071,6.89732233 L11.6508071,6.89732233 Z M11.6508071,11.4741403 C9.85261925,11.4741403 8.3901894,10.0223352 8.3901894,8.2375544 C8.3901894,6.45219249 9.85261925,5 11.6508071,5 C13.4493851,5 14.9114248,6.45219249 14.9114248,8.2375544 C14.9114248,10.0223352 13.4493851,11.4741403 11.6508071,11.4741403 Z M12.7619261,14.5477918 L14.505445,16.3700398 C14.862621,16.7425241 14.862621,17.3474699 14.505445,17.7203442 C14.1486423,18.0932186 13.5703307,18.0932186 13.2139011,17.7203442 L11.4996804,15.9296892 L9.78695251,17.7203442 C9.60836452,17.9065864 9.37435268,17.999805 9.14034083,17.999805 C8.9067022,17.999805 8.67306358,17.9065864 8.49447559,17.7203442 C8.13767283,17.3474699 8.13767283,16.7429141 8.49410236,16.3700398 L10.2378079,14.5477918 C9.60295277,14.3966529 8.99067775,14.1337687 8.42673532,13.7640146 C7.99995294,13.4827987 7.87175028,12.8936494 8.14065863,12.4472533 C8.40882053,12.0002721 8.97276296,11.8657097 9.40029179,12.1469256 C10.6770933,12.9862829 12.3218943,12.986478 13.5994422,12.1469256 C14.026971,11.8657097 14.5907268,12.0002721 14.8594486,12.4472533 C15.1283569,12.8932594 14.999781,13.4827987 14.5729987,13.7640146 C14.0090562,14.1341587 13.3967812,14.3966529 12.7619261,14.5477918 Z" id="Shape" fill="#FFFFFF"></path>
                            </g>
                        </g>
                    </g>
                </g>
            </g>
        </g>
    </g>
</svg>