<?xml version="1.0" encoding="UTF-8"?>
<svg width="23px" height="23px" viewBox="0 0 23 23" version="1.1" xmlns="http://www.w3.org/2000/svg" xmlns:xlink="http://www.w3.org/1999/xlink">
    <!-- Generator: sketchtool 49.2 (51160) - http://www.bohemiancoding.com/sketch -->
    <title>BC4F605F-A3E7-4608-8180-86D87C56829C</title>
    <desc>Created with sketchtool.</desc>
    <defs></defs>
    <g id="Symbols" stroke="none" stroke-width="1" fill="none" fill-rule="evenodd">
        <g id="Add-social" transform="translate(-166.000000, -65.000000)">
            <g id="Group-61">
                <g transform="translate(10.000000, 65.000000)">
                    <g id="Group-60" transform="translate(106.000000, 0.000000)">
                        <g id="twitter" transform="translate(50.000000, 0.000000)">
                            <g>
                                <circle id="Oval" fill="#55ACEE" cx="11.5" cy="11.5" r="11.5"></circle>
                                <path d="M15.6841233,8.48754153 C16.1493221,8.19397463 16.5062751,7.72848082 16.6737982,7.17396557 C16.2382382,7.44646632 15.7569314,7.6435367 15.2434087,7.75022652 C14.8336215,7.28813047 14.247935,7 13.5997495,7 C12.3562127,7 11.3484969,8.06350045 11.3484969,9.37503775 C11.3484969,9.56123528 11.3671821,9.74267593 11.4058413,9.91596195 C9.53473723,9.81674721 7.8756143,8.87216853 6.76416302,7.43423437 C6.57022283,7.78624283 6.45939986,8.19397463 6.45939986,8.62888855 C6.45939986,9.4525068 6.85694504,10.1796285 7.46131681,10.6063878 C7.09212169,10.5941558 6.74483344,10.4861069 6.44071459,10.3094231 L6.44071459,10.3386439 C6.44071459,11.4898067 7.21647537,12.4500151 8.24803102,12.6674721 C8.05860107,12.7231954 7.86015063,12.7510571 7.65396837,12.7510571 C7.50899646,12.7510571 7.36724615,12.7367865 7.2306504,12.7089248 C7.5167283,13.6521444 8.34854488,14.339852 9.33435384,14.3581999 C8.5631033,14.9956207 7.59211369,15.3748112 6.53736253,15.3748112 C6.35566441,15.3748112 6.17589925,15.3646179 6,15.3421927 C6.99676239,16.0156297 8.18037747,16.4090909 9.45226432,16.4090909 C13.5952392,16.4090909 15.8593783,12.7897916 15.8593783,9.65093627 C15.8593783,9.54764422 15.8580896,9.44503171 15.8535794,9.34377831 C16.2936497,9.00875868 16.6763755,8.59015403 16.9772727,8.11378738 C16.5732843,8.30270311 16.139013,8.43045908 15.6841233,8.48754153 Z" id="Shape" fill="#FFFFFF"></path>
                            </g>
                        </g>
                    </g>
                </g>
            </g>
        </g>
    </g>
</svg>