<?xml version="1.0" encoding="UTF-8"?>
<svg width="23px" height="23px" viewBox="0 0 23 23" version="1.1" xmlns="http://www.w3.org/2000/svg" xmlns:xlink="http://www.w3.org/1999/xlink">
    <!-- Generator: sketchtool 49.2 (51160) - http://www.bohemiancoding.com/sketch -->
    <title>B73B3010-7E82-4C5A-AFD4-51E3E4018A3D</title>
    <desc>Created with sketchtool.</desc>
    <defs></defs>
    <g id="Symbols" stroke="none" stroke-width="1" fill="none" fill-rule="evenodd">
        <g id="Add-social" transform="translate(-217.000000, -65.000000)">
            <g id="Group-61">
                <g transform="translate(10.000000, 65.000000)">
                    <g id="Group-60" transform="translate(106.000000, 0.000000)">
                        <g id="googleplus" transform="translate(101.000000, 0.000000)">
                            <g>
                                <circle id="Oval" fill="#DC4E41" cx="11.5" cy="11.5" r="11.5"></circle>
                                <path d="M9.43539557,10.5633353 L13.6949948,10.5633353 C13.9915646,12.6926158 13.0966646,15.8863636 9.43539557,15.8863636 C6.98601351,15.8863636 5,13.8968896 5,11.4430088 C5,8.98912801 6.98601351,7 9.43539557,7 C10.5846465,7 11.6318109,7.43776043 12.4197797,8.156172 C11.4916584,9.0344613 11.5221113,9.08671571 11.1573686,9.4521505 C10.7016133,9.07460376 10.2046773,8.80364217 9.43539557,8.80364217 C7.98023146,8.80364217 6.84447674,9.98542229 6.84447674,11.4430088 C6.84447674,12.9009413 7.98023146,14.0827215 9.43539557,14.0827215 C10.8732569,14.0827215 11.4573989,13.4615515 11.8332153,12.320606 C11.1393737,12.320606 9.43539557,12.3230284 9.43539557,12.3230284 L9.43539557,10.5633353 Z M17.541783,10.4582104 L19,10.4582104 L19,11.4998361 L17.541783,11.4998361 L17.541783,13 L16.5002463,13 L16.5002463,11.4998361 L15,11.4998361 L15,10.4582104 L16.5002463,10.4582104 L16.5002463,9 L17.541783,9 L17.541783,10.4582104 Z" id="Shape" fill="#FFFFFF"></path>
                            </g>
                        </g>
                    </g>
                </g>
            </g>
        </g>
    </g>
</svg>