<?xml version="1.0" encoding="UTF-8"?>
<svg width="23px" height="23px" viewBox="0 0 23 23" version="1.1" xmlns="http://www.w3.org/2000/svg" xmlns:xlink="http://www.w3.org/1999/xlink">
    <!-- Generator: sketchtool 49.2 (51160) - http://www.bohemiancoding.com/sketch -->
    <title>27C9E950-40E0-4349-A2DF-7341DF18915C</title>
    <desc>Created with sketchtool.</desc>
    <defs></defs>
    <g id="Symbols" stroke="none" stroke-width="1" fill="none" fill-rule="evenodd">
        <g id="Add-social" transform="translate(-318.000000, -65.000000)">
            <g id="Group-61">
                <g transform="translate(10.000000, 65.000000)">
                    <g id="Group-60" transform="translate(106.000000, 0.000000)">
                        <g id="vk" transform="translate(202.000000, 0.000000)">
                            <g>
                                <circle id="Oval" fill="#4C6C91" cx="11.5" cy="11.5" r="11.5"></circle>
                                <path d="M12.1749742,15.2875942 C12.1749742,15.2875942 12.4108261,15.2618707 12.5316284,15.134508 C12.642204,15.0178111 12.638369,14.7975929 12.638369,14.7975929 C12.638369,14.7975929 12.6236682,13.7692803 13.1100729,13.6174489 C13.5894469,13.4681271 14.204963,14.6118817 14.8581899,15.0516908 C15.3516255,15.3842141 15.7261764,15.3114354 15.7261764,15.3114354 L17.4717367,15.2875942 C17.4717367,15.2875942 18.3844647,15.2323827 17.9517498,14.5278098 C17.9159565,14.4700888 17.6992795,14.0064384 16.6542443,13.0540415 C15.5593542,12.0570991 15.7063622,12.2183415 17.024321,10.4936122 C17.8271126,9.44334056 18.1479735,8.80213528 18.0476246,8.52796042 C17.952389,8.2657062 17.3618003,8.33534787 17.3618003,8.33534787 L15.3970062,8.34726852 C15.3970062,8.34726852 15.2512766,8.32781904 15.1432576,8.39118669 C15.0377954,8.45329953 14.9694047,8.59822949 14.9694047,8.59822949 C14.9694047,8.59822949 14.6587704,9.41071563 14.2439521,10.1021131 C13.3689349,11.5601963 13.0193115,11.6373668 12.8761384,11.5470209 C12.5431333,11.3355863 12.6262248,10.6987728 12.6262248,10.2464157 C12.6262248,8.832878 12.8448194,8.24374712 12.2011799,8.09128833 C11.9876987,8.04046873 11.8304641,8.0072164 11.2839778,8.00156978 C10.5828135,7.99466836 9.98966813,8.00407939 9.6534672,8.16532182 C9.42975936,8.27260763 9.25718474,8.51227536 9.36264701,8.52607821 C9.49239755,8.54301808 9.78641357,8.60387611 9.9423699,8.81217372 C10.143707,9.08132936 10.1366761,9.68489049 10.1366761,9.68489049 C10.1366761,9.68489049 10.252365,11.3487617 9.86630923,11.5551771 C9.60169481,11.6969701 9.23864894,11.4077376 8.45822816,10.0845458 C8.05874987,9.40695122 7.75706387,8.65783272 7.75706387,8.65783272 C7.75706387,8.65783272 7.69889983,8.51792198 7.59471589,8.44263369 C7.46880033,8.35166034 7.29302989,8.32342723 7.29302989,8.32342723 L5.42602816,8.33534787 C5.42602816,8.33534787 5.14543461,8.3428767 5.042529,8.46271057 C4.95112837,8.56874158 5.03549818,8.78895983 5.03549818,8.78895983 C5.03549818,8.78895983 6.49726914,12.1461902 8.15270716,13.8382946 C9.67072466,15.3892333 11.3939142,15.2875942 11.3939142,15.2875942 L12.1749742,15.2875942 Z" id="Shape" fill="#FFFFFF"></path>
                            </g>
                        </g>
                    </g>
                </g>
            </g>
        </g>
    </g>
</svg>