<?xml version="1.0" encoding="UTF-8"?>
<svg xmlns="http://www.w3.org/2000/svg" xmlns:xlink="http://www.w3.org/1999/xlink" version="1.2" >
<font id="Navigo Thin">
<font-face  font-family="Navigo" units-per-em="1000" ascent="750" descent="-250" font-style="normal" font-weight="100" font-stretch="normal" cap-height="750" x-height="490" underline-position="-50" underline-thickness="50" />
<missing-glyph  horiz-adv-x="606" d="M103 -250 L503 -250 L503 750 L103 750 L103 -250 Z M153 -200 L153 700 L453 700 L453 -200 L153 -200 Z " />
<glyph glyph-name="NULL" d="" />
<glyph glyph-name="CR" unicode="&#xd;" horiz-adv-x="250" d="" />
<glyph glyph-name="space" unicode="&#x20;" horiz-adv-x="272" d="" />
<glyph glyph-name="exclam" unicode="&#x21;" horiz-adv-x="245" d="M106 212 L132 212 L139 750 L99 750 L106 212 Z M94 0 L151 0 L151 57 L94 57 L94 0 Z " />
<glyph glyph-name="quotedbl" unicode="&#x22;" horiz-adv-x="293" d="M79 510 L102 510 L112 750 L72 750 L79 510 Z M189 510 L212 510 L222 750 L182 750 L189 510 Z " />
<glyph glyph-name="numbersign" unicode="&#x23;" horiz-adv-x="603" d="M342 0 L377 0 L408 212 L528 212 L528 242 L413 242 L448 482 L558 482 L558 512 L453 512 L488 750 L453 750 L418 512 L218 512 L253 750 L218 750 L183 512 L74 512 L74 482 L178 482 L143 242 L44 242 L44 212 L138 212 L107 0 L142 0 L173 212 L373 212 L342 0 Z M378 242 L178 242 L213 482 L413 482 L378 242 Z " />
<glyph glyph-name="dollar" unicode="&#x24;" horiz-adv-x="573" d="M297 -10 C432 -10 521 66 521 193 C521 311 442 361 316 392 L306 394 L336 727 C446 709 474 625 478 571 L503 571 L503 596 C494 677 440 742 338 757 L349 876 L316 876 L306 760 L291 760 C135 760 62 669 62 577 C62 475 116 408 265 372 L271 370 L240 25 C152 41 100 95 72 182 L47 182 L47 157 C70 84 122 12 237 -6 L225 -143 L258 -143 L270 -9 C279 -10 288 -10 297 -10 L297 -10 Z M97 577 C97 669 164 730 291 730 L303 730 L274 403 C176 428 97 469 97 577 L97 577 Z M486 193 C486 68 404 20 298 20 C289 20 281 20 273 21 L303 362 C460 319 486 259 486 193 L486 193 Z " />
<glyph glyph-name="percent" unicode="&#x25;" horiz-adv-x="985" d="M249 -26 L285 -26 L734 762 L698 762 L249 -26 Z M232 344 C351 344 428 429 428 552 C428 674 349 760 232 760 C115 760 38 675 38 552 C38 431 112 344 232 344 L232 344 Z M232 374 C125 374 73 460 73 552 C73 644 126 730 232 730 C338 730 393 646 393 552 C393 460 340 374 232 374 L232 374 Z M751 -14 C870 -14 947 71 947 194 C947 316 868 402 751 402 C634 402 557 317 557 194 C557 73 631 -14 751 -14 L751 -14 Z M751 16 C644 16 592 102 592 194 C592 286 645 372 751 372 C857 372 912 288 912 194 C912 102 859 16 751 16 L751 16 Z " />
<glyph glyph-name="ampersand" unicode="&#x26;" horiz-adv-x="675" d="M630 0 L656 0 L656 25 L534 136 C570 203 588 288 591 364 L561 364 C557 297 538 215 507 156 C415 232 279 373 271 381 C411 448 469 500 469 596 C469 699 401 760 298 760 C177 760 113 681 113 588 C113 523 128 482 209 391 C110 342 53 282 53 186 C53 75 136 -10 281 -10 C388 -10 466 37 515 105 L630 0 Z M147 590 C147 668 204 730 295 730 C389 730 434 677 434 596 C434 513 372 454 246 403 C174 479 147 520 147 590 L147 590 Z M285 20 C161 20 87 92 87 186 C87 280 150 328 231 367 C242 356 382 225 489 129 C447 68 378 20 285 20 L285 20 Z " />
<glyph glyph-name="quotesingle" unicode="&#x27;" horiz-adv-x="183" d="M79 510 L102 510 L112 750 L72 750 L79 510 Z " />
<glyph glyph-name="parenleft" unicode="&#x28;" horiz-adv-x="360" d="M350 -230 L350 -200 C239 -146 85 0 85 268 C85 536 229 672 350 736 L350 766 C171 694 50 522 50 268 C50 14 171 -158 350 -230 L350 -230 Z " />
<glyph glyph-name="parenright" unicode="&#x29;" horiz-adv-x="360" d="M10 -230 C189 -158 310 14 310 268 C310 522 189 694 10 766 L10 736 C133 672 275 536 275 268 C275 0 131 -136 10 -200 L10 -230 Z " />
<glyph glyph-name="asterisk" unicode="&#x2a;" horiz-adv-x="424" d="M141 436 L212 563 L291 436 L329 466 L233 581 L365 601 L357 641 L227 605 L237 750 L189 750 L199 605 L69 641 L57 601 L192 581 L100 464 L141 436 Z " />
<glyph glyph-name="plus" unicode="&#x2b;" horiz-adv-x="488" d="M438 333 L438 363 L259 363 L259 569 L228 569 L228 363 L50 363 L50 333 L228 333 L228 125 L259 125 L259 333 L438 333 Z " />
<glyph glyph-name="comma" unicode="&#x2c;" horiz-adv-x="206" d="M78 -76 L100 -76 L128 10 L128 57 L78 57 L78 -76 Z " />
<glyph glyph-name="hyphen" unicode="&#x2d;" horiz-adv-x="416" d="M73 313 L343 313 L343 343 L73 343 L73 313 Z " />
<glyph glyph-name="period" unicode="&#x2e;" horiz-adv-x="203" d="M73 0 L130 0 L130 57 L73 57 L73 0 Z " />
<glyph glyph-name="slash" unicode="&#x2f;" horiz-adv-x="492" d="M31 -250 L67 -250 L461 819 L425 819 L31 -250 Z " />
<glyph glyph-name="zero" unicode="0" horiz-adv-x="616" d="M308 -10 C471 -10 535 113 535 264 L535 486 C535 638 474 760 308 760 C145 760 81 638 81 486 L81 264 C81 113 142 -10 308 -10 L308 -10 Z M308 20 C207 20 116 78 116 259 L116 491 C116 673 210 730 308 730 C409 730 500 673 500 491 L500 259 C500 78 406 20 308 20 L308 20 Z " />
<glyph glyph-name="one" unicode="1" horiz-adv-x="333" d="M188 0 L223 0 L223 750 L197 750 L23 605 L23 585 L43 585 L188 706 L188 0 Z " />
<glyph glyph-name="two" unicode="2" horiz-adv-x="530" d="M484 0 L484 35 L101 35 L311 280 C390 373 458 452 458 566 C458 697 377 760 254 760 C101 760 57 631 53 594 L53 569 L78 569 C90 679 169 730 254 730 C365 730 424 668 424 568 C424 475 375 404 288 303 L53 30 L53 0 L484 0 Z " />
<glyph glyph-name="three" unicode="3" horiz-adv-x="577" d="M290 -10 C437 -10 519 78 519 203 C519 305 458 373 364 399 C442 434 487 495 487 585 C487 682 422 760 287 760 C169 760 92 678 78 594 L78 569 L108 569 C120 666 184 730 286 730 C401 730 452 666 452 581 C452 486 382 408 284 408 L217 408 L217 378 L290 378 C425 378 484 288 484 203 C484 74 400 20 290 20 C183 20 96 77 82 206 L52 206 L52 181 C66 76 140 -10 290 -10 L290 -10 Z " />
<glyph glyph-name="four" unicode="4" horiz-adv-x="591" d="M553 222 L553 252 L452 252 L452 750 L427 750 L22 237 L22 222 L417 222 L417 -10 L452 -10 L452 222 L553 222 Z M417 252 L74 252 L417 687 L417 252 Z " />
<glyph glyph-name="five" unicode="5" horiz-adv-x="570" d="M287 -10 C441 -10 521 95 521 239 C521 391 401 465 286 465 C228 465 156 447 116 405 L152 715 L479 715 L479 750 L121 750 L79 379 L122 371 C163 419 228 435 287 435 C401 435 486 356 486 239 C486 96 409 20 285 20 C164 20 86 112 74 206 L49 206 L49 181 C62 108 130 -10 287 -10 L287 -10 Z " />
<glyph glyph-name="six" unicode="6" horiz-adv-x="573" d="M295 -10 C449 -10 536 100 536 233 C536 366 448 473 295 473 C238 473 160 446 118 389 C147 433 226 534 271 594 L380 740 L380 760 L358 760 L268 639 C107 423 52 356 52 233 C52 101 142 -10 295 -10 L295 -10 Z M295 20 C168 20 87 100 87 233 C87 366 174 443 296 443 C426 443 501 367 501 233 C501 101 420 20 295 20 L295 20 Z " />
<glyph glyph-name="seven" unicode="7" horiz-adv-x="466" d="M113 -10 L138 -10 C215 196 349 505 445 730 L445 750 L24 750 L24 720 L405 720 C318 505 179 186 113 15 L113 -10 Z " />
<glyph glyph-name="eight" unicode="8" horiz-adv-x="592" d="M296 -10 C449 -10 533 81 533 206 C533 274 501 367 388 400 C468 432 504 494 504 570 C504 674 429 760 296 760 C160 760 88 674 88 570 C88 509 111 436 203 400 C93 371 59 274 59 206 C59 81 144 -10 296 -10 L296 -10 Z M296 410 C172 410 123 485 123 570 C123 653 173 730 296 730 C418 730 469 653 469 570 C469 485 418 410 296 410 L296 410 Z M296 20 C162 20 94 94 94 206 C94 300 156 385 296 385 C436 385 498 300 498 206 C498 94 431 20 296 20 L296 20 Z " />
<glyph glyph-name="nine" unicode="9" horiz-adv-x="576" d="M165 -10 L187 -10 L317 136 C443 278 523 377 523 523 C523 655 441 760 280 760 C130 760 39 656 39 523 C39 390 116 277 280 277 C337 277 413 300 464 373 C435 316 363 230 290 151 L165 10 L165 -10 Z M279 307 C149 307 74 389 74 523 C74 655 155 730 280 730 C415 730 488 656 488 523 C488 390 401 307 279 307 L279 307 Z " />
<glyph glyph-name="colon" unicode="&#x3a;" horiz-adv-x="203" d="M73 443 L130 443 L130 500 L73 500 L73 443 Z M73 0 L130 0 L130 57 L73 57 L73 0 Z " />
<glyph glyph-name="semicolon" unicode="&#x3b;" horiz-adv-x="206" d="M75 443 L132 443 L132 500 L75 500 L75 443 Z M75 -76 L97 -76 L125 10 L125 57 L75 57 L75 -76 Z " />
<glyph glyph-name="less" unicode="&#x3c;" horiz-adv-x="467" d="M385 90 L385 115 L90 330 L385 550 L385 570 L360 570 L51 338 L51 317 L360 90 L385 90 Z " />
<glyph glyph-name="equal" unicode="&#x3d;" horiz-adv-x="566" d="M76 383 L490 383 L490 413 L76 413 L76 383 Z M76 223 L490 223 L490 253 L76 253 L76 223 Z " />
<glyph glyph-name="greater" unicode="&#x3e;" horiz-adv-x="467" d="M107 90 L416 322 L416 343 L107 570 L82 570 L82 545 L377 330 L82 110 L82 90 L107 90 Z " />
<glyph glyph-name="question" unicode="&#x3f;" horiz-adv-x="484" d="M192 212 L225 212 C219 227 217 241 217 254 C217 365 444 407 444 580 C444 682 381 760 246 760 C65 760 39 604 39 604 L39 579 L64 579 C64 579 83 730 246 730 C353 730 409 659 409 580 C409 421 183 380 183 257 C183 243 186 227 192 212 L192 212 Z M179 0 L236 0 L236 57 L179 57 L179 0 Z " />
<glyph glyph-name="at" unicode="&#x40;" horiz-adv-x="961" d="M466 -207 C592 -207 651 -189 712 -160 L712 -133 C671 -152 604 -177 477 -177 C274 -177 90 -72 90 218 C90 508 278 677 526 677 C759 677 866 526 866 323 C866 109 746 30 600 30 L648 460 L631 460 L615 433 C615 433 586 475 516 475 C382 475 303 372 287 232 C272 93 317 -10 430 -10 C499 -10 545 39 573 101 L561 0 L581 0 C773 0 901 103 901 324 C901 546 779 707 526 707 C230 707 55 496 55 218 C55 -80 237 -207 466 -207 L466 -207 Z M445 25 C346 25 314 118 327 232 C337 326 388 445 513 445 C581 445 603 408 603 408 L582 217 C571 116 522 25 445 25 L445 25 Z " />
<glyph glyph-name="A" unicode="A" horiz-adv-x="621" d="M41 0 L137 253 L479 253 L575 0 L600 0 L600 30 L328 750 L293 750 L19 27 L19 0 L41 0 Z M467 282 L148 282 L308 709 L467 282 Z " />
<glyph glyph-name="B" unicode="B" horiz-adv-x="613" d="M109 0 L297 0 C458 0 558 68 558 203 C558 298 496 359 391 386 C493 418 526 485 526 562 C526 682 436 750 293 750 L109 750 L109 0 Z M144 398 L144 720 L292 720 C402 720 491 663 491 562 C491 443 404 398 285 398 L144 398 Z M144 30 L144 369 L299 369 C412 369 523 316 523 202 C523 79 422 30 298 30 L144 30 Z " />
<glyph glyph-name="C" unicode="C" horiz-adv-x="736" d="M413 -10 C626 -10 695 141 695 141 L695 166 L670 166 C670 166 613 20 413 20 C222 20 91 170 91 378 C91 571 202 730 412 730 C613 730 665 589 665 589 L690 589 L690 614 C690 614 628 760 412 760 C186 760 56 602 56 378 C56 157 185 -10 413 -10 L413 -10 Z " />
<glyph glyph-name="D" unicode="D" horiz-adv-x="745" d="M109 0 L312 0 C546 0 691 170 691 378 C691 583 546 750 312 750 L109 750 L109 0 Z M144 30 L144 720 L309 720 C505 720 656 583 656 378 C656 169 505 30 309 30 L144 30 Z " />
<glyph glyph-name="E" unicode="E" horiz-adv-x="567" d="M109 0 L510 0 L510 30 L144 30 L144 376 L470 376 L470 406 L144 406 L144 720 L510 720 L510 750 L109 750 L109 0 Z " />
<glyph glyph-name="F" unicode="F" horiz-adv-x="544" d="M109 0 L144 0 L144 368 L470 368 L470 398 L144 398 L144 720 L500 720 L500 750 L109 750 L109 0 Z " />
<glyph glyph-name="G" unicode="G" horiz-adv-x="781" d="M423 -10 C654 -10 715 136 715 136 L715 370 L455 370 L455 340 L680 340 L680 147 C657 108 583 20 423 20 C226 20 91 170 91 378 C91 571 204 730 422 730 C631 730 685 589 685 589 L710 589 L710 614 C710 614 646 760 422 760 C190 760 56 602 56 378 C56 157 189 -10 423 -10 L423 -10 Z " />
<glyph glyph-name="H" unicode="H" horiz-adv-x="748" d="M109 0 L144 0 L144 368 L604 368 L604 0 L639 0 L639 750 L604 750 L604 398 L144 398 L144 750 L109 750 L109 0 Z " />
<glyph glyph-name="I" unicode="I" horiz-adv-x="253" d="M109 0 L144 0 L144 750 L109 750 L109 0 Z " />
<glyph glyph-name="J" unicode="J" horiz-adv-x="416" d="M166 -10 C268 -10 313 50 313 160 L313 750 L278 750 L278 159 C278 68 244 20 166 20 C102 20 49 70 52 133 L27 133 L27 108 C30 42 91 -10 166 -10 L166 -10 Z " />
<glyph glyph-name="K" unicode="K" horiz-adv-x="598" d="M144 359 L561 0 L584 0 L584 23 L173 377 L576 729 L576 750 L555 750 L144 392 L144 750 L109 750 L109 0 L144 0 L144 359 Z " />
<glyph glyph-name="L" unicode="L" horiz-adv-x="525" d="M109 0 L500 0 L500 30 L144 30 L144 750 L109 750 L109 0 Z " />
<glyph glyph-name="M" unicode="M" horiz-adv-x="890" d="M432 183 L455 183 L746 686 L746 0 L781 0 L781 750 L749 750 L446 228 L141 750 L109 750 L109 0 L141 0 L141 681 L432 183 Z " />
<glyph glyph-name="N" unicode="N" horiz-adv-x="742" d="M109 0 L141 0 L141 691 L601 0 L633 0 L633 750 L601 750 L601 59 L141 750 L109 750 L109 0 Z " />
<glyph glyph-name="O" unicode="O" horiz-adv-x="826" d="M413 -10 C636 -10 770 155 770 378 C770 598 636 760 413 760 C190 760 56 598 56 378 C56 155 190 -10 413 -10 L413 -10 Z M413 20 C213 20 91 174 91 378 C91 578 213 730 413 730 C613 730 735 578 735 378 C735 174 613 20 413 20 L413 20 Z " />
<glyph glyph-name="P" unicode="P" horiz-adv-x="593" d="M109 0 L144 0 L144 300 L290 300 C465 300 553 404 553 532 C553 670 451 750 290 750 L109 750 L109 0 Z M144 330 L144 720 L289 720 C448 720 518 627 518 532 C518 421 444 330 289 330 L144 330 Z " />
<glyph glyph-name="Q" unicode="Q" horiz-adv-x="826" d="M767 -88 L636 63 C722 132 770 245 770 378 C770 598 636 760 413 760 C190 760 56 598 56 378 C56 155 190 -10 413 -10 C490 -10 556 10 610 45 L745 -110 L767 -110 L767 -88 Z M91 378 C91 578 213 730 413 730 C613 730 735 578 735 378 C735 256 691 152 614 88 L464 260 L442 260 L442 238 L589 70 C540 38 481 20 413 20 C213 20 91 174 91 378 L91 378 Z " />
<glyph glyph-name="R" unicode="R" horiz-adv-x="606" d="M144 0 L144 338 L295 338 L544 0 L569 0 L569 25 L335 344 C477 363 533 452 533 547 C533 676 445 750 280 750 L109 750 L109 0 L144 0 Z M144 373 L144 720 L299 720 C462 720 498 612 498 547 C498 464 448 373 299 373 L144 373 Z " />
<glyph glyph-name="S" unicode="S" horiz-adv-x="586" d="M305 -10 C440 -10 529 66 529 193 C529 311 450 361 324 392 L292 400 C190 425 105 465 105 577 C105 659 172 730 299 730 C446 730 482 632 486 571 L511 571 L511 596 C501 689 432 760 299 760 C143 760 70 669 70 577 C70 475 124 408 273 372 L300 365 C467 322 494 261 494 193 C494 78 412 20 306 20 C182 20 114 77 80 182 L55 182 L55 157 C82 72 147 -10 305 -10 L305 -10 Z " />
<glyph glyph-name="T" unicode="T" horiz-adv-x="619" d="M292 0 L327 0 L327 720 L599 720 L599 750 L20 750 L20 720 L292 720 L292 0 Z " />
<glyph glyph-name="U" unicode="U" horiz-adv-x="715" d="M359 -10 C525 -10 616 96 616 270 L616 750 L584 750 L584 269 C584 115 508 20 359 20 C216 20 134 115 134 269 L134 750 L99 750 L99 270 C99 96 193 -10 359 -10 L359 -10 Z " />
<glyph glyph-name="V" unicode="V" horiz-adv-x="650" d="M307 0 L342 0 L636 728 L636 750 L612 750 L326 40 L40 750 L15 750 L15 725 L307 0 Z " />
<glyph glyph-name="W" unicode="W" horiz-adv-x="968" d="M686 0 L721 0 L945 728 L945 750 L921 750 L705 50 L499 750 L474 750 L264 49 L49 750 L24 750 L24 725 L246 0 L281 0 L484 686 L686 0 Z " />
<glyph glyph-name="X" unicode="X" horiz-adv-x="611" d="M24 0 L45 0 L304 356 L564 0 L587 0 L587 23 L324 383 L576 729 L576 750 L555 750 L306 409 L59 750 L34 750 L34 727 L287 381 L24 21 L24 0 Z " />
<glyph glyph-name="Y" unicode="Y" horiz-adv-x="595" d="M282 0 L317 0 L317 301 L579 729 L579 750 L557 750 L302 333 L32 750 L7 750 L7 727 L282 303 L282 0 Z " />
<glyph glyph-name="Z" unicode="Z" horiz-adv-x="567" d="M534 0 L534 30 L72 30 L529 725 L529 750 L38 750 L38 720 L490 720 L33 25 L33 0 L534 0 Z " />
<glyph glyph-name="bracketleft" unicode="&#x5b;" horiz-adv-x="311" d="M103 -230 L293 -230 L293 -200 L138 -200 L138 720 L293 720 L293 750 L103 750 L103 -230 Z " />
<glyph glyph-name="backslash" unicode="&#x5c;" horiz-adv-x="492" d="M425 -250 L461 -250 L67 819 L31 819 L425 -250 Z " />
<glyph glyph-name="bracketright" unicode="&#x5d;" horiz-adv-x="311" d="M18 -230 L208 -230 L208 750 L18 750 L18 720 L173 720 L173 -200 L18 -200 L18 -230 Z " />
<glyph glyph-name="asciicircum" unicode="&#x5e;" horiz-adv-x="500" d="M412 449 L437 449 L437 474 L265 750 L235 750 L63 474 L63 449 L88 449 L250 712 L412 449 Z " />
<glyph glyph-name="underscore" unicode="&#x5f;" horiz-adv-x="510" d="M0 -157 L510 -157 L510 -127 L0 -127 L0 -157 Z " />
<glyph glyph-name="grave" unicode="&#x60;" horiz-adv-x="277" d="M177 610 L202 610 L202 635 L100 750 L75 750 L75 725 L177 610 Z " />
<glyph glyph-name="a" unicode="a" horiz-adv-x="501" d="M219 -10 C304 -10 364 38 392 119 L395 0 L421 0 L421 309 C421 434 360 500 245 500 C102 500 71 399 71 399 L71 374 L96 374 C96 374 115 470 244 470 C341 470 388 413 388 311 L388 267 C388 267 326 279 249 279 C103 279 45 218 45 136 C45 53 99 -10 219 -10 L219 -10 Z M220 19 C126 19 76 63 76 136 C76 195 114 250 248 250 C332 250 388 238 388 238 L388 204 C388 118 337 19 220 19 L220 19 Z " />
<glyph glyph-name="b" unicode="b" horiz-adv-x="596" d="M312 -10 C449 -10 546 104 546 251 C546 388 445 500 312 500 C215 500 146 440 118 376 L118 750 L85 750 L85 0 L111 0 L118 111 C160 23 241 -10 312 -10 L312 -10 Z M312 20 C249 20 118 54 118 251 C118 371 185 470 312 470 C429 470 513 369 513 251 C513 103 415 20 312 20 L312 20 Z " />
<glyph glyph-name="c" unicode="c" horiz-adv-x="523" d="M283 -10 C438 -10 476 112 476 112 L476 137 L451 137 C451 137 429 20 284 20 C153 20 83 132 83 244 C83 357 153 469 283 469 C425 469 450 354 450 354 L475 354 L475 379 C475 379 439 500 284 500 C145 500 50 386 50 244 C50 101 145 -10 283 -10 L283 -10 Z " />
<glyph glyph-name="d" unicode="d" horiz-adv-x="597" d="M284 -10 C361 -10 431 23 475 111 L485 0 L511 0 L511 750 L478 750 L478 376 C442 474 359 500 284 500 C158 500 50 399 50 246 C50 96 152 -10 284 -10 L284 -10 Z M284 20 C196 20 83 88 83 246 C83 372 168 470 285 470 C409 470 478 373 478 246 C478 76 368 20 284 20 L284 20 Z " />
<glyph glyph-name="e" unicode="e" horiz-adv-x="547" d="M286 -10 C419 -10 472 76 487 112 L487 137 L462 137 C444 73 379 20 286 20 C171 20 89 92 84 241 L497 241 C497 241 499 254 499 285 C499 404 419 500 283 500 C127 500 51 375 51 246 C51 85 141 -10 286 -10 L286 -10 Z M85 271 C96 397 173 470 283 470 C395 470 466 400 466 271 L85 271 Z " />
<glyph glyph-name="f" unicode="f" horiz-adv-x="313" d="M109 0 L142 0 L142 460 L303 460 L303 490 L142 490 L142 599 C142 700 199 730 253 730 C301 730 344 708 356 648 L381 648 L381 673 C369 721 325 760 253 760 C188 760 109 720 109 597 L109 490 L19 490 L19 460 L109 460 L109 0 Z " />
<glyph glyph-name="g" unicode="g" horiz-adv-x="597" d="M285 -260 C433 -260 512 -169 512 30 L512 490 L486 490 L479 376 C443 462 362 500 285 500 C159 500 51 399 51 246 C51 96 153 -10 285 -10 C358 -10 438 24 479 121 L479 30 C479 -159 407 -230 285 -230 C173 -230 115 -169 92 -86 L67 -86 L67 -111 C80 -158 131 -260 285 -260 L285 -260 Z M285 20 C197 20 84 88 84 246 C84 372 169 470 286 470 C410 470 479 373 479 246 C479 76 369 20 285 20 L285 20 Z " />
<glyph glyph-name="h" unicode="h" horiz-adv-x="550" d="M85 0 L118 0 L118 269 C118 399 189 470 286 470 C401 470 438 396 438 268 L438 0 L471 0 L471 283 C471 417 421 500 290 500 C200 500 140 451 118 382 L118 750 L85 750 L85 0 Z " />
<glyph glyph-name="i" unicode="i" horiz-adv-x="205" d="M86 0 L119 0 L119 490 L86 490 L86 0 Z M74 663 L131 663 L131 720 L74 720 L74 663 Z " />
<glyph glyph-name="j" unicode="j" horiz-adv-x="205" d="M14 -260 C78 -260 119 -220 119 -133 L119 500 L86 500 L86 -131 C86 -195 60 -230 14 -230 C-30 -230 -61 -205 -65 -167 L-90 -167 L-90 -192 C-82 -224 -52 -260 14 -260 L14 -260 Z M75 663 L132 663 L132 720 L75 720 L75 663 Z " />
<glyph glyph-name="k" unicode="k" horiz-adv-x="452" d="M85 0 L118 0 L118 252 L414 0 L439 0 L439 25 L162 257 L424 468 L424 490 L402 490 L118 260 L118 750 L85 750 L85 0 Z " />
<glyph glyph-name="l" unicode="l" horiz-adv-x="205" d="M86 0 L119 0 L119 750 L86 750 L86 0 Z " />
<glyph glyph-name="m" unicode="m" horiz-adv-x="785" d="M86 0 L119 0 L119 308 C119 412 183 470 256 470 C340 470 379 410 379 309 L379 0 L412 0 L412 308 C412 424 475 470 543 470 C636 470 672 410 672 317 L672 0 L705 0 L705 317 C705 428 656 500 551 500 C473 500 427 461 398 395 C379 459 344 500 261 500 C193 500 142 464 116 399 L112 490 L86 490 L86 0 Z " />
<glyph glyph-name="n" unicode="n" horiz-adv-x="551" d="M86 0 L119 0 L119 269 C119 399 190 470 287 470 C402 470 439 396 439 268 L439 0 L472 0 L472 283 C472 417 422 500 291 500 C195 500 133 444 115 368 L112 490 L86 490 L86 0 Z " />
<glyph glyph-name="o" unicode="o" horiz-adv-x="568" d="M284 -10 C423 -10 518 103 518 246 C518 389 423 500 284 500 C145 500 50 387 50 244 C50 101 145 -10 284 -10 L284 -10 Z M284 20 C153 20 83 132 83 244 C83 357 153 470 283 470 C415 470 485 358 485 246 C485 133 415 20 284 20 L284 20 Z " />
<glyph glyph-name="p" unicode="p" horiz-adv-x="597" d="M86 -250 L119 -250 L119 111 C161 23 242 -10 313 -10 C450 -10 547 104 547 251 C547 388 446 500 313 500 C216 500 147 440 119 376 L112 490 L86 490 L86 -250 Z M313 20 C250 20 119 54 119 251 C119 371 186 470 313 470 C430 470 514 369 514 251 C514 103 416 20 313 20 L313 20 Z " />
<glyph glyph-name="q" unicode="q" horiz-adv-x="596" d="M478 -250 L511 -250 L511 490 L485 490 L478 376 C442 466 359 500 284 500 C158 500 50 399 50 246 C50 96 152 -10 284 -10 C350 -10 437 19 478 121 L478 -250 Z M284 20 C196 20 83 88 83 246 C83 372 168 470 285 470 C409 470 478 373 478 246 C478 76 368 20 284 20 L284 20 Z " />
<glyph glyph-name="r" unicode="r" horiz-adv-x="408" d="M86 0 L119 0 L119 300 C119 378 146 470 250 470 C310 470 351 441 367 356 L392 356 L392 381 C378 462 326 500 253 500 C184 500 137 462 116 404 L112 490 L86 490 L86 0 Z " />
<glyph glyph-name="s" unicode="s" horiz-adv-x="462" d="M241 -10 C356 -10 409 45 409 118 C409 203 337 234 261 252 L206 265 C135 282 94 305 94 367 C94 427 148 470 230 470 C310 470 360 439 376 366 L401 366 L401 391 C388 458 323 500 230 500 C133 500 61 445 61 367 C61 284 123 254 192 238 L255 223 C330 205 376 181 376 118 C376 63 326 20 241 20 C152 20 98 59 74 133 L49 133 L49 108 C78 34 142 -10 241 -10 L241 -10 Z " />
<glyph glyph-name="t" unicode="t" horiz-adv-x="377" d="M243 -10 C323 -10 360 44 369 97 L369 122 L344 122 C339 72 314 20 244 20 C167 20 133 72 133 155 L133 460 L329 460 L329 490 L133 490 L133 625 L107 625 L104 490 L19 490 L19 460 L100 460 L100 146 C100 40 165 -10 243 -10 L243 -10 Z " />
<glyph glyph-name="u" unicode="u" horiz-adv-x="551" d="M269 -10 C351 -10 409 32 436 108 L439 0 L465 0 L465 490 L432 490 L432 211 C432 71 346 20 269 20 C174 20 112 74 112 212 L112 490 L79 490 L79 197 C79 53 154 -10 269 -10 L269 -10 Z " />
<glyph glyph-name="v" unicode="v" horiz-adv-x="474" d="M253 0 L449 466 L449 490 L425 490 L238 48 L51 490 L25 490 L25 464 L223 0 L253 0 Z " />
<glyph glyph-name="w" unicode="w" horiz-adv-x="713" d="M501 0 L534 0 L682 468 L682 490 L660 490 L519 45 L375 490 L342 490 L197 42 L57 490 L32 490 L32 465 L177 0 L212 0 L357 450 L501 0 Z " />
<glyph glyph-name="x" unicode="x" horiz-adv-x="472" d="M34 0 L55 0 L235 222 L415 0 L438 0 L438 23 L256 248 L435 469 L435 490 L414 490 L237 271 L60 490 L37 490 L37 467 L216 246 L34 21 L34 0 Z " />
<glyph glyph-name="y" unicode="y" horiz-adv-x="483" d="M122 -250 L465 468 L465 490 L443 490 L249 83 L47 490 L24 490 L24 467 L231 47 L100 -228 L100 -250 L122 -250 Z " />
<glyph glyph-name="z" unicode="z" horiz-adv-x="447" d="M409 0 L409 30 L80 30 L404 465 L404 490 L43 490 L43 460 L362 460 L38 25 L38 0 L409 0 Z " />
<glyph glyph-name="braceleft" unicode="&#x7b;" horiz-adv-x="370" d="M348 -232 L348 -207 C205 -207 163 -162 163 -28 L163 54 C163 199 148 241 85 259 C148 277 163 329 163 474 L163 556 C163 679 215 725 368 725 L368 750 C177 750 128 683 128 521 L128 444 C128 293 92 274 18 274 L18 244 C92 244 128 225 128 74 L128 -3 C128 -165 157 -232 348 -232 L348 -232 Z " />
<glyph glyph-name="bar" unicode="&#x7c;" horiz-adv-x="242" d="M121 -250 L139 -230 L139 799 L121 819 L103 799 L103 -230 L121 -250 Z " />
<glyph glyph-name="braceright" unicode="&#x7d;" horiz-adv-x="371" d="M3 -232 C194 -232 243 -165 243 -3 L243 74 C243 225 279 244 353 244 L353 274 C279 274 243 293 243 444 L243 521 C243 683 214 750 23 750 L23 725 C166 725 208 680 208 546 L208 464 C208 319 223 277 286 259 C223 241 208 189 208 44 L208 -38 C208 -161 156 -207 3 -207 L3 -232 Z " />
<glyph glyph-name="asciitilde" unicode="&#x7e;" horiz-adv-x="596" d="M409 218 C474 218 511 259 520 400 L490 400 C480 296 465 253 409 253 C335 253 317 394 211 394 C146 394 90 354 80 222 L110 222 C119 309 148 359 209 359 C293 359 305 218 409 218 L409 218 Z " />
<glyph glyph-name="uni00A0" unicode="&#xa0;" horiz-adv-x="272" d="" />
<glyph glyph-name="exclamdown" unicode="&#xa1;" horiz-adv-x="237" d="M102 398 L128 398 L135 -140 L95 -140 L102 398 Z M90 610 L147 610 L147 553 L90 553 L90 610 Z " />
<glyph glyph-name="cent" unicode="&#xa2;" horiz-adv-x="536" d="M270 -10 L285 -10 C440 -10 478 112 478 112 L478 137 L453 137 C453 137 431 20 286 20 L273 20 L313 467 C430 453 452 354 452 354 L477 354 L477 379 C477 379 446 484 316 498 L329 639 L299 639 L286 500 C147 500 52 386 52 244 C52 117 127 15 240 -6 L228 -143 L258 -143 L270 -10 Z M85 244 C85 357 154 468 284 469 L243 24 C140 46 85 145 85 244 L85 244 Z " />
<glyph glyph-name="sterling" unicode="&#xa3;" horiz-adv-x="566" d="M506 30 L112 30 C169 101 197 182 197 284 C197 299 196 315 194 327 L441 327 L441 357 L187 357 C171 418 140 462 140 555 C140 670 212 730 304 730 C450 730 475 589 475 589 L500 589 L500 614 C500 614 475 760 304 760 C197 760 105 685 105 555 C105 468 132 411 149 357 L51 357 L51 327 L158 327 C160 314 162 298 162 284 C162 174 133 100 60 25 L60 0 L506 0 L506 30 Z " />
<glyph glyph-name="yen" unicode="&#xa5;" horiz-adv-x="647" d="M530 184 L530 214 L347 214 L347 289 L530 289 L530 319 L354 319 L611 729 L611 750 L590 750 L331 340 L59 750 L36 750 L36 727 L305 319 L117 319 L117 289 L311 289 L311 214 L117 214 L117 184 L311 184 L311 0 L347 0 L347 184 L530 184 Z " />
<glyph glyph-name="brokenbar" unicode="&#xa6;" horiz-adv-x="242" d="M101 385 L141 385 L141 799 L121 819 L101 799 L101 385 Z M121 -250 L141 -230 L141 185 L101 185 L101 -230 L121 -250 Z " />
<glyph glyph-name="section" unicode="&#xa7;" horiz-adv-x="538" d="M270 -120 C411 -120 472 -45 472 38 C472 100 447 137 411 163 C455 194 472 229 472 275 C472 357 437 388 325 428 L268 449 C125 500 103 548 103 594 C103 662 152 730 268 730 C425 730 438 589 438 589 L463 589 L463 614 C463 614 452 760 268 760 C146 760 68 690 68 594 C68 542 86 507 128 477 C86 448 68 403 68 367 C68 276 123 238 202 212 L274 188 C414 141 437 109 437 36 C437 -30 385 -90 270 -90 C138 -90 93 0 92 51 L67 51 L67 26 C77 -42 137 -120 270 -120 L270 -120 Z M293 214 L221 239 C121 274 103 317 103 368 C103 405 123 437 155 460 C179 447 208 438 243 425 L295 406 C423 359 437 331 437 276 C437 237 419 202 384 182 C358 195 323 204 293 214 L293 214 Z " />
<glyph glyph-name="dieresis" unicode="&#xa8;" horiz-adv-x="239" d="M3 663 L60 663 L60 720 L3 720 L3 663 Z M195 663 L252 663 L252 720 L195 720 L195 663 Z " />
<glyph glyph-name="copyright" unicode="&#xa9;" horiz-adv-x="1042" d="M521 -210 C790 -210 990 -1 990 254 C990 508 790 716 521 716 C253 716 52 508 52 254 C52 -1 253 -210 521 -210 L521 -210 Z M521 -180 C275 -180 87 9 87 254 C87 498 275 686 521 686 C768 686 955 498 955 254 C955 9 768 -180 521 -180 L521 -180 Z M524 -10 C679 -10 721 89 721 89 L721 114 L696 114 C696 114 661 25 524 25 C398 25 314 119 314 252 C314 376 383 476 523 476 C660 476 692 390 692 390 L717 390 L717 415 C717 415 674 511 523 511 C365 511 274 404 274 252 C274 104 364 -10 524 -10 L524 -10 Z " />
<glyph glyph-name="ordfeminine" unicode="&#xaa;" horiz-adv-x="453" d="M193 304 C271 304 321 343 343 396 L347 313 L373 313 L373 611 C373 732 299 760 226 760 C93 760 77 653 77 653 L77 628 L102 628 C102 628 104 730 224 730 C305 730 340 676 340 610 L340 551 C340 551 290 563 235 563 C115 563 57 503 57 429 C57 349 106 304 193 304 L193 304 Z M204 333 C125 333 90 367 90 428 C90 491 145 533 235 533 C294 533 340 522 340 522 L340 475 C340 392 276 333 204 333 L204 333 Z " />
<glyph glyph-name="guillemotleft" unicode="&#xab;" horiz-adv-x="501" d="M263 60 L263 85 L92 273 L263 459 L263 480 L238 480 L47 270 L238 60 L263 60 Z M443 60 L443 85 L272 273 L443 459 L443 480 L418 480 L227 270 L418 60 L443 60 Z " />
<glyph glyph-name="uni00AD" unicode="&#xad;" horiz-adv-x="416" d="M73 313 L343 313 L343 343 L73 343 L73 313 Z " />
<glyph glyph-name="registered" unicode="&#xae;" horiz-adv-x="714" d="M357 148 C520 148 655 283 655 454 C655 625 520 760 357 760 C194 760 59 625 59 454 C59 283 194 148 357 148 L357 148 Z M357 178 C208 178 94 306 94 454 C94 602 208 729 357 729 C506 729 620 602 620 454 C620 306 506 178 357 178 L357 178 Z M299 428 L351 428 L452 300 L475 300 L475 322 L389 437 C430 451 456 477 456 522 C456 572 425 613 352 613 L268 613 L268 300 L299 300 L299 428 Z M299 457 L299 587 L350 587 C397 587 425 554 425 522 C425 490 398 457 350 457 L299 457 Z " />
<glyph glyph-name="macron" unicode="&#xaf;" horiz-adv-x="360" d="M75 670 L285 670 L285 700 L75 700 L75 670 Z " />
<glyph glyph-name="degree" unicode="&#xb0;" horiz-adv-x="426" d="M213 439 C308 439 375 511 375 599 C375 687 308 760 213 760 C118 760 51 687 51 599 C51 511 118 439 213 439 L213 439 Z M213 469 C136 469 86 532 86 599 C86 664 136 730 213 730 C292 730 340 664 340 599 C340 532 293 469 213 469 L213 469 Z " />
<glyph glyph-name="plusminus" unicode="&#xb1;" horiz-adv-x="560" d="M474 401 L474 431 L295 431 L295 629 L264 629 L264 431 L86 431 L86 401 L264 401 L264 205 L295 205 L295 401 L474 401 Z M86 95 L474 95 L474 125 L86 125 L86 95 Z " />
<glyph glyph-name="acute" unicode="&#xb4;" horiz-adv-x="277" d="M75 610 L100 610 L202 725 L202 750 L177 750 L75 635 L75 610 Z " />
<glyph glyph-name="paragraph" unicode="&#xb6;" horiz-adv-x="560" d="M264 -96 L299 -96 L299 720 L409 720 L409 -96 L444 -96 L444 750 L259 750 C106 750 37 670 37 557 C37 437 122 367 244 367 L264 367 L264 -96 Z " />
<glyph glyph-name="periodcentered" unicode="&#xb7;" horiz-adv-x="203" d="M73 250 L130 250 L130 307 L73 307 L73 250 Z " />
<glyph glyph-name="cedilla" unicode="&#xb8;" horiz-adv-x="257" d="M75 -184 L98 -184 C151 -177 182 -147 182 -109 C182 -69 157 -45 109 -40 L109 0 L79 0 L79 -63 C124 -63 152 -78 152 -109 C152 -140 125 -154 75 -154 L75 -184 Z " />
<glyph glyph-name="ordmasculine" unicode="&#xba;" horiz-adv-x="511" d="M256 304 C385 304 459 407 459 533 C459 659 385 760 256 760 C125 760 52 659 52 533 C52 407 125 304 256 304 L256 304 Z M256 334 C153 334 85 408 85 533 C85 656 153 730 256 730 C358 730 426 656 426 533 C426 408 358 334 256 334 L256 334 Z " />
<glyph glyph-name="guillemotright" unicode="&#xbb;" horiz-adv-x="500" d="M82 60 L273 270 L82 480 L57 480 L57 455 L228 268 L57 80 L57 60 L82 60 Z M262 60 L453 270 L262 480 L237 480 L237 455 L408 268 L237 80 L237 60 L262 60 Z " />
<glyph glyph-name="onequarter" unicode="&#xbc;" horiz-adv-x="820" d="M175 -40 L211 -40 L680 790 L644 790 L175 -40 Z M228 300 L228 750 L205 750 L35 610 L35 585 L60 585 L195 696 L195 300 L228 300 Z M781 54 L781 84 L710 84 L710 376 L677 376 L447 67 L447 54 L677 54 L677 -80 L710 -80 L710 54 L781 54 Z M677 84 L499 84 L677 328 L677 84 Z " />
<glyph glyph-name="onehalf" unicode="&#xbd;" horiz-adv-x="866" d="M175 -40 L211 -40 L680 790 L644 790 L175 -40 Z M195 300 L228 300 L228 750 L205 750 L35 610 L35 585 L60 585 L195 696 L195 300 Z M820 -80 L820 -45 L596 -45 L690 39 C766 108 814 165 814 242 C814 328 765 376 677 376 C559 376 546 279 539 268 L539 243 L564 243 C573 298 604 346 677 346 C744 346 781 305 781 242 C781 187 749 135 668 62 L543 -50 L543 -80 L820 -80 Z " />
<glyph glyph-name="threequarters" unicode="&#xbe;" horiz-adv-x="907" d="M264 -40 L300 -40 L769 790 L733 790 L264 -40 Z M206 296 C318 296 358 357 358 422 C358 468 328 521 254 531 C312 547 334 597 334 637 C334 714 285 756 202 756 C106 756 65 694 54 645 L54 620 L79 620 C88 678 125 725 203 726 C260 727 301 698 301 636 C301 598 286 543 206 543 L165 543 L165 513 L212 513 C299 513 325 457 325 422 C325 353 271 326 206 326 C132 326 82 369 74 432 L49 432 L49 407 C59 363 99 296 206 296 L206 296 Z M870 54 L870 84 L799 84 L799 376 L766 376 L536 67 L536 54 L766 54 L766 -80 L799 -80 L799 54 L870 54 Z M766 84 L588 84 L766 328 L766 84 Z " />
<glyph glyph-name="questiondown" unicode="&#xbf;" horiz-adv-x="483" d="M291 398 L258 398 C264 383 266 369 266 356 C266 245 39 203 39 30 C39 -72 102 -150 237 -150 C418 -150 444 6 444 6 L444 31 L419 31 C419 31 400 -120 237 -120 C130 -120 74 -49 74 30 C74 189 300 230 300 353 C300 367 297 383 291 398 L291 398 Z M304 610 L247 610 L247 553 L304 553 L304 610 Z " />
<glyph glyph-name="Agrave" unicode="&#xc0;" horiz-adv-x="621" d="M41 0 L137 253 L479 253 L575 0 L600 0 L600 30 L328 750 L293 750 L19 27 L19 0 L41 0 Z M467 282 L148 282 L308 709 L467 282 Z M297 805 L322 805 L322 830 L200 945 L175 945 L175 920 L297 805 Z " />
<glyph glyph-name="Aacute" unicode="&#xc1;" horiz-adv-x="621" d="M41 0 L137 253 L479 253 L575 0 L600 0 L600 30 L328 750 L293 750 L19 27 L19 0 L41 0 Z M467 282 L148 282 L308 709 L467 282 Z M297 805 L322 805 L444 920 L444 945 L419 945 L297 830 L297 805 Z " />
<glyph glyph-name="Acircumflex" unicode="&#xc2;" horiz-adv-x="621" d="M41 0 L137 253 L479 253 L575 0 L600 0 L600 30 L328 750 L293 750 L19 27 L19 0 L41 0 Z M467 282 L148 282 L308 709 L467 282 Z M399 825 L424 825 L424 850 L322 945 L292 945 L190 850 L190 825 L215 825 L307 911 L399 825 Z " />
<glyph glyph-name="Atilde" unicode="&#xc3;" horiz-adv-x="621" d="M41 0 L137 253 L479 253 L575 0 L600 0 L600 30 L328 750 L293 750 L19 27 L19 0 L41 0 Z M467 282 L148 282 L308 709 L467 282 Z M380 834 C420 834 442 864 442 922 L412 922 C412 877 398 864 376 864 C332 864 328 927 261 927 C215 927 189 887 189 839 L219 839 C219 877 241 897 264 897 C311 897 313 834 380 834 L380 834 Z " />
<glyph glyph-name="Adieresis" unicode="&#xc4;" horiz-adv-x="621" d="M41 0 L137 253 L479 253 L575 0 L600 0 L600 30 L328 750 L293 750 L19 27 L19 0 L41 0 Z M467 282 L148 282 L308 709 L467 282 Z M174 853 L234 853 L234 913 L174 913 L174 853 Z M383 853 L443 853 L443 913 L383 913 L383 853 Z " />
<glyph glyph-name="Aring" unicode="&#xc5;" horiz-adv-x="621" d="M41 0 L137 253 L479 253 L575 0 L600 0 L600 30 L328 750 L293 750 L19 27 L19 0 L41 0 Z M467 282 L148 282 L308 709 L467 282 Z M308 808 C353 808 386 839 386 882 C386 925 353 955 308 955 C263 955 230 925 230 882 C230 839 263 808 308 808 L308 808 Z M308 838 C285 838 263 854 263 882 C263 908 285 925 308 925 C332 925 353 908 353 882 C353 854 332 838 308 838 L308 838 Z " />
<glyph glyph-name="AE" unicode="&#xc6;" horiz-adv-x="905" d="M-3 22 L-3 0 L19 0 L169 253 L447 253 L447 0 L848 0 L848 30 L482 30 L482 376 L808 376 L808 406 L482 406 L482 720 L848 720 L848 750 L435 750 L-3 22 Z M190 283 L447 715 L447 283 L190 283 Z " />
<glyph glyph-name="Ccedilla" unicode="&#xc7;" horiz-adv-x="736" d="M498 -109 C498 -69 473 -45 425 -40 L425 -10 C629 -4 695 141 695 141 L695 166 L670 166 C670 166 613 20 413 20 C222 20 91 170 91 378 C91 571 202 730 412 730 C613 730 665 589 665 589 L690 589 L690 614 C690 614 628 760 412 760 C186 760 56 602 56 378 C56 163 178 -1 395 -10 L395 -63 C440 -63 468 -78 468 -109 C468 -140 441 -154 391 -154 L391 -184 L414 -184 C467 -177 498 -147 498 -109 L498 -109 Z " />
<glyph glyph-name="Egrave" unicode="&#xc8;" horiz-adv-x="567" d="M109 0 L510 0 L510 30 L144 30 L144 376 L470 376 L470 406 L144 406 L144 720 L510 720 L510 750 L109 750 L109 0 Z M304 805 L329 805 L329 830 L207 945 L182 945 L182 920 L304 805 Z " />
<glyph glyph-name="Eacute" unicode="&#xc9;" horiz-adv-x="567" d="M109 0 L510 0 L510 30 L144 30 L144 376 L470 376 L470 406 L144 406 L144 720 L510 720 L510 750 L109 750 L109 0 Z M280 805 L305 805 L427 920 L427 945 L402 945 L280 830 L280 805 Z " />
<glyph glyph-name="Ecircumflex" unicode="&#xca;" horiz-adv-x="567" d="M109 0 L510 0 L510 30 L144 30 L144 376 L470 376 L470 406 L144 406 L144 720 L510 720 L510 750 L109 750 L109 0 Z M401 825 L426 825 L426 850 L324 945 L294 945 L192 850 L192 825 L217 825 L309 911 L401 825 Z " />
<glyph glyph-name="Edieresis" unicode="&#xcb;" horiz-adv-x="567" d="M109 0 L510 0 L510 30 L144 30 L144 376 L470 376 L470 406 L144 406 L144 720 L510 720 L510 750 L109 750 L109 0 Z M167 853 L227 853 L227 913 L167 913 L167 853 Z M376 853 L436 853 L436 913 L376 913 L376 853 Z " />
<glyph glyph-name="Igrave" unicode="&#xcc;" horiz-adv-x="253" d="M109 0 L144 0 L144 750 L109 750 L109 0 Z M118 805 L143 805 L143 830 L21 945 L-4 945 L-4 920 L118 805 Z " />
<glyph glyph-name="Iacute" unicode="&#xcd;" horiz-adv-x="253" d="M109 0 L144 0 L144 750 L109 750 L109 0 Z M115 805 L140 805 L262 920 L262 945 L237 945 L115 830 L115 805 Z " />
<glyph glyph-name="Icircumflex" unicode="&#xce;" horiz-adv-x="253" d="M219 825 L244 825 L244 850 L142 945 L112 945 L10 850 L10 825 L35 825 L127 911 L219 825 Z M109 0 L144 0 L144 750 L109 750 L109 0 Z " />
<glyph glyph-name="Idieresis" unicode="&#xcf;" horiz-adv-x="253" d="M-8 853 L52 853 L52 913 L-8 913 L-8 853 Z M201 853 L261 853 L261 913 L201 913 L201 853 Z M109 0 L144 0 L144 750 L109 750 L109 0 Z " />
<glyph glyph-name="Eth" unicode="&#xd0;" horiz-adv-x="746" d="M692 378 C692 583 547 750 313 750 L110 750 L110 398 L20 398 L20 368 L110 368 L110 0 L313 0 C547 0 692 170 692 378 L692 378 Z M145 30 L145 368 L279 368 L279 398 L145 398 L145 720 L310 720 C506 720 657 583 657 378 C657 169 506 30 310 30 L145 30 Z " />
<glyph glyph-name="Ntilde" unicode="&#xd1;" horiz-adv-x="742" d="M109 0 L141 0 L141 691 L601 0 L633 0 L633 750 L601 750 L601 59 L141 750 L109 750 L109 0 Z M448 834 C488 834 510 864 510 922 L480 922 C480 877 466 864 444 864 C400 864 396 927 329 927 C283 927 257 887 257 839 L287 839 C287 877 309 897 332 897 C379 897 381 834 448 834 L448 834 Z " />
<glyph glyph-name="Ograve" unicode="&#xd2;" horiz-adv-x="826" d="M413 -10 C636 -10 770 155 770 378 C770 598 636 760 413 760 C190 760 56 598 56 378 C56 155 190 -10 413 -10 L413 -10 Z M413 20 C213 20 91 174 91 378 C91 578 213 730 413 730 C613 730 735 578 735 378 C735 174 613 20 413 20 L413 20 Z M401 805 L426 805 L426 830 L304 945 L279 945 L279 920 L401 805 Z " />
<glyph glyph-name="Oacute" unicode="&#xd3;" horiz-adv-x="826" d="M413 -10 C636 -10 770 155 770 378 C770 598 636 760 413 760 C190 760 56 598 56 378 C56 155 190 -10 413 -10 L413 -10 Z M413 20 C213 20 91 174 91 378 C91 578 213 730 413 730 C613 730 735 578 735 378 C735 174 613 20 413 20 L413 20 Z M395 805 L420 805 L542 920 L542 945 L517 945 L395 830 L395 805 Z " />
<glyph glyph-name="Ocircumflex" unicode="&#xd4;" horiz-adv-x="826" d="M413 -10 C636 -10 770 155 770 378 C770 598 636 760 413 760 C190 760 56 598 56 378 C56 155 190 -10 413 -10 L413 -10 Z M413 20 C213 20 91 174 91 378 C91 578 213 730 413 730 C613 730 735 578 735 378 C735 174 613 20 413 20 L413 20 Z M507 825 L532 825 L532 850 L430 945 L400 945 L298 850 L298 825 L323 825 L415 911 L507 825 Z " />
<glyph glyph-name="Otilde" unicode="&#xd5;" horiz-adv-x="826" d="M413 -10 C636 -10 770 155 770 378 C770 598 636 760 413 760 C190 760 56 598 56 378 C56 155 190 -10 413 -10 L413 -10 Z M413 20 C213 20 91 174 91 378 C91 578 213 730 413 730 C613 730 735 578 735 378 C735 174 613 20 413 20 L413 20 Z M473 834 C513 834 535 864 535 922 L505 922 C505 877 491 864 469 864 C425 864 421 927 354 927 C308 927 282 887 282 839 L312 839 C312 877 334 897 357 897 C404 897 406 834 473 834 L473 834 Z " />
<glyph glyph-name="Odieresis" unicode="&#xd6;" horiz-adv-x="826" d="M413 -10 C636 -10 770 155 770 378 C770 598 636 760 413 760 C190 760 56 598 56 378 C56 155 190 -10 413 -10 L413 -10 Z M413 20 C213 20 91 174 91 378 C91 578 213 730 413 730 C613 730 735 578 735 378 C735 174 613 20 413 20 L413 20 Z M273 853 L333 853 L333 913 L273 913 L273 853 Z M482 853 L542 853 L542 913 L482 913 L482 853 Z " />
<glyph glyph-name="multiply" unicode="&#xd7;" horiz-adv-x="480" d="M389 146 L411 168 L260 317 L408 462 L386 484 L240 337 L94 485 L72 463 L220 317 L69 168 L91 146 L240 297 L389 146 Z " />
<glyph glyph-name="Oslash" unicode="&#xd8;" horiz-adv-x="826" d="M413 -10 C636 -10 770 155 770 378 C770 500 726 604 651 673 L737 790 L697 790 L628 696 C571 737 498 760 413 760 C190 760 56 598 56 378 C56 254 100 148 176 78 L89 -40 L129 -40 L199 55 C255 14 329 -10 413 -10 L413 -10 Z M91 378 C91 578 213 730 413 730 C489 730 557 704 607 666 L197 104 C132 169 91 261 91 378 L91 378 Z M413 20 C337 20 270 47 220 85 L631 647 C696 583 735 492 735 378 C735 174 613 20 413 20 L413 20 Z " />
<glyph glyph-name="Ugrave" unicode="&#xd9;" horiz-adv-x="715" d="M359 -10 C525 -10 616 96 616 270 L616 750 L584 750 L584 269 C584 115 508 20 359 20 C216 20 134 115 134 269 L134 750 L99 750 L99 270 C99 96 193 -10 359 -10 L359 -10 Z M354 805 L379 805 L379 830 L257 945 L232 945 L232 920 L354 805 Z " />
<glyph glyph-name="Uacute" unicode="&#xda;" horiz-adv-x="715" d="M359 -10 C525 -10 616 96 616 270 L616 750 L584 750 L584 269 C584 115 508 20 359 20 C216 20 134 115 134 269 L134 750 L99 750 L99 270 C99 96 193 -10 359 -10 L359 -10 Z M350 805 L375 805 L497 920 L497 945 L472 945 L350 830 L350 805 Z " />
<glyph glyph-name="Ucircumflex" unicode="&#xdb;" horiz-adv-x="715" d="M359 -10 C525 -10 616 96 616 270 L616 750 L584 750 L584 269 C584 115 508 20 359 20 C216 20 134 115 134 269 L134 750 L99 750 L99 270 C99 96 193 -10 359 -10 L359 -10 Z M451 825 L476 825 L476 850 L374 945 L344 945 L242 850 L242 825 L267 825 L359 911 L451 825 Z " />
<glyph glyph-name="Udieresis" unicode="&#xdc;" horiz-adv-x="715" d="M359 -10 C525 -10 616 96 616 270 L616 750 L584 750 L584 269 C584 115 508 20 359 20 C216 20 134 115 134 269 L134 750 L99 750 L99 270 C99 96 193 -10 359 -10 L359 -10 Z M222 853 L282 853 L282 913 L222 913 L222 853 Z M431 853 L491 853 L491 913 L431 913 L431 853 Z " />
<glyph glyph-name="Yacute" unicode="&#xdd;" horiz-adv-x="595" d="M282 0 L317 0 L317 301 L579 729 L579 750 L557 750 L302 333 L32 750 L7 750 L7 727 L282 303 L282 0 Z M284 805 L309 805 L431 920 L431 945 L406 945 L284 830 L284 805 Z " />
<glyph glyph-name="Thorn" unicode="&#xde;" horiz-adv-x="584" d="M109 0 L144 0 L144 124 C393 124 549 206 549 376 C549 547 391 630 144 630 L144 750 L109 750 L109 0 Z M144 154 L144 600 C371 600 514 530 514 376 C514 204 344 154 144 154 L144 154 Z " />
<glyph glyph-name="germandbls" unicode="&#xdf;" horiz-adv-x="545" d="M295 -10 C442 -10 496 87 496 188 C496 282 448 359 321 383 C404 408 453 477 453 580 C453 693 386 760 273 760 C154 760 85 685 85 538 L85 0 L118 0 L118 540 C118 656 167 730 273 730 C360 730 420 677 420 577 C420 475 355 396 234 393 L234 363 C419 361 463 266 463 191 C463 65 390 20 295 20 C258 20 231 25 204 32 L204 0 C231 -6 258 -10 295 -10 L295 -10 Z " />
<glyph glyph-name="agrave" unicode="&#xe0;" horiz-adv-x="501" d="M219 -10 C304 -10 364 38 392 119 L395 0 L421 0 L421 309 C421 434 360 500 245 500 C102 500 71 399 71 399 L71 374 L96 374 C96 374 115 470 244 470 C341 470 388 413 388 311 L388 267 C388 267 326 279 249 279 C103 279 45 218 45 136 C45 53 99 -10 219 -10 L219 -10 Z M220 19 C126 19 76 63 76 136 C76 195 114 250 248 250 C332 250 388 238 388 238 L388 204 C388 118 337 19 220 19 L220 19 Z M236 610 L261 610 L261 635 L159 750 L134 750 L134 725 L236 610 Z " />
<glyph glyph-name="aacute" unicode="&#xe1;" horiz-adv-x="501" d="M219 -10 C304 -10 364 38 392 119 L395 0 L421 0 L421 309 C421 434 360 500 245 500 C102 500 71 399 71 399 L71 374 L96 374 C96 374 115 470 244 470 C341 470 388 413 388 311 L388 267 C388 267 326 279 249 279 C103 279 45 218 45 136 C45 53 99 -10 219 -10 L219 -10 Z M220 19 C126 19 76 63 76 136 C76 195 114 250 248 250 C332 250 388 238 388 238 L388 204 C388 118 337 19 220 19 L220 19 Z M224 610 L249 610 L351 725 L351 750 L326 750 L224 635 L224 610 Z " />
<glyph glyph-name="acircumflex" unicode="&#xe2;" horiz-adv-x="501" d="M219 -10 C304 -10 364 38 392 119 L395 0 L421 0 L421 309 C421 434 360 500 245 500 C102 500 71 399 71 399 L71 374 L96 374 C96 374 115 470 244 470 C341 470 388 413 388 311 L388 267 C388 267 326 279 249 279 C103 279 45 218 45 136 C45 53 99 -10 219 -10 L219 -10 Z M220 19 C126 19 76 63 76 136 C76 195 114 250 248 250 C332 250 388 238 388 238 L388 204 C388 118 337 19 220 19 L220 19 Z M338 610 L363 610 L363 635 L261 750 L231 750 L129 635 L129 610 L154 610 L246 714 L338 610 Z " />
<glyph glyph-name="atilde" unicode="&#xe3;" horiz-adv-x="501" d="M219 -10 C304 -10 364 38 392 119 L395 0 L421 0 L421 309 C421 434 360 500 245 500 C102 500 71 399 71 399 L71 374 L96 374 C96 374 115 470 244 470 C341 470 388 413 388 311 L388 267 C388 267 326 279 249 279 C103 279 45 218 45 136 C45 53 99 -10 219 -10 L219 -10 Z M220 19 C126 19 76 63 76 136 C76 195 114 250 248 250 C332 250 388 238 388 238 L388 204 C388 118 337 19 220 19 L220 19 Z M314 639 C354 639 376 669 376 727 L346 727 C346 682 332 669 310 669 C266 669 262 732 195 732 C149 732 123 692 123 644 L153 644 C153 682 175 702 198 702 C245 702 247 639 314 639 L314 639 Z " />
<glyph glyph-name="adieresis" unicode="&#xe4;" horiz-adv-x="501" d="M219 -10 C304 -10 364 38 392 119 L395 0 L421 0 L421 309 C421 434 360 500 245 500 C102 500 71 399 71 399 L71 374 L96 374 C96 374 115 470 244 470 C341 470 388 413 388 311 L388 267 C388 267 326 279 249 279 C103 279 45 218 45 136 C45 53 99 -10 219 -10 L219 -10 Z M220 19 C126 19 76 63 76 136 C76 195 114 250 248 250 C332 250 388 238 388 238 L388 204 C388 118 337 19 220 19 L220 19 Z M121 663 L178 663 L178 720 L121 720 L121 663 Z M313 663 L370 663 L370 720 L313 720 L313 663 Z " />
<glyph glyph-name="aring" unicode="&#xe5;" horiz-adv-x="501" d="M219 -10 C304 -10 364 38 392 119 L395 0 L421 0 L421 309 C421 434 360 500 245 500 C102 500 71 399 71 399 L71 374 L96 374 C96 374 115 470 244 470 C341 470 388 413 388 311 L388 267 C388 267 326 279 249 279 C103 279 45 218 45 136 C45 53 99 -10 219 -10 L219 -10 Z M220 19 C126 19 76 63 76 136 C76 195 114 250 248 250 C332 250 388 238 388 238 L388 204 C388 118 337 19 220 19 L220 19 Z M249 613 C294 613 327 644 327 687 C327 730 294 760 249 760 C204 760 171 730 171 687 C171 644 204 613 249 613 L249 613 Z M249 643 C226 643 204 659 204 687 C204 713 226 730 249 730 C273 730 294 713 294 687 C294 659 273 643 249 643 L249 643 Z " />
<glyph glyph-name="ae" unicode="&#xe6;" horiz-adv-x="893" d="M642 -10 C765 -10 818 76 833 112 L833 137 L808 137 C790 73 725 20 642 20 C537 20 455 92 450 241 L843 241 C843 241 845 254 845 285 C845 404 765 500 639 500 C544 500 479 447 445 374 C425 457 360 500 267 500 C104 500 70 399 70 399 L70 374 L95 374 C95 374 117 470 266 470 C363 470 417 413 417 311 L417 271 L258 271 C112 271 44 213 44 131 C44 48 98 -10 215 -10 C295 -10 391 30 433 137 C465 43 541 -10 642 -10 L642 -10 Z M451 271 C462 397 539 470 639 470 C741 470 812 400 812 271 L451 271 Z M213 19 C125 19 75 58 75 131 C75 190 123 241 257 241 L417 241 L417 204 C417 109 336 19 213 19 L213 19 Z " />
<glyph glyph-name="ccedilla" unicode="&#xe7;" horiz-adv-x="523" d="M369 -109 C369 -69 344 -45 296 -40 L296 -10 C440 -3 476 112 476 112 L476 137 L451 137 C451 137 429 20 284 20 C153 20 83 132 83 244 C83 357 153 469 283 469 C425 469 450 354 450 354 L475 354 L475 379 C475 379 439 500 284 500 C145 500 50 386 50 244 C50 107 137 -1 266 -9 L266 -63 C311 -63 339 -78 339 -109 C339 -140 312 -154 262 -154 L262 -184 L285 -184 C338 -177 369 -147 369 -109 L369 -109 Z " />
<glyph glyph-name="egrave" unicode="&#xe8;" horiz-adv-x="547" d="M286 -10 C419 -10 472 76 487 112 L487 137 L462 137 C444 73 379 20 286 20 C171 20 89 92 84 241 L497 241 C497 241 499 254 499 285 C499 404 419 500 283 500 C127 500 51 375 51 246 C51 85 141 -10 286 -10 L286 -10 Z M85 271 C96 397 173 470 283 470 C395 470 466 400 466 271 L85 271 Z M268 610 L293 610 L293 635 L191 750 L166 750 L166 725 L268 610 Z " />
<glyph glyph-name="eacute" unicode="&#xe9;" horiz-adv-x="547" d="M286 -10 C419 -10 472 76 487 112 L487 137 L462 137 C444 73 379 20 286 20 C171 20 89 92 84 241 L497 241 C497 241 499 254 499 285 C499 404 419 500 283 500 C127 500 51 375 51 246 C51 85 141 -10 286 -10 L286 -10 Z M85 271 C96 397 173 470 283 470 C395 470 466 400 466 271 L85 271 Z M254 610 L279 610 L381 725 L381 750 L356 750 L254 635 L254 610 Z " />
<glyph glyph-name="ecircumflex" unicode="&#xea;" horiz-adv-x="547" d="M286 -10 C419 -10 472 76 487 112 L487 137 L462 137 C444 73 379 20 286 20 C171 20 89 92 84 241 L497 241 C497 241 499 254 499 285 C499 404 419 500 283 500 C127 500 51 375 51 246 C51 85 141 -10 286 -10 L286 -10 Z M85 271 C96 397 173 470 283 470 C395 470 466 400 466 271 L85 271 Z M375 610 L400 610 L400 635 L298 750 L268 750 L166 635 L166 610 L191 610 L283 714 L375 610 Z " />
<glyph glyph-name="edieresis" unicode="&#xeb;" horiz-adv-x="547" d="M286 -10 C419 -10 472 76 487 112 L487 137 L462 137 C444 73 379 20 286 20 C171 20 89 92 84 241 L497 241 C497 241 499 254 499 285 C499 404 419 500 283 500 C127 500 51 375 51 246 C51 85 141 -10 286 -10 L286 -10 Z M85 271 C96 397 173 470 283 470 C395 470 466 400 466 271 L85 271 Z M147 663 L204 663 L204 720 L147 720 L147 663 Z M339 663 L396 663 L396 720 L339 720 L339 663 Z " />
<glyph glyph-name="igrave" unicode="&#xec;" horiz-adv-x="206" d="M87 0 L120 0 L120 490 L87 490 L87 0 Z M92 610 L117 610 L117 635 L15 750 L-10 750 L-10 725 L92 610 Z " />
<glyph glyph-name="iacute" unicode="&#xed;" horiz-adv-x="206" d="M86 0 L119 0 L119 490 L86 490 L86 0 Z M92 610 L117 610 L219 725 L219 750 L194 750 L92 635 L92 610 Z " />
<glyph glyph-name="icircumflex" unicode="&#xee;" horiz-adv-x="207" d="M87 0 L120 0 L120 490 L87 490 L87 0 Z M195 610 L220 610 L220 635 L118 750 L88 750 L-14 635 L-14 610 L11 610 L103 714 L195 610 Z " />
<glyph glyph-name="idieresis" unicode="&#xef;" horiz-adv-x="207" d="M87 0 L120 0 L120 490 L87 490 L87 0 Z M-21 663 L36 663 L36 720 L-21 720 L-21 663 Z M171 663 L228 663 L228 720 L171 720 L171 663 Z " />
<glyph glyph-name="eth" unicode="&#xf0;" horiz-adv-x="586" d="M285 -10 C438 -10 519 98 519 308 C519 469 470 579 392 649 L490 704 L490 734 L371 668 C314 712 243 738 167 750 L142 750 L142 725 C223 716 290 692 344 652 L194 569 L194 539 L366 635 C439 571 482 474 492 348 C456 468 356 490 280 490 C139 490 51 384 51 241 C51 98 140 -10 285 -10 L285 -10 Z M285 20 C150 20 84 124 84 241 C84 356 149 460 280 460 C429 460 486 356 486 245 C486 134 430 20 285 20 L285 20 Z " />
<glyph glyph-name="ntilde" unicode="&#xf1;" horiz-adv-x="551" d="M86 0 L119 0 L119 269 C119 399 190 470 287 470 C402 470 439 396 439 268 L439 0 L472 0 L472 283 C472 417 422 500 291 500 C195 500 133 444 115 368 L112 490 L86 490 L86 0 Z M337 639 C377 639 399 669 399 727 L369 727 C369 682 355 669 333 669 C289 669 285 732 218 732 C172 732 146 692 146 644 L176 644 C176 682 198 702 221 702 C268 702 270 639 337 639 L337 639 Z " />
<glyph glyph-name="ograve" unicode="&#xf2;" horiz-adv-x="568" d="M284 -10 C423 -10 518 103 518 246 C518 389 423 500 284 500 C145 500 50 387 50 244 C50 101 145 -10 284 -10 L284 -10 Z M284 20 C153 20 83 132 83 244 C83 357 153 470 283 470 C415 470 485 358 485 246 C485 133 415 20 284 20 L284 20 Z M273 610 L298 610 L298 635 L196 750 L171 750 L171 725 L273 610 Z " />
<glyph glyph-name="oacute" unicode="&#xf3;" horiz-adv-x="568" d="M267 610 L292 610 L394 725 L394 750 L369 750 L267 635 L267 610 Z M284 -10 C423 -10 518 103 518 246 C518 389 423 500 284 500 C145 500 50 387 50 244 C50 101 145 -10 284 -10 L284 -10 Z M284 20 C153 20 83 132 83 244 C83 357 153 470 283 470 C415 470 485 358 485 246 C485 133 415 20 284 20 L284 20 Z " />
<glyph glyph-name="ocircumflex" unicode="&#xf4;" horiz-adv-x="568" d="M378 610 L403 610 L403 635 L301 750 L271 750 L169 635 L169 610 L194 610 L286 714 L378 610 Z M284 -10 C423 -10 518 103 518 246 C518 389 423 500 284 500 C145 500 50 387 50 244 C50 101 145 -10 284 -10 L284 -10 Z M284 20 C153 20 83 132 83 244 C83 357 153 470 283 470 C415 470 485 358 485 246 C485 133 415 20 284 20 L284 20 Z " />
<glyph glyph-name="otilde" unicode="&#xf5;" horiz-adv-x="568" d="M346 639 C386 639 408 669 408 727 L378 727 C378 682 364 669 342 669 C298 669 294 732 227 732 C181 732 155 692 155 644 L185 644 C185 682 207 702 230 702 C277 702 279 639 346 639 L346 639 Z M284 -10 C423 -10 518 103 518 246 C518 389 423 500 284 500 C145 500 50 387 50 244 C50 101 145 -10 284 -10 L284 -10 Z M284 20 C153 20 83 132 83 244 C83 357 153 470 283 470 C415 470 485 358 485 246 C485 133 415 20 284 20 L284 20 Z " />
<glyph glyph-name="odieresis" unicode="&#xf6;" horiz-adv-x="568" d="M160 663 L217 663 L217 720 L160 720 L160 663 Z M352 663 L409 663 L409 720 L352 720 L352 663 Z M284 -10 C423 -10 518 103 518 246 C518 389 423 500 284 500 C145 500 50 387 50 244 C50 101 145 -10 284 -10 L284 -10 Z M284 20 C153 20 83 132 83 244 C83 357 153 470 283 470 C415 470 485 358 485 246 C485 133 415 20 284 20 L284 20 Z " />
<glyph glyph-name="divide" unicode="&#xf7;" horiz-adv-x="555" d="M248 505 L305 505 L305 562 L248 562 L248 505 Z M83 333 L471 333 L471 363 L83 363 L83 333 Z M248 133 L305 133 L305 190 L248 190 L248 133 Z " />
<glyph glyph-name="oslash" unicode="&#xf8;" horiz-adv-x="568" d="M284 -10 C423 -10 518 103 518 246 C518 325 489 395 439 441 L516 550 L480 550 L416 459 C380 485 335 500 284 500 C145 500 50 387 50 244 C50 165 79 95 129 49 L52 -60 L88 -60 L152 31 C188 5 233 -10 284 -10 L284 -10 Z M83 244 C83 357 153 470 283 470 C329 470 368 456 398 434 L147 76 C105 119 83 181 83 244 L83 244 Z M284 20 C238 20 200 34 170 56 L421 414 C463 371 485 309 485 246 C485 133 415 20 284 20 L284 20 Z " />
<glyph glyph-name="ugrave" unicode="&#xf9;" horiz-adv-x="551" d="M269 -10 C351 -10 409 32 436 108 L439 0 L465 0 L465 490 L432 490 L432 211 C432 71 346 20 269 20 C174 20 112 74 112 212 L112 490 L79 490 L79 197 C79 53 154 -10 269 -10 L269 -10 Z M260 626 L285 626 L285 651 L183 766 L158 766 L158 741 L260 626 Z " />
<glyph glyph-name="uacute" unicode="&#xfa;" horiz-adv-x="551" d="M269 -10 C351 -10 409 32 436 108 L439 0 L465 0 L465 490 L432 490 L432 211 C432 71 346 20 269 20 C174 20 112 74 112 212 L112 490 L79 490 L79 197 C79 53 154 -10 269 -10 L269 -10 Z M255 610 L280 610 L382 725 L382 750 L357 750 L255 635 L255 610 Z " />
<glyph glyph-name="ucircumflex" unicode="&#xfb;" horiz-adv-x="551" d="M369 610 L394 610 L394 635 L292 750 L262 750 L160 635 L160 610 L185 610 L277 714 L369 610 Z M269 -10 C351 -10 409 32 436 108 L439 0 L465 0 L465 490 L432 490 L432 211 C432 71 346 20 269 20 C174 20 112 74 112 212 L112 490 L79 490 L79 197 C79 53 154 -10 269 -10 L269 -10 Z " />
<glyph glyph-name="udieresis" unicode="&#xfc;" horiz-adv-x="551" d="M147 663 L204 663 L204 720 L147 720 L147 663 Z M339 663 L396 663 L396 720 L339 720 L339 663 Z M269 -10 C351 -10 409 32 436 108 L439 0 L465 0 L465 490 L432 490 L432 211 C432 71 346 20 269 20 C174 20 112 74 112 212 L112 490 L79 490 L79 197 C79 53 154 -10 269 -10 L269 -10 Z " />
<glyph glyph-name="yacute" unicode="&#xfd;" horiz-adv-x="483" d="M236 610 L261 610 L363 725 L363 750 L338 750 L236 635 L236 610 Z M122 -250 L465 468 L465 490 L443 490 L249 83 L47 490 L24 490 L24 467 L231 47 L100 -228 L100 -250 L122 -250 Z " />
<glyph glyph-name="thorn" unicode="&#xfe;" horiz-adv-x="596" d="M85 -250 L118 -250 L118 111 C160 23 241 -10 312 -10 C449 -10 546 104 546 251 C546 388 445 500 312 500 C215 500 146 446 118 373 L118 750 L85 750 L85 -250 Z M312 20 C249 20 118 54 118 251 C118 371 185 470 312 470 C429 470 513 369 513 251 C513 103 415 20 312 20 L312 20 Z " />
<glyph glyph-name="ydieresis" unicode="&#xff;" horiz-adv-x="483" d="M123 663 L180 663 L180 720 L123 720 L123 663 Z M315 663 L372 663 L372 720 L315 720 L315 663 Z M122 -250 L465 468 L465 490 L443 490 L249 83 L47 490 L24 490 L24 467 L231 47 L100 -228 L100 -250 L122 -250 Z " />
<glyph glyph-name="Amacron" unicode="&#x100;" horiz-adv-x="621" d="M41 0 L137 253 L479 253 L575 0 L600 0 L600 30 L328 750 L293 750 L19 27 L19 0 L41 0 Z M467 282 L148 282 L308 709 L467 282 Z M191 866 L431 866 L431 901 L191 901 L191 866 Z " />
<glyph glyph-name="amacron" unicode="&#x101;" horiz-adv-x="501" d="M219 -10 C304 -10 364 38 392 119 L395 0 L421 0 L421 309 C421 434 360 500 245 500 C102 500 71 399 71 399 L71 374 L96 374 C96 374 115 470 244 470 C341 470 388 413 388 311 L388 267 C388 267 326 279 249 279 C103 279 45 218 45 136 C45 53 99 -10 219 -10 L219 -10 Z M220 19 C126 19 76 63 76 136 C76 195 114 250 248 250 C332 250 388 238 388 238 L388 204 C388 118 337 19 220 19 L220 19 Z M147 670 L357 670 L357 700 L147 700 L147 670 Z " />
<glyph glyph-name="Abreve" unicode="&#x102;" horiz-adv-x="621" d="M41 0 L137 253 L479 253 L575 0 L600 0 L600 30 L328 750 L293 750 L19 27 L19 0 L41 0 Z M467 282 L148 282 L308 709 L467 282 Z M311 840 C417 840 430 915 430 915 L430 945 L400 945 C400 945 402 870 311 870 C222 870 218 945 218 945 L188 945 L188 915 C188 915 203 840 311 840 L311 840 Z " />
<glyph glyph-name="abreve" unicode="&#x103;" horiz-adv-x="501" d="M219 -10 C304 -10 364 38 392 119 L395 0 L421 0 L421 309 C421 434 360 500 245 500 C102 500 71 399 71 399 L71 374 L96 374 C96 374 115 470 244 470 C341 470 388 413 388 311 L388 267 C388 267 326 279 249 279 C103 279 45 218 45 136 C45 53 99 -10 219 -10 L219 -10 Z M220 19 C126 19 76 63 76 136 C76 195 114 250 248 250 C332 250 388 238 388 238 L388 204 C388 118 337 19 220 19 L220 19 Z M240 605 C352 605 359 690 359 690 L359 720 L329 720 C329 720 337 635 240 635 C144 635 147 720 147 720 L117 720 L117 690 C117 690 125 605 240 605 L240 605 Z " />
<glyph glyph-name="Aogonek" unicode="&#x104;" horiz-adv-x="621" d="M533 -67 C533 -123 584 -132 584 -132 L614 -132 L614 -102 C585 -102 566 -86 566 -56 C566 -12 600 0 600 0 L600 30 L328 750 L293 750 L19 27 L19 0 L41 0 L137 253 L479 253 L575 0 L574 0 C550 -14 533 -40 533 -67 L533 -67 Z M467 282 L148 282 L308 709 L467 282 Z " />
<glyph glyph-name="aogonek" unicode="&#x105;" horiz-adv-x="501" d="M354 -67 C354 -123 405 -132 405 -132 L435 -132 L435 -102 C406 -102 387 -86 387 -56 C387 -12 421 0 421 0 L421 309 C421 434 360 500 245 500 C102 500 71 399 71 399 L71 374 L96 374 C96 374 115 470 244 470 C341 470 388 413 388 311 L388 267 C388 267 326 279 249 279 C103 279 45 218 45 136 C45 53 99 -10 219 -10 C304 -10 364 38 392 119 L395 0 C371 -14 354 -40 354 -67 L354 -67 Z M220 19 C126 19 76 63 76 136 C76 195 114 250 248 250 C332 250 388 238 388 238 L388 204 C388 118 337 19 220 19 L220 19 Z " />
<glyph glyph-name="Cacute" unicode="&#x106;" horiz-adv-x="736" d="M413 -10 C626 -10 695 141 695 141 L695 166 L670 166 C670 166 613 20 413 20 C222 20 91 170 91 378 C91 571 202 730 412 730 C613 730 665 589 665 589 L690 589 L690 614 C690 614 628 760 412 760 C186 760 56 602 56 378 C56 157 185 -10 413 -10 L413 -10 Z M410 805 L435 805 L557 920 L557 945 L532 945 L410 830 L410 805 Z " />
<glyph glyph-name="cacute" unicode="&#x107;" horiz-adv-x="523" d="M283 -10 C438 -10 476 112 476 112 L476 137 L451 137 C451 137 429 20 284 20 C153 20 83 132 83 244 C83 357 153 469 283 469 C425 469 450 354 450 354 L475 354 L475 379 C475 379 439 500 284 500 C145 500 50 386 50 244 C50 101 145 -10 283 -10 L283 -10 Z M265 610 L290 610 L392 725 L392 750 L367 750 L265 635 L265 610 Z " />
<glyph glyph-name="Ccircumflex" unicode="&#x108;" horiz-adv-x="736" d="M413 -10 C626 -10 695 141 695 141 L695 166 L670 166 C670 166 613 20 413 20 C222 20 91 170 91 378 C91 571 202 730 412 730 C613 730 665 589 665 589 L690 589 L690 614 C690 614 628 760 412 760 C186 760 56 602 56 378 C56 157 185 -10 413 -10 L413 -10 Z M517 825 L542 825 L542 850 L440 945 L410 945 L308 850 L308 825 L333 825 L425 911 L517 825 Z " />
<glyph glyph-name="ccircumflex" unicode="&#x109;" horiz-adv-x="523" d="M283 -10 C438 -10 476 112 476 112 L476 137 L451 137 C451 137 429 20 284 20 C153 20 83 132 83 244 C83 357 153 469 283 469 C425 469 450 354 450 354 L475 354 L475 379 C475 379 439 500 284 500 C145 500 50 386 50 244 C50 101 145 -10 283 -10 L283 -10 Z M374 610 L399 610 L399 635 L297 750 L267 750 L165 635 L165 610 L190 610 L282 714 L374 610 Z " />
<glyph glyph-name="Cdotaccent" unicode="&#x10a;" horiz-adv-x="736" d="M413 -10 C626 -10 695 141 695 141 L695 166 L670 166 C670 166 613 20 413 20 C222 20 91 170 91 378 C91 571 202 730 412 730 C613 730 665 589 665 589 L690 589 L690 614 C690 614 628 760 412 760 C186 760 56 602 56 378 C56 157 185 -10 413 -10 L413 -10 Z M389 853 L449 853 L449 913 L389 913 L389 853 Z " />
<glyph glyph-name="cdotaccent" unicode="&#x10b;" horiz-adv-x="523" d="M283 -10 C438 -10 476 112 476 112 L476 137 L451 137 C451 137 429 20 284 20 C153 20 83 132 83 244 C83 357 153 469 283 469 C425 469 450 354 450 354 L475 354 L475 379 C475 379 439 500 284 500 C145 500 50 386 50 244 C50 101 145 -10 283 -10 L283 -10 Z M253 663 L310 663 L310 720 L253 720 L253 663 Z " />
<glyph glyph-name="Ccaron" unicode="&#x10c;" horiz-adv-x="736" d="M413 -10 C626 -10 695 141 695 141 L695 166 L670 166 C670 166 613 20 413 20 C222 20 91 170 91 378 C91 571 202 730 412 730 C613 730 665 589 665 589 L690 589 L690 614 C690 614 628 760 412 760 C186 760 56 602 56 378 C56 157 185 -10 413 -10 L413 -10 Z M438 825 L540 920 L540 945 L515 945 L423 859 L331 945 L306 945 L306 920 L408 825 L438 825 Z " />
<glyph glyph-name="ccaron" unicode="&#x10d;" horiz-adv-x="523" d="M283 -10 C438 -10 476 112 476 112 L476 137 L451 137 C451 137 429 20 284 20 C153 20 83 132 83 244 C83 357 153 469 283 469 C425 469 450 354 450 354 L475 354 L475 379 C475 379 439 500 284 500 C145 500 50 386 50 244 C50 101 145 -10 283 -10 L283 -10 Z M294 610 L396 725 L396 750 L371 750 L279 646 L187 750 L162 750 L162 725 L264 610 L294 610 Z " />
<glyph glyph-name="Dcaron" unicode="&#x10e;" horiz-adv-x="745" d="M109 0 L312 0 C546 0 691 170 691 378 C691 583 546 750 312 750 L109 750 L109 0 Z M144 30 L144 720 L309 720 C505 720 656 583 656 378 C656 169 505 30 309 30 L144 30 Z M321 825 L423 920 L423 945 L398 945 L306 859 L214 945 L189 945 L189 920 L291 825 L321 825 Z " />
<glyph glyph-name="dcaron" unicode="&#x10f;" horiz-adv-x="598" d="M284 -10 C361 -10 431 23 475 111 L485 0 L511 0 L511 750 L478 750 L478 376 C442 474 359 500 284 500 C158 500 50 399 50 246 C50 96 152 -10 284 -10 L284 -10 Z M284 20 C196 20 83 88 83 246 C83 372 168 470 285 470 C409 470 478 373 478 246 C478 76 368 20 284 20 L284 20 Z M571 617 L596 617 L614 698 L614 750 L571 750 L571 617 Z " />
<glyph glyph-name="Dcroat" unicode="&#x110;" horiz-adv-x="746" d="M692 378 C692 583 547 750 313 750 L110 750 L110 398 L20 398 L20 368 L110 368 L110 0 L313 0 C547 0 692 170 692 378 L692 378 Z M145 30 L145 368 L279 368 L279 398 L145 398 L145 720 L310 720 C506 720 657 583 657 378 C657 169 506 30 310 30 L145 30 Z " />
<glyph glyph-name="dcroat" unicode="&#x111;" horiz-adv-x="598" d="M475 111 L485 0 L511 0 L511 645 L596 645 L596 675 L511 675 L511 750 L478 750 L478 675 L348 675 L348 645 L478 645 L478 376 C442 474 359 500 284 500 C158 500 50 399 50 246 C50 96 152 -10 284 -10 C361 -10 431 23 475 111 L475 111 Z M284 20 C196 20 83 88 83 246 C83 372 168 470 285 470 C409 470 478 373 478 246 C478 76 368 20 284 20 L284 20 Z " />
<glyph glyph-name="Emacron" unicode="&#x112;" horiz-adv-x="567" d="M109 0 L510 0 L510 30 L144 30 L144 376 L470 376 L470 406 L144 406 L144 720 L510 720 L510 750 L109 750 L109 0 Z M184 866 L424 866 L424 901 L184 901 L184 866 Z " />
<glyph glyph-name="emacron" unicode="&#x113;" horiz-adv-x="547" d="M286 -10 C419 -10 472 76 487 112 L487 137 L462 137 C444 73 379 20 286 20 C171 20 89 92 84 241 L497 241 C497 241 499 254 499 285 C499 404 419 500 283 500 C127 500 51 375 51 246 C51 85 141 -10 286 -10 L286 -10 Z M85 271 C96 397 173 470 283 470 C395 470 466 400 466 271 L85 271 Z M169 670 L379 670 L379 700 L169 700 L169 670 Z " />
<glyph glyph-name="Ebreve" unicode="&#x114;" horiz-adv-x="567" d="M109 0 L510 0 L510 30 L144 30 L144 376 L470 376 L470 406 L144 406 L144 720 L510 720 L510 750 L109 750 L109 0 Z M311 840 C417 840 430 915 430 915 L430 945 L400 945 C400 945 402 870 311 870 C222 870 218 945 218 945 L188 945 L188 915 C188 915 203 840 311 840 L311 840 Z " />
<glyph glyph-name="ebreve" unicode="&#x115;" horiz-adv-x="547" d="M286 -10 C419 -10 472 76 487 112 L487 137 L462 137 C444 73 379 20 286 20 C171 20 89 92 84 241 L497 241 C497 241 499 254 499 285 C499 404 419 500 283 500 C127 500 51 375 51 246 C51 85 141 -10 286 -10 L286 -10 Z M85 271 C96 397 173 470 283 470 C395 470 466 400 466 271 L85 271 Z M283 605 C395 605 402 690 402 690 L402 720 L372 720 C372 720 380 635 283 635 C187 635 190 720 190 720 L160 720 L160 690 C160 690 168 605 283 605 L283 605 Z " />
<glyph glyph-name="Edotaccent" unicode="&#x116;" horiz-adv-x="567" d="M109 0 L510 0 L510 30 L144 30 L144 376 L470 376 L470 406 L144 406 L144 720 L510 720 L510 750 L109 750 L109 0 Z M286 853 L346 853 L346 913 L286 913 L286 853 Z " />
<glyph glyph-name="edotaccent" unicode="&#x117;" horiz-adv-x="547" d="M286 -10 C419 -10 472 76 487 112 L487 137 L462 137 C444 73 379 20 286 20 C171 20 89 92 84 241 L497 241 C497 241 499 254 499 285 C499 404 419 500 283 500 C127 500 51 375 51 246 C51 85 141 -10 286 -10 L286 -10 Z M85 271 C96 397 173 470 283 470 C395 470 466 400 466 271 L85 271 Z M253 663 L310 663 L310 720 L253 720 L253 663 Z " />
<glyph glyph-name="Eogonek" unicode="&#x118;" horiz-adv-x="567" d="M443 -67 C443 -123 494 -132 494 -132 L524 -132 L524 -102 C495 -102 476 -86 476 -56 C476 -12 510 0 510 0 L510 30 L144 30 L144 376 L470 376 L470 406 L144 406 L144 720 L510 720 L510 750 L109 750 L109 0 L484 0 C460 -14 443 -40 443 -67 L443 -67 Z " />
<glyph glyph-name="eogonek" unicode="&#x119;" horiz-adv-x="548" d="M484 -102 C441 -102 416 -93 416 -55 C416 -20 431 16 469 79 C478 92 483 103 487 112 L487 137 L462 137 C444 73 379 20 286 20 C171 20 89 92 84 241 L497 241 C497 241 499 254 499 285 C499 404 419 500 283 500 C127 500 51 375 51 246 C51 85 141 -10 286 -10 C341 -10 382 5 413 24 C384 -21 383 -45 383 -67 C383 -132 454 -132 454 -132 L484 -132 L484 -102 Z M85 271 C96 397 173 470 283 470 C395 470 466 400 466 271 L85 271 Z " />
<glyph glyph-name="Ecaron" unicode="&#x11a;" horiz-adv-x="567" d="M109 0 L510 0 L510 30 L144 30 L144 376 L470 376 L470 406 L144 406 L144 720 L510 720 L510 750 L109 750 L109 0 Z M323 825 L425 920 L425 945 L400 945 L308 859 L216 945 L191 945 L191 920 L293 825 L323 825 Z " />
<glyph glyph-name="ecaron" unicode="&#x11b;" horiz-adv-x="547" d="M298 610 L400 725 L400 750 L375 750 L283 646 L191 750 L166 750 L166 725 L268 610 L298 610 Z M286 -10 C419 -10 472 76 487 112 L487 137 L462 137 C444 73 379 20 286 20 C171 20 89 92 84 241 L497 241 C497 241 499 254 499 285 C499 404 419 500 283 500 C127 500 51 375 51 246 C51 85 141 -10 286 -10 L286 -10 Z M85 271 C96 397 173 470 283 470 C395 470 466 400 466 271 L85 271 Z " />
<glyph glyph-name="Gcircumflex" unicode="&#x11c;" horiz-adv-x="781" d="M423 -10 C654 -10 715 136 715 136 L715 370 L455 370 L455 340 L680 340 L680 147 C657 108 583 20 423 20 C226 20 91 170 91 378 C91 571 204 730 422 730 C631 730 685 589 685 589 L710 589 L710 614 C710 614 646 760 422 760 C190 760 56 602 56 378 C56 157 189 -10 423 -10 L423 -10 Z M513 825 L538 825 L538 850 L436 945 L406 945 L304 850 L304 825 L329 825 L421 911 L513 825 Z " />
<glyph glyph-name="gcircumflex" unicode="&#x11d;" horiz-adv-x="597" d="M285 -260 C433 -260 512 -169 512 30 L512 490 L486 490 L479 376 C443 462 362 500 285 500 C159 500 51 399 51 246 C51 96 153 -10 285 -10 C358 -10 438 24 479 121 L479 30 C479 -159 407 -230 285 -230 C173 -230 115 -169 92 -86 L67 -86 L67 -111 C80 -158 131 -260 285 -260 L285 -260 Z M285 20 C197 20 84 88 84 246 C84 372 169 470 286 470 C410 470 479 373 479 246 C479 76 369 20 285 20 L285 20 Z M386 610 L411 610 L411 635 L309 750 L279 750 L177 635 L177 610 L202 610 L294 714 L386 610 Z " />
<glyph glyph-name="Gbreve" unicode="&#x11e;" horiz-adv-x="781" d="M423 -10 C654 -10 715 136 715 136 L715 370 L455 370 L455 340 L680 340 L680 147 C657 108 583 20 423 20 C226 20 91 170 91 378 C91 571 204 730 422 730 C631 730 685 589 685 589 L710 589 L710 614 C710 614 646 760 422 760 C190 760 56 602 56 378 C56 157 189 -10 423 -10 L423 -10 Z M422 840 C528 840 541 915 541 915 L541 945 L511 945 C511 945 513 870 422 870 C333 870 329 945 329 945 L299 945 L299 915 C299 915 314 840 422 840 L422 840 Z " />
<glyph glyph-name="gbreve" unicode="&#x11f;" horiz-adv-x="597" d="M285 -260 C433 -260 512 -169 512 30 L512 490 L486 490 L479 376 C443 462 362 500 285 500 C159 500 51 399 51 246 C51 96 153 -10 285 -10 C358 -10 438 24 479 121 L479 30 C479 -159 407 -230 285 -230 C173 -230 115 -169 92 -86 L67 -86 L67 -111 C80 -158 131 -260 285 -260 L285 -260 Z M285 20 C197 20 84 88 84 246 C84 372 169 470 286 470 C410 470 479 373 479 246 C479 76 369 20 285 20 L285 20 Z M294 605 C406 605 413 690 413 690 L413 720 L383 720 C383 720 391 635 294 635 C198 635 201 720 201 720 L171 720 L171 690 C171 690 179 605 294 605 L294 605 Z " />
<glyph glyph-name="Gdotaccent" unicode="&#x120;" horiz-adv-x="781" d="M423 -10 C654 -10 715 136 715 136 L715 370 L455 370 L455 340 L680 340 L680 147 C657 108 583 20 423 20 C226 20 91 170 91 378 C91 571 204 730 422 730 C631 730 685 589 685 589 L710 589 L710 614 C710 614 646 760 422 760 C190 760 56 602 56 378 C56 157 189 -10 423 -10 L423 -10 Z M392 853 L452 853 L452 913 L392 913 L392 853 Z " />
<glyph glyph-name="gdotaccent" unicode="&#x121;" horiz-adv-x="597" d="M285 -260 C433 -260 512 -169 512 30 L512 490 L486 490 L479 376 C443 462 362 500 285 500 C159 500 51 399 51 246 C51 96 153 -10 285 -10 C358 -10 438 24 479 121 L479 30 C479 -159 407 -230 285 -230 C173 -230 115 -169 92 -86 L67 -86 L67 -111 C80 -158 131 -260 285 -260 L285 -260 Z M285 20 C197 20 84 88 84 246 C84 372 169 470 286 470 C410 470 479 373 479 246 C479 76 369 20 285 20 L285 20 Z M270 663 L327 663 L327 720 L270 720 L270 663 Z " />
<glyph glyph-name="Gcommaaccent" unicode="&#x122;" horiz-adv-x="781" d="M423 -10 C654 -10 715 136 715 136 L715 370 L455 370 L455 340 L680 340 L680 147 C657 108 583 20 423 20 C226 20 91 170 91 378 C91 571 204 730 422 730 C631 730 685 589 685 589 L710 589 L710 614 C710 614 646 760 422 760 C190 760 56 602 56 378 C56 157 189 -10 423 -10 L423 -10 Z M407 -185 L432 -185 L450 -104 L450 -52 L407 -52 L407 -185 Z " />
<glyph glyph-name="gcommaaccent" unicode="&#x123;" horiz-adv-x="597" d="M285 -260 C433 -260 512 -169 512 30 L512 490 L486 490 L479 376 C443 462 362 500 285 500 C159 500 51 399 51 246 C51 96 153 -10 285 -10 C358 -10 438 24 479 121 L479 30 C479 -159 407 -230 285 -230 C173 -230 115 -169 92 -86 L67 -86 L67 -111 C80 -158 131 -260 285 -260 L285 -260 Z M285 20 C197 20 84 88 84 246 C84 372 169 470 286 470 C410 470 479 373 479 246 C479 76 369 20 285 20 L285 20 Z M318 750 L293 750 L275 669 L275 617 L318 617 L318 750 Z " />
<glyph glyph-name="Hcircumflex" unicode="&#x124;" horiz-adv-x="748" d="M109 0 L144 0 L144 368 L604 368 L604 0 L639 0 L639 750 L604 750 L604 398 L144 398 L144 750 L109 750 L109 0 Z M470 825 L495 825 L495 850 L393 945 L363 945 L261 850 L261 825 L286 825 L378 911 L470 825 Z " />
<glyph glyph-name="hcircumflex" unicode="&#x125;" horiz-adv-x="550" d="M85 0 L118 0 L118 269 C118 399 189 470 286 470 C401 470 438 396 438 268 L438 0 L471 0 L471 283 C471 417 421 500 290 500 C200 500 140 451 118 382 L118 750 L85 750 L85 0 Z M355 823 L380 823 L380 848 L278 943 L248 943 L146 848 L146 823 L171 823 L263 909 L355 823 Z " />
<glyph glyph-name="Hbar" unicode="&#x126;" horiz-adv-x="749" d="M145 368 L605 368 L605 0 L640 0 L640 568 L710 568 L710 598 L640 598 L640 750 L605 750 L605 598 L145 598 L145 750 L110 750 L110 598 L20 598 L20 568 L110 568 L110 0 L145 0 L145 368 Z M145 398 L145 568 L605 568 L605 398 L145 398 Z " />
<glyph glyph-name="hbar" unicode="&#x127;" horiz-adv-x="550" d="M118 269 C118 399 189 470 286 470 C401 470 438 396 438 268 L438 0 L471 0 L471 283 C471 417 421 500 290 500 C200 500 140 451 118 382 L118 645 L248 645 L248 675 L118 675 L118 750 L85 750 L85 675 L0 675 L0 645 L85 645 L85 0 L118 0 L118 269 Z " />
<glyph glyph-name="Itilde" unicode="&#x128;" horiz-adv-x="253" d="M191 834 C231 834 253 864 253 922 L223 922 C223 877 209 864 187 864 C143 864 139 927 72 927 C26 927 0 887 0 839 L30 839 C30 877 52 897 75 897 C122 897 124 834 191 834 L191 834 Z M109 0 L144 0 L144 750 L109 750 L109 0 Z " />
<glyph glyph-name="itilde" unicode="&#x129;" horiz-adv-x="207" d="M87 0 L120 0 L120 490 L87 490 L87 0 Z M168 639 C208 639 230 669 230 727 L200 727 C200 682 186 669 164 669 C120 669 116 732 49 732 C3 732 -23 692 -23 644 L7 644 C7 682 29 702 52 702 C99 702 101 639 168 639 L168 639 Z " />
<glyph glyph-name="Imacron" unicode="&#x12a;" horiz-adv-x="253" d="M7 866 L247 866 L247 901 L7 901 L7 866 Z M109 0 L144 0 L144 750 L109 750 L109 0 Z " />
<glyph glyph-name="imacron" unicode="&#x12b;" horiz-adv-x="207" d="M87 0 L120 0 L120 490 L87 490 L87 0 Z M-2 670 L208 670 L208 700 L-2 700 L-2 670 Z " />
<glyph glyph-name="Ibreve" unicode="&#x12c;" horiz-adv-x="253" d="M129 840 C235 840 248 915 248 915 L248 945 L218 945 C218 945 220 870 129 870 C40 870 36 945 36 945 L6 945 L6 915 C6 915 21 840 129 840 L129 840 Z M109 0 L144 0 L144 750 L109 750 L109 0 Z " />
<glyph glyph-name="ibreve" unicode="&#x12d;" horiz-adv-x="207" d="M87 0 L120 0 L120 490 L87 490 L87 0 Z M105 605 C217 605 224 690 224 690 L224 720 L194 720 C194 720 202 635 105 635 C9 635 12 720 12 720 L-18 720 L-18 690 C-18 690 -10 605 105 605 L105 605 Z " />
<glyph glyph-name="Iogonek" unicode="&#x12e;" horiz-adv-x="253" d="M77 -67 C77 -123 128 -132 128 -132 L158 -132 L158 -102 C129 -102 110 -86 110 -56 C110 -12 144 0 144 0 L144 750 L109 750 L109 0 L118 0 C94 -14 77 -40 77 -67 L77 -67 Z " />
<glyph glyph-name="iogonek" unicode="&#x12f;" horiz-adv-x="205" d="M74 663 L131 663 L131 720 L74 720 L74 663 Z M52 -67 C52 -123 103 -132 103 -132 L133 -132 L133 -102 C104 -102 85 -86 85 -56 C85 -12 119 0 119 0 L119 490 L86 490 L86 0 L93 0 C69 -14 52 -40 52 -67 L52 -67 Z " />
<glyph glyph-name="Idotaccent" unicode="&#x130;" horiz-adv-x="253" d="M99 853 L159 853 L159 913 L99 913 L99 853 Z M109 0 L144 0 L144 750 L109 750 L109 0 Z " />
<glyph glyph-name="dotlessi" unicode="&#x131;" horiz-adv-x="205" d="M86 0 L119 0 L119 490 L86 490 L86 0 Z " />
<glyph glyph-name="IJ" unicode="&#x132;" horiz-adv-x="638" d="M109 0 L144 0 L144 750 L109 750 L109 0 Z M388 -10 C490 -10 535 50 535 160 L535 750 L500 750 L500 159 C500 68 466 20 388 20 C324 20 271 70 274 133 L249 133 L249 108 C252 42 313 -10 388 -10 L388 -10 Z " />
<glyph glyph-name="ij" unicode="&#x133;" horiz-adv-x="415" d="M86 0 L119 0 L119 490 L86 490 L86 0 Z M74 663 L131 663 L131 720 L74 720 L74 663 Z M224 -260 C288 -260 329 -220 329 -133 L329 500 L296 500 L296 -131 C296 -195 270 -230 224 -230 C180 -230 149 -205 145 -167 L120 -167 L120 -192 C128 -224 158 -260 224 -260 L224 -260 Z M285 663 L342 663 L342 720 L285 720 L285 663 Z " />
<glyph glyph-name="Jcircumflex" unicode="&#x134;" horiz-adv-x="416" d="M166 -10 C268 -10 313 50 313 160 L313 750 L278 750 L278 159 C278 68 244 20 166 20 C102 20 49 70 52 133 L27 133 L27 108 C30 42 91 -10 166 -10 L166 -10 Z M384 825 L409 825 L409 850 L307 945 L277 945 L175 850 L175 825 L200 825 L292 911 L384 825 Z " />
<glyph glyph-name="jcircumflex" unicode="&#x135;" horiz-adv-x="207" d="M15 -260 C79 -260 120 -220 120 -133 L120 500 L87 500 L87 -131 C87 -195 61 -230 15 -230 C-29 -230 -60 -205 -64 -167 L-89 -167 L-89 -192 C-81 -224 -51 -260 15 -260 L15 -260 Z M196 610 L221 610 L221 635 L119 750 L89 750 L-13 635 L-13 610 L12 610 L104 714 L196 610 Z " />
<glyph glyph-name="Kcommaaccent" unicode="&#x136;" horiz-adv-x="598" d="M310 -185 L335 -185 L353 -104 L353 -52 L310 -52 L310 -185 Z M144 359 L561 0 L584 0 L584 23 L173 377 L576 729 L576 750 L555 750 L144 392 L144 750 L109 750 L109 0 L144 0 L144 359 Z " />
<glyph glyph-name="kcommaaccent" unicode="&#x137;" horiz-adv-x="452" d="M85 0 L118 0 L118 252 L414 0 L439 0 L439 25 L162 257 L424 468 L424 490 L402 490 L118 260 L118 750 L85 750 L85 0 Z M223 -185 L248 -185 L266 -104 L266 -52 L223 -52 L223 -185 Z " />
<glyph glyph-name="Lacute" unicode="&#x139;" horiz-adv-x="525" d="M109 0 L500 0 L500 30 L144 30 L144 750 L109 750 L109 0 Z M118 805 L143 805 L265 920 L265 945 L240 945 L118 830 L118 805 Z " />
<glyph glyph-name="lacute" unicode="&#x13a;" horiz-adv-x="205" d="M86 0 L119 0 L119 750 L86 750 L86 0 Z M91 832 L116 832 L238 947 L238 972 L213 972 L91 857 L91 832 Z " />
<glyph glyph-name="Lcommaaccent" unicode="&#x13b;" horiz-adv-x="525" d="M109 0 L500 0 L500 30 L144 30 L144 750 L109 750 L109 0 Z M290 -185 L315 -185 L333 -104 L333 -52 L290 -52 L290 -185 Z " />
<glyph glyph-name="lcommaaccent" unicode="&#x13c;" horiz-adv-x="205" d="M86 0 L119 0 L119 750 L86 750 L86 0 Z M81 -185 L106 -185 L124 -104 L124 -52 L81 -52 L81 -185 Z " />
<glyph glyph-name="Lcaron" unicode="&#x13d;" horiz-adv-x="533" d="M109 0 L500 0 L500 30 L144 30 L144 750 L109 750 L109 0 Z M424 617 L449 617 L467 698 L467 750 L424 750 L424 617 Z " />
<glyph glyph-name="lcaron" unicode="&#x13e;" horiz-adv-x="206" d="M86 0 L119 0 L119 750 L86 750 L86 0 Z M179 617 L204 617 L222 698 L222 750 L179 750 L179 617 Z " />
<glyph glyph-name="Ldot" unicode="&#x13f;" horiz-adv-x="527" d="M376 308 L433 308 L433 365 L376 365 L376 308 Z M109 0 L500 0 L500 30 L144 30 L144 750 L109 750 L109 0 Z " />
<glyph glyph-name="ldot" unicode="&#x140;" horiz-adv-x="364" d="M86 0 L119 0 L119 750 L86 750 L86 0 Z M256 250 L313 250 L313 307 L256 307 L256 250 Z " />
<glyph glyph-name="Lslash" unicode="&#x141;" horiz-adv-x="527" d="M502 30 L146 30 L146 313 L280 370 L280 400 L146 343 L146 750 L111 750 L111 328 L21 290 L21 260 L111 298 L111 0 L502 0 L502 30 Z " />
<glyph glyph-name="lslash" unicode="&#x142;" horiz-adv-x="239" d="M227 344 L227 379 L137 332 L137 750 L104 750 L104 315 L14 268 L14 233 L104 280 L104 0 L137 0 L137 297 L227 344 Z " />
<glyph glyph-name="Nacute" unicode="&#x143;" horiz-adv-x="742" d="M109 0 L141 0 L141 691 L601 0 L633 0 L633 750 L601 750 L601 59 L141 750 L109 750 L109 0 Z M361 805 L386 805 L508 920 L508 945 L483 945 L361 830 L361 805 Z " />
<glyph glyph-name="nacute" unicode="&#x144;" horiz-adv-x="551" d="M86 0 L119 0 L119 269 C119 399 190 470 287 470 C402 470 439 396 439 268 L439 0 L472 0 L472 283 C472 417 422 500 291 500 C195 500 133 444 115 368 L112 490 L86 490 L86 0 Z M264 610 L289 610 L391 725 L391 750 L366 750 L264 635 L264 610 Z " />
<glyph glyph-name="Ncommaaccent" unicode="&#x145;" horiz-adv-x="742" d="M109 0 L141 0 L141 691 L601 0 L633 0 L633 750 L601 750 L601 59 L141 750 L109 750 L109 0 Z M348 -185 L373 -185 L391 -104 L391 -52 L348 -52 L348 -185 Z " />
<glyph glyph-name="ncommaaccent" unicode="&#x146;" horiz-adv-x="551" d="M86 0 L119 0 L119 269 C119 399 190 470 287 470 C402 470 439 396 439 268 L439 0 L472 0 L472 283 C472 417 422 500 291 500 C195 500 133 444 115 368 L112 490 L86 490 L86 0 Z M256 -185 L281 -185 L299 -104 L299 -52 L256 -52 L256 -185 Z " />
<glyph glyph-name="Ncaron" unicode="&#x147;" horiz-adv-x="742" d="M109 0 L141 0 L141 691 L601 0 L633 0 L633 750 L601 750 L601 59 L141 750 L109 750 L109 0 Z M402 825 L504 920 L504 945 L479 945 L387 859 L295 945 L270 945 L270 920 L372 825 L402 825 Z " />
<glyph glyph-name="ncaron" unicode="&#x148;" horiz-adv-x="551" d="M86 0 L119 0 L119 269 C119 399 190 470 287 470 C402 470 439 396 439 268 L439 0 L472 0 L472 283 C472 417 422 500 291 500 C195 500 133 444 115 368 L112 490 L86 490 L86 0 Z M292 610 L394 725 L394 750 L369 750 L277 646 L185 750 L160 750 L160 725 L262 610 L292 610 Z " />
<glyph glyph-name="napostrophe" unicode="&#x149;" horiz-adv-x="551" d="M87 617 L112 617 L130 698 L130 750 L87 750 L87 617 Z M86 0 L119 0 L119 269 C119 399 190 470 287 470 C402 470 439 396 439 268 L439 0 L472 0 L472 283 C472 417 422 500 291 500 C195 500 133 444 115 368 L112 490 L86 490 L86 0 Z " />
<glyph glyph-name="Eng" unicode="&#x14a;" horiz-adv-x="742" d="M601 750 L601 59 L141 750 L109 750 L109 0 L141 0 L141 691 L601 0 L601 -136 C601 -200 574 -230 528 -230 C479 -230 453 -200 449 -162 L424 -162 L424 -187 C432 -219 462 -260 528 -260 C592 -260 633 -220 633 -133 L633 750 L601 750 Z " />
<glyph glyph-name="eng" unicode="&#x14b;" horiz-adv-x="551" d="M291 500 C195 500 133 444 115 368 L112 490 L86 490 L86 0 L119 0 L119 269 C119 399 190 470 287 470 C402 470 439 396 439 268 L439 -101 C439 -184 402 -230 337 -230 L337 -260 C419 -260 472 -211 472 -103 L472 283 C472 417 422 500 291 500 L291 500 Z " />
<glyph glyph-name="Omacron" unicode="&#x14c;" horiz-adv-x="826" d="M413 -10 C636 -10 770 155 770 378 C770 598 636 760 413 760 C190 760 56 598 56 378 C56 155 190 -10 413 -10 L413 -10 Z M413 20 C213 20 91 174 91 378 C91 578 213 730 413 730 C613 730 735 578 735 378 C735 174 613 20 413 20 L413 20 Z M282 866 L522 866 L522 901 L282 901 L282 866 Z " />
<glyph glyph-name="omacron" unicode="&#x14d;" horiz-adv-x="568" d="M284 -10 C423 -10 518 103 518 246 C518 389 423 500 284 500 C145 500 50 387 50 244 C50 101 145 -10 284 -10 L284 -10 Z M284 20 C153 20 83 132 83 244 C83 357 153 470 283 470 C415 470 485 358 485 246 C485 133 415 20 284 20 L284 20 Z M176 670 L386 670 L386 700 L176 700 L176 670 Z " />
<glyph glyph-name="Obreve" unicode="&#x14e;" horiz-adv-x="826" d="M413 -10 C636 -10 770 155 770 378 C770 598 636 760 413 760 C190 760 56 598 56 378 C56 155 190 -10 413 -10 L413 -10 Z M413 20 C213 20 91 174 91 378 C91 578 213 730 413 730 C613 730 735 578 735 378 C735 174 613 20 413 20 L413 20 Z M409 840 C515 840 528 915 528 915 L528 945 L498 945 C498 945 500 870 409 870 C320 870 316 945 316 945 L286 945 L286 915 C286 915 301 840 409 840 L409 840 Z " />
<glyph glyph-name="obreve" unicode="&#x14f;" horiz-adv-x="568" d="M284 -10 C423 -10 518 103 518 246 C518 389 423 500 284 500 C145 500 50 387 50 244 C50 101 145 -10 284 -10 L284 -10 Z M284 20 C153 20 83 132 83 244 C83 357 153 470 283 470 C415 470 485 358 485 246 C485 133 415 20 284 20 L284 20 Z M282 605 C394 605 401 690 401 690 L401 720 L371 720 C371 720 379 635 282 635 C186 635 189 720 189 720 L159 720 L159 690 C159 690 167 605 282 605 L282 605 Z " />
<glyph glyph-name="Ohungarumlaut" unicode="&#x150;" horiz-adv-x="826" d="M413 -10 C636 -10 770 155 770 378 C770 598 636 760 413 760 C190 760 56 598 56 378 C56 155 190 -10 413 -10 L413 -10 Z M413 20 C213 20 91 174 91 378 C91 578 213 730 413 730 C613 730 735 578 735 378 C735 174 613 20 413 20 L413 20 Z M316 805 L341 805 L463 920 L463 945 L438 945 L316 830 L316 805 Z M488 805 L513 805 L635 920 L635 945 L610 945 L488 830 L488 805 Z " />
<glyph glyph-name="ohungarumlaut" unicode="&#x151;" horiz-adv-x="568" d="M197 610 L222 610 L329 725 L329 750 L304 750 L197 635 L197 610 Z M349 610 L374 610 L481 725 L481 750 L456 750 L349 635 L349 610 Z M284 -10 C423 -10 518 103 518 246 C518 389 423 500 284 500 C145 500 50 387 50 244 C50 101 145 -10 284 -10 L284 -10 Z M284 20 C153 20 83 132 83 244 C83 357 153 470 283 470 C415 470 485 358 485 246 C485 133 415 20 284 20 L284 20 Z " />
<glyph glyph-name="OE" unicode="&#x152;" horiz-adv-x="983" d="M926 0 L926 30 L560 30 L560 376 L886 376 L886 406 L560 406 L560 720 L926 720 L926 750 L525 750 L525 750 C491 757 446 760 413 760 C190 760 56 598 56 378 C56 155 190 -10 413 -10 C446 -10 492 -7 527 0 L926 0 Z M91 378 C91 578 213 730 413 730 C446 730 492 727 525 718 L525 31 C492 23 446 20 413 20 C213 20 91 174 91 378 L91 378 Z " />
<glyph glyph-name="oe" unicode="&#x153;" horiz-adv-x="982" d="M721 -10 C854 -10 907 76 922 112 L922 137 L897 137 C879 73 814 20 721 20 C606 20 524 92 519 241 L932 241 C932 241 934 254 934 285 C934 404 854 500 718 500 C603 500 531 432 502 344 C469 437 389 500 284 500 C145 500 50 387 50 244 C50 101 145 -10 284 -10 C388 -10 467 53 500 144 C531 46 610 -10 721 -10 L721 -10 Z M284 20 C153 20 83 132 83 244 C83 357 153 470 283 470 C415 470 485 358 485 246 C485 133 415 20 284 20 L284 20 Z M520 271 C531 397 608 470 718 470 C830 470 901 400 901 271 L520 271 Z " />
<glyph glyph-name="Racute" unicode="&#x154;" horiz-adv-x="606" d="M144 0 L144 338 L295 338 L544 0 L569 0 L569 25 L335 344 C477 363 533 452 533 547 C533 676 445 750 280 750 L109 750 L109 0 L144 0 Z M144 373 L144 720 L299 720 C462 720 498 612 498 547 C498 464 448 373 299 373 L144 373 Z M279 805 L304 805 L426 920 L426 945 L401 945 L279 830 L279 805 Z " />
<glyph glyph-name="racute" unicode="&#x155;" horiz-adv-x="408" d="M86 0 L119 0 L119 300 C119 378 146 470 250 470 C310 470 351 441 367 356 L392 356 L392 381 C378 462 326 500 253 500 C184 500 137 462 116 404 L112 490 L86 490 L86 0 Z M214 610 L239 610 L341 725 L341 750 L316 750 L214 635 L214 610 Z " />
<glyph glyph-name="Rcommaaccent" unicode="&#x156;" horiz-adv-x="606" d="M144 0 L144 338 L295 338 L544 0 L569 0 L569 25 L335 344 C477 363 533 452 533 547 C533 676 445 750 280 750 L109 750 L109 0 L144 0 Z M144 373 L144 720 L299 720 C462 720 498 612 498 547 C498 464 448 373 299 373 L144 373 Z M294 -185 L319 -185 L337 -104 L337 -52 L294 -52 L294 -185 Z " />
<glyph glyph-name="rcommaaccent" unicode="&#x157;" horiz-adv-x="408" d="M86 0 L119 0 L119 300 C119 378 146 470 250 470 C310 470 351 441 367 356 L392 356 L392 381 C378 462 326 500 253 500 C184 500 137 462 116 404 L112 490 L86 490 L86 0 Z M81 -185 L106 -185 L124 -104 L124 -52 L81 -52 L81 -185 Z " />
<glyph glyph-name="Rcaron" unicode="&#x158;" horiz-adv-x="606" d="M144 0 L144 338 L295 338 L544 0 L569 0 L569 25 L335 344 C477 363 533 452 533 547 C533 676 445 750 280 750 L109 750 L109 0 L144 0 Z M144 373 L144 720 L299 720 C462 720 498 612 498 547 C498 464 448 373 299 373 L144 373 Z M297 825 L399 920 L399 945 L374 945 L282 859 L190 945 L165 945 L165 920 L267 825 L297 825 Z " />
<glyph glyph-name="rcaron" unicode="&#x159;" horiz-adv-x="408" d="M86 0 L119 0 L119 300 C119 378 146 470 250 470 C310 470 351 441 367 356 L392 356 L392 381 C378 462 326 500 253 500 C184 500 137 462 116 404 L112 490 L86 490 L86 0 Z M240 610 L342 725 L342 750 L317 750 L225 646 L133 750 L108 750 L108 725 L210 610 L240 610 Z " />
<glyph glyph-name="Sacute" unicode="&#x15a;" horiz-adv-x="586" d="M305 -10 C440 -10 529 66 529 193 C529 311 450 361 324 392 L292 400 C190 425 105 465 105 577 C105 659 172 730 299 730 C446 730 482 632 486 571 L511 571 L511 596 C501 689 432 760 299 760 C143 760 70 669 70 577 C70 475 124 408 273 372 L300 365 C467 322 494 261 494 193 C494 78 412 20 306 20 C182 20 114 77 80 182 L55 182 L55 157 C82 72 147 -10 305 -10 L305 -10 Z M276 805 L301 805 L423 920 L423 945 L398 945 L276 830 L276 805 Z " />
<glyph glyph-name="sacute" unicode="&#x15b;" horiz-adv-x="462" d="M241 -10 C356 -10 409 45 409 118 C409 203 337 234 261 252 L206 265 C135 282 94 305 94 367 C94 427 148 470 230 470 C310 470 360 439 376 366 L401 366 L401 391 C388 458 323 500 230 500 C133 500 61 445 61 367 C61 284 123 254 192 238 L255 223 C330 205 376 181 376 118 C376 63 326 20 241 20 C152 20 98 59 74 133 L49 133 L49 108 C78 34 142 -10 241 -10 L241 -10 Z M225 610 L250 610 L352 725 L352 750 L327 750 L225 635 L225 610 Z " />
<glyph glyph-name="Scircumflex" unicode="&#x15c;" horiz-adv-x="586" d="M305 -10 C440 -10 529 66 529 193 C529 311 450 361 324 392 L292 400 C190 425 105 465 105 577 C105 659 172 730 299 730 C446 730 482 632 486 571 L511 571 L511 596 C501 689 432 760 299 760 C143 760 70 669 70 577 C70 475 124 408 273 372 L300 365 C467 322 494 261 494 193 C494 78 412 20 306 20 C182 20 114 77 80 182 L55 182 L55 157 C82 72 147 -10 305 -10 L305 -10 Z M395 825 L420 825 L420 850 L318 945 L288 945 L186 850 L186 825 L211 825 L303 911 L395 825 Z " />
<glyph glyph-name="scircumflex" unicode="&#x15d;" horiz-adv-x="462" d="M241 -10 C356 -10 409 45 409 118 C409 203 337 234 261 252 L206 265 C135 282 94 305 94 367 C94 427 148 470 230 470 C310 470 360 439 376 366 L401 366 L401 391 C388 458 323 500 230 500 C133 500 61 445 61 367 C61 284 123 254 192 238 L255 223 C330 205 376 181 376 118 C376 63 326 20 241 20 C152 20 98 59 74 133 L49 133 L49 108 C78 34 142 -10 241 -10 L241 -10 Z M331 610 L356 610 L356 635 L254 750 L224 750 L122 635 L122 610 L147 610 L239 714 L331 610 Z " />
<glyph glyph-name="Scedilla" unicode="&#x15e;" horiz-adv-x="586" d="M377 -109 C377 -69 352 -45 304 -40 L304 -10 L305 -10 C440 -10 529 66 529 193 C529 311 450 361 324 392 L292 400 C190 425 105 465 105 577 C105 659 172 730 299 730 C446 730 482 632 486 571 L511 571 L511 596 C501 689 432 760 299 760 C143 760 70 669 70 577 C70 475 124 408 273 372 L300 365 C467 322 494 261 494 193 C494 78 412 20 306 20 C182 20 114 77 80 182 L55 182 L55 157 C80 78 138 1 274 -9 L274 -63 C319 -63 347 -78 347 -109 C347 -140 320 -154 270 -154 L270 -184 L293 -184 C346 -177 377 -147 377 -109 L377 -109 Z " />
<glyph glyph-name="scedilla" unicode="&#x15f;" horiz-adv-x="462" d="M321 -108 C321 -68 296 -44 248 -39 L248 -10 C356 -10 409 45 409 118 C409 203 337 234 261 252 L206 265 C135 282 94 305 94 367 C94 427 148 470 230 470 C310 470 360 439 376 366 L401 366 L401 391 C388 458 323 500 230 500 C133 500 61 445 61 367 C61 284 123 254 192 238 L255 223 C330 205 376 181 376 118 C376 63 326 20 241 20 C152 20 98 59 74 133 L49 133 L49 108 C76 40 132 -3 218 -9 L218 -62 C263 -62 291 -77 291 -108 C291 -139 264 -153 214 -153 L214 -183 L237 -183 C290 -176 321 -146 321 -108 L321 -108 Z " />
<glyph glyph-name="Scaron" unicode="&#x160;" horiz-adv-x="586" d="M305 -10 C440 -10 529 66 529 193 C529 311 450 361 324 392 L292 400 C190 425 105 465 105 577 C105 659 172 730 299 730 C446 730 482 632 486 571 L511 571 L511 596 C501 689 432 760 299 760 C143 760 70 669 70 577 C70 475 124 408 273 372 L300 365 C467 322 494 261 494 193 C494 78 412 20 306 20 C182 20 114 77 80 182 L55 182 L55 157 C82 72 147 -10 305 -10 L305 -10 Z M311 825 L413 920 L413 945 L388 945 L296 859 L204 945 L179 945 L179 920 L281 825 L311 825 Z " />
<glyph glyph-name="scaron" unicode="&#x161;" horiz-adv-x="462" d="M241 -10 C356 -10 409 45 409 118 C409 203 337 234 261 252 L206 265 C135 282 94 305 94 367 C94 427 148 470 230 470 C310 470 360 439 376 366 L401 366 L401 391 C388 458 323 500 230 500 C133 500 61 445 61 367 C61 284 123 254 192 238 L255 223 C330 205 376 181 376 118 C376 63 326 20 241 20 C152 20 98 59 74 133 L49 133 L49 108 C78 34 142 -10 241 -10 L241 -10 Z M253 610 L355 725 L355 750 L330 750 L238 646 L146 750 L121 750 L121 725 L223 610 L253 610 Z " />
<glyph glyph-name="Tcommaaccent" unicode="&#x162;" horiz-adv-x="619" d="M292 0 L327 0 L327 720 L599 720 L599 750 L20 750 L20 720 L292 720 L292 0 Z M290 -185 L315 -185 L333 -104 L333 -52 L290 -52 L290 -185 Z " />
<glyph glyph-name="tcommaaccent" unicode="&#x163;" horiz-adv-x="377" d="M205 -185 L230 -185 L248 -104 L248 -52 L205 -52 L205 -185 Z M243 -10 C323 -10 360 44 369 97 L369 122 L344 122 C339 72 314 20 244 20 C167 20 133 72 133 155 L133 460 L329 460 L329 490 L133 490 L133 625 L107 625 L104 490 L19 490 L19 460 L100 460 L100 146 C100 40 165 -10 243 -10 L243 -10 Z " />
<glyph glyph-name="Tcaron" unicode="&#x164;" horiz-adv-x="619" d="M292 0 L327 0 L327 720 L599 720 L599 750 L20 750 L20 720 L292 720 L292 0 Z M323 825 L425 920 L425 945 L400 945 L308 859 L216 945 L191 945 L191 920 L293 825 L323 825 Z " />
<glyph glyph-name="tcaron" unicode="&#x165;" horiz-adv-x="377" d="M247 617 L272 617 L290 698 L290 750 L247 750 L247 617 Z M243 -10 C323 -10 360 44 369 97 L369 122 L344 122 C339 72 314 20 244 20 C167 20 133 72 133 155 L133 460 L329 460 L329 490 L133 490 L133 625 L107 625 L104 490 L19 490 L19 460 L100 460 L100 146 C100 40 165 -10 243 -10 L243 -10 Z " />
<glyph glyph-name="Tbar" unicode="&#x166;" horiz-adv-x="661" d="M561 368 L561 398 L348 398 L348 720 L620 720 L620 750 L41 750 L41 720 L313 720 L313 398 L101 398 L101 368 L313 368 L313 0 L348 0 L348 368 L561 368 Z " />
<glyph glyph-name="tbar" unicode="&#x167;" horiz-adv-x="383" d="M375 97 L375 122 L350 122 C345 72 320 20 250 20 C173 20 139 72 139 155 L139 269 L335 269 L335 299 L139 299 L139 460 L335 460 L335 490 L139 490 L139 625 L113 625 L110 490 L25 490 L25 460 L106 460 L106 299 L25 299 L25 269 L106 269 L106 146 C106 40 171 -10 249 -10 C329 -10 366 44 375 97 L375 97 Z " />
<glyph glyph-name="Utilde" unicode="&#x168;" horiz-adv-x="715" d="M359 -10 C525 -10 616 96 616 270 L616 750 L584 750 L584 269 C584 115 508 20 359 20 C216 20 134 115 134 269 L134 750 L99 750 L99 270 C99 96 193 -10 359 -10 L359 -10 Z M428 834 C468 834 490 864 490 922 L460 922 C460 877 446 864 424 864 C380 864 376 927 309 927 C263 927 237 887 237 839 L267 839 C267 877 289 897 312 897 C359 897 361 834 428 834 L428 834 Z " />
<glyph glyph-name="utilde" unicode="&#x169;" horiz-adv-x="551" d="M269 -10 C351 -10 409 32 436 108 L439 0 L465 0 L465 490 L432 490 L432 211 C432 71 346 20 269 20 C174 20 112 74 112 212 L112 490 L79 490 L79 197 C79 53 154 -10 269 -10 L269 -10 Z M343 639 C383 639 405 669 405 727 L375 727 C375 682 361 669 339 669 C295 669 291 732 224 732 C178 732 152 692 152 644 L182 644 C182 682 204 702 227 702 C274 702 276 639 343 639 L343 639 Z " />
<glyph glyph-name="Umacron" unicode="&#x16a;" horiz-adv-x="715" d="M359 -10 C525 -10 616 96 616 270 L616 750 L584 750 L584 269 C584 115 508 20 359 20 C216 20 134 115 134 269 L134 750 L99 750 L99 270 C99 96 193 -10 359 -10 L359 -10 Z M245 866 L485 866 L485 901 L245 901 L245 866 Z " />
<glyph glyph-name="umacron" unicode="&#x16b;" horiz-adv-x="551" d="M269 -10 C351 -10 409 32 436 108 L439 0 L465 0 L465 490 L432 490 L432 211 C432 71 346 20 269 20 C174 20 112 74 112 212 L112 490 L79 490 L79 197 C79 53 154 -10 269 -10 L269 -10 Z M171 670 L381 670 L381 700 L171 700 L171 670 Z " />
<glyph glyph-name="Ubreve" unicode="&#x16c;" horiz-adv-x="715" d="M359 -10 C525 -10 616 96 616 270 L616 750 L584 750 L584 269 C584 115 508 20 359 20 C216 20 134 115 134 269 L134 750 L99 750 L99 270 C99 96 193 -10 359 -10 L359 -10 Z M365 840 C471 840 484 915 484 915 L484 945 L454 945 C454 945 456 870 365 870 C276 870 272 945 272 945 L242 945 L242 915 C242 915 257 840 365 840 L365 840 Z " />
<glyph glyph-name="ubreve" unicode="&#x16d;" horiz-adv-x="551" d="M269 -10 C351 -10 409 32 436 108 L439 0 L465 0 L465 490 L432 490 L432 211 C432 71 346 20 269 20 C174 20 112 74 112 212 L112 490 L79 490 L79 197 C79 53 154 -10 269 -10 L269 -10 Z M278 605 C390 605 397 690 397 690 L397 720 L367 720 C367 720 375 635 278 635 C182 635 185 720 185 720 L155 720 L155 690 C155 690 163 605 278 605 L278 605 Z " />
<glyph glyph-name="Uring" unicode="&#x16e;" horiz-adv-x="715" d="M366 806 C411 806 444 837 444 880 C444 923 411 953 366 953 C321 953 288 923 288 880 C288 837 321 806 366 806 L366 806 Z M366 836 C343 836 321 852 321 880 C321 906 343 923 366 923 C390 923 411 906 411 880 C411 852 390 836 366 836 L366 836 Z M359 -10 C525 -10 616 96 616 270 L616 750 L584 750 L584 269 C584 115 508 20 359 20 C216 20 134 115 134 269 L134 750 L99 750 L99 270 C99 96 193 -10 359 -10 L359 -10 Z " />
<glyph glyph-name="uring" unicode="&#x16f;" horiz-adv-x="551" d="M269 -10 C351 -10 409 32 436 108 L439 0 L465 0 L465 490 L432 490 L432 211 C432 71 346 20 269 20 C174 20 112 74 112 212 L112 490 L79 490 L79 197 C79 53 154 -10 269 -10 L269 -10 Z M278 613 C323 613 356 644 356 687 C356 730 323 760 278 760 C233 760 200 730 200 687 C200 644 233 613 278 613 L278 613 Z M278 643 C255 643 233 659 233 687 C233 713 255 730 278 730 C302 730 323 713 323 687 C323 659 302 643 278 643 L278 643 Z " />
<glyph glyph-name="Uhungarumlaut" unicode="&#x170;" horiz-adv-x="715" d="M359 -10 C525 -10 616 96 616 270 L616 750 L584 750 L584 269 C584 115 508 20 359 20 C216 20 134 115 134 269 L134 750 L99 750 L99 270 C99 96 193 -10 359 -10 L359 -10 Z M258 805 L283 805 L405 920 L405 945 L380 945 L258 830 L258 805 Z M430 805 L455 805 L577 920 L577 945 L552 945 L430 830 L430 805 Z " />
<glyph glyph-name="uhungarumlaut" unicode="&#x171;" horiz-adv-x="551" d="M269 -10 C351 -10 409 32 436 108 L439 0 L465 0 L465 490 L432 490 L432 211 C432 71 346 20 269 20 C174 20 112 74 112 212 L112 490 L79 490 L79 197 C79 53 154 -10 269 -10 L269 -10 Z M189 610 L214 610 L321 725 L321 750 L296 750 L189 635 L189 610 Z M341 610 L366 610 L473 725 L473 750 L448 750 L341 635 L341 610 Z " />
<glyph glyph-name="Uogonek" unicode="&#x172;" horiz-adv-x="715" d="M412 -102 C383 -102 364 -86 364 -59 C364 -23 388 -12 433 -2 C552 26 616 124 616 270 L616 750 L584 750 L584 269 C584 115 508 20 359 20 C216 20 134 115 134 269 L134 750 L99 750 L99 270 C99 96 193 -10 359 -10 L366 -10 C341 -23 331 -45 331 -67 C331 -123 382 -132 382 -132 L412 -132 L412 -102 Z " />
<glyph glyph-name="uogonek" unicode="&#x173;" horiz-adv-x="551" d="M398 -67 C398 -123 449 -132 449 -132 L479 -132 L479 -102 C450 -102 431 -86 431 -56 C431 -12 465 0 465 0 L465 490 L432 490 L432 211 C432 71 346 20 269 20 C174 20 112 74 112 212 L112 490 L79 490 L79 197 C79 53 154 -10 269 -10 C351 -10 409 32 436 108 L439 0 C415 -14 398 -40 398 -67 L398 -67 Z " />
<glyph glyph-name="Wcircumflex" unicode="&#x174;" horiz-adv-x="968" d="M686 0 L721 0 L945 728 L945 750 L921 750 L705 50 L499 750 L474 750 L264 49 L49 750 L24 750 L24 725 L246 0 L281 0 L484 686 L686 0 Z M575 825 L600 825 L600 850 L498 945 L468 945 L366 850 L366 825 L391 825 L483 911 L575 825 Z " />
<glyph glyph-name="wcircumflex" unicode="&#x175;" horiz-adv-x="713" d="M501 0 L534 0 L682 468 L682 490 L660 490 L519 45 L375 490 L342 490 L197 42 L57 490 L32 490 L32 465 L177 0 L212 0 L357 450 L501 0 Z M471 610 L496 610 L496 635 L394 750 L364 750 L262 635 L262 610 L287 610 L379 714 L471 610 Z " />
<glyph glyph-name="Ycircumflex" unicode="&#x176;" horiz-adv-x="595" d="M282 0 L317 0 L317 301 L579 729 L579 750 L557 750 L302 333 L32 750 L7 750 L7 727 L282 303 L282 0 Z M392 825 L417 825 L417 850 L315 945 L285 945 L183 850 L183 825 L208 825 L300 911 L392 825 Z " />
<glyph glyph-name="ycircumflex" unicode="&#x177;" horiz-adv-x="483" d="M122 -250 L465 468 L465 490 L443 490 L249 83 L47 490 L24 490 L24 467 L231 47 L100 -228 L100 -250 L122 -250 Z M340 610 L365 610 L365 635 L263 750 L233 750 L131 635 L131 610 L156 610 L248 714 L340 610 Z " />
<glyph glyph-name="Ydieresis" unicode="&#x178;" horiz-adv-x="595" d="M282 0 L317 0 L317 301 L579 729 L579 750 L557 750 L302 333 L32 750 L7 750 L7 727 L282 303 L282 0 Z M158 853 L218 853 L218 913 L158 913 L158 853 Z M367 853 L427 853 L427 913 L367 913 L367 853 Z " />
<glyph glyph-name="Zacute" unicode="&#x179;" horiz-adv-x="567" d="M534 0 L534 30 L72 30 L529 725 L529 750 L38 750 L38 720 L490 720 L33 25 L33 0 L534 0 Z M243 805 L268 805 L390 920 L390 945 L365 945 L243 830 L243 805 Z " />
<glyph glyph-name="zacute" unicode="&#x17a;" horiz-adv-x="447" d="M409 0 L409 30 L80 30 L404 465 L404 490 L43 490 L43 460 L362 460 L38 25 L38 0 L409 0 Z M211 610 L236 610 L338 725 L338 750 L313 750 L211 635 L211 610 Z " />
<glyph glyph-name="Zdotaccent" unicode="&#x17b;" horiz-adv-x="567" d="M534 0 L534 30 L72 30 L529 725 L529 750 L38 750 L38 720 L490 720 L33 25 L33 0 L534 0 Z M255 853 L315 853 L315 913 L255 913 L255 853 Z " />
<glyph glyph-name="zdotaccent" unicode="&#x17c;" horiz-adv-x="447" d="M409 0 L409 30 L80 30 L404 465 L404 490 L43 490 L43 460 L362 460 L38 25 L38 0 L409 0 Z M209 663 L266 663 L266 720 L209 720 L209 663 Z " />
<glyph glyph-name="Zcaron" unicode="&#x17d;" horiz-adv-x="567" d="M534 0 L534 30 L72 30 L529 725 L529 750 L38 750 L38 720 L490 720 L33 25 L33 0 L534 0 Z M302 825 L404 920 L404 945 L379 945 L287 859 L195 945 L170 945 L170 920 L272 825 L302 825 Z " />
<glyph glyph-name="zcaron" unicode="&#x17e;" horiz-adv-x="447" d="M409 0 L409 30 L80 30 L404 465 L404 490 L43 490 L43 460 L362 460 L38 25 L38 0 L409 0 Z M242 610 L344 725 L344 750 L319 750 L227 646 L135 750 L110 750 L110 725 L212 610 L242 610 Z " />
<glyph glyph-name="florin" unicode="&#x192;" horiz-adv-x="542" d="M66 -175 C130 -175 156 -134 171 -48 L246 394 L415 394 L415 424 L251 424 L281 599 C298 698 338 730 392 730 C440 730 483 708 495 648 L520 648 L520 673 C508 721 464 760 392 760 C327 760 269 718 248 597 L218 424 L134 424 L134 394 L213 394 L138 -46 C127 -109 112 -145 66 -145 C22 -145 -9 -120 -13 -82 L-38 -82 L-38 -107 C-30 -139 0 -175 66 -175 L66 -175 Z " />
<glyph glyph-name="Aringacute" unicode="&#x1fa;" horiz-adv-x="621" d="M311 1011 L336 1011 L458 1126 L458 1151 L433 1151 L311 1036 L311 1011 Z M41 0 L137 253 L479 253 L575 0 L600 0 L600 30 L328 750 L293 750 L19 27 L19 0 L41 0 Z M467 282 L148 282 L308 709 L467 282 Z M308 808 C353 808 386 839 386 882 C386 925 353 955 308 955 C263 955 230 925 230 882 C230 839 263 808 308 808 L308 808 Z M308 838 C285 838 263 854 263 882 C263 908 285 925 308 925 C332 925 353 908 353 882 C353 854 332 838 308 838 L308 838 Z " />
<glyph glyph-name="aringacute" unicode="&#x1fb;" horiz-adv-x="501" d="M219 -10 C304 -10 364 38 392 119 L395 0 L421 0 L421 309 C421 434 360 500 245 500 C102 500 71 399 71 399 L71 374 L96 374 C96 374 115 470 244 470 C341 470 388 413 388 311 L388 267 C388 267 326 279 249 279 C103 279 45 218 45 136 C45 53 99 -10 219 -10 L219 -10 Z M220 19 C126 19 76 63 76 136 C76 195 114 250 248 250 C332 250 388 238 388 238 L388 204 C388 118 337 19 220 19 L220 19 Z M249 613 C294 613 327 644 327 687 C327 730 294 760 249 760 C204 760 171 730 171 687 C171 644 204 613 249 613 L249 613 Z M249 643 C226 643 204 659 204 687 C204 713 226 730 249 730 C273 730 294 713 294 687 C294 659 273 643 249 643 L249 643 Z M229 799 L254 799 L376 914 L376 939 L351 939 L229 824 L229 799 Z " />
<glyph glyph-name="AEacute" unicode="&#x1fc;" horiz-adv-x="905" d="M-3 22 L-3 0 L19 0 L169 253 L447 253 L447 0 L848 0 L848 30 L482 30 L482 376 L808 376 L808 406 L482 406 L482 720 L848 720 L848 750 L435 750 L-3 22 Z M190 283 L447 715 L447 283 L190 283 Z M624 805 L649 805 L771 920 L771 945 L746 945 L624 830 L624 805 Z " />
<glyph glyph-name="aeacute" unicode="&#x1fd;" horiz-adv-x="893" d="M642 -10 C765 -10 818 76 833 112 L833 137 L808 137 C790 73 725 20 642 20 C537 20 455 92 450 241 L843 241 C843 241 845 254 845 285 C845 404 765 500 639 500 C544 500 479 447 445 374 C425 457 360 500 267 500 C104 500 70 399 70 399 L70 374 L95 374 C95 374 117 470 266 470 C363 470 417 413 417 311 L417 271 L258 271 C112 271 44 213 44 131 C44 48 98 -10 215 -10 C295 -10 391 30 433 137 C465 43 541 -10 642 -10 L642 -10 Z M451 271 C462 397 539 470 639 470 C741 470 812 400 812 271 L451 271 Z M213 19 C125 19 75 58 75 131 C75 190 123 241 257 241 L417 241 L417 204 C417 109 336 19 213 19 L213 19 Z M447 609 L472 609 L574 724 L574 749 L549 749 L447 634 L447 609 Z " />
<glyph glyph-name="Oslashacute" unicode="&#x1fe;" horiz-adv-x="826" d="M413 -10 C636 -10 770 155 770 378 C770 500 726 604 651 673 L737 790 L697 790 L628 696 C571 737 498 760 413 760 C190 760 56 598 56 378 C56 254 100 148 176 78 L89 -40 L129 -40 L199 55 C255 14 329 -10 413 -10 L413 -10 Z M91 378 C91 578 213 730 413 730 C489 730 557 704 607 666 L197 104 C132 169 91 261 91 378 L91 378 Z M413 20 C337 20 270 47 220 85 L631 647 C696 583 735 492 735 378 C735 174 613 20 413 20 L413 20 Z M406 805 L431 805 L553 920 L553 945 L528 945 L406 830 L406 805 Z " />
<glyph glyph-name="oslashacute" unicode="&#x1ff;" horiz-adv-x="568" d="M284 -10 C423 -10 518 103 518 246 C518 325 489 395 439 441 L516 550 L480 550 L416 459 C380 485 335 500 284 500 C145 500 50 387 50 244 C50 165 79 95 129 49 L52 -60 L88 -60 L152 31 C188 5 233 -10 284 -10 L284 -10 Z M83 244 C83 357 153 470 283 470 C329 470 368 456 398 434 L147 76 C105 119 83 181 83 244 L83 244 Z M284 20 C238 20 200 34 170 56 L421 414 C463 371 485 309 485 246 C485 133 415 20 284 20 L284 20 Z M273 610 L298 610 L400 725 L400 750 L375 750 L273 635 L273 610 Z " />
<glyph glyph-name="Scommaaccent" unicode="&#x218;" horiz-adv-x="586" d="M305 -10 C440 -10 529 66 529 193 C529 311 450 361 324 392 L292 400 C190 425 105 465 105 577 C105 659 172 730 299 730 C446 730 482 632 486 571 L511 571 L511 596 C501 689 432 760 299 760 C143 760 70 669 70 577 C70 475 124 408 273 372 L300 365 C467 322 494 261 494 193 C494 78 412 20 306 20 C182 20 114 77 80 182 L55 182 L55 157 C82 72 147 -10 305 -10 L305 -10 Z M280 -185 L305 -185 L323 -104 L323 -52 L280 -52 L280 -185 Z " />
<glyph glyph-name="scommaaccent" unicode="&#x219;" horiz-adv-x="462" d="M241 -10 C356 -10 409 45 409 118 C409 203 337 234 261 252 L206 265 C135 282 94 305 94 367 C94 427 148 470 230 470 C310 470 360 439 376 366 L401 366 L401 391 C388 458 323 500 230 500 C133 500 61 445 61 367 C61 284 123 254 192 238 L255 223 C330 205 376 181 376 118 C376 63 326 20 241 20 C152 20 98 59 74 133 L49 133 L49 108 C78 34 142 -10 241 -10 L241 -10 Z M226 -185 L251 -185 L269 -104 L269 -52 L226 -52 L226 -185 Z " />
<glyph glyph-name="uni0237" unicode="&#x237;" horiz-adv-x="205" d="M14 -260 C78 -260 119 -220 119 -133 L119 500 L86 500 L86 -131 C86 -195 60 -230 14 -230 C-30 -230 -61 -205 -65 -167 L-90 -167 L-90 -192 C-82 -224 -52 -260 14 -260 L14 -260 Z " />
<glyph glyph-name="circumflex" unicode="&#x2c6;" horiz-adv-x="384" d="M284 610 L309 610 L309 635 L207 750 L177 750 L75 635 L75 610 L100 610 L192 714 L284 610 Z " />
<glyph glyph-name="caron" unicode="&#x2c7;" horiz-adv-x="384" d="M207 610 L309 725 L309 750 L284 750 L192 646 L100 750 L75 750 L75 725 L177 610 L207 610 Z " />
<glyph glyph-name="breve" unicode="&#x2d8;" horiz-adv-x="392" d="M198 605 C310 605 317 690 317 690 L317 720 L287 720 C287 720 295 635 198 635 C102 635 105 720 105 720 L75 720 L75 690 C75 690 83 605 198 605 L198 605 Z " />
<glyph glyph-name="dotaccent" unicode="&#x2d9;" horiz-adv-x="500" d="M222 663 L279 663 L279 720 L222 720 L222 663 Z " />
<glyph glyph-name="ring" unicode="&#x2da;" horiz-adv-x="306" d="M153 613 C198 613 231 644 231 687 C231 730 198 760 153 760 C108 760 75 730 75 687 C75 644 108 613 153 613 L153 613 Z M153 643 C130 643 108 659 108 687 C108 713 130 730 153 730 C177 730 198 713 198 687 C198 659 177 643 153 643 L153 643 Z " />
<glyph glyph-name="ogonek" unicode="&#x2db;" horiz-adv-x="245" d="M140 -132 L170 -132 L170 -102 C141 -102 122 -86 122 -56 C122 -12 156 0 156 0 L130 0 C106 -14 89 -40 89 -67 C89 -123 140 -132 140 -132 L140 -132 Z " />
<glyph glyph-name="tilde" unicode="&#x2dc;" horiz-adv-x="403" d="M266 639 C306 639 328 669 328 727 L298 727 C298 682 284 669 262 669 C218 669 214 732 147 732 C101 732 75 692 75 644 L105 644 C105 682 127 702 150 702 C197 702 199 639 266 639 L266 639 Z " />
<glyph glyph-name="hungarumlaut" unicode="&#x2dd;" horiz-adv-x="434" d="M75 610 L100 610 L207 725 L207 750 L182 750 L75 635 L75 610 Z M227 610 L252 610 L359 725 L359 750 L334 750 L227 635 L227 610 Z " />
<glyph glyph-name="afii10023" unicode="&#x401;" horiz-adv-x="567" d="M109 0 L510 0 L510 30 L144 30 L144 376 L470 376 L470 406 L144 406 L144 720 L510 720 L510 750 L109 750 L109 0 Z M167 853 L227 853 L227 913 L167 913 L167 853 Z M376 853 L436 853 L436 913 L376 913 L376 853 Z " />
<glyph glyph-name="afii10051" unicode="&#x402;" horiz-adv-x="792" d="M536 -10 C667 -10 754 94 754 239 C754 392 658 490 506 490 C404 490 325 444 293 375 L293 720 L533 720 L533 750 L18 750 L18 720 L258 720 L258 0 L293 0 L293 258 C293 387 390 460 506 460 C644 460 719 372 719 239 C719 103 645 20 529 20 C487 20 454 31 454 31 L454 0 C454 0 483 -10 536 -10 L536 -10 Z " />
<glyph glyph-name="afii10052" unicode="&#x403;" horiz-adv-x="536" d="M264 805 L289 805 L411 920 L411 945 L386 945 L264 830 L264 805 Z M109 0 L144 0 L144 720 L510 720 L510 750 L109 750 L109 0 Z " />
<glyph glyph-name="afii10053" unicode="&#x404;" horiz-adv-x="746" d="M695 141 L695 166 L670 166 C670 166 613 20 413 20 C226 20 96 157 91 368 L545 368 L545 398 L91 398 C99 591 210 730 412 730 C613 730 665 589 665 589 L690 589 L690 614 C690 614 628 760 412 760 C186 760 56 602 56 378 C56 157 185 -10 413 -10 C636 -10 695 141 695 141 L695 141 Z " />
<glyph glyph-name="afii10054" unicode="&#x405;" horiz-adv-x="586" d="M305 -10 C440 -10 529 66 529 193 C529 311 450 361 324 392 L292 400 C190 425 105 465 105 577 C105 659 172 730 299 730 C446 730 482 632 486 571 L511 571 L511 596 C501 689 432 760 299 760 C143 760 70 669 70 577 C70 475 124 408 273 372 L300 365 C467 322 494 261 494 193 C494 78 412 20 306 20 C182 20 114 77 80 182 L55 182 L55 157 C82 72 147 -10 305 -10 L305 -10 Z " />
<glyph glyph-name="afii10055" unicode="&#x406;" horiz-adv-x="253" d="M109 0 L144 0 L144 750 L109 750 L109 0 Z " />
<glyph glyph-name="afii10056" unicode="&#x407;" horiz-adv-x="253" d="M-8 853 L52 853 L52 913 L-8 913 L-8 853 Z M201 853 L261 853 L261 913 L201 913 L201 853 Z M109 0 L144 0 L144 750 L109 750 L109 0 Z " />
<glyph glyph-name="afii10057" unicode="&#x408;" horiz-adv-x="416" d="M166 -10 C268 -10 313 50 313 160 L313 750 L278 750 L278 159 C278 68 244 20 166 20 C102 20 49 70 52 133 L27 133 L27 108 C30 42 91 -10 166 -10 L166 -10 Z " />
<glyph glyph-name="afii10058" unicode="&#x409;" horiz-adv-x="990" d="M6 0 L29 0 C163 0 168 137 177 490 L183 720 L516 720 L516 0 L682 0 C857 0 955 88 955 229 C955 370 843 445 682 445 L551 445 L551 750 L152 750 L144 462 C133 80 103 30 22 30 L6 30 L6 0 Z M551 30 L551 415 L681 415 C850 415 920 333 920 228 C920 106 846 30 681 30 L551 30 Z " />
<glyph glyph-name="afii10059" unicode="&#x40a;" horiz-adv-x="1018" d="M144 380 L544 380 L544 0 L710 0 C885 0 983 68 983 209 C983 350 885 410 710 410 L579 410 L579 750 L544 750 L544 410 L144 410 L144 750 L109 750 L109 0 L144 0 L144 380 Z M579 30 L579 380 L709 380 C876 380 948 323 948 208 C948 86 874 30 709 30 L579 30 Z " />
<glyph glyph-name="afii10060" unicode="&#x40b;" horiz-adv-x="778" d="M258 0 L293 0 L293 258 C293 387 387 460 503 460 C594 460 689 416 689 273 L689 0 L724 0 L724 270 C724 406 652 490 503 490 C401 490 325 444 293 375 L293 720 L538 720 L538 750 L18 750 L18 720 L258 720 L258 0 Z " />
<glyph glyph-name="afii10061" unicode="&#x40c;" horiz-adv-x="598" d="M306 805 L331 805 L453 920 L453 945 L428 945 L306 830 L306 805 Z M144 359 L561 0 L584 0 L584 23 L173 377 L576 729 L576 750 L555 750 L144 392 L144 750 L109 750 L109 0 L144 0 L144 359 Z " />
<glyph glyph-name="afii10062" unicode="&#x40e;" horiz-adv-x="587" d="M201 0 L582 728 L582 750 L560 750 L302 256 L35 750 L10 750 L10 725 L283 221 L179 22 L179 0 L201 0 Z M298 817 C425 817 436 919 436 919 L436 945 L406 945 C406 945 414 847 298 847 C186 847 190 945 190 945 L160 945 L160 919 C160 919 171 817 298 817 L298 817 Z " />
<glyph glyph-name="afii10145" unicode="&#x40f;" horiz-adv-x="718" d="M343 -150 L375 -150 L375 0 L609 0 L609 750 L574 750 L574 30 L144 30 L144 750 L109 750 L109 0 L343 0 L343 -150 Z " />
<glyph glyph-name="afii10017" unicode="&#x410;" horiz-adv-x="621" d="M41 0 L137 253 L479 253 L575 0 L600 0 L600 30 L328 750 L293 750 L19 27 L19 0 L41 0 Z M467 282 L148 282 L308 709 L467 282 Z " />
<glyph glyph-name="afii10018" unicode="&#x411;" horiz-adv-x="592" d="M109 0 L280 0 C455 0 553 84 553 219 C553 353 441 425 280 425 L144 425 L144 720 L490 720 L490 750 L109 750 L109 0 Z M144 30 L144 395 L279 395 C448 395 518 317 518 218 C518 102 444 30 279 30 L144 30 Z " />
<glyph glyph-name="afii10019" unicode="&#x412;" horiz-adv-x="613" d="M109 0 L297 0 C458 0 558 68 558 203 C558 298 496 359 391 386 C493 418 526 485 526 562 C526 682 436 750 293 750 L109 750 L109 0 Z M144 398 L144 720 L292 720 C402 720 491 663 491 562 C491 443 404 398 285 398 L144 398 Z M144 30 L144 369 L299 369 C412 369 523 316 523 202 C523 79 422 30 298 30 L144 30 Z " />
<glyph glyph-name="afii10020" unicode="&#x413;" horiz-adv-x="536" d="M109 0 L144 0 L144 720 L510 720 L510 750 L109 750 L109 0 Z " />
<glyph glyph-name="afii10021" unicode="&#x414;" horiz-adv-x="714" d="M5 -150 L38 -150 L38 0 L652 0 L652 -150 L685 -150 L685 30 L585 30 L585 750 L170 750 L160 465 C152 223 114 113 64 30 L5 30 L5 -150 Z M102 30 C152 116 186 255 192 461 L199 720 L550 720 L550 30 L102 30 Z " />
<glyph glyph-name="afii10022" unicode="&#x415;" horiz-adv-x="567" d="M109 0 L510 0 L510 30 L144 30 L144 376 L470 376 L470 406 L144 406 L144 720 L510 720 L510 750 L109 750 L109 0 Z " />
<glyph glyph-name="afii10024" unicode="&#x416;" horiz-adv-x="855" d="M411 359 L411 0 L446 0 L446 359 L818 0 L841 0 L841 23 L474 377 L833 729 L833 750 L812 750 L446 392 L446 750 L411 750 L411 392 L45 750 L21 750 L21 726 L381 374 L16 21 L16 0 L37 0 L411 359 Z " />
<glyph glyph-name="afii10025" unicode="&#x417;" horiz-adv-x="563" d="M276 -10 C422 -10 503 78 503 208 C503 304 447 370 353 397 C426 430 471 499 471 576 C471 680 404 760 267 760 C148 760 86 688 62 614 L62 589 L87 589 C109 676 173 730 266 730 C388 730 436 660 436 576 C436 477 367 408 268 408 L181 408 L181 378 L267 378 C394 378 468 311 468 209 C468 74 383 20 276 20 C175 20 85 78 71 176 L46 176 L46 151 C60 77 132 -10 276 -10 L276 -10 Z " />
<glyph glyph-name="afii10026" unicode="&#x418;" horiz-adv-x="728" d="M109 0 L144 0 L584 689 L584 0 L619 0 L619 750 L584 750 L144 53 L144 750 L109 750 L109 0 Z " />
<glyph glyph-name="afii10027" unicode="&#x419;" horiz-adv-x="728" d="M109 0 L144 0 L584 689 L584 0 L619 0 L619 750 L584 750 L144 53 L144 750 L109 750 L109 0 Z M364 817 C491 817 502 919 502 919 L502 945 L472 945 C472 945 480 847 364 847 C252 847 256 945 256 945 L226 945 L226 919 C226 919 237 817 364 817 L364 817 Z " />
<glyph glyph-name="afii10028" unicode="&#x41a;" horiz-adv-x="598" d="M144 359 L561 0 L584 0 L584 23 L173 377 L576 729 L576 750 L555 750 L144 392 L144 750 L109 750 L109 0 L144 0 L144 359 Z " />
<glyph glyph-name="afii10029" unicode="&#x41b;" horiz-adv-x="670" d="M6 0 L25 0 C167 0 168 163 176 459 L183 720 L526 720 L526 0 L561 0 L561 750 L152 750 L144 462 C136 167 124 30 24 30 L6 30 L6 0 Z " />
<glyph glyph-name="afii10030" unicode="&#x41c;" horiz-adv-x="890" d="M432 183 L455 183 L746 686 L746 0 L781 0 L781 750 L749 750 L446 228 L141 750 L109 750 L109 0 L141 0 L141 681 L432 183 Z " />
<glyph glyph-name="afii10031" unicode="&#x41d;" horiz-adv-x="748" d="M109 0 L144 0 L144 368 L604 368 L604 0 L639 0 L639 750 L604 750 L604 398 L144 398 L144 750 L109 750 L109 0 Z " />
<glyph glyph-name="afii10032" unicode="&#x41e;" horiz-adv-x="826" d="M413 -10 C636 -10 770 155 770 378 C770 598 636 760 413 760 C190 760 56 598 56 378 C56 155 190 -10 413 -10 L413 -10 Z M413 20 C213 20 91 174 91 378 C91 578 213 730 413 730 C613 730 735 578 735 378 C735 174 613 20 413 20 L413 20 Z " />
<glyph glyph-name="afii10033" unicode="&#x41f;" horiz-adv-x="718" d="M109 0 L144 0 L144 720 L574 720 L574 0 L609 0 L609 750 L109 750 L109 0 Z " />
<glyph glyph-name="afii10034" unicode="&#x420;" horiz-adv-x="593" d="M109 0 L144 0 L144 300 L290 300 C465 300 553 404 553 532 C553 670 451 750 290 750 L109 750 L109 0 Z M144 330 L144 720 L289 720 C448 720 518 627 518 532 C518 421 444 330 289 330 L144 330 Z " />
<glyph glyph-name="afii10035" unicode="&#x421;" horiz-adv-x="736" d="M413 -10 C626 -10 695 141 695 141 L695 166 L670 166 C670 166 613 20 413 20 C222 20 91 170 91 378 C91 571 202 730 412 730 C613 730 665 589 665 589 L690 589 L690 614 C690 614 628 760 412 760 C186 760 56 602 56 378 C56 157 185 -10 413 -10 L413 -10 Z " />
<glyph glyph-name="afii10036" unicode="&#x422;" horiz-adv-x="619" d="M292 0 L327 0 L327 720 L599 720 L599 750 L20 750 L20 720 L292 720 L292 0 Z " />
<glyph glyph-name="afii10037" unicode="&#x423;" horiz-adv-x="587" d="M201 0 L582 728 L582 750 L560 750 L302 256 L35 750 L10 750 L10 725 L283 221 L179 22 L179 0 L201 0 Z " />
<glyph glyph-name="afii10038" unicode="&#x424;" horiz-adv-x="818" d="M392 -10 L427 -10 L427 74 C626 78 777 193 777 376 C777 560 626 676 427 680 L427 760 L392 760 L392 680 C193 676 42 561 42 378 C42 181 193 78 392 74 L392 -10 Z M392 103 C205 110 77 198 77 378 C77 546 195 646 392 651 L392 103 Z M427 103 L427 651 C620 646 742 544 742 376 C742 188 595 108 427 103 L427 103 Z " />
<glyph glyph-name="afii10039" unicode="&#x425;" horiz-adv-x="611" d="M24 0 L45 0 L304 356 L564 0 L587 0 L587 23 L324 383 L576 729 L576 750 L555 750 L306 409 L59 750 L34 750 L34 727 L287 381 L24 21 L24 0 Z " />
<glyph glyph-name="afii10040" unicode="&#x426;" horiz-adv-x="738" d="M676 -150 L709 -150 L709 30 L609 30 L609 750 L574 750 L574 30 L144 30 L144 750 L109 750 L109 0 L676 0 L676 -150 Z " />
<glyph glyph-name="afii10041" unicode="&#x427;" horiz-adv-x="629" d="M485 0 L520 0 L520 750 L485 750 L485 367 L342 367 C185 367 84 400 84 574 L84 750 L50 750 L50 572 C50 375 162 337 340 337 L485 337 L485 0 Z " />
<glyph glyph-name="afii10042" unicode="&#x428;" horiz-adv-x="973" d="M109 0 L864 0 L864 750 L829 750 L829 30 L504 30 L504 750 L469 750 L469 30 L144 30 L144 750 L109 750 L109 0 Z " />
<glyph glyph-name="afii10043" unicode="&#x429;" horiz-adv-x="993" d="M931 -150 L964 -150 L964 30 L864 30 L864 750 L829 750 L829 30 L504 30 L504 750 L469 750 L469 30 L144 30 L144 750 L109 750 L109 0 L931 0 L931 -150 Z " />
<glyph glyph-name="afii10044" unicode="&#x42a;" horiz-adv-x="643" d="M335 0 C510 0 608 88 608 229 C608 370 496 445 335 445 L199 445 L199 750 L4 750 L4 720 L164 720 L164 0 L335 0 Z M199 30 L199 415 L334 415 C503 415 573 333 573 228 C573 106 499 30 334 30 L199 30 Z " />
<glyph glyph-name="afii10045" unicode="&#x42b;" horiz-adv-x="818" d="M109 0 L280 0 C455 0 553 88 553 229 C553 370 441 445 280 445 L144 445 L144 750 L109 750 L109 0 Z M674 0 L709 0 L709 750 L674 750 L674 0 Z M144 30 L144 415 L279 415 C448 415 518 333 518 228 C518 106 444 30 279 30 L144 30 Z " />
<glyph glyph-name="afii10046" unicode="&#x42c;" horiz-adv-x="588" d="M109 0 L280 0 C455 0 553 88 553 229 C553 370 441 445 280 445 L144 445 L144 750 L109 750 L109 0 Z M144 30 L144 415 L279 415 C448 415 518 333 518 228 C518 106 444 30 279 30 L144 30 Z " />
<glyph glyph-name="afii10047" unicode="&#x42d;" horiz-adv-x="746" d="M343 -10 C570 -10 690 157 690 378 C690 602 569 760 344 760 C128 760 56 614 56 614 L56 589 L81 589 C81 589 143 730 344 730 C541 730 647 591 655 398 L231 398 L231 368 L655 368 C650 157 530 20 343 20 C143 20 76 166 76 166 L51 166 L51 141 C51 141 120 -10 343 -10 L343 -10 Z " />
<glyph glyph-name="afii10048" unicode="&#x42e;" horiz-adv-x="1018" d="M621 -10 C819 -10 963 165 963 378 C963 588 839 760 621 760 C402 760 292 584 282 398 L144 398 L144 750 L109 750 L109 0 L144 0 L144 368 L280 368 C286 172 397 -10 621 -10 L621 -10 Z M621 20 C447 20 314 154 314 378 C314 598 448 730 621 730 C796 730 928 598 928 378 C928 154 776 20 621 20 L621 20 Z " />
<glyph glyph-name="afii10049" unicode="&#x42f;" horiz-adv-x="600" d="M456 324 L456 0 L491 0 L491 750 L330 750 C180 750 77 664 77 534 C77 436 132 353 265 327 L31 23 L31 0 L54 0 L303 324 L456 324 Z M329 354 C198 354 112 413 112 533 C112 649 198 720 327 720 L456 720 L456 354 L329 354 Z " />
<glyph glyph-name="afii10065" unicode="&#x430;" horiz-adv-x="501" d="M219 -10 C304 -10 364 38 392 119 L395 0 L421 0 L421 309 C421 434 360 500 245 500 C102 500 71 399 71 399 L71 374 L96 374 C96 374 115 470 244 470 C341 470 388 413 388 311 L388 267 C388 267 326 279 249 279 C103 279 45 218 45 136 C45 53 99 -10 219 -10 L219 -10 Z M220 19 C126 19 76 63 76 136 C76 195 114 250 248 250 C332 250 388 238 388 238 L388 204 C388 118 337 19 220 19 L220 19 Z " />
<glyph glyph-name="afii10066" unicode="&#x431;" horiz-adv-x="590" d="M305 -10 C447 -10 539 103 539 246 C539 377 461 500 311 500 C230 500 135 462 96 342 C98 527 141 638 305 660 L386 671 C463 681 490 700 507 736 L507 759 L484 759 C464 720 437 708 376 700 L300 690 C150 669 71 577 71 368 L71 286 C71 88 164 -10 305 -10 L305 -10 Z M305 20 C200 20 104 96 104 246 C104 377 192 470 303 470 C426 470 506 380 506 246 C506 100 415 20 305 20 L305 20 Z " />
<glyph glyph-name="afii10067" unicode="&#x432;" horiz-adv-x="496" d="M86 0 L261 0 C394 0 446 44 446 135 C446 210 387 248 331 253 C380 266 416 298 416 358 C416 444 347 490 247 490 L86 490 L86 0 Z M119 263 L119 460 L254 460 C333 460 383 427 383 361 C383 292 338 263 254 263 L119 263 Z M119 30 L119 234 L268 234 C348 234 413 206 413 135 C413 62 372 30 268 30 L119 30 Z " />
<glyph glyph-name="afii10068" unicode="&#x433;" horiz-adv-x="409" d="M86 0 L119 0 L119 460 L389 460 L389 490 L86 490 L86 0 Z " />
<glyph glyph-name="afii10069" unicode="&#x434;" horiz-adv-x="552" d="M8 -140 L38 -140 L38 0 L501 0 L501 -140 L531 -140 L531 30 L444 30 L444 490 L126 490 L112 260 C106 160 99 79 62 30 L8 30 L8 -140 Z M99 30 C130 87 138 173 141 243 L154 460 L411 460 L411 30 L99 30 Z " />
<glyph glyph-name="afii10070" unicode="&#x435;" horiz-adv-x="547" d="M286 -10 C419 -10 472 76 487 112 L487 137 L462 137 C444 73 379 20 286 20 C171 20 89 92 84 241 L497 241 C497 241 499 254 499 285 C499 404 419 500 283 500 C127 500 51 375 51 246 C51 85 141 -10 286 -10 L286 -10 Z M85 271 C96 397 173 470 283 470 C395 470 466 400 466 271 L85 271 Z " />
<glyph glyph-name="afii10072" unicode="&#x436;" horiz-adv-x="662" d="M26 0 L48 0 L314 242 L314 0 L347 0 L347 242 L613 0 L638 0 L638 25 L392 249 L623 468 L623 490 L601 490 L347 250 L347 490 L314 490 L314 250 L58 490 L35 490 L35 467 L272 249 L26 22 L26 0 Z " />
<glyph glyph-name="afii10073" unicode="&#x437;" horiz-adv-x="462" d="M232 -10 C344 -10 411 46 411 131 C411 209 358 240 305 256 C366 281 390 318 390 372 C390 451 325 500 232 500 C133 500 73 451 52 379 L52 354 L77 354 C96 438 156 470 227 470 C302 470 357 433 357 360 C357 314 325 268 246 268 L158 268 L158 238 L236 238 C331 238 378 195 378 131 C378 63 326 20 233 20 C136 20 93 64 72 137 L47 137 L47 112 C60 64 100 -10 232 -10 L232 -10 Z " />
<glyph glyph-name="afii10074" unicode="&#x438;" horiz-adv-x="542" d="M86 0 L119 0 L423 444 L423 0 L456 0 L456 490 L423 490 L119 49 L119 490 L86 490 L86 0 Z " />
<glyph glyph-name="afii10075" unicode="&#x439;" horiz-adv-x="542" d="M86 0 L119 0 L423 444 L423 0 L456 0 L456 490 L423 490 L119 49 L119 490 L86 490 L86 0 Z M268 589 C390 589 396 691 396 691 L396 717 L366 717 C366 717 379 619 268 619 C161 619 170 717 170 717 L140 717 L140 691 C140 691 146 589 268 589 L268 589 Z " />
<glyph glyph-name="afii10076" unicode="&#x43a;" horiz-adv-x="463" d="M86 0 L119 0 L119 242 L415 0 L440 0 L440 25 L163 247 L425 468 L425 490 L403 490 L119 250 L119 490 L86 490 L86 0 Z " />
<glyph glyph-name="afii10077" unicode="&#x43b;" horiz-adv-x="515" d="M10 0 L24 0 C132 0 138 120 141 218 L148 460 L396 460 L396 0 L429 0 L429 490 L118 490 L111 229 C107 80 83 33 17 30 L10 30 L10 0 Z " />
<glyph glyph-name="afii10078" unicode="&#x43c;" horiz-adv-x="664" d="M318 120 L343 120 L545 431 L545 0 L578 0 L578 490 L545 490 L333 158 L116 490 L86 490 L86 0 L116 0 L116 428 L318 120 Z " />
<glyph glyph-name="afii10079" unicode="&#x43d;" horiz-adv-x="542" d="M86 0 L119 0 L119 235 L423 235 L423 0 L456 0 L456 490 L423 490 L423 265 L119 265 L119 490 L86 490 L86 0 Z " />
<glyph glyph-name="afii10080" unicode="&#x43e;" horiz-adv-x="568" d="M284 -10 C423 -10 518 103 518 246 C518 389 423 500 284 500 C145 500 50 387 50 244 C50 101 145 -10 284 -10 L284 -10 Z M284 20 C153 20 83 132 83 244 C83 357 153 470 283 470 C415 470 485 358 485 246 C485 133 415 20 284 20 L284 20 Z " />
<glyph glyph-name="afii10081" unicode="&#x43f;" horiz-adv-x="535" d="M86 0 L119 0 L119 460 L416 460 L416 0 L449 0 L449 490 L86 490 L86 0 Z " />
<glyph glyph-name="afii10082" unicode="&#x440;" horiz-adv-x="597" d="M86 -250 L119 -250 L119 111 C161 23 242 -10 313 -10 C450 -10 547 104 547 251 C547 388 446 500 313 500 C216 500 147 440 119 376 L112 490 L86 490 L86 -250 Z M313 20 C250 20 119 54 119 251 C119 371 186 470 313 470 C430 470 514 369 514 251 C514 103 416 20 313 20 L313 20 Z " />
<glyph glyph-name="afii10083" unicode="&#x441;" horiz-adv-x="525" d="M283 -10 C438 -10 476 112 476 112 L476 137 L451 137 C451 137 429 20 284 20 C153 20 83 132 83 244 C83 357 153 469 283 469 C425 469 450 354 450 354 L475 354 L475 379 C475 379 439 500 284 500 C145 500 50 386 50 244 C50 101 145 -10 283 -10 L283 -10 Z " />
<glyph glyph-name="afii10084" unicode="&#x442;" horiz-adv-x="435" d="M201 0 L234 0 L234 460 L417 460 L417 490 L18 490 L18 460 L201 460 L201 0 Z " />
<glyph glyph-name="afii10085" unicode="&#x443;" horiz-adv-x="483" d="M122 -250 L465 468 L465 490 L443 490 L249 83 L47 490 L24 490 L24 467 L231 47 L100 -228 L100 -250 L122 -250 Z " />
<glyph glyph-name="afii10086" unicode="&#x444;" horiz-adv-x="679" d="M323 -250 L356 -250 L356 -6 C542 0 630 114 630 245 C630 376 542 493 356 499 L356 690 L323 690 L323 499 C147 493 49 377 49 246 C49 115 147 0 323 -6 L323 -250 Z M323 24 C192 24 82 114 82 246 C82 377 192 469 323 469 L323 24 Z M356 24 L356 469 C497 469 597 377 597 245 C597 114 497 24 356 24 L356 24 Z " />
<glyph glyph-name="afii10087" unicode="&#x445;" horiz-adv-x="472" d="M34 0 L55 0 L235 222 L415 0 L438 0 L438 23 L256 248 L435 469 L435 490 L414 490 L237 271 L60 490 L37 490 L37 467 L216 246 L34 21 L34 0 Z " />
<glyph glyph-name="afii10088" unicode="&#x446;" horiz-adv-x="565" d="M516 -140 L546 -140 L546 30 L449 30 L449 490 L416 490 L416 30 L119 30 L119 490 L86 490 L86 0 L516 0 L516 -140 Z " />
<glyph glyph-name="afii10089" unicode="&#x447;" horiz-adv-x="470" d="M351 0 L384 0 L384 490 L351 490 L351 230 L237 230 C124 230 79 263 79 357 L79 490 L46 490 L46 357 C46 232 117 200 238 200 L351 200 L351 0 Z " />
<glyph glyph-name="afii10090" unicode="&#x448;" horiz-adv-x="745" d="M86 0 L659 0 L659 490 L626 490 L626 30 L389 30 L389 490 L356 490 L356 30 L119 30 L119 490 L86 490 L86 0 Z " />
<glyph glyph-name="afii10091" unicode="&#x449;" horiz-adv-x="767" d="M716 -140 L746 -140 L746 30 L659 30 L659 490 L626 490 L626 30 L389 30 L389 490 L356 490 L356 30 L119 30 L119 490 L86 490 L86 0 L716 0 L716 -140 Z " />
<glyph glyph-name="afii10092" unicode="&#x44a;" horiz-adv-x="561" d="M340 0 C465 0 526 59 526 154 C526 246 450 300 341 300 L211 300 L211 490 L18 490 L18 460 L178 460 L178 0 L340 0 Z M211 30 L211 270 L343 270 C432 270 493 229 493 154 C493 73 440 30 353 30 L211 30 Z " />
<glyph glyph-name="afii10093" unicode="&#x44b;" horiz-adv-x="655" d="M86 0 L248 0 C373 0 434 59 434 154 C434 246 358 300 249 300 L119 300 L119 490 L86 490 L86 0 Z M536 0 L569 0 L569 490 L536 490 L536 0 Z M119 30 L119 270 L251 270 C340 270 401 229 401 154 C401 73 348 30 261 30 L119 30 Z " />
<glyph glyph-name="afii10094" unicode="&#x44c;" horiz-adv-x="469" d="M86 0 L248 0 C373 0 434 59 434 154 C434 246 358 300 249 300 L119 300 L119 490 L86 490 L86 0 Z M119 30 L119 270 L251 270 C340 270 401 229 401 154 C401 73 348 30 261 30 L119 30 Z " />
<glyph glyph-name="afii10095" unicode="&#x44d;" horiz-adv-x="527" d="M257 -10 C395 -10 475 101 475 244 C475 386 395 500 256 500 C101 500 50 379 50 379 L50 354 L75 354 C75 354 115 469 257 469 C379 469 435 370 441 265 L199 265 L199 235 L442 235 C439 126 383 20 256 20 C111 20 74 137 74 137 L49 137 L49 112 C49 112 97 -10 257 -10 L257 -10 Z " />
<glyph glyph-name="afii10096" unicode="&#x44e;" horiz-adv-x="726" d="M450 -10 C599 -10 674 103 674 246 C674 389 599 500 450 500 C308 500 234 398 227 265 L119 265 L119 500 L86 500 L86 0 L119 0 L119 235 L226 235 C229 96 304 -10 450 -10 L450 -10 Z M450 20 C309 20 259 132 259 244 C259 357 309 470 449 470 C591 470 641 358 641 246 C641 133 591 20 450 20 L450 20 Z " />
<glyph glyph-name="afii10097" unicode="&#x44f;" horiz-adv-x="482" d="M363 214 L363 0 L396 0 L396 490 L229 490 C121 490 59 423 59 349 C59 274 111 221 221 215 L33 22 L33 0 L55 0 L263 214 L363 214 Z M220 243 C144 243 92 281 92 349 C92 411 145 460 221 460 L363 460 L363 243 L220 243 Z " />
<glyph glyph-name="afii10071" unicode="&#x451;" horiz-adv-x="547" d="M286 -10 C419 -10 472 76 487 112 L487 137 L462 137 C444 73 379 20 286 20 C171 20 89 92 84 241 L497 241 C497 241 499 254 499 285 C499 404 419 500 283 500 C127 500 51 375 51 246 C51 85 141 -10 286 -10 L286 -10 Z M85 271 C96 397 173 470 283 470 C395 470 466 400 466 271 L85 271 Z M147 663 L204 663 L204 720 L147 720 L147 663 Z M339 663 L396 663 L396 720 L339 720 L339 663 Z " />
<glyph glyph-name="afii10099" unicode="&#x452;" horiz-adv-x="552" d="M292 500 C202 500 142 451 120 382 L120 645 L250 645 L250 675 L120 675 L120 750 L87 750 L87 675 L2 675 L2 645 L87 645 L87 0 L120 0 L120 269 C120 399 191 470 288 470 C403 470 440 396 440 268 L440 -81 C440 -177 400 -230 328 -230 L328 -260 C416 -260 473 -204 473 -83 L473 283 C473 417 423 500 292 500 L292 500 Z " />
<glyph glyph-name="afii10100" unicode="&#x453;" horiz-adv-x="409" d="M86 0 L119 0 L119 460 L389 460 L389 490 L86 490 L86 0 Z M219 603 L244 603 L346 718 L346 743 L321 743 L219 628 L219 603 Z " />
<glyph glyph-name="afii10101" unicode="&#x454;" horiz-adv-x="525" d="M476 112 L476 137 L451 137 C451 137 429 20 284 20 C157 20 87 126 83 235 L339 235 L339 265 L84 265 C92 370 161 469 283 469 C425 469 450 354 450 354 L475 354 L475 379 C475 379 439 500 284 500 C145 500 50 386 50 244 C50 101 145 -10 283 -10 C438 -10 476 112 476 112 L476 112 Z " />
<glyph glyph-name="afii10102" unicode="&#x455;" horiz-adv-x="458" d="M239 -10 C354 -10 407 45 407 118 C407 203 335 234 259 252 L204 265 C133 282 92 305 92 367 C92 427 146 470 228 470 C308 470 358 439 374 366 L399 366 L399 391 C386 458 321 500 228 500 C131 500 59 445 59 367 C59 284 121 254 190 238 L253 223 C328 205 374 181 374 118 C374 63 324 20 239 20 C150 20 96 59 72 133 L47 133 L47 108 C76 34 140 -10 239 -10 L239 -10 Z " />
<glyph glyph-name="afii10103" unicode="&#x456;" horiz-adv-x="205" d="M86 0 L119 0 L119 490 L86 490 L86 0 Z M74 663 L131 663 L131 720 L74 720 L74 663 Z " />
<glyph glyph-name="afii10104" unicode="&#x457;" horiz-adv-x="207" d="M24 663 L81 663 L81 720 L24 720 L24 663 Z M126 663 L183 663 L183 720 L126 720 L126 663 Z M87 0 L120 0 L120 490 L87 490 L87 0 Z " />
<glyph glyph-name="afii10105" unicode="&#x458;" horiz-adv-x="205" d="M14 -260 C78 -260 119 -220 119 -133 L119 500 L86 500 L86 -131 C86 -195 60 -230 14 -230 C-30 -230 -61 -205 -65 -167 L-90 -167 L-90 -192 C-82 -224 -52 -260 14 -260 L14 -260 Z M75 663 L132 663 L132 720 L75 720 L75 663 Z " />
<glyph glyph-name="afii10106" unicode="&#x459;" horiz-adv-x="759" d="M141 218 L148 460 L376 460 L376 0 L538 0 C663 0 724 59 724 154 C724 246 648 300 539 300 L409 300 L409 490 L118 490 L111 229 C107 83 84 35 22 30 L10 30 L10 0 L24 0 C132 0 138 120 141 218 L141 218 Z M409 30 L409 270 L541 270 C630 270 691 229 691 154 C691 73 638 30 551 30 L409 30 Z " />
<glyph glyph-name="afii10107" unicode="&#x45a;" horiz-adv-x="776" d="M119 245 L393 245 L393 0 L555 0 C680 0 741 49 741 144 C741 236 665 275 556 275 L426 275 L426 490 L393 490 L393 275 L119 275 L119 490 L86 490 L86 0 L119 0 L119 245 Z M426 30 L426 245 L558 245 C647 245 708 219 708 144 C708 63 655 30 568 30 L426 30 Z " />
<glyph glyph-name="afii10108" unicode="&#x45b;" horiz-adv-x="552" d="M120 269 C120 399 191 470 288 470 C403 470 440 396 440 268 L440 0 L473 0 L473 283 C473 417 423 500 292 500 C202 500 142 451 120 382 L120 645 L250 645 L250 675 L120 675 L120 750 L87 750 L87 675 L2 675 L2 645 L87 645 L87 0 L120 0 L120 269 Z " />
<glyph glyph-name="afii10109" unicode="&#x45c;" horiz-adv-x="463" d="M86 0 L119 0 L119 242 L415 0 L440 0 L440 25 L163 247 L425 468 L425 490 L403 490 L119 250 L119 490 L86 490 L86 0 Z M231 610 L256 610 L358 725 L358 750 L333 750 L231 635 L231 610 Z " />
<glyph glyph-name="afii10110" unicode="&#x45e;" horiz-adv-x="483" d="M122 -250 L465 468 L465 490 L443 490 L249 83 L47 490 L24 490 L24 467 L231 47 L100 -228 L100 -250 L122 -250 Z M245 589 C367 589 373 691 373 691 L373 717 L343 717 C343 717 356 619 245 619 C138 619 147 717 147 717 L117 717 L117 691 C117 691 123 589 245 589 L245 589 Z " />
<glyph glyph-name="afii10193" unicode="&#x45f;" horiz-adv-x="535" d="M253 -140 L282 -140 L282 0 L449 0 L449 490 L416 490 L416 30 L119 30 L119 490 L86 490 L86 0 L253 0 L253 -140 Z " />
<glyph glyph-name="afii10050" unicode="&#x490;" horiz-adv-x="536" d="M478 900 L478 750 L109 750 L109 0 L144 0 L144 720 L510 720 L510 900 L478 900 Z " />
<glyph glyph-name="afii10098" unicode="&#x491;" horiz-adv-x="409" d="M359 630 L359 490 L86 490 L86 0 L119 0 L119 460 L389 460 L389 630 L359 630 Z " />
<glyph glyph-name="uni0492" unicode="&#x492;" horiz-adv-x="538" d="M274 368 L274 398 L145 398 L145 720 L511 720 L511 750 L110 750 L110 398 L20 398 L20 368 L110 368 L110 0 L145 0 L145 368 L274 368 Z " />
<glyph glyph-name="uni0493" unicode="&#x493;" horiz-adv-x="417" d="M293 229 L293 259 L126 259 L126 460 L396 460 L396 490 L93 490 L93 259 L13 259 L13 229 L93 229 L93 0 L126 0 L126 229 L293 229 Z " />
<glyph glyph-name="uni0496" unicode="&#x496;" horiz-adv-x="891" d="M904 -150 L904 30 L833 30 L473 377 L832 729 L832 750 L811 750 L445 392 L445 750 L410 750 L410 392 L44 750 L20 750 L20 729 L381 376 L15 21 L15 0 L36 0 L410 359 L410 0 L445 0 L445 359 L817 0 L871 0 L871 -150 L904 -150 Z " />
<glyph glyph-name="uni0497" unicode="&#x497;" horiz-adv-x="682" d="M677 -140 L677 30 L633 30 L392 249 L623 468 L623 490 L601 490 L347 250 L347 490 L314 490 L314 250 L58 490 L35 490 L35 467 L272 249 L26 22 L26 0 L48 0 L314 242 L314 0 L347 0 L347 242 L613 0 L647 0 L647 -140 L677 -140 Z " />
<glyph glyph-name="uni0498" unicode="&#x498;" horiz-adv-x="563" d="M503 208 C503 304 447 370 353 397 C426 430 471 499 471 576 C471 680 404 760 267 760 C148 760 86 688 62 614 L62 589 L87 589 C109 676 173 730 266 730 C388 730 436 660 436 576 C436 477 367 408 268 408 L181 408 L181 378 L267 378 C394 378 468 311 468 209 C468 74 383 20 276 20 C175 20 85 78 71 176 L46 176 L46 151 C59 81 124 0 251 -9 L251 -150 L283 -150 L283 -10 C425 -7 503 80 503 208 L503 208 Z " />
<glyph glyph-name="uni0499" unicode="&#x499;" horiz-adv-x="462" d="M411 131 C411 209 358 240 305 256 C366 281 390 318 390 372 C390 451 325 500 232 500 C133 500 73 451 52 379 L52 354 L77 354 C96 438 156 470 227 470 C302 470 357 433 357 360 C357 314 325 268 246 268 L158 268 L158 238 L236 238 C331 238 378 195 378 131 C378 63 326 20 233 20 C136 20 93 64 72 137 L47 137 L47 112 C60 64 99 -8 228 -10 L228 -150 L258 -150 L258 -9 C354 -1 411 53 411 131 L411 131 Z " />
<glyph glyph-name="uni049A" unicode="&#x49a;" horiz-adv-x="628" d="M639 -150 L639 30 L576 30 L174 379 L576 729 L576 750 L555 750 L144 392 L144 750 L109 750 L109 0 L144 0 L144 359 L561 0 L606 0 L606 -150 L639 -150 Z " />
<glyph glyph-name="uni049B" unicode="&#x49b;" horiz-adv-x="483" d="M477 -140 L477 30 L434 30 L163 247 L425 468 L425 490 L403 490 L119 250 L119 490 L86 490 L86 0 L119 0 L119 242 L415 0 L447 0 L447 -140 L477 -140 Z " />
<glyph glyph-name="uni049C" unicode="&#x49c;" horiz-adv-x="615" d="M259 391 L259 580 L224 580 L224 180 L259 180 L259 359 L567 0 L594 0 L594 27 L291 380 L586 727 L586 750 L563 750 L259 391 Z M109 0 L144 0 L144 750 L109 750 L109 0 Z " />
<glyph glyph-name="uni049D" unicode="&#x49d;" horiz-adv-x="468" d="M86 0 L119 0 L119 500 L86 500 L86 0 Z M199 250 L199 400 L166 400 L166 100 L199 100 L199 242 L415 0 L440 0 L440 25 L240 250 L425 468 L425 490 L403 490 L199 250 Z " />
<glyph glyph-name="uni04A0" unicode="&#x4a0;" horiz-adv-x="763" d="M309 359 L726 0 L749 0 L749 23 L339 379 L741 729 L741 750 L720 750 L309 392 L309 750 L19 750 L19 720 L274 720 L274 0 L309 0 L309 359 Z " />
<glyph glyph-name="uni04A1" unicode="&#x4a1;" horiz-adv-x="606" d="M229 0 L262 0 L262 242 L558 0 L583 0 L583 25 L306 247 L568 468 L568 490 L546 490 L262 250 L262 490 L19 490 L19 460 L229 460 L229 0 Z " />
<glyph glyph-name="uni04A2" unicode="&#x4a2;" horiz-adv-x="768" d="M739 -150 L739 30 L639 30 L639 750 L604 750 L604 398 L144 398 L144 750 L109 750 L109 0 L144 0 L144 368 L604 368 L604 0 L706 0 L706 -150 L739 -150 Z " />
<glyph glyph-name="uni04A3" unicode="&#x4a3;" horiz-adv-x="564" d="M543 -140 L543 30 L456 30 L456 490 L423 490 L423 265 L119 265 L119 490 L86 490 L86 0 L119 0 L119 235 L423 235 L423 0 L513 0 L513 -140 L543 -140 Z " />
<glyph glyph-name="uni04AA" unicode="&#x4aa;" horiz-adv-x="736" d="M695 141 L695 166 L670 166 C670 166 613 20 413 20 C222 20 91 170 91 378 C91 571 202 730 412 730 C613 730 665 589 665 589 L690 589 L690 614 C690 614 628 760 412 760 C186 760 56 602 56 378 C56 161 180 -4 400 -10 L400 -150 L432 -150 L432 -10 C630 -1 695 141 695 141 L695 141 Z " />
<glyph glyph-name="uni04AB" unicode="&#x4ab;" horiz-adv-x="525" d="M476 112 L476 137 L451 137 C451 137 429 20 284 20 C153 20 83 132 83 244 C83 357 153 469 283 469 C425 469 450 354 450 354 L475 354 L475 379 C475 379 439 500 284 500 C145 500 50 386 50 244 C50 105 140 -3 271 -10 L271 -150 L301 -150 L301 -9 C441 0 476 112 476 112 L476 112 Z " />
<glyph glyph-name="uni04AE" unicode="&#x4ae;" horiz-adv-x="595" d="M282 0 L317 0 L317 301 L579 729 L579 750 L557 750 L302 333 L32 750 L7 750 L7 727 L282 303 L282 0 Z " />
<glyph glyph-name="uni04AF" unicode="&#x4af;" horiz-adv-x="475" d="M259 -250 L259 -1 L450 466 L450 490 L426 490 L240 37 L53 490 L26 490 L26 463 L219 -3 L219 -250 L259 -250 Z " />
<glyph glyph-name="uni04B0" unicode="&#x4b0;" horiz-adv-x="610" d="M504 275 L504 305 L328 305 L588 729 L588 750 L567 750 L308 330 L36 750 L13 750 L13 727 L285 305 L97 305 L97 275 L288 275 L288 0 L324 0 L324 275 L504 275 Z " />
<glyph glyph-name="uni04B1" unicode="&#x4b1;" horiz-adv-x="475" d="M417 -30 L417 0 L259 0 L450 466 L450 490 L426 490 L240 37 L53 490 L26 490 L26 463 L218 0 L80 0 L80 -30 L219 -30 L219 -250 L259 -250 L259 -30 L417 -30 Z " />
<glyph glyph-name="uni04B2" unicode="&#x4b2;" horiz-adv-x="641" d="M645 -150 L645 30 L583 30 L330 383 L577 729 L577 750 L556 750 L307 404 L58 750 L35 750 L35 727 L283 381 L25 21 L25 0 L46 0 L305 360 L565 0 L613 0 L613 -150 L645 -150 Z " />
<glyph glyph-name="uni04B3" unicode="&#x4b3;" horiz-adv-x="491" d="M478 -140 L478 30 L432 30 L256 248 L435 469 L435 490 L414 490 L237 271 L60 490 L37 490 L37 467 L216 246 L34 21 L34 0 L55 0 L235 222 L415 0 L448 0 L448 -140 L478 -140 Z " />
<glyph glyph-name="uni04B6" unicode="&#x4b6;" horiz-adv-x="649" d="M620 -150 L620 30 L520 30 L520 750 L485 750 L485 367 L342 367 C185 367 85 400 85 574 L85 750 L50 750 L50 572 C50 375 162 337 340 337 L485 337 L485 0 L587 0 L587 -150 L620 -150 Z " />
<glyph glyph-name="uni04B7" unicode="&#x4b7;" horiz-adv-x="492" d="M471 -140 L471 30 L384 30 L384 490 L351 490 L351 230 L237 230 C124 230 79 263 79 357 L79 490 L46 490 L46 357 C46 232 117 200 238 200 L351 200 L351 0 L441 0 L441 -140 L471 -140 Z " />
<glyph glyph-name="uni04B8" unicode="&#x4b8;" horiz-adv-x="627" d="M518 0 L518 750 L483 750 L483 367 L322 367 L322 540 L287 540 L287 368 C170 374 83 416 83 574 L83 750 L48 750 L48 572 C48 389 147 344 287 338 L287 140 L322 140 L322 337 L483 337 L483 0 L518 0 Z " />
<glyph glyph-name="uni04B9" unicode="&#x4b9;" horiz-adv-x="469" d="M383 0 L383 490 L350 490 L350 230 L244 230 L244 370 L211 370 L211 231 C116 235 78 270 78 357 L78 490 L45 490 L45 357 C45 241 106 205 211 201 L211 70 L244 70 L244 200 L350 200 L350 0 L383 0 Z " />
<glyph glyph-name="uni04BA" unicode="&#x4ba;" horiz-adv-x="623" d="M144 750 L109 750 L109 0 L144 0 L144 383 L287 383 C444 383 545 350 545 176 L545 0 L579 0 L579 178 C579 375 467 413 289 413 L144 413 L144 750 Z " />
<glyph glyph-name="uni04BB" unicode="&#x4bb;" horiz-adv-x="551" d="M86 0 L119 0 L119 269 C119 399 190 470 287 470 C402 470 439 396 439 268 L439 0 L472 0 L472 283 C472 417 422 500 291 500 C201 500 141 451 119 382 L119 750 L86 750 L86 0 Z " />
<glyph glyph-name="uni04C0" unicode="&#x4c0;" horiz-adv-x="253" d="M109 0 L144 0 L144 750 L109 750 L109 0 Z " />
<glyph glyph-name="uni04C1" unicode="&#x4c1;" horiz-adv-x="855" d="M411 359 L411 0 L446 0 L446 359 L818 0 L841 0 L841 23 L474 377 L833 729 L833 750 L812 750 L446 392 L446 750 L411 750 L411 392 L45 750 L21 750 L21 726 L381 374 L16 21 L16 0 L37 0 L411 359 Z M427 817 C554 817 565 919 565 919 L565 945 L535 945 C535 945 543 847 427 847 C315 847 319 945 319 945 L289 945 L289 919 C289 919 300 817 427 817 L427 817 Z " />
<glyph glyph-name="uni04C2" unicode="&#x4c2;" horiz-adv-x="662" d="M26 0 L48 0 L314 242 L314 0 L347 0 L347 242 L613 0 L638 0 L638 25 L392 249 L623 468 L623 490 L601 490 L347 250 L347 490 L314 490 L314 250 L58 490 L35 490 L35 467 L272 249 L26 22 L26 0 Z M335 606 C457 606 463 708 463 708 L463 734 L433 734 C433 734 446 636 335 636 C228 636 237 734 237 734 L207 734 L207 708 C207 708 213 606 335 606 L335 606 Z " />
<glyph glyph-name="uni04CF" unicode="&#x4cf;" horiz-adv-x="253" d="M109 0 L144 0 L144 750 L109 750 L109 0 Z " />
<glyph glyph-name="uni04D0" unicode="&#x4d0;" horiz-adv-x="621" d="M41 0 L137 253 L479 253 L575 0 L600 0 L600 30 L328 750 L293 750 L19 27 L19 0 L41 0 Z M467 282 L148 282 L308 709 L467 282 Z M312 817 C439 817 450 919 450 919 L450 945 L420 945 C420 945 428 847 312 847 C200 847 204 945 204 945 L174 945 L174 919 C174 919 185 817 312 817 L312 817 Z " />
<glyph glyph-name="uni04D1" unicode="&#x4d1;" horiz-adv-x="501" d="M219 -10 C304 -10 364 38 392 119 L395 0 L421 0 L421 309 C421 434 360 500 245 500 C102 500 71 399 71 399 L71 374 L96 374 C96 374 115 470 244 470 C341 470 388 413 388 311 L388 267 C388 267 326 279 249 279 C103 279 45 218 45 136 C45 53 99 -10 219 -10 L219 -10 Z M220 19 C126 19 76 63 76 136 C76 195 114 250 248 250 C332 250 388 238 388 238 L388 204 C388 118 337 19 220 19 L220 19 Z M233 600 C355 600 361 702 361 702 L361 728 L331 728 C331 728 344 630 233 630 C126 630 135 728 135 728 L105 728 L105 702 C105 702 111 600 233 600 L233 600 Z " />
<glyph glyph-name="uni04D6" unicode="&#x4d6;" horiz-adv-x="567" d="M109 0 L510 0 L510 30 L144 30 L144 376 L470 376 L470 406 L144 406 L144 720 L510 720 L510 750 L109 750 L109 0 Z M317 817 C444 817 455 919 455 919 L455 945 L425 945 C425 945 433 847 317 847 C205 847 209 945 209 945 L179 945 L179 919 C179 919 190 817 317 817 L317 817 Z " />
<glyph glyph-name="uni04D7" unicode="&#x4d7;" horiz-adv-x="547" d="M286 -10 C419 -10 472 76 487 112 L487 137 L462 137 C444 73 379 20 286 20 C171 20 89 92 84 241 L497 241 C497 241 499 254 499 285 C499 404 419 500 283 500 C127 500 51 375 51 246 C51 85 141 -10 286 -10 L286 -10 Z M85 271 C96 397 173 470 283 470 C395 470 466 400 466 271 L85 271 Z M287 606 C409 606 415 708 415 708 L415 734 L385 734 C385 734 398 636 287 636 C180 636 189 734 189 734 L159 734 L159 708 C159 708 165 606 287 606 L287 606 Z " />
<glyph glyph-name="uni04D8" unicode="&#x4d8;" horiz-adv-x="797" d="M393 -10 C609 -10 740 137 740 378 C740 618 611 760 394 760 C241 760 135 692 76 594 L76 569 L101 569 C149 659 250 730 394 730 C578 730 697 612 705 398 L48 398 C47 389 46 383 46 378 C46 142 182 -10 393 -10 L393 -10 Z M393 20 C213 20 86 153 81 368 L705 368 C700 149 578 20 393 20 L393 20 Z " />
<glyph glyph-name="uni04D9" unicode="&#x4d9;" horiz-adv-x="547" d="M261 510 C128 510 75 424 60 388 L60 363 L85 363 C103 427 168 480 261 480 C376 480 458 408 463 259 L50 259 C50 259 48 246 48 215 C48 96 128 0 264 0 C420 0 496 125 496 254 C496 415 406 510 261 510 L261 510 Z M462 229 C451 103 374 30 264 30 C152 30 81 100 81 229 L462 229 Z " />
<glyph glyph-name="uni04E2" unicode="&#x4e2;" horiz-adv-x="728" d="M109 0 L144 0 L584 689 L584 0 L619 0 L619 750 L584 750 L144 53 L144 750 L109 750 L109 0 Z M250 866 L490 866 L490 901 L250 901 L250 866 Z " />
<glyph glyph-name="uni04E3" unicode="&#x4e3;" horiz-adv-x="542" d="M86 0 L119 0 L423 444 L423 0 L456 0 L456 490 L423 490 L119 49 L119 490 L86 490 L86 0 Z M167 670 L377 670 L377 700 L167 700 L167 670 Z " />
<glyph glyph-name="uni04E6" unicode="&#x4e6;" horiz-adv-x="826" d="M413 -10 C636 -10 770 155 770 378 C770 598 636 760 413 760 C190 760 56 598 56 378 C56 155 190 -10 413 -10 L413 -10 Z M413 20 C213 20 91 174 91 378 C91 578 213 730 413 730 C613 730 735 578 735 378 C735 174 613 20 413 20 L413 20 Z M273 853 L333 853 L333 913 L273 913 L273 853 Z M482 853 L542 853 L542 913 L482 913 L482 853 Z " />
<glyph glyph-name="uni04E7" unicode="&#x4e7;" horiz-adv-x="568" d="M284 -10 C423 -10 518 103 518 246 C518 389 423 500 284 500 C145 500 50 387 50 244 C50 101 145 -10 284 -10 L284 -10 Z M284 20 C153 20 83 132 83 244 C83 357 153 470 283 470 C415 470 485 358 485 246 C485 133 415 20 284 20 L284 20 Z M161 663 L218 663 L218 720 L161 720 L161 663 Z M353 663 L410 663 L410 720 L353 720 L353 663 Z " />
<glyph glyph-name="uni04E8" unicode="&#x4e8;" horiz-adv-x="826" d="M413 -10 C636 -10 770 155 770 378 C770 598 636 760 413 760 C190 760 56 598 56 378 C56 155 190 -10 413 -10 L413 -10 Z M413 730 C605 730 726 588 734 398 L92 398 C100 588 221 730 413 730 L413 730 Z M413 20 C218 20 96 170 91 368 L735 368 C730 170 608 20 413 20 L413 20 Z " />
<glyph glyph-name="uni04E9" unicode="&#x4e9;" horiz-adv-x="568" d="M284 -10 C423 -10 518 103 518 246 C518 389 423 500 284 500 C145 500 50 387 50 244 C50 101 145 -10 284 -10 L284 -10 Z M283 470 C410 470 479 367 485 259 L83 259 C89 367 159 470 283 470 L283 470 Z M284 20 C159 20 89 122 83 229 L484 229 C478 122 408 20 284 20 L284 20 Z " />
<glyph glyph-name="uni04EE" unicode="&#x4ee;" horiz-adv-x="587" d="M201 0 L582 728 L582 750 L560 750 L302 256 L35 750 L10 750 L10 725 L283 221 L179 22 L179 0 L201 0 Z M176 866 L416 866 L416 901 L176 901 L176 866 Z " />
<glyph glyph-name="uni04EF" unicode="&#x4ef;" horiz-adv-x="483" d="M122 -250 L465 468 L465 490 L443 490 L249 83 L47 490 L24 490 L24 467 L231 47 L100 -228 L100 -250 L122 -250 Z M145 670 L355 670 L355 700 L145 700 L145 670 Z " />
<glyph glyph-name="uni04F2" unicode="&#x4f2;" horiz-adv-x="587" d="M201 0 L582 728 L582 750 L560 750 L302 256 L35 750 L10 750 L10 725 L283 221 L179 22 L179 0 L201 0 Z M185 805 L210 805 L332 920 L332 945 L307 945 L185 830 L185 805 Z M357 805 L382 805 L504 920 L504 945 L479 945 L357 830 L357 805 Z " />
<glyph glyph-name="uni04F3" unicode="&#x4f3;" horiz-adv-x="483" d="M164 610 L189 610 L296 725 L296 750 L271 750 L164 635 L164 610 Z M316 610 L341 610 L448 725 L448 750 L423 750 L316 635 L316 610 Z M122 -250 L465 468 L465 490 L443 490 L249 83 L47 490 L24 490 L24 467 L231 47 L100 -228 L100 -250 L122 -250 Z " />
<glyph glyph-name="Wgrave" unicode="&#x1e80;" horiz-adv-x="968" d="M686 0 L721 0 L945 728 L945 750 L921 750 L705 50 L499 750 L474 750 L264 49 L49 750 L24 750 L24 725 L246 0 L281 0 L484 686 L686 0 Z M469 805 L494 805 L494 830 L372 945 L347 945 L347 920 L469 805 Z " />
<glyph glyph-name="wgrave" unicode="&#x1e81;" horiz-adv-x="713" d="M501 0 L534 0 L682 468 L682 490 L660 490 L519 45 L375 490 L342 490 L197 42 L57 490 L32 490 L32 465 L177 0 L212 0 L357 450 L501 0 Z M365 610 L390 610 L390 635 L288 750 L263 750 L263 725 L365 610 Z " />
<glyph glyph-name="Wacute" unicode="&#x1e82;" horiz-adv-x="968" d="M686 0 L721 0 L945 728 L945 750 L921 750 L705 50 L499 750 L474 750 L264 49 L49 750 L24 750 L24 725 L246 0 L281 0 L484 686 L686 0 Z M471 805 L496 805 L618 920 L618 945 L593 945 L471 830 L471 805 Z " />
<glyph glyph-name="wacute" unicode="&#x1e83;" horiz-adv-x="713" d="M501 0 L534 0 L682 468 L682 490 L660 490 L519 45 L375 490 L342 490 L197 42 L57 490 L32 490 L32 465 L177 0 L212 0 L357 450 L501 0 Z M369 610 L394 610 L496 725 L496 750 L471 750 L369 635 L369 610 Z " />
<glyph glyph-name="Wdieresis" unicode="&#x1e84;" horiz-adv-x="968" d="M686 0 L721 0 L945 728 L945 750 L921 750 L705 50 L499 750 L474 750 L264 49 L49 750 L24 750 L24 725 L246 0 L281 0 L484 686 L686 0 Z M346 853 L406 853 L406 913 L346 913 L346 853 Z M555 853 L615 853 L615 913 L555 913 L555 853 Z " />
<glyph glyph-name="wdieresis" unicode="&#x1e85;" horiz-adv-x="713" d="M501 0 L534 0 L682 468 L682 490 L660 490 L519 45 L375 490 L342 490 L197 42 L57 490 L32 490 L32 465 L177 0 L212 0 L357 450 L501 0 Z M257 663 L314 663 L314 720 L257 720 L257 663 Z M449 663 L506 663 L506 720 L449 720 L449 663 Z " />
<glyph glyph-name="Ygrave" unicode="&#x1ef2;" horiz-adv-x="595" d="M282 0 L317 0 L317 301 L579 729 L579 750 L557 750 L302 333 L32 750 L7 750 L7 727 L282 303 L282 0 Z M283 805 L308 805 L308 830 L186 945 L161 945 L161 920 L283 805 Z " />
<glyph glyph-name="ygrave" unicode="&#x1ef3;" horiz-adv-x="483" d="M122 -250 L465 468 L465 490 L443 490 L249 83 L47 490 L24 490 L24 467 L231 47 L100 -228 L100 -250 L122 -250 Z M241 610 L266 610 L266 635 L164 750 L139 750 L139 725 L241 610 Z " />
<glyph glyph-name="thinspace" unicode="&#x2009;" horiz-adv-x="94" d="" />
<glyph glyph-name="uni2010" unicode="&#x2010;" horiz-adv-x="416" d="M73 313 L343 313 L343 343 L73 343 L73 313 Z " />
<glyph glyph-name="uni2011" unicode="&#x2011;" horiz-adv-x="416" d="M73 313 L343 313 L343 343 L73 343 L73 313 Z " />
<glyph glyph-name="endash" unicode="&#x2013;" horiz-adv-x="566" d="M73 313 L493 313 L493 343 L73 343 L73 313 Z " />
<glyph glyph-name="emdash" unicode="&#x2014;" horiz-adv-x="766" d="M73 313 L693 313 L693 343 L73 343 L73 313 Z " />
<glyph glyph-name="uni2015" unicode="&#x2015;" horiz-adv-x="766" d="M73 313 L693 313 L693 343 L73 343 L73 313 Z " />
<glyph glyph-name="quoteleft" unicode="&#x2018;" horiz-adv-x="188" d="M117 750 L95 750 L67 664 L67 617 L117 617 L117 750 Z " />
<glyph glyph-name="quoteright" unicode="&#x2019;" horiz-adv-x="179" d="M71 617 L93 617 L121 703 L121 750 L71 750 L71 617 Z " />
<glyph glyph-name="quotesinglbase" unicode="&#x201a;" horiz-adv-x="206" d="M78 -76 L100 -76 L128 10 L128 57 L78 57 L78 -76 Z " />
<glyph glyph-name="quotedblleft" unicode="&#x201c;" horiz-adv-x="308" d="M237 750 L215 750 L187 664 L187 617 L237 617 L237 750 Z M117 750 L95 750 L67 664 L67 617 L117 617 L117 750 Z " />
<glyph glyph-name="quotedblright" unicode="&#x201d;" horiz-adv-x="299" d="M71 617 L93 617 L121 703 L121 750 L71 750 L71 617 Z M191 617 L213 617 L241 703 L241 750 L191 750 L191 617 Z " />
<glyph glyph-name="quotedblbase" unicode="&#x201e;" horiz-adv-x="326" d="M78 -76 L100 -76 L128 10 L128 57 L78 57 L78 -76 Z M198 -76 L220 -76 L248 10 L248 57 L198 57 L198 -76 Z " />
<glyph glyph-name="dagger" unicode="&#x2020;" horiz-adv-x="470" d="M230 -72 L243 -72 L261 28 L249 503 L413 498 L413 529 L249 525 L258 750 L212 750 L222 525 L57 529 L57 498 L222 503 L210 28 L230 -72 Z " />
<glyph glyph-name="daggerdbl" unicode="&#x2021;" horiz-adv-x="470" d="M212 -72 L258 -72 L249 154 L413 150 L413 181 L249 176 L261 332 L249 503 L413 498 L413 529 L249 525 L258 750 L212 750 L222 525 L57 529 L57 498 L222 503 L210 332 L222 176 L57 181 L57 150 L222 154 L212 -72 Z " />
<glyph glyph-name="bullet" unicode="&#x2022;" horiz-adv-x="362" d="M181 234 C230 234 266 272 266 320 C266 368 230 406 181 406 C133 406 96 368 96 320 C96 272 133 234 181 234 L181 234 Z " />
<glyph glyph-name="ellipsis" unicode="&#x2026;" horiz-adv-x="563" d="M73 0 L130 0 L130 57 L73 57 L73 0 Z M253 0 L310 0 L310 57 L253 57 L253 0 Z M433 0 L490 0 L490 57 L433 57 L433 0 Z " />
<glyph glyph-name="perthousand" unicode="&#x2030;" horiz-adv-x="1455" d="M249 -26 L285 -26 L734 762 L698 762 L249 -26 Z M232 344 C351 344 428 429 428 552 C428 674 349 760 232 760 C115 760 38 675 38 552 C38 431 112 344 232 344 L232 344 Z M232 374 C125 374 73 460 73 552 C73 644 126 730 232 730 C338 730 393 646 393 552 C393 460 340 374 232 374 L232 374 Z M751 -14 C870 -14 947 71 947 194 C947 316 868 402 751 402 C634 402 557 317 557 194 C557 73 631 -14 751 -14 L751 -14 Z M1221 -14 C1340 -14 1417 71 1417 194 C1417 316 1338 402 1221 402 C1104 402 1027 317 1027 194 C1027 73 1101 -14 1221 -14 L1221 -14 Z M751 16 C644 16 592 102 592 194 C592 286 645 372 751 372 C857 372 912 288 912 194 C912 102 859 16 751 16 L751 16 Z M1221 16 C1114 16 1062 102 1062 194 C1062 286 1115 372 1221 372 C1327 372 1382 288 1382 194 C1382 102 1329 16 1221 16 L1221 16 Z " />
<glyph glyph-name="minute" unicode="&#x2032;" horiz-adv-x="188" d="M77 510 L99 510 L127 750 L77 750 L77 510 Z " />
<glyph glyph-name="second" unicode="&#x2033;" horiz-adv-x="308" d="M77 510 L99 510 L127 750 L77 750 L77 510 Z M197 510 L219 510 L247 750 L197 750 L197 510 Z " />
<glyph glyph-name="guilsinglleft" unicode="&#x2039;" horiz-adv-x="321" d="M238 60 L263 60 L263 85 L92 273 L263 460 L263 480 L238 480 L47 270 L238 60 Z " />
<glyph glyph-name="guilsinglright" unicode="&#x203a;" horiz-adv-x="320" d="M57 60 L82 60 L273 270 L82 480 L57 480 L57 455 L228 268 L57 80 L57 60 Z " />
<glyph glyph-name="fraction" unicode="&#x2044;" horiz-adv-x="522" d="M8 -40 L44 -40 L513 790 L477 790 L8 -40 Z " />
<glyph glyph-name="Euro" unicode="&#x20ac;" horiz-adv-x="816" d="M755 141 L755 166 L730 166 C730 166 673 20 473 20 C313 20 196 123 168 296 L489 296 L515 326 L163 326 C162 341 161 362 161 378 C161 394 162 415 163 431 L583 431 L608 461 L168 461 C194 623 299 730 472 730 C673 730 725 589 725 589 L750 589 L750 614 C750 614 688 760 472 760 C281 760 160 640 132 461 L41 461 L41 431 L128 431 C127 415 126 394 126 378 C126 362 127 341 128 326 L41 326 L41 296 L132 296 C160 117 280 -10 473 -10 C696 -10 755 141 755 141 L755 141 Z " />
<glyph glyph-name="uni20B4" unicode="&#x20b4;" horiz-adv-x="694" d="M635 420 L635 450 L544 450 C570 483 579 526 579 567 C579 665 516 760 360 760 C227 760 148 689 138 596 L138 571 L163 571 C167 632 213 730 360 730 C487 730 544 665 544 567 C544 519 530 476 497 450 L55 450 L55 420 L635 420 Z M594 151 L594 176 L569 176 C535 71 472 20 348 20 C242 20 155 76 155 188 C155 215 161 260 191 290 L635 290 L635 320 L55 320 L55 290 L148 290 C127 257 120 220 120 188 C120 64 214 -10 349 -10 C507 -10 567 66 594 151 L594 151 Z " />
<glyph glyph-name="uni20B8" unicode="&#x20b8;" horiz-adv-x="607" d="M29 720 L578 720 L578 750 L29 750 L29 720 Z M291 0 L326 0 L326 580 L578 580 L578 610 L29 610 L29 580 L291 580 L291 0 Z " />
<glyph glyph-name="uni20BD" unicode="&#x20bd;" horiz-adv-x="619" d="M470 219 L470 249 L191 249 L191 340 L337 340 C512 340 580 435 580 552 C580 678 498 750 337 750 L156 750 L156 369 L47 369 L47 340 L156 340 L156 249 L47 249 L47 219 L156 219 L156 0 L191 0 L191 219 L470 219 Z M191 369 L191 720 L336 720 C495 720 545 637 545 552 C545 452 491 369 336 369 L191 369 Z " />
<glyph glyph-name="afii61352" unicode="&#x2116;" horiz-adv-x="1160" d="M110 0 L142 0 L142 691 L602 0 L634 0 L634 750 L602 750 L602 59 L142 750 L110 750 L110 0 Z M932 334 C1046 334 1110 421 1110 523 C1110 624 1044 712 932 712 C819 712 755 625 755 523 C755 423 816 334 932 334 L932 334 Z M932 364 C845 364 790 427 790 523 C790 619 846 682 932 682 C1017 682 1075 621 1075 523 C1075 427 1019 364 932 364 L932 364 Z M785 245 L1081 245 L1081 275 L785 275 L785 245 Z " />
<glyph glyph-name="trademark" unicode="&#x2122;" horiz-adv-x="690" d="M447 507 L477 507 L570 714 L570 457 L603 457 L603 750 L560 750 L467 542 L369 750 L322 750 L322 457 L352 457 L352 709 L447 507 Z M141 457 L174 457 L174 722 L272 722 L272 750 L44 750 L44 722 L141 722 L141 457 Z " />
<glyph glyph-name="uni2139" unicode="&#x2139;" horiz-adv-x="1180" d="M535 610 L645 610 L645 720 L535 720 L535 610 Z M540 0 L640 0 L640 500 L540 500 L540 0 Z " />
<glyph glyph-name="onethird" unicode="&#x2153;" horiz-adv-x="867" d="M175 -40 L211 -40 L680 790 L644 790 L175 -40 Z M195 300 L228 300 L228 750 L205 750 L35 610 L35 585 L60 585 L195 696 L195 300 Z M672 -83 C784 -83 824 -22 824 43 C824 89 794 142 720 152 C778 168 800 218 800 258 C800 335 751 377 668 377 C572 377 531 315 520 266 L520 241 L545 241 C554 299 591 346 669 347 C726 348 767 319 767 257 C767 219 752 164 672 164 L631 164 L631 134 L678 134 C765 134 791 78 791 43 C791 -26 737 -53 672 -53 C598 -53 548 -10 540 53 L515 53 L515 28 C525 -16 565 -83 672 -83 L672 -83 Z " />
<glyph glyph-name="twothirds" unicode="&#x2154;" horiz-adv-x="912" d="M234 -40 L270 -40 L739 790 L703 790 L234 -40 Z M334 300 L334 335 L110 335 L204 419 C280 488 328 545 328 622 C328 708 279 756 191 756 C73 756 60 659 53 648 L53 623 L78 623 C87 678 118 726 191 726 C258 726 295 685 295 622 C295 567 263 515 182 442 L57 330 L57 300 L334 300 Z M721 -83 C833 -83 873 -22 873 43 C873 89 843 142 769 152 C827 168 849 218 849 258 C849 335 800 377 717 377 C621 377 580 315 569 266 L569 241 L594 241 C603 299 640 346 718 347 C775 348 816 319 816 257 C816 219 801 164 721 164 L680 164 L680 134 L727 134 C814 134 840 78 840 43 C840 -26 786 -53 721 -53 C647 -53 597 -10 589 53 L564 53 L564 28 C574 -16 614 -83 721 -83 L721 -83 Z " />
<glyph glyph-name="oneeighth" unicode="&#x215b;" horiz-adv-x="862" d="M175 -40 L211 -40 L680 790 L644 790 L175 -40 Z M228 300 L228 750 L205 750 L35 610 L35 585 L60 585 L195 696 L195 300 L228 300 Z M667 -86 C759 -87 819 -31 819 44 C819 92 798 142 729 162 C779 184 796 229 796 261 C796 321 749 377 667 377 C583 377 539 321 539 261 C539 229 549 189 609 162 C547 150 515 92 515 44 C515 -31 576 -85 667 -86 L667 -86 Z M667 175 C605 175 572 214 572 261 C572 304 606 347 667 347 C727 347 763 304 763 261 C763 214 727 175 667 175 L667 175 Z M667 -56 C594 -56 548 -18 548 44 C548 98 589 146 667 146 C745 146 786 98 786 44 C786 -18 741 -56 667 -56 L667 -56 Z " />
<glyph glyph-name="threeeighths" unicode="&#x215c;" horiz-adv-x="945" d="M262 -40 L298 -40 L767 790 L731 790 L262 -40 Z M204 296 C316 296 356 357 356 422 C356 468 326 521 252 531 C310 547 332 597 332 637 C332 714 283 756 200 756 C104 756 63 694 52 645 L52 620 L77 620 C86 678 123 725 201 726 C258 727 299 698 299 636 C299 598 284 543 204 543 L163 543 L163 513 L210 513 C297 513 323 457 323 422 C323 353 269 326 204 326 C130 326 80 369 72 432 L47 432 L47 407 C57 363 97 296 204 296 L204 296 Z M754 -86 C846 -87 906 -31 906 44 C906 92 885 142 816 162 C866 184 883 229 883 261 C883 321 836 377 754 377 C670 377 626 321 626 261 C626 229 636 189 696 162 C634 150 602 92 602 44 C602 -31 663 -85 754 -86 L754 -86 Z M754 175 C692 175 659 214 659 261 C659 304 693 347 754 347 C814 347 850 304 850 261 C850 214 814 175 754 175 L754 175 Z M754 -56 C681 -56 635 -18 635 44 C635 98 676 146 754 146 C832 146 873 98 873 44 C873 -18 828 -56 754 -56 L754 -56 Z " />
<glyph glyph-name="fiveeighths" unicode="&#x215d;" horiz-adv-x="921" d="M238 -40 L274 -40 L743 790 L707 790 L238 -40 Z M190 296 C262 296 330 349 330 443 C330 547 266 588 192 588 C153 588 109 573 84 538 L116 715 L304 715 L304 750 L93 750 L51 502 L84 490 C105 541 147 558 190 558 C254 558 297 512 297 443 C297 380 255 326 190 326 C120 326 80 354 66 416 L41 416 L41 391 C52 346 95 296 190 296 L190 296 Z M730 -86 C822 -87 882 -31 882 44 C882 92 861 142 792 162 C842 184 859 229 859 261 C859 321 812 377 730 377 C646 377 602 321 602 261 C602 229 612 189 672 162 C610 150 578 92 578 44 C578 -31 639 -85 730 -86 L730 -86 Z M730 175 C668 175 635 214 635 261 C635 304 669 347 730 347 C790 347 826 304 826 261 C826 214 790 175 730 175 L730 175 Z M730 -56 C657 -56 611 -18 611 44 C611 98 652 146 730 146 C808 146 849 98 849 44 C849 -18 804 -56 730 -56 L730 -56 Z " />
<glyph glyph-name="seveneighths" unicode="&#x215e;" horiz-adv-x="884" d="M195 -40 L231 -40 L700 790 L664 790 L195 -40 Z M167 294 C237 445 312 608 376 730 L376 750 L35 750 L35 720 L336 720 C283 612 196 435 142 319 L142 294 L167 294 Z M687 -86 C779 -87 839 -31 839 44 C839 92 818 142 749 162 C799 184 816 229 816 261 C816 321 769 377 687 377 C603 377 559 321 559 261 C559 229 569 189 629 162 C567 150 535 92 535 44 C535 -31 596 -85 687 -86 L687 -86 Z M687 175 C625 175 592 214 592 261 C592 304 626 347 687 347 C747 347 783 304 783 261 C783 214 747 175 687 175 L687 175 Z M687 -56 C614 -56 568 -18 568 44 C568 98 609 146 687 146 C765 146 806 98 806 44 C806 -18 761 -56 687 -56 L687 -56 Z " />
<glyph glyph-name="uni2190" unicode="&#x2190;" horiz-adv-x="1180" d="M614 54 L369 315 L982 315 L982 415 L369 415 L614 676 L614 741 L543 741 L180 365 L543 -11 L614 -11 L614 54 Z " />
<glyph glyph-name="uni2191" unicode="&#x2191;" horiz-adv-x="1180" d="M901 346 L640 591 L640 -22 L540 -22 L540 591 L279 346 L214 346 L214 417 L590 780 L966 417 L966 346 L901 346 Z " />
<glyph glyph-name="uni2192" unicode="&#x2192;" horiz-adv-x="1180" d="M565 49 L810 310 L197 310 L197 410 L810 410 L565 671 L565 736 L636 736 L999 360 L636 -16 L565 -16 L565 49 Z " />
<glyph glyph-name="uni2193" unicode="&#x2193;" horiz-adv-x="1192" d="M278 390 L539 145 L539 758 L639 758 L639 145 L900 390 L965 390 L965 319 L589 -44 L213 319 L213 390 L278 390 Z " />
<glyph glyph-name="uni2194" unicode="&#x2194;" horiz-adv-x="1180" d="M490 180 L363 317 L817 317 L690 180 L690 124 L751 124 L975 360 L751 596 L690 596 L690 540 L818 403 L362 403 L490 540 L490 596 L430 596 L205 360 L430 124 L490 124 L490 180 Z " />
<glyph glyph-name="uni2195" unicode="&#x2195;" horiz-adv-x="1180" d="M591 -25 L827 200 L827 260 L771 260 L634 133 L634 587 L771 460 L827 460 L827 521 L591 745 L355 521 L355 460 L411 460 L548 588 L548 132 L411 260 L355 260 L355 200 L591 -25 Z " />
<glyph glyph-name="uni2196" unicode="&#x2196;" horiz-adv-x="1180" d="M832 51 L897 116 L475 539 L821 543 L868 589 L821 634 L314 634 L314 127 L359 80 L405 127 L409 473 L832 51 Z " />
<glyph glyph-name="uni2197" unicode="&#x2197;" horiz-adv-x="1180" d="M348 51 L283 116 L705 539 L359 543 L312 589 L359 634 L866 634 L866 127 L821 80 L775 127 L771 473 L348 51 Z " />
<glyph glyph-name="uni2198" unicode="&#x2198;" horiz-adv-x="1180" d="M357 659 L292 594 L714 171 L368 167 L321 121 L368 76 L875 76 L875 583 L830 630 L784 583 L780 237 L357 659 Z " />
<glyph glyph-name="uni2199" unicode="&#x2199;" horiz-adv-x="1093" d="M828 666 L893 601 L471 178 L817 174 L864 128 L817 83 L310 83 L310 590 L355 637 L401 590 L405 244 L828 666 Z " />
<glyph glyph-name="uni21B0" unicode="&#x21b0;" horiz-adv-x="1180" d="M858 45 L858 286 C858 422 785 507 640 507 L383 507 L514 648 L514 706 L452 706 L220 463 L452 219 L514 219 L514 277 L382 419 L640 419 C723 419 770 367 770 286 L770 45 L858 45 Z " />
<glyph glyph-name="uni21B1" unicode="&#x21b1;" horiz-adv-x="1180" d="M325 45 L325 286 C325 422 398 507 543 507 L800 507 L669 648 L669 706 L731 706 L963 463 L731 219 L669 219 L669 277 L801 419 L543 419 C460 419 413 367 413 286 L413 45 L325 45 Z " />
<glyph glyph-name="uni21B2" unicode="&#x21b2;" horiz-adv-x="1180" d="M858 675 L858 434 C858 298 785 213 640 213 L383 213 L514 72 L514 14 L452 14 L220 257 L452 501 L514 501 L514 443 L382 301 L640 301 C723 301 770 353 770 434 L770 675 L858 675 Z " />
<glyph glyph-name="uni21B3" unicode="&#x21b3;" horiz-adv-x="1180" d="M316 675 L316 434 C316 298 389 213 534 213 L791 213 L660 72 L660 14 L722 14 L954 257 L722 501 L660 501 L660 443 L792 301 L534 301 C451 301 404 353 404 434 L404 675 L316 675 Z " />
<glyph glyph-name="minus" unicode="&#x2212;" horiz-adv-x="540" d="M76 334 L464 334 L464 364 L76 364 L76 334 Z " />
<glyph glyph-name="approxequal" unicode="&#x2248;" horiz-adv-x="628" d="M427 338 C492 338 549 379 558 520 L533 520 C523 416 483 367 427 367 C343 367 325 514 209 514 C144 514 88 474 78 342 L103 342 C112 429 146 484 207 484 C301 484 313 338 427 338 L427 338 Z M427 108 C492 108 549 149 558 290 L533 290 C523 186 483 137 427 137 C343 137 325 284 209 284 C144 284 88 244 78 112 L103 112 C112 199 146 254 207 254 C301 254 313 108 427 108 L427 108 Z " />
<glyph glyph-name="notequal" unicode="&#x2260;" horiz-adv-x="566" d="M490 223 L490 253 L272 253 L345 383 L490 383 L490 413 L361 413 L460 589 L426 589 L327 413 L76 413 L76 383 L311 383 L238 253 L76 253 L76 223 L221 223 L114 32 L148 32 L255 223 L490 223 Z " />
<glyph glyph-name="lessequal" unicode="&#x2264;" horiz-adv-x="490" d="M403 180 L403 205 L109 410 L403 620 L403 640 L378 640 L69 418 L69 397 L378 180 L403 180 Z M79 80 L403 80 L403 110 L79 110 L79 80 Z " />
<glyph glyph-name="greaterequal" unicode="&#x2265;" horiz-adv-x="490" d="M112 180 L421 402 L421 423 L112 640 L87 640 L87 615 L381 410 L87 200 L87 180 L112 180 Z M87 80 L411 80 L411 110 L87 110 L87 80 Z " />
<glyph glyph-name="Pcircle" unicode="&#x24c5;" horiz-adv-x="885" d="M443 -10 C667 -10 835 165 835 376 C835 587 667 760 443 760 C218 760 50 587 50 376 C50 165 218 -10 443 -10 L443 -10 Z M443 20 C241 20 85 183 85 376 C85 570 241 730 443 730 C646 730 800 570 800 376 C800 183 646 20 443 20 L443 20 Z M349 164 L381 164 L381 330 L457 330 C556 330 605 389 605 458 C605 531 548 574 457 574 L349 574 L349 164 Z M381 360 L381 544 L457 544 C540 544 573 503 573 458 C573 404 538 360 457 360 L381 360 Z " />
<glyph glyph-name="uni2615" unicode="&#x2615;" horiz-adv-x="1180" d="M824 320 L854 500 L356 500 L414 211 L710 211 L728 320 L824 320 Z M784 365 L736 365 L751 455 L799 455 L784 365 Z M336 141 L807 141 L807 186 L336 186 L336 141 Z " />
<glyph glyph-name="uni267F" unicode="&#x267f;" horiz-adv-x="1180" d="M813 64 L887 64 L774 322 L622 322 L614 385 L741 385 L741 422 L712 445 L607 445 L590 551 L539 591 L574 601 L594 662 L562 724 L490 724 L467 676 L487 592 L452 546 L462 434 C363 411 307 318 307 222 C307 112 397 13 523 13 C631 13 729 81 740 213 L813 64 Z M368 222 C368 305 410 359 469 378 L483 235 L680 235 C679 132 612 70 523 70 C428 70 368 140 368 222 L368 222 Z " />
<glyph glyph-name="uni26FD" unicode="&#x26fd;" horiz-adv-x="1180" d="M537 581 L500 581 L306 242 C287 209 275 189 275 150 C275 89 318 55 377 55 C452 55 489 96 489 174 L489 459 L534 530 L534 51 L838 51 L838 675 L537 675 L537 581 Z M793 630 L793 483 L582 483 L582 630 L793 630 Z M323 151 C323 179 336 201 361 245 L444 394 L444 187 C444 127 428 100 380 100 C346 100 323 120 323 151 L323 151 Z " />
<glyph glyph-name="uni2764" unicode="&#x2764;" horiz-adv-x="1180" d="M590 98 L816 325 C846 355 866 397 866 441 C866 485 847 528 816 557 C788 584 750 599 707 599 C666 599 627 584 599 557 L590 548 L581 557 C552 584 514 599 472 599 C430 599 392 584 364 557 C333 528 314 485 314 441 C314 397 333 354 364 325 L590 98 Z " />
<glyph glyph-name="uni2B0E" unicode="&#x2b0e;" horiz-adv-x="1180" d="M265 606 L506 606 C642 606 727 533 727 388 L727 131 L868 262 L926 262 L926 200 L683 -32 L439 200 L439 262 L497 262 L639 130 L639 388 C639 471 587 518 506 518 L265 518 L265 606 Z " />
<glyph glyph-name="uni2B0F" unicode="&#x2b0f;" horiz-adv-x="1180" d="M288 80 L529 80 C665 80 750 153 750 298 L750 555 L891 424 L949 424 L949 486 L706 718 L462 486 L462 424 L520 424 L662 556 L662 298 C662 215 610 168 529 168 L288 168 L288 80 Z " />
<glyph glyph-name="uni2B10" unicode="&#x2b10;" horiz-adv-x="1180" d="M902 608 L661 608 C525 608 440 535 440 390 L440 133 L299 264 L241 264 L241 202 L484 -30 L728 202 L728 264 L670 264 L528 132 L528 390 C528 473 580 520 661 520 L902 520 L902 608 Z " />
<glyph glyph-name="uni2B11" unicode="&#x2b11;" horiz-adv-x="1180" d="M891 66 L650 66 C514 66 429 139 429 284 L429 541 L288 410 L230 410 L230 472 L473 704 L717 472 L717 410 L659 410 L517 542 L517 284 C517 201 569 154 650 154 L891 154 L891 66 Z " />
<glyph glyph-name="fillframe1" unicode="&#xe004;" horiz-adv-x="1180" d="M231 -158 L949 -158 L1105 21 L1105 696 L949 875 L231 875 L75 696 L75 21 L231 -158 Z " />
<glyph glyph-name="uniE006" unicode="&#xe006;" horiz-adv-x="1180" d="M590 -157 C728 -157 851 -106 942 -21 C1044 75 1105 215 1105 360 C1105 505 1044 645 942 741 C851 826 728 877 590 877 C452 877 329 826 238 741 C136 645 75 505 75 360 C75 215 136 75 238 -21 C329 -106 452 -157 590 -157 L590 -157 Z M590 -87 C473 -87 360 -44 279 34 C197 113 145 228 145 360 C145 492 197 607 279 686 C360 764 473 807 590 807 C707 807 820 764 901 686 C983 607 1035 492 1035 360 C1035 228 983 113 901 34 C820 -44 707 -87 590 -87 L590 -87 Z " />
<glyph glyph-name="fillframeround" unicode="&#xe007;" horiz-adv-x="1180" d="M590 -157 C728 -157 851 -106 942 -21 C1044 75 1105 215 1105 360 C1105 505 1044 645 942 741 C851 826 728 877 590 877 C452 877 329 826 238 741 C136 645 75 505 75 360 C75 215 136 75 238 -21 C329 -106 452 -157 590 -157 L590 -157 Z " />
<glyph glyph-name="noframe1" unicode="&#xe008;" horiz-adv-x="1180" d="M231 -158 L949 -158 L1105 21 L1105 696 L949 875 L231 875 L75 696 L75 21 L231 -158 Z M255 805 L925 805 L1035 678 L1035 39 L1003 2 L224 769 L255 805 Z M255 -88 L145 39 L145 678 L179 717 L958 -50 L925 -88 L255 -88 Z " />
<glyph glyph-name="regframe1" unicode="&#xe00c;" horiz-adv-x="1180" d="M231 -158 L949 -158 L1105 21 L1105 696 L949 875 L231 875 L75 696 L75 21 L231 -158 Z M255 -88 L145 39 L145 678 L255 805 L925 805 L1035 678 L1035 39 L925 -88 L255 -88 Z " />
<glyph glyph-name="uniE50C" unicode="&#xe50c;" horiz-adv-x="1180" d="M459 22 L590 47 L721 22 L721 62 L628 114 L644 350 L963 291 L963 342 L648 483 C648 658 625 750 589 750 C553 750 529 658 533 483 L217 342 L217 291 L537 350 L552 114 L459 62 L459 22 Z " />
<glyph glyph-name="uniE519" unicode="&#xe519;" horiz-adv-x="1180" d="M701 -31 L836 61 L836 719 L409 719 L409 535 L454 535 L454 674 L795 674 L705 614 C703 613 701 610 701 608 L701 370 L653 370 L579 516 L605 521 L639 581 L612 644 L547 644 L524 608 L536 530 L407 504 L343 391 L343 364 L373 343 L439 454 L483 460 L366 166 L244 155 L244 104 L414 104 L471 222 L478 222 L553 121 L593 -29 L655 -29 L623 134 L553 262 L588 376 L621 312 L701 312 L701 -31 Z " />
<glyph glyph-name="uniE51F" unicode="&#xe51f;" horiz-adv-x="1180" d="M450 569 L498 569 L498 694 L546 649 L571 649 L571 677 L474 770 L377 677 L377 649 L402 649 L450 694 L450 569 Z M705 559 L802 652 L802 680 L777 680 L729 635 L729 760 L681 760 L681 635 L633 680 L608 680 L608 652 L705 559 Z M314 55 L866 55 L866 535 L314 535 L314 55 Z M359 100 L359 490 L821 490 L821 100 L359 100 Z M709 140 L728 140 L728 216 L737 216 L737 140 L755 140 L761 216 L780 216 L765 286 L787 303 L767 380 L742 401 L759 414 L753 442 L740 457 L723 457 L711 442 L704 414 L722 401 L697 380 L677 303 L700 286 L684 216 L703 216 L709 140 Z M424 140 L451 140 L451 250 L471 250 L471 140 L498 140 L498 262 L518 282 L513 380 L472 403 L480 414 L486 439 L472 457 L450 457 L436 440 L441 414 L450 403 L409 380 L404 281 L424 262 L424 140 Z M560 140 L587 140 L587 250 L607 250 L607 140 L634 140 L634 262 L654 282 L649 380 L608 403 L616 414 L622 439 L608 457 L586 457 L572 440 L577 414 L586 403 L545 380 L540 281 L560 262 L560 140 Z " />
<glyph glyph-name="uniE521" unicode="&#xe521;" horiz-adv-x="1180" d="M283 69 L333 69 L385 234 L396 234 L396 69 L446 69 L446 234 L499 234 L450 419 L472 503 L519 421 L643 421 L643 444 L624 463 L561 463 L503 581 L481 612 L523 619 L542 675 L514 734 L456 734 L431 713 L398 635 L445 623 L382 588 L332 416 L253 234 L333 234 L283 69 Z M686 419 L790 419 L806 441 C811 432 821 419 845 419 C878 419 888 444 888 464 C888 487 873 507 845 507 C816 507 806 485 804 469 L771 552 L735 552 L745 489 L706 489 L610 551 L602 515 L665 459 L686 419 Z M525 69 L575 69 L575 347 L848 347 L848 69 L898 69 L898 397 L525 397 L525 69 Z " />
<glyph glyph-name="uniE524" unicode="&#xe524;" horiz-adv-x="1180" d="M247 515 L293 515 L593 697 L894 515 L940 515 L940 561 L593 773 L247 561 L247 515 Z M245 138 L301 138 L301 198 L885 198 L885 138 L940 138 L940 391 L885 391 L885 253 L300 253 L300 466 L245 466 L245 138 Z M325 278 L860 278 L860 391 L497 455 L464 394 L445 428 L386 455 L330 434 L323 373 L361 350 L444 350 L433 325 L325 325 L325 278 Z " />
<glyph glyph-name="uniE527" unicode="&#xe527;" horiz-adv-x="1180" d="M486 79 L797 394 L907 394 L907 577 L716 577 L613 473 L570 549 L598 605 L571 649 L518 649 L499 605 L523 551 L499 499 L499 357 L408 264 L296 264 L296 79 L486 79 Z M351 134 L351 209 L433 209 L742 522 L851 522 L851 449 L771 449 L461 134 L351 134 Z " />
<glyph glyph-name="uniE52A" unicode="&#xe52a;" horiz-adv-x="1180" d="M287 88 L445 88 L445 211 L567 211 L567 332 L688 332 L688 453 L809 453 L809 574 L908 574 L908 628 L754 628 L754 508 L633 508 L633 387 L511 387 L511 267 L390 267 L390 143 L287 143 L287 88 Z " />
<glyph glyph-name="uniE52E" unicode="&#xe52e;" horiz-adv-x="1180" d="M438 432 L750 432 C768 449 777 471 777 496 C777 547 744 592 686 592 C686 643 643 682 595 682 C545 682 503 644 503 592 C443 592 411 548 411 496 C411 472 419 449 438 432 L438 432 Z M584 0 L607 0 L727 402 L457 402 L584 0 Z " />
<glyph glyph-name="uniE52F" unicode="&#xe52f;" horiz-adv-x="1180" d="M414 159 L812 159 L812 204 L465 204 L504 256 L783 256 L865 533 L417 533 L355 618 L271 618 L271 573 L324 573 L426 429 L469 280 L414 204 L414 159 Z M485 54 C509 54 528 73 528 97 C528 121 509 140 485 140 C462 140 442 120 442 97 C442 74 462 54 485 54 L485 54 Z M729 54 C753 54 773 73 773 97 C773 121 753 140 729 140 C706 140 687 121 687 97 C687 73 706 54 729 54 L729 54 Z " />
<glyph glyph-name="uniE530" unicode="&#xe530;" horiz-adv-x="1180" d="M384 147 L798 147 L896 468 L735 468 L711 581 L468 581 L444 468 L286 468 L384 147 Z M498 468 L509 531 L671 531 L682 468 L498 468 Z " />
<glyph glyph-name="uniE536" unicode="&#xe536;" horiz-adv-x="1180" d="M505 97 L674 97 L674 289 L867 289 L867 458 L674 458 L674 651 L505 651 L505 458 L313 458 L313 289 L505 289 L505 97 Z " />
<glyph glyph-name="uniE542" unicode="&#xe542;" horiz-adv-x="1180" d="M287 464 C377 555 473 588 590 588 C707 588 791 555 893 464 L939 510 C844 611 728 653 590 653 C452 653 322 610 241 510 L287 464 Z M368 383 C440 456 514 475 590 475 C666 475 734 455 812 383 L858 429 C795 497 699 539 590 539 C481 539 382 496 322 429 L368 383 Z M449 302 C495 347 543 360 590 360 C637 360 695 347 731 302 L777 348 C720 406 659 425 590 425 C521 425 460 408 403 348 L449 302 Z M500 86 L536 86 L575 234 L575 249 L546 249 L520 149 L491 249 L453 249 L425 151 L399 249 L363 249 L363 232 L402 86 L438 86 L469 194 L500 86 Z M658 86 L695 86 L695 150 L749 150 L749 182 L695 182 L695 217 L756 217 L756 249 L658 249 L658 86 Z M591 86 L633 86 L633 249 L591 249 L591 86 Z M774 86 L816 86 L816 249 L774 249 L774 86 Z " />
<glyph glyph-name="uniE545" unicode="&#xe545;" horiz-adv-x="1180" d="M458 38 L674 38 L674 454 L595 525 L595 561 L664 561 L792 495 L811 495 L811 670 L792 670 L665 610 L595 610 L595 659 L536 659 L536 610 L471 610 L338 490 L372 452 L494 561 L537 561 L537 525 L458 453 L458 38 Z " />
<glyph glyph-name="uniE547" unicode="&#xe547;" horiz-adv-x="1180" d="M529 206 L629 206 C623 220 621 234 621 247 C621 345 812 347 812 543 C812 662 722 738 594 738 C428 738 390 601 390 601 L390 533 L468 533 C468 533 481 651 591 651 C659 651 706 607 706 543 C706 380 520 379 520 250 C520 236 523 220 529 206 L529 206 Z M527 0 L643 0 L643 117 L527 117 L527 0 Z " />
<glyph glyph-name="uniE549" unicode="&#xe549;" horiz-adv-x="1180" d="M847 84 L803 139 C747 86 669 57 590 57 C511 57 433 86 377 139 C323 192 288 272 288 360 C288 448 323 528 377 581 C433 634 511 663 590 663 C655 663 718 645 770 610 L675 603 L657 572 L679 545 L875 559 L861 747 L831 765 L803 743 L808 671 C747 712 672 732 590 732 C490 732 399 695 333 636 C258 566 216 464 216 360 C216 257 258 154 333 84 C399 25 490 -12 590 -12 C690 -12 781 25 847 84 L847 84 Z M557 283 L475 283 L506 318 C536 352 552 379 552 413 C552 455 521 481 477 481 C412 481 397 435 397 435 L397 403 L435 403 C435 403 438 441 471 441 C489 441 498 429 498 411 C498 388 492 373 470 348 L399 269 L399 235 L557 235 L557 283 Z M755 293 L755 336 L719 336 L719 478 L667 478 L566 330 L566 293 L672 293 L672 232 L719 232 L719 293 L755 293 Z M834 317 C834 338 840 355 865 355 C885 355 893 342 893 317 L893 235 L941 235 L941 332 C941 370 921 400 882 400 C857 400 842 387 834 376 L834 478 L787 478 L787 235 L834 235 L834 317 Z M619 336 L672 413 L672 336 L619 336 Z " />
<glyph glyph-name="uniE54A" unicode="&#xe54a;" horiz-adv-x="1180" d="M430 234 L473 234 L431 85 L508 85 L550 234 L697 234 L728 85 L806 85 L752 438 L865 438 L916 473 L928 530 L764 563 L740 628 L722 628 L662 437 L426 398 L311 425 L267 406 L257 375 L384 341 L311 85 L387 85 L430 234 Z " />
<glyph glyph-name="uniE54B" unicode="&#xe54b;" horiz-adv-x="1180" d="M286 63 L868 63 L868 108 L689 108 L689 220 C710 212 733 208 758 208 C809 208 853 226 887 259 C925 292 948 346 948 400 C948 453 925 504 887 539 C859 565 824 583 784 588 C777 606 766 623 752 636 C730 656 701 669 668 669 C634 669 604 656 583 636 C560 614 545 581 544 547 C512 542 484 529 463 509 C434 481 416 441 416 399 C416 357 434 316 463 289 C489 264 525 249 565 249 C586 249 606 253 624 261 L624 108 L499 108 L499 167 L555 174 L555 220 L378 220 L378 174 L434 167 L434 108 L286 108 L286 63 Z " />
<glyph glyph-name="uniE54C" unicode="&#xe54c;" horiz-adv-x="1180" d="M889 445 L956 445 L956 510 L591 745 L225 510 L225 445 L284 445 L590 631 L889 445 Z M454 -14 L547 -14 L547 139 L608 139 C739 139 805 226 805 319 C805 418 729 483 608 483 L454 483 L454 -14 Z M547 217 L547 404 L607 404 C674 404 712 362 712 315 C712 257 672 217 607 217 L547 217 Z " />
<glyph glyph-name="uniE54D" unicode="&#xe54d;" horiz-adv-x="1180" d="M434 0 L532 0 L532 257 L613 257 C770 257 848 368 848 487 C848 616 757 700 613 700 L434 700 L434 0 Z M532 341 L532 616 L613 616 C701 616 750 554 750 484 C750 398 697 341 613 341 L532 341 Z " />
<glyph glyph-name="uniE565" unicode="&#xe565;" horiz-adv-x="1180" d="M746 449 L791 611 L740 581 L708 636 C700 649 693 652 677 652 L547 652 C556 649 568 634 576 621 L635 520 L577 489 L746 449 Z M506 447 L579 573 L550 622 C542 636 529 647 509 647 C484 647 475 635 467 621 L401 507 L506 447 Z M792 248 L849 248 C879 248 899 265 899 294 C899 300 897 309 891 320 L824 436 L719 375 L792 248 Z M351 167 C352 174 354 181 360 191 L424 302 L477 269 L430 433 L263 395 L318 362 L298 327 C288 310 286 300 286 294 C286 288 286 280 299 257 L351 167 Z M717 42 L717 107 L775 107 C793 107 803 118 810 130 L867 229 C863 227 855 227 853 227 L717 227 L717 290 L597 168 L717 42 Z M417 106 L551 106 L551 226 L404 226 L376 176 C372 169 368 159 368 150 C368 122 389 106 417 106 L417 106 Z " />
<glyph glyph-name="uniE569" unicode="&#xe569;" horiz-adv-x="1180" d="M590 877 C452 877 329 826 238 741 C136 645 75 505 75 360 C75 215 136 75 238 -21 C329 -106 452 -157 590 -157 C728 -157 851 -106 942 -21 C1044 75 1105 215 1105 360 C1105 505 1044 645 942 741 C851 826 728 877 590 877 L590 877 Z M848 487 C848 616 757 700 613 700 L434 700 L434 566 L297 703 C377 770 482 807 590 807 C707 807 820 764 901 686 C983 607 1035 492 1035 360 C1035 246 996 144 932 68 L722 278 C806 316 848 400 848 487 L848 487 Z M590 -87 C473 -87 360 -44 279 34 C197 113 145 228 145 360 C145 475 185 577 249 654 L884 18 C804 -50 699 -87 590 -87 L590 -87 Z M532 616 L613 616 C701 616 750 554 750 484 C750 413 714 362 654 346 L532 468 L532 616 Z M434 391 L434 0 L532 0 L532 257 L568 257 L434 391 Z " />
<glyph glyph-name="uniE56A" unicode="&#xe56a;" horiz-adv-x="1180" d="M590 877 C452 877 329 826 238 741 C136 645 75 505 75 360 C75 215 136 75 238 -21 C329 -106 452 -157 590 -157 C728 -157 851 -106 942 -21 C1044 75 1105 215 1105 360 C1105 505 1044 645 942 741 C851 826 728 877 590 877 L590 877 Z M752 438 L865 438 L916 473 L928 530 L764 563 L740 628 L722 628 L661 435 L578 422 L297 703 C377 770 482 807 590 807 C707 807 820 764 901 686 C983 607 1035 492 1035 360 C1035 246 996 144 932 68 L795 205 L752 438 Z M590 -87 C473 -87 360 -44 279 34 C197 113 145 228 145 360 C145 475 185 577 249 654 L884 18 C804 -50 699 -87 590 -87 L590 -87 Z M430 234 L473 234 L431 85 L508 85 L550 234 L590 234 L426 398 L311 425 L267 406 L257 375 L384 341 L311 85 L387 85 L430 234 Z M639 186 L641 85 L739 85 L639 186 Z " />
<glyph glyph-name="uniE56B" unicode="&#xe56b;" horiz-adv-x="1180" d="M590 877 C452 877 329 826 238 741 C136 645 75 505 75 360 C75 215 136 75 238 -21 C329 -106 452 -157 590 -157 C728 -157 851 -106 942 -21 C1044 75 1105 215 1105 360 C1105 505 1044 645 942 741 C851 826 728 877 590 877 L590 877 Z M727 402 L598 402 L568 432 L750 432 C768 449 777 471 777 496 C777 547 744 592 686 592 C686 643 643 682 595 682 C545 682 503 644 503 592 C474 592 451 581 435 565 L297 703 C377 770 482 807 590 807 C707 807 820 764 901 686 C983 607 1035 492 1035 360 C1035 246 996 144 932 68 L697 303 L727 402 Z M590 -87 C473 -87 360 -44 279 34 C197 113 145 228 145 360 C145 475 185 577 249 654 L884 18 C804 -50 699 -87 590 -87 L590 -87 Z M473 351 L585 0 L607 0 L657 167 L473 351 Z " />
<glyph glyph-name="uniE56C" unicode="&#xe56c;" horiz-adv-x="1180" d="M590 877 C452 877 329 826 238 741 C136 645 75 505 75 360 C75 215 136 75 238 -21 C329 -106 452 -157 590 -157 C728 -157 851 -106 942 -21 C1044 75 1105 215 1105 360 C1105 505 1044 645 942 741 C851 826 728 877 590 877 L590 877 Z M795 523 L775 613 L701 613 L714 750 L658 750 L645 613 L419 613 L413 587 L297 703 C377 770 482 807 590 807 C707 807 820 764 901 686 C983 607 1035 492 1035 360 C1035 246 996 144 932 68 L728 272 L751 523 L795 523 Z M590 -87 C473 -87 360 -44 279 34 C197 113 145 228 145 360 C145 475 185 577 249 654 L884 18 C804 -50 699 -87 590 -87 L590 -87 Z M458 367 L489 39 L705 39 L712 113 L458 367 Z " />
<glyph glyph-name="uniE56D" unicode="&#xe56d;" horiz-adv-x="1180" d="M590 877 C452 877 329 826 238 741 C136 645 75 505 75 360 C75 215 136 75 238 -21 C329 -106 452 -157 590 -157 C728 -157 851 -106 942 -21 C1044 75 1105 215 1105 360 C1105 505 1044 645 942 741 C851 826 728 877 590 877 L590 877 Z M914 149 L914 530 L562 530 L562 628 L372 628 L297 703 C377 770 482 807 590 807 C707 807 820 764 901 686 C983 607 1035 492 1035 360 C1035 246 996 144 932 68 L851 149 L914 149 Z M590 -87 C473 -87 360 -44 279 34 C197 113 145 228 145 360 C145 475 185 577 249 654 L884 18 C804 -50 699 -87 590 -87 L590 -87 Z M695 598 L695 553 L840 553 L840 598 L695 598 Z M514 586 L514 529 L471 529 L414 586 L514 586 Z M624 201 C618 200 607 199 596 199 C519 199 456 263 456 340 C456 348 457 356 459 366 L298 529 L266 529 L266 149 L676 149 L624 201 Z M596 480 C673 480 737 417 737 340 C737 318 732 296 722 278 L534 466 C553 475 573 480 596 480 L596 480 Z " />
<glyph glyph-name="uniE588" unicode="&#xe588;" horiz-adv-x="1180" d="M641 45 C808 45 905 149 905 278 C905 406 808 511 641 511 L405 511 L521 636 L521 694 L458 694 L242 467 L458 239 L521 239 L521 297 L405 422 L649 422 C756 422 816 360 816 278 C816 196 756 134 649 134 L410 134 L410 45 L641 45 Z " />
<glyph glyph-name="uniE589" unicode="&#xe589;" horiz-adv-x="1180" d="M655 658 C822 658 919 554 919 425 C919 297 822 192 655 192 L419 192 L535 67 L535 9 L472 9 L256 236 L472 464 L535 464 L535 406 L419 281 L663 281 C770 281 830 343 830 425 C830 507 770 569 663 569 L424 569 L424 658 L655 658 Z " />
<glyph glyph-name="uniE58A" unicode="&#xe58a;" horiz-adv-x="1180" d="M516 55 C349 55 252 159 252 288 C252 416 349 521 516 521 L752 521 L636 646 L636 704 L699 704 L915 477 L699 249 L636 249 L636 307 L752 432 L508 432 C401 432 341 370 341 288 C341 206 401 144 508 144 L747 144 L747 55 L516 55 Z " />
<glyph glyph-name="uniE58B" unicode="&#xe58b;" horiz-adv-x="1180" d="M519 645 C352 645 255 541 255 412 C255 284 352 179 519 179 L755 179 L639 54 L639 -4 L702 -4 L918 223 L702 451 L639 451 L639 393 L755 268 L511 268 C404 268 344 330 344 412 C344 494 404 556 511 556 L750 556 L750 645 L519 645 Z " />
<glyph glyph-name="uniE58C" unicode="&#xe58c;" horiz-adv-x="1180" d="M889 409 C889 576 785 673 656 673 C528 673 423 576 423 409 L423 173 L298 289 L240 289 L240 226 L467 10 L695 226 L695 289 L637 289 L512 173 L512 417 C512 524 574 584 656 584 C738 584 800 524 800 417 L800 178 L889 178 L889 409 Z " />
<glyph glyph-name="uniE592" unicode="&#xe592;" horiz-adv-x="1180" d="M422 179 C467 179 479 203 531 203 C584 203 595 179 640 179 C685 179 696 203 749 203 C802 203 813 179 858 179 C880 179 892 184 907 191 L907 563 L447 563 L380 347 L198 347 L198 302 L289 202 C297 203 305 203 313 203 C366 203 377 179 422 179 L422 179 Z M428 347 L480 517 L567 517 L567 347 L428 347 Z M612 415 L612 517 L715 517 L715 415 L612 415 Z M760 415 L760 517 L862 517 L862 415 L760 415 Z M422 101 C479 101 485 125 531 125 C577 125 583 101 640 101 C697 101 703 125 749 125 C795 125 801 101 858 101 C881 101 895 105 907 109 L907 161 C892 154 880 149 858 149 C813 149 802 173 749 173 C696 173 685 149 640 149 C595 149 584 173 531 173 C479 173 467 149 422 149 C377 149 366 173 313 173 C294 173 279 171 257 162 L257 111 C278 120 294 125 313 125 C359 125 365 101 422 101 L422 101 Z " />
<glyph glyph-name="uniE596" unicode="&#xe596;" horiz-adv-x="1180" d="M473 150 L489 262 L498 262 L569 142 L606 0 L681 0 L628 183 L559 323 L559 412 L786 0 L842 0 L676 301 L677 302 L690 344 L573 567 L536 592 L575 603 L598 677 L566 739 L494 739 L471 691 L481 607 L401 580 L319 497 L303 328 L325 304 L361 304 L375 459 L432 517 L401 165 L355 0 L430 0 L473 150 Z " />
<glyph glyph-name="uniE599" unicode="&#xe599;" horiz-adv-x="1180" d="M687 79 L376 394 L266 394 L266 577 L457 577 L560 473 L603 549 L575 605 L602 649 L655 649 L674 605 L650 551 L674 499 L674 357 L765 264 L877 264 L877 79 L687 79 Z M822 134 L822 209 L740 209 L431 522 L322 522 L322 449 L402 449 L712 134 L822 134 Z " />
<glyph glyph-name="uniE59C" unicode="&#xe59c;" horiz-adv-x="1180" d="M893 88 L735 88 L735 211 L613 211 L613 332 L492 332 L492 453 L371 453 L371 574 L272 574 L272 628 L426 628 L426 508 L547 508 L547 387 L669 387 L669 267 L790 267 L790 143 L893 143 L893 88 Z " />
<glyph glyph-name="uniE5A0" unicode="&#xe5a0;" horiz-adv-x="1180" d="M285 409 C285 576 389 673 518 673 C646 673 751 576 751 409 L751 173 L876 289 L934 289 L934 226 L707 10 L479 226 L479 289 L537 289 L662 173 L662 417 C662 524 600 584 518 584 C436 584 374 524 374 417 L374 178 L285 178 L285 409 Z " />
<glyph glyph-name="uniE5A1" unicode="&#xe5a1;" horiz-adv-x="1180" d="M895 281 C895 114 791 17 662 17 C534 17 429 114 429 281 L429 517 L304 401 L246 401 L246 464 L473 680 L701 464 L701 401 L643 401 L518 517 L518 273 C518 166 580 106 662 106 C744 106 806 166 806 273 L806 512 L895 512 L895 281 Z " />
<glyph glyph-name="uniE5A2" unicode="&#xe5a2;" horiz-adv-x="1180" d="M289 281 C289 114 393 17 522 17 C650 17 755 114 755 281 L755 517 L880 401 L938 401 L938 464 L711 680 L483 464 L483 401 L541 401 L666 517 L666 273 C666 166 604 106 522 106 C440 106 378 166 378 273 L378 512 L289 512 L289 281 Z " />
<glyph glyph-name="uniE5A3" unicode="&#xe5a3;" horiz-adv-x="1180" d="M492 72 L874 72 L874 650 L492 650 L492 483 L569 483 L569 573 L797 573 L797 149 L569 149 L569 236 L492 236 L492 72 Z M371 192 L426 192 L426 242 L352 322 L673 322 L673 399 L352 399 L426 480 L426 531 L371 531 L206 360 L371 192 Z " />
<glyph glyph-name="uniE5A4" unicode="&#xe5a4;" horiz-adv-x="1180" d="M705 72 L323 72 L323 650 L705 650 L705 483 L628 483 L628 573 L400 573 L400 149 L628 149 L628 236 L705 236 L705 72 Z M826 192 L771 192 L771 242 L845 322 L524 322 L524 399 L845 399 L771 480 L771 531 L826 531 L991 360 L826 192 Z " />
<glyph glyph-name="uniE5A5" unicode="&#xe5a5;" horiz-adv-x="1180" d="M879 468 L879 86 L301 86 L301 468 L468 468 L468 391 L378 391 L378 163 L802 163 L802 391 L715 391 L715 468 L879 468 Z M759 589 L759 534 L709 534 L629 608 L629 287 L552 287 L552 608 L471 534 L420 534 L420 589 L591 754 L759 589 Z " />
<glyph glyph-name="uniE5A6" unicode="&#xe5a6;" horiz-adv-x="1190" d="M879 251 L879 633 L301 633 L301 251 L468 251 L468 328 L378 328 L378 556 L802 556 L802 328 L715 328 L715 251 L879 251 Z M759 130 L759 185 L709 185 L629 111 L629 432 L552 432 L552 111 L471 185 L420 185 L420 130 L591 -35 L759 130 Z " />
<glyph glyph-name="uniF50A" unicode="&#xf50a;" horiz-adv-x="563" d="M350 -109 C350 -69 325 -45 277 -40 L277 -10 C422 -10 503 78 503 208 C503 304 447 370 353 397 C426 430 471 499 471 576 C471 680 404 760 267 760 C148 760 86 688 62 614 L62 589 L87 589 C109 676 173 730 266 730 C388 730 436 660 436 576 C436 477 367 408 268 408 L181 408 L181 378 L267 378 C394 378 468 311 468 209 C468 74 383 20 276 20 C175 20 85 78 71 176 L46 176 L46 151 C59 82 122 2 247 -9 L247 -63 C292 -63 320 -78 320 -109 C320 -140 293 -154 243 -154 L243 -184 L266 -184 C319 -177 350 -147 350 -109 L350 -109 Z " />
<glyph glyph-name="uniF50B" unicode="&#xf50b;" horiz-adv-x="463" d="M323 -112 C323 -72 298 -48 250 -43 L250 -10 C352 -4 412 50 412 131 C412 209 359 240 306 256 C367 281 391 318 391 372 C391 451 326 500 233 500 C134 500 74 451 53 379 L53 354 L78 354 C97 438 157 470 228 470 C303 470 358 433 358 360 C358 314 326 268 247 268 L159 268 L159 238 L237 238 C332 238 379 195 379 131 C379 63 327 20 234 20 C137 20 94 64 73 137 L48 137 L48 112 C61 66 98 -5 220 -10 L220 -66 C265 -66 293 -81 293 -112 C293 -143 266 -157 216 -157 L216 -187 L239 -187 C292 -180 323 -150 323 -112 L323 -112 Z " />
<glyph glyph-name="uniF50E" unicode="&#xf50e;" horiz-adv-x="621" d="M41 0 L137 253 L479 253 L575 0 L600 0 L600 30 L328 750 L293 750 L19 27 L19 0 L41 0 Z M467 282 L148 282 L308 709 L467 282 Z M191 866 L431 866 L431 901 L191 901 L191 866 Z " />
<glyph glyph-name="uniF50F" unicode="&#xf50f;" horiz-adv-x="501" d="M219 -10 C304 -10 364 38 392 119 L395 0 L421 0 L421 309 C421 434 360 500 245 500 C102 500 71 399 71 399 L71 374 L96 374 C96 374 115 470 244 470 C341 470 388 413 388 311 L388 267 C388 267 326 279 249 279 C103 279 45 218 45 136 C45 53 99 -10 219 -10 L219 -10 Z M220 19 C126 19 76 63 76 136 C76 195 114 250 248 250 C332 250 388 238 388 238 L388 204 C388 118 337 19 220 19 L220 19 Z M147 670 L357 670 L357 700 L147 700 L147 670 Z " />
<glyph glyph-name="uniF510" unicode="&#xf510;" horiz-adv-x="567" d="M109 0 L510 0 L510 30 L144 30 L144 376 L470 376 L470 406 L144 406 L144 720 L510 720 L510 750 L109 750 L109 0 Z M184 866 L424 866 L424 901 L184 901 L184 866 Z " />
<glyph glyph-name="uniF511" unicode="&#xf511;" horiz-adv-x="547" d="M286 -10 C419 -10 472 76 487 112 L487 137 L462 137 C444 73 379 20 286 20 C171 20 89 92 84 241 L497 241 C497 241 499 254 499 285 C499 404 419 500 283 500 C127 500 51 375 51 246 C51 85 141 -10 286 -10 L286 -10 Z M85 271 C96 397 173 470 283 470 C395 470 466 400 466 271 L85 271 Z M169 670 L379 670 L379 700 L169 700 L169 670 Z " />
<glyph glyph-name="uniF518" unicode="&#xf518;" horiz-adv-x="826" d="M413 -10 C636 -10 770 155 770 378 C770 598 636 760 413 760 C190 760 56 598 56 378 C56 155 190 -10 413 -10 L413 -10 Z M413 20 C213 20 91 174 91 378 C91 578 213 730 413 730 C613 730 735 578 735 378 C735 174 613 20 413 20 L413 20 Z M282 866 L522 866 L522 901 L282 901 L282 866 Z " />
<glyph glyph-name="uniF519" unicode="&#xf519;" horiz-adv-x="568" d="M284 -10 C423 -10 518 103 518 246 C518 389 423 500 284 500 C145 500 50 387 50 244 C50 101 145 -10 284 -10 L284 -10 Z M284 20 C153 20 83 132 83 244 C83 357 153 470 283 470 C415 470 485 358 485 246 C485 133 415 20 284 20 L284 20 Z M176 670 L386 670 L386 700 L176 700 L176 670 Z " />
<glyph glyph-name="uniF51A" unicode="&#xf51a;" horiz-adv-x="826" d="M413 -10 C636 -10 770 155 770 378 C770 598 636 760 413 760 C190 760 56 598 56 378 C56 155 190 -10 413 -10 L413 -10 Z M413 20 C213 20 91 174 91 378 C91 578 213 730 413 730 C613 730 735 578 735 378 C735 174 613 20 413 20 L413 20 Z M414 817 C541 817 552 919 552 919 L552 945 L522 945 C522 945 530 847 414 847 C302 847 306 945 306 945 L276 945 L276 919 C276 919 287 817 414 817 L414 817 Z " />
<glyph glyph-name="uniF51B" unicode="&#xf51b;" horiz-adv-x="568" d="M284 -10 C423 -10 518 103 518 246 C518 389 423 500 284 500 C145 500 50 387 50 244 C50 101 145 -10 284 -10 L284 -10 Z M284 20 C153 20 83 132 83 244 C83 357 153 470 283 470 C415 470 485 358 485 246 C485 133 415 20 284 20 L284 20 Z M284 589 C406 589 412 691 412 691 L412 717 L382 717 C382 717 395 619 284 619 C177 619 186 717 186 717 L156 717 L156 691 C156 691 162 589 284 589 L284 589 Z " />
<glyph glyph-name="uniF522" unicode="&#xf522;" horiz-adv-x="746" d="M343 -10 C570 -10 690 157 690 378 C690 602 569 760 344 760 C128 760 56 614 56 614 L56 589 L81 589 C81 589 143 730 344 730 C541 730 647 591 655 398 L231 398 L231 368 L655 368 C650 157 530 20 343 20 C143 20 76 166 76 166 L51 166 L51 141 C51 141 120 -10 343 -10 L343 -10 Z M223 866 L463 866 L463 901 L223 901 L223 866 Z " />
<glyph glyph-name="uniF523" unicode="&#xf523;" horiz-adv-x="527" d="M257 -10 C395 -10 475 101 475 244 C475 386 395 500 256 500 C101 500 50 379 50 379 L50 354 L75 354 C75 354 115 469 257 469 C379 469 435 370 441 265 L199 265 L199 235 L442 235 C439 126 383 20 256 20 C111 20 74 137 74 137 L49 137 L49 112 C49 112 97 -10 257 -10 L257 -10 Z M148 671 L358 671 L358 701 L148 701 L148 671 Z " />
<glyph glyph-name="uniF524" unicode="&#xf524;" horiz-adv-x="746" d="M343 -10 C570 -10 690 157 690 378 C690 602 569 760 344 760 C128 760 56 614 56 614 L56 589 L81 589 C81 589 143 730 344 730 C541 730 647 591 655 398 L231 398 L231 368 L655 368 C650 157 530 20 343 20 C143 20 76 166 76 166 L51 166 L51 141 C51 141 120 -10 343 -10 L343 -10 Z M339 817 C466 817 477 919 477 919 L477 945 L447 945 C447 945 455 847 339 847 C227 847 231 945 231 945 L201 945 L201 919 C201 919 212 817 339 817 L339 817 Z " />
<glyph glyph-name="uniF525" unicode="&#xf525;" horiz-adv-x="527" d="M257 -10 C395 -10 475 101 475 244 C475 386 395 500 256 500 C101 500 50 379 50 379 L50 354 L75 354 C75 354 115 469 257 469 C379 469 435 370 441 265 L199 265 L199 235 L442 235 C439 126 383 20 256 20 C111 20 74 137 74 137 L49 137 L49 112 C49 112 97 -10 257 -10 L257 -10 Z M252 606 C374 606 380 708 380 708 L380 734 L350 734 C350 734 363 636 252 636 C145 636 154 734 154 734 L124 734 L124 708 C124 708 130 606 252 606 L252 606 Z " />
<glyph glyph-name="uniF528" unicode="&#xf528;" horiz-adv-x="600" d="M456 324 L456 0 L491 0 L491 750 L330 750 C180 750 77 664 77 534 C77 436 132 353 265 327 L31 23 L31 0 L54 0 L303 324 L456 324 Z M329 354 C198 354 112 413 112 533 C112 649 198 720 327 720 L456 720 L456 354 L329 354 Z M191 866 L431 866 L431 901 L191 901 L191 866 Z " />
<glyph glyph-name="uniF529" unicode="&#xf529;" horiz-adv-x="482" d="M363 214 L363 0 L396 0 L396 490 L229 490 C121 490 59 423 59 349 C59 274 111 221 221 215 L33 22 L33 0 L55 0 L263 214 L363 214 Z M220 243 C144 243 92 281 92 349 C92 411 145 460 221 460 L363 460 L363 243 L220 243 Z M153 670 L363 670 L363 700 L153 700 L153 670 Z " />
<glyph glyph-name="uniF52C" unicode="&#xf52c;" horiz-adv-x="1018" d="M621 -10 C819 -10 963 165 963 378 C963 588 839 760 621 760 C402 760 292 584 282 398 L144 398 L144 750 L109 750 L109 0 L144 0 L144 368 L280 368 C286 172 397 -10 621 -10 L621 -10 Z M621 20 C447 20 314 154 314 378 C314 598 448 730 621 730 C796 730 928 598 928 378 C928 154 776 20 621 20 L621 20 Z M329 866 L569 866 L569 901 L329 901 L329 866 Z " />
<glyph glyph-name="uniF52D" unicode="&#xf52d;" horiz-adv-x="726" d="M450 -10 C599 -10 674 103 674 246 C674 389 599 500 450 500 C308 500 234 398 227 265 L119 265 L119 500 L86 500 L86 0 L119 0 L119 235 L226 235 C229 96 304 -10 450 -10 L450 -10 Z M450 20 C309 20 259 132 259 244 C259 357 309 470 449 470 C591 470 641 358 641 246 C641 133 591 20 450 20 L450 20 Z M241 670 L451 670 L451 700 L241 700 L241 670 Z " />
<glyph glyph-name="uniF536" unicode="&#xf536;" horiz-adv-x="818" d="M109 0 L280 0 C455 0 553 88 553 229 C553 370 441 445 280 445 L144 445 L144 750 L109 750 L109 0 Z M674 0 L709 0 L709 750 L674 750 L674 0 Z M144 30 L144 415 L279 415 C448 415 518 333 518 228 C518 106 444 30 279 30 L144 30 Z M424 817 C551 817 562 919 562 919 L562 945 L532 945 C532 945 540 847 424 847 C312 847 316 945 316 945 L286 945 L286 919 C286 919 297 817 424 817 L424 817 Z " />
<glyph glyph-name="uniF537" unicode="&#xf537;" horiz-adv-x="655" d="M86 0 L248 0 C373 0 434 59 434 154 C434 246 358 300 249 300 L119 300 L119 490 L86 490 L86 0 Z M536 0 L569 0 L569 490 L536 490 L536 0 Z M119 30 L119 270 L251 270 C340 270 401 229 401 154 C401 73 348 30 261 30 L119 30 Z M325 606 C447 606 453 708 453 708 L453 734 L423 734 C423 734 436 636 325 636 C218 636 227 734 227 734 L197 734 L197 708 C197 708 203 606 325 606 L325 606 Z " />
<glyph glyph-name="uniF53C" unicode="&#xf53c;" horiz-adv-x="514" d="M109 0 L144 0 L144 368 L470 368 L470 398 L144 398 L144 720 L500 720 L500 750 L109 750 L109 0 Z " />
<glyph glyph-name="uniF53D" unicode="&#xf53d;" horiz-adv-x="423" d="M333 248 L333 278 L119 278 L119 460 L389 460 L389 490 L86 490 L86 0 L119 0 L119 248 L333 248 Z " />
<glyph glyph-name="uniF53E" unicode="&#xf53e;" horiz-adv-x="736" d="M498 -109 C498 -69 473 -45 425 -40 L425 -10 C629 -4 695 141 695 141 L695 166 L670 166 C670 166 613 20 413 20 C222 20 91 170 91 378 C91 571 202 730 412 730 C613 730 665 589 665 589 L690 589 L690 614 C690 614 628 760 412 760 C186 760 56 602 56 378 C56 163 178 -1 395 -10 L395 -63 C440 -63 468 -78 468 -109 C468 -140 441 -154 391 -154 L391 -184 L414 -184 C467 -177 498 -147 498 -109 L498 -109 Z " />
<glyph glyph-name="uniF53F" unicode="&#xf53f;" horiz-adv-x="525" d="M369 -109 C369 -69 344 -45 296 -40 L296 -10 C440 -3 476 112 476 112 L476 137 L451 137 C451 137 429 20 284 20 C153 20 83 132 83 244 C83 357 153 469 283 469 C425 469 450 354 450 354 L475 354 L475 379 C475 379 439 500 284 500 C145 500 50 386 50 244 C50 107 137 -1 266 -9 L266 -63 C311 -63 339 -78 339 -109 C339 -140 312 -154 262 -154 L262 -184 L285 -184 C338 -177 369 -147 369 -109 L369 -109 Z " />
<glyph glyph-name="commaaccent" unicode="&#xf6c3;" horiz-adv-x="193" d="M75 -185 L100 -185 L118 -104 L118 -52 L75 -52 L75 -185 Z " />
<glyph glyph-name="cyrbreve" unicode="&#xf6d4;" horiz-adv-x="496" d="M248 589 C370 589 376 691 376 691 L376 717 L346 717 C346 717 359 619 248 619 C141 619 150 717 150 717 L120 717 L120 691 C120 691 126 589 248 589 L248 589 Z " />
<glyph glyph-name="f_f" unicode="&#xfb00;" horiz-adv-x="593" d="M139 0 L139 460 L389 460 L389 0 L422 0 L422 460 L583 460 L583 490 L422 490 L422 599 C422 700 479 730 533 730 C581 730 624 708 636 648 L661 648 L661 673 C649 721 605 760 533 760 C468 760 389 720 389 597 L389 490 L139 490 L139 575 C139 670 178 720 259 720 C290 720 309 715 326 710 L326 740 C307 749 273 750 260 750 C150 750 109 675 109 583 L109 490 L19 490 L19 460 L109 460 L109 0 L139 0 Z " />
<glyph glyph-name="fi" unicode="&#xfb01;" horiz-adv-x="511" d="M109 0 L142 0 L142 460 L303 460 L303 490 L142 490 L142 585 C142 686 202 730 276 730 C334 730 388 704 400 618 L425 618 L425 643 C413 718 358 760 276 760 C187 760 109 706 109 583 L109 490 L19 490 L19 460 L109 460 L109 0 Z M392 0 L425 0 L425 490 L392 490 L392 0 Z " />
<glyph glyph-name="fl" unicode="&#xfb02;" horiz-adv-x="511" d="M142 460 L303 460 L303 490 L142 490 L142 599 C142 700 220 730 284 730 C339 730 372 716 392 696 L392 0 L425 0 L425 713 C402 735 366 760 284 760 C209 760 109 720 109 597 L109 490 L19 490 L19 460 L109 460 L109 0 L142 0 L142 460 Z " />
<glyph glyph-name="f_f_i" unicode="&#xfb03;" horiz-adv-x="791" d="M139 0 L139 460 L389 460 L389 0 L422 0 L422 460 L583 460 L583 490 L422 490 L422 585 C422 686 482 730 556 730 C614 730 668 704 680 618 L705 618 L705 643 C693 718 638 760 556 760 C467 760 389 706 389 583 L389 490 L139 490 L139 575 C139 670 178 720 259 720 C290 720 309 715 326 710 L326 740 C307 749 273 750 260 750 C150 750 109 675 109 583 L109 490 L19 490 L19 460 L109 460 L109 0 L139 0 Z M672 0 L705 0 L705 490 L672 490 L672 0 Z " />
<glyph glyph-name="f_f_l" unicode="&#xfb04;" horiz-adv-x="791" d="M139 0 L139 460 L389 460 L389 0 L422 0 L422 460 L583 460 L583 490 L422 490 L422 599 C422 700 500 730 564 730 C619 730 652 716 672 696 L672 0 L705 0 L705 713 C682 735 646 760 564 760 C489 760 389 720 389 597 L389 490 L139 490 L139 575 C139 670 178 720 259 720 C290 720 309 715 326 710 L326 740 C307 749 273 750 260 750 C150 750 109 675 109 583 L109 490 L19 490 L19 460 L109 460 L109 0 L139 0 Z " />
<glyph glyph-name="u1F374" unicode="&#x1f374;" horiz-adv-x="1180" d="M639 0 L751 0 L728 332 L750 362 L734 686 L701 686 L646 610 L609 355 L662 332 L639 0 Z M439 0 L547 0 L524 398 L566 438 L566 680 L531 680 L531 522 L511 522 L511 680 L475 680 L475 521 L454 521 L454 680 L418 680 L418 437 L462 398 L439 0 Z " />
<glyph glyph-name="u1F3DB" unicode="&#x1f3db;" horiz-adv-x="1180" d="M298 138 L258 138 L258 93 L923 93 L923 138 L883 138 L883 183 L843 183 L843 228 L813 228 L813 463 L883 463 L883 508 L590 678 L298 508 L298 463 L368 463 L368 228 L338 228 L338 183 L298 183 L298 138 Z M468 228 L413 228 L413 463 L468 463 L468 228 Z M568 228 L513 228 L513 463 L568 463 L568 228 Z M668 228 L613 228 L613 463 L668 463 L668 228 Z M768 228 L713 228 L713 463 L768 463 L768 228 Z " />
<glyph glyph-name="u1F4B1" unicode="&#x1f4b1;" horiz-adv-x="1180" d="M227 190 L953 190 L953 510 L227 510 L227 190 Z M272 235 L272 465 L908 465 L908 235 L272 235 Z M390 268 C439 268 472 306 472 350 C472 395 439 433 390 433 C341 433 307 395 307 350 C307 306 341 268 390 268 L390 268 Z M591 268 C640 268 673 306 673 350 C673 395 641 433 591 433 C541 433 508 396 508 350 C508 305 542 268 591 268 L591 268 Z M791 267 C841 267 873 306 873 350 C873 394 841 433 791 433 C743 433 709 394 709 350 C709 306 743 267 791 267 L791 267 Z M585 288 L585 301 C571 302 562 309 559 316 L559 326 L569 326 C571 320 576 315 585 312 L585 347 C568 352 560 361 560 375 C560 389 569 399 585 402 L585 414 L597 414 L597 403 C610 401 617 394 621 388 L621 378 L610 378 C608 383 604 388 597 389 L597 358 C618 350 624 342 624 327 C624 313 613 303 597 301 L597 288 L585 288 Z M794 300 C769 300 753 314 747 334 L732 334 L738 347 L744 347 L744 355 L732 355 L738 369 L748 369 C754 388 770 402 794 402 C822 402 831 386 831 386 L831 377 L820 377 C820 377 816 390 795 390 C779 390 769 382 764 369 L816 369 L810 355 L760 355 L760 347 L805 347 L800 334 L763 334 C768 322 779 312 795 312 C816 312 821 326 821 326 L831 326 L831 317 C831 317 822 300 794 300 L794 300 Z M368 301 L368 317 L351 317 L351 329 L368 329 L368 337 L351 337 L351 349 L368 349 L368 400 L395 400 C416 400 429 388 429 370 C429 352 418 337 395 337 L383 337 L383 329 L414 329 L414 317 L383 317 L383 301 L368 301 Z M585 363 L585 389 C577 388 574 383 574 376 C574 369 577 366 585 363 L585 363 Z M383 349 L394 349 C407 349 415 357 415 369 C415 379 408 388 394 388 L383 388 L383 349 Z M597 312 C606 315 611 321 611 327 C611 335 606 339 597 342 L597 312 Z " />
<glyph glyph-name="u1F4B3" unicode="&#x1f4b3;" horiz-adv-x="1180" d="M277 140 L903 140 L903 560 L277 560 L277 140 Z M322 515 L858 515 L858 456 L322 456 L322 515 Z M322 185 L322 366 L858 366 L858 185 L322 185 Z M503 268 L503 228 L648 228 L648 268 L503 268 Z M356 268 L356 228 L461 228 L461 268 L356 268 Z " />
<glyph glyph-name="u1F4F1" unicode="&#x1f4f1;" horiz-adv-x="1180" d="M441 80 L739 80 L739 671 L441 671 L441 80 Z M541 601 L541 626 L639 626 L639 601 L541 601 Z M481 201 L481 558 L699 558 L699 201 L481 201 Z M590 110 C573 110 559 124 559 141 C559 157 574 171 590 171 C606 171 621 157 621 141 C621 124 607 110 590 110 L590 110 Z " />
<glyph glyph-name="u1F4F5" unicode="&#x1f4f5;" horiz-adv-x="1180" d="M590 877 C452 877 329 826 238 741 C136 645 75 505 75 360 C75 215 136 75 238 -21 C329 -106 452 -157 590 -157 C728 -157 851 -106 942 -21 C1044 75 1105 215 1105 360 C1105 505 1044 645 942 741 C851 826 728 877 590 877 L590 877 Z M739 670 L441 670 L441 559 L297 703 C377 770 482 807 590 807 C707 807 820 764 901 686 C983 607 1035 492 1035 360 C1035 246 996 144 932 68 L739 261 L739 670 Z M590 -87 C473 -87 360 -44 279 34 C197 113 145 228 145 360 C145 475 185 577 249 654 L884 18 C804 -50 699 -87 590 -87 L590 -87 Z M639 601 L541 601 L541 626 L639 626 L639 601 Z M481 558 L699 558 L699 301 L481 519 L481 558 Z M441 384 L441 80 L739 80 L739 86 L624 201 L481 201 L481 344 L441 384 Z M621 141 C621 124 607 110 590 110 C573 110 559 124 559 141 C559 157 574 171 590 171 C606 171 621 157 621 141 L621 141 Z " />
<glyph glyph-name="u1F4F7" unicode="&#x1f4f7;" horiz-adv-x="1180" d="M266 149 L914 149 L914 530 L562 530 L562 628 L357 628 L357 530 L266 530 L266 149 Z M695 553 L840 553 L840 598 L695 598 L695 553 Z M407 529 L407 586 L514 586 L514 529 L407 529 Z M596 199 C519 199 456 263 456 340 C456 417 519 480 596 480 C673 480 737 417 737 340 C737 262 674 199 596 199 L596 199 Z M596 229 C657 229 706 279 706 340 C706 400 656 450 596 450 C536 450 486 400 486 340 C486 280 536 229 596 229 L596 229 Z " />
</font>
</svg>
